<?xml version="1.0" encoding="UTF-8"?>
<svg version="1.1" xmlns="http://www.w3.org/2000/svg" width="932" height="979">
<path d="M0 0 C307.56 0 615.12 0 932 0 C932 323.07 932 646.14 932 979 C624.44 979 316.88 979 0 979 C0 655.93 0 332.86 0 0 Z " fill="#FEFEFE" transform="translate(0,0)"/>
<path d="M0 0 C0.96244629 0.00684814 1.92489258 0.01369629 2.91650391 0.02075195 C14.11824544 0.27120121 24.23387675 2.53774633 33.3125 9.4375 C33.3125 10.0975 33.3125 10.7575 33.3125 11.4375 C33.993125 11.64375 34.67375 11.85 35.375 12.0625 C41.10866871 14.74634493 45.71489347 19.2569466 49.3125 24.4375 C49.3125 25.0975 49.3125 25.7575 49.3125 26.4375 C49.9725 26.4375 50.6325 26.4375 51.3125 26.4375 C51.8075 28.4175 51.8075 28.4175 52.3125 30.4375 C52.9725 30.4375 53.6325 30.4375 54.3125 30.4375 C58.34190092 37.34702254 61.57295238 44.27581861 64.33203125 51.78515625 C65.23094937 54.3655209 65.23094937 54.3655209 66.3125 56.4375 C67.86740568 77.84931596 62.86754787 94.58815433 49.20703125 111.28125 C47.31381488 113.43600347 45.43369785 115.50514585 43.3125 117.4375 C42.6525 117.4375 41.9925 117.4375 41.3125 117.4375 C41.3125 118.0975 41.3125 118.7575 41.3125 119.4375 C31.97490012 126.83654903 21.65052723 131.09229023 10.3125 134.4375 C9.13171875 134.81390625 7.9509375 135.1903125 6.734375 135.578125 C0.43048741 137.09977961 -6.12003337 136.76574405 -12.5625 136.75 C-13.87347656 136.76611328 -15.18445313 136.78222656 -16.53515625 136.79882812 C-29.31068121 136.80523511 -38.46244561 134.23822698 -48.6875 126.4375 C-50.57931358 124.52438221 -52.08429836 122.60957964 -53.6875 120.4375 C-54.3475 120.1075 -55.0075 119.7775 -55.6875 119.4375 C-66.25628003 99.73603744 -70.34021458 79.58139495 -64.6875 57.4375 C-62.70301062 51.62804606 -60.27188865 46.00228426 -57.6875 40.4375 C-57.21183594 39.41140625 -56.73617187 38.3853125 -56.24609375 37.328125 C-47.17425467 20.50316028 -31.39101671 6.79458397 -13.11523438 1.01098633 C-8.75702718 -0.01852179 -4.4601735 -0.04889683 0 0 Z " fill="#DBDBDB" transform="translate(593.6875,716.5625)"/>
<path d="M0 0 C5.59718753 0.04146065 10.44427407 0.50727679 15 4 C11.36696856 12.69264591 0.1924531 17.77466296 -8.0625 21.3125 C-9.0215625 21.6528125 -9.0215625 21.6528125 -10 22 C-10 22.66 -10 23.32 -10 24 C-10.99966797 24.52787109 -10.99966797 24.52787109 -12.01953125 25.06640625 C-17.88679419 28.20928976 -23.54775945 31.5474909 -29.13671875 35.16015625 C-32.1305903 37.08391273 -35.1532918 38.95306538 -38.1875 40.8125 C-49.45588166 47.72840249 -60.65488995 54.74759068 -71.765625 61.9140625 C-83.24904154 69.32003404 -94.83459095 76.55305418 -106.57421875 83.546875 C-108.31250096 84.58816483 -110.04347798 85.64168745 -111.76953125 86.703125 C-112.67058594 87.25484375 -113.57164062 87.8065625 -114.5 88.375 C-115.3146875 88.87773438 -116.129375 89.38046875 -116.96875 89.8984375 C-119 91 -119 91 -121 91 C-121 91.66 -121 92.32 -121 93 C-124.465 93.99 -124.465 93.99 -128 95 C-123.96864562 81.80647657 -117.69972555 72.40883099 -107.7890625 62.78515625 C-105.66332888 60.66406397 -103.83277556 58.37582017 -102 56 C-100.375 54.1875 -100.375 54.1875 -99 53 C-98.34 53 -97.68 53 -97 53 C-96.773125 52.443125 -96.54625 51.88625 -96.3125 51.3125 C-93.88579746 47.03688123 -90.56749627 43.86083181 -86 42 C-86 41.34 -86 40.68 -86 40 C-76.81919542 35.0290696 -67.63766101 30.1131087 -58.0625 25.9375 C-57.40765625 25.65124756 -56.7528125 25.36499512 -56.078125 25.07006836 C-53.61188783 24.01640098 -51.23607814 23.05543378 -48.62109375 22.44140625 C-47.81865234 22.22291016 -47.81865234 22.22291016 -47 22 C-46.67 21.34 -46.34 20.68 -46 20 C-47.03125 20.33 -48.0625 20.66 -49.125 21 C-52.48426709 21.9715192 -55.49106202 22.17116771 -59 22 C-59.495 20.02 -59.495 20.02 -60 18 C-58.68 17.34 -57.36 16.68 -56 16 C-56 15.34 -56 14.68 -56 14 C-53.79425729 11.89759312 -51.26780937 10.17479887 -48.8125 8.375 C-48.13896484 7.859375 -47.46542969 7.34375 -46.77148438 6.8125 C-43.85038923 4.65801422 -41.74289793 3.13580944 -38.13671875 2.4765625 C-36 3 -36 3 -34 6 C-34.0234375 8.48046875 -34.0234375 8.48046875 -34.375 11.1875 C-34.48585938 12.08855469 -34.59671875 12.98960937 -34.7109375 13.91796875 C-34.80632812 14.60503906 -34.90171875 15.29210937 -35 16 C-33.70642578 15.38125 -33.70642578 15.38125 -32.38671875 14.75 C-24.04440642 10.79325447 -15.62174602 7.09631638 -7.0847168 3.578125 C-6.30652588 3.25585938 -5.52833496 2.93359375 -4.7265625 2.6015625 C-4.03127441 2.31619629 -3.33598633 2.03083008 -2.61962891 1.73681641 C-0.99515432 1.11209622 -0.99515432 1.11209622 0 0 Z " fill="#DADADA" transform="translate(657,516)"/>
<path d="M0 0 C0.825 0.474375 1.65 0.94875 2.5 1.4375 C1.19138205 5.36335386 -1.30008196 6.87319906 -4.5 9.25 C-5.38522339 9.91757324 -5.38522339 9.91757324 -6.28833008 10.59863281 C-13.24914802 15.80953504 -20.46009453 20.45607141 -27.93359375 24.89453125 C-31.39635821 26.97640638 -34.7952235 29.1518791 -38.19921875 31.328125 C-49.92981216 38.8245989 -61.69612239 46.24098432 -73.66748047 53.34765625 C-76.24050898 54.87789862 -78.80699584 56.4189487 -81.37329102 57.96044922 C-82.64800605 58.72595227 -83.92321975 59.49062567 -85.19897461 60.25439453 C-88.00573821 61.93508682 -90.80531681 63.6248535 -93.59375 65.3359375 C-94.4909375 65.88507813 -95.388125 66.43421875 -96.3125 67 C-97.08207031 67.47566406 -97.85164062 67.95132813 -98.64453125 68.44140625 C-100.5 69.4375 -100.5 69.4375 -102.5 69.4375 C-102.5 70.0975 -102.5 70.7575 -102.5 71.4375 C-103.30695312 71.82164062 -104.11390625 72.20578125 -104.9453125 72.6015625 C-109.24099854 74.75066525 -113.29135914 77.29005072 -117.375 79.8125 C-118.13941406 80.28171875 -118.90382813 80.7509375 -119.69140625 81.234375 C-124.25562252 84.03881585 -124.25562252 84.03881585 -128.78222656 86.90332031 C-129.49604492 87.36061523 -130.20986328 87.81791016 -130.9453125 88.2890625 C-131.58227051 88.70236816 -132.21922852 89.11567383 -132.87548828 89.54150391 C-134.5 90.4375 -134.5 90.4375 -136.5 90.4375 C-136.5 91.0975 -136.5 91.7575 -136.5 92.4375 C-137.985 92.9325 -137.985 92.9325 -139.5 93.4375 C-139.83 92.7775 -140.16 92.1175 -140.5 91.4375 C-139.609375 89.08203125 -139.609375 89.08203125 -138.25 86.25 C-137.78207031 85.25871094 -137.31414063 84.26742187 -136.83203125 83.24609375 C-136.39246094 82.31925781 -135.95289063 81.39242187 -135.5 80.4375 C-134.49515117 78.10625071 -133.49477753 75.77306463 -132.5 73.4375 C-129.1616839 65.60590535 -125.33980771 58.03199653 -121.5 50.4375 C-121.20738281 49.70273437 -120.91476562 48.96796875 -120.61328125 48.2109375 C-118.99702885 45.63627578 -116.99091053 44.76038475 -114.3125 43.375 C-113.32121094 42.86066406 -112.32992187 42.34632813 -111.30859375 41.81640625 C-108.08245511 40.2325023 -104.82839987 38.79351476 -101.5 37.4375 C-96.43973394 35.25301356 -91.47285886 32.97845966 -86.6171875 30.3671875 C-84.5 29.4375 -84.5 29.4375 -81.1875 28.515625 C-77.43883109 27.41961587 -74.14512431 25.99808291 -70.625 24.3125 C-69.66932129 23.85943481 -69.66932129 23.85943481 -68.69433594 23.3972168 C-65.9014218 22.07217331 -63.11525711 20.73322749 -60.32910156 19.39404297 C-52.72187951 15.74264403 -45.23881903 12.23332843 -37.24609375 9.49609375 C-33.84638907 8.18553903 -30.61919041 6.58654031 -27.375 4.9375 C-26.7771167 4.63513428 -26.1792334 4.33276855 -25.56323242 4.02124023 C-22.99637778 2.71883203 -20.43709829 1.40435419 -17.890625 0.0625 C-11.25490656 -3.23247743 -6.91345528 -3.08636396 0 0 Z " fill="#DADADA" transform="translate(776.5,845.5625)"/>
<path d="M0 0 C0.66 0 1.32 0 2 0 C2.20388916 7.22199923 2.34337344 14.44324906 2.43945312 21.66748047 C2.47952993 24.12153863 2.53400861 26.57540762 2.60351562 29.02880859 C2.70125982 32.56916077 2.7460866 36.10697595 2.78125 39.6484375 C2.82254028 40.73426117 2.86383057 41.82008484 2.90637207 42.93881226 C2.91079004 50.54515199 0.90496088 54.52844872 -4.08215332 60.24673462 C-6 62 -6 62 -8 62 C-8.33 62.99 -8.66 63.98 -9 65 C-9.66 65 -10.32 65 -11 65 C-11.24105469 65.54785156 -11.48210937 66.09570312 -11.73046875 66.66015625 C-13.29727196 69.54789508 -15.22161601 71.90384057 -17.3125 74.4375 C-18.07175781 75.36433594 -18.83101562 76.29117188 -19.61328125 77.24609375 C-22 80 -22 80 -24.5 82.484375 C-27.99210066 85.99830129 -30.95356357 89.87873551 -34.01171875 93.76953125 C-34.66785156 94.50558594 -35.32398438 95.24164062 -36 96 C-36.66 96 -37.32 96 -38 96 C-38.2371875 96.54140625 -38.474375 97.0828125 -38.71875 97.640625 C-40.34347757 100.63250137 -42.3501877 103.11159399 -44.5 105.75 C-45.2940625 106.73484375 -46.088125 107.7196875 -46.90625 108.734375 C-47.5971875 109.48203125 -48.288125 110.2296875 -49 111 C-49.66 111 -50.32 111 -51 111 C-51.268125 111.5775 -51.53625 112.155 -51.8125 112.75 C-53.02929189 115.05550043 -54.30333879 117.02056192 -56 119 C-56.66 119 -57.32 119 -58 119 C-58.25265625 119.57234375 -58.5053125 120.1446875 -58.765625 120.734375 C-60.1531274 123.28105662 -61.77838161 125.12554297 -63.75 127.25 C-67.04070685 130.85781133 -69.98017073 134.56376421 -72.7734375 138.56640625 C-73.17820312 139.03949219 -73.58296875 139.51257813 -74 140 C-74.66 140 -75.32 140 -76 140 C-76 140.66 -76 141.32 -76 142 C-79.14930893 143.04976964 -81.38814456 143.10131595 -84.6875 143.0625 C-85.68136719 143.05347656 -86.67523437 143.04445313 -87.69921875 143.03515625 C-88.83810547 143.01775391 -88.83810547 143.01775391 -90 143 C-88.75396215 135.65921181 -85.42688238 129.92804583 -81.66015625 123.56274414 C-80.62449398 121.81164442 -79.60415016 120.05230793 -78.5859375 118.29101562 C-75.63658202 113.24285699 -72.70301045 108.5316795 -69 104 C-68.36578125 103.01 -67.7315625 102.02 -67.078125 101 C-64.89876033 97.8538495 -62.60273734 95.54301157 -59.75 93 C-58.78578125 92.14019531 -57.8215625 91.28039062 -56.828125 90.39453125 C-53.87897809 87.89753256 -50.86298934 85.6028975 -47.65625 83.44921875 C-45.43151891 81.50257905 -44.26179595 79.67500741 -43 77 C-42.86109214 74.17352015 -42.86109214 74.17352015 -43.1875 71.25 C-43.36344339 64.40496426 -41.08201224 61.21590452 -37 56 C-31.86366298 48.5763654 -27.10560625 40.89844404 -22.29882812 33.25976562 C-18.86165557 27.82804333 -15.31570418 22.50385244 -11.59423828 17.26245117 C-9.96353569 14.94825195 -8.3818132 12.60616772 -6.8125 10.25 C-6.32910156 9.52425781 -5.84570312 8.79851563 -5.34765625 8.05078125 C-4.48879149 6.74381313 -3.64114162 5.42935635 -2.80859375 4.10546875 C-1.92010886 2.7055313 -0.96700368 1.34689798 0 0 Z " fill="#DBDBDB" transform="translate(687,563)"/>
<path d="M0 0 C2.14576637 -0.02685938 4.29162645 -0.04633088 6.4375 -0.0625 C7.63246094 -0.07410156 8.82742188 -0.08570313 10.05859375 -0.09765625 C13 0 13 0 14 1 C14.09619441 2.69558703 14.12187659 4.3952084 14.12025452 6.09352112 C14.12162918 7.19714996 14.12300385 8.30077881 14.12442017 9.43785095 C14.12082489 10.65920242 14.11722961 11.88055389 14.11352539 13.13891602 C14.11367142 14.41677979 14.11381744 15.69464355 14.1139679 17.01123047 C14.11425585 20.52553591 14.1083594 24.0398075 14.10139394 27.55410504 C14.09516012 31.22299356 14.09455658 34.89188277 14.09336853 38.56077576 C14.0902553 45.51290435 14.08204202 52.4650173 14.07201904 59.41713899 C14.06085766 67.3299478 14.05534739 75.24275734 14.05032361 83.15557206 C14.0398594 99.43705721 14.02226011 115.71852661 14 132 C9.75779418 131.29905707 8.11549414 130.55993457 5.375 127.1875 C4.52035156 126.15689453 4.52035156 126.15689453 3.6484375 125.10546875 C3.10445312 124.41066406 2.56046875 123.71585938 2 123 C1.43539062 122.29488281 0.87078125 121.58976563 0.2890625 120.86328125 C-1 119 -1 119 -1 117 C-1.66 117 -2.32 117 -3 117 C-4.30604787 114.69467364 -5.59452121 112.38198321 -6.875 110.0625 C-7.23980469 109.42248047 -7.60460937 108.78246094 -7.98046875 108.12304688 C-12.5549348 99.76424982 -13.34497912 91.73029942 -13.25 82.3125 C-13.24395752 81.34932861 -13.23791504 80.38615723 -13.23168945 79.39379883 C-13.00067599 62.66422351 -9.47191834 50.04823425 -1.15625 35.671875 C-0.79015625 35.03830078 -0.4240625 34.40472656 -0.046875 33.75195312 C0.86564597 32.22484248 1.84918421 30.74061664 2.84375 29.265625 C4.20145089 27.11267905 4.20145089 27.11267905 3.78515625 24.9296875 C3.52605469 24.29289063 3.26695312 23.65609375 3 23 C-0.13763195 15.22907736 -0.32111702 8.36093574 0 0 Z " fill="#DBDBDB" transform="translate(918,502)"/>
<path d="M0 0 C1.45291268 9.33268136 2.46516545 18.57281069 3.0625 28 C3.14556396 29.24442871 3.22862793 30.48885742 3.31420898 31.77099609 C3.89127617 40.63751702 4.34993842 49.5066882 4.65844727 58.38671875 C4.70569946 59.63775391 4.70569946 59.63775391 4.75390625 60.9140625 C4.77783447 61.6354541 4.8017627 62.3568457 4.82641602 63.10009766 C4.94740298 65.22320806 4.94740298 65.22320806 6 68 C6.12627568 69.85950262 6.20150183 71.72268574 6.24609375 73.5859375 C6.27896484 74.68164062 6.31183594 75.77734375 6.34570312 76.90625 C6.40669178 79.21084263 6.46400904 81.51553547 6.51757812 83.8203125 C6.56881836 85.46773437 6.56881836 85.46773437 6.62109375 87.1484375 C6.6461499 88.15052246 6.67120605 89.15260742 6.69702148 90.18505859 C7.01524995 93.14168569 7.68324269 95.34055684 9 98 C10.83914535 99.17502287 10.83914535 99.17502287 13 100 C14.55761666 101.0602724 16.0981446 102.14588958 17.625 103.25 C21.97555968 106.36401668 26.44642644 109.02447689 31.1640625 111.54296875 C31.76992188 112.02378906 32.37578125 112.50460937 33 113 C33 117.6110778 31.98022774 118.45906974 28.9921875 121.71875 C25.92835059 125.22714364 23.18951229 128.98296456 20.42822266 132.73217773 C19.33130055 134.19040628 18.1704449 135.60009738 17 137 C16.34 137 15.68 137 15 137 C13.39407531 135.11781984 11.90837816 133.23415044 10.4375 131.25 C10.00002441 130.66887451 9.56254883 130.08774902 9.11181641 129.48901367 C8.19722985 128.27301807 7.28516676 127.05512087 6.37548828 125.83544922 C5.04353803 124.05809707 3.69503027 122.2948309 2.33984375 120.53515625 C1.51802383 119.46109458 0.69640077 118.38688225 -0.125 117.3125 C-0.87007812 116.33925781 -1.61515625 115.36601563 -2.3828125 114.36328125 C-4 112 -4 112 -4 110 C-4.66 110 -5.32 110 -6 110 C-7.59548275 105.76007508 -8.25703858 102.22091042 -8.30859375 97.69921875 C-8.33187744 96.4354541 -8.35516113 95.17168945 -8.37915039 93.86962891 C-8.39294235 92.85222626 -8.39294235 92.85222626 -8.40701294 91.81427002 C-8.66582736 73.75943804 -9.79007979 55.76986945 -10.98413086 37.7565918 C-12.8016505 10.0994064 -12.8016505 10.0994064 -9.8125 6 C-8.884375 5.34 -7.95625 4.68 -7 4 C-6.113125 3.236875 -5.22625 2.47375 -4.3125 1.6875 C-2 0 -2 0 0 0 Z " fill="#DBDBDB" transform="translate(766,527)"/>
<path d="M0 0 C0.15266725 6.97399713 0.25743166 13.94756032 0.32958984 20.92285156 C0.35968354 23.29345809 0.40056904 25.66395399 0.45263672 28.03417969 C0.52577458 31.45014799 0.55953203 34.86463907 0.5859375 38.28125 C0.61690521 39.33364868 0.64787292 40.38604736 0.67977905 41.47033691 C0.68270693 47.9337916 -0.35768571 51.65467345 -4.51278687 56.6619873 C-6 58 -6 58 -8 58 C-8.226875 58.53625 -8.45375 59.0725 -8.6875 59.625 C-10.45570089 62.82460161 -12.53670203 65.29037223 -15 68 C-15.66 68 -16.32 68 -17 68 C-17.226875 68.53625 -17.45375 69.0725 -17.6875 69.625 C-20.56455384 74.83109742 -24.83019956 78.83019956 -29 83 C-29.48855469 83.86882812 -29.97710938 84.73765625 -30.48046875 85.6328125 C-33.9042226 88.84954867 -36.25558452 88.51808798 -40.81640625 88.43945312 C-41.78449219 88.39755859 -42.75257813 88.35566406 -43.75 88.3125 C-45.22533203 88.27866211 -45.22533203 88.27866211 -46.73046875 88.24414062 C-49.1551947 88.18528805 -51.57681983 88.10313431 -54 88 C-54 87.34 -54 86.68 -54 86 C-52.5390625 84.59765625 -52.5390625 84.59765625 -50.625 83.0625 C-48.16098476 81.08013383 -46.79533563 79.69300345 -45 77 C-44.80298077 74.73427882 -44.68794824 72.46089978 -44.625 70.1875 C-44.27672947 64.51649493 -43.79383421 61.39286066 -40 57 C-38.92233259 55.51085958 -37.86172007 54.00931889 -36.8125 52.5 C-35.89791016 51.19675781 -35.89791016 51.19675781 -34.96484375 49.8671875 C-32.08066106 45.65845968 -29.34297559 41.3584846 -26.59765625 37.05859375 C-23.5276629 32.25196511 -20.420543 27.46958154 -17.3125 22.6875 C-16.77802246 21.8639502 -16.24354492 21.04040039 -15.69287109 20.19189453 C-14.13282624 17.79178843 -12.56815366 15.39481535 -11 13 C-10.45625732 12.16944092 -9.91251465 11.33888184 -9.35229492 10.4831543 C-8.8235376 9.68176025 -8.29478027 8.88036621 -7.75 8.0546875 C-7.27691406 7.33651855 -6.80382812 6.61834961 -6.31640625 5.87841797 C-2.19677671 0 -2.19677671 0 0 0 Z " fill="#DADADA" transform="translate(796,891)"/>
<path d="M0 0 C0 0.66 0 1.32 0 2 C0.66 2 1.32 2 2 2 C3.91893764 4.48751176 4.98332643 6.1663213 5.046875 9.34375 C3.4217669 13.46715862 0.22919283 15.02716513 -3.4375 17.3125 C-4.13166016 17.76689453 -4.82582031 18.22128906 -5.54101562 18.68945312 C-10.68356438 22 -10.68356438 22 -13 22 C-13 22.66 -13 23.32 -13 24 C-15.23828125 25.48046875 -15.23828125 25.48046875 -18.3125 27.1875 C-38.43521291 38.01722259 -38.43521291 38.01722259 -53 55 C-53.66 55 -54.32 55 -55 55 C-55.309375 56.0209375 -55.309375 56.0209375 -55.625 57.0625 C-57.45408866 60.97009851 -60.10279034 63.83857939 -63 67 C-67.04553563 66.42886556 -69.3586316 64.32924621 -72.4375 61.75 C-73.82775391 60.59757813 -73.82775391 60.59757813 -75.24609375 59.421875 C-77.95809454 57.03685303 -80.56261804 54.6665752 -83 52 C-83.125 49.4375 -83.125 49.4375 -82 47 C-77.78378378 43 -77.78378378 43 -75 43 C-75 42.34 -75 41.68 -75 41 C-73.13671875 39.52734375 -73.13671875 39.52734375 -70.6875 37.9375 C-69.88699219 37.41027344 -69.08648438 36.88304687 -68.26171875 36.33984375 C-66 35 -66 35 -63 34 C-63 33.34 -63 32.68 -63 32 C-59.39664317 29.95690167 -55.79216257 27.91579358 -52.1875 25.875 C-51.18267578 25.30523438 -50.17785156 24.73546875 -49.14257812 24.1484375 C-44.14327922 21.31925227 -39.1325141 18.51817046 -34.08203125 15.78125 C-29.64752411 13.37388913 -25.35648082 10.80036935 -21.09375 8.1015625 C-19 7 -19 7 -16 7 C-16 6.34 -16 5.68 -16 5 C-11.05598191 1.14053924 -6.34247841 -2.33670257 0 0 Z " fill="#DADADA" transform="translate(926,772)"/>
<path d="M0 0 C2.9719385 1.12451727 5.33440687 2.22293791 8 4 C8 4.66 8 5.32 8 6 C8.68191406 6.21011719 9.36382813 6.42023437 10.06640625 6.63671875 C13.9452228 8.439258 16.76079657 10.98458425 19.9375 13.8125 C21.13379577 14.86104093 22.33040751 15.90922149 23.52734375 16.95703125 C24.10645508 17.4672583 24.68556641 17.97748535 25.28222656 18.50317383 C26.93403327 19.94251819 28.60639738 21.35164998 30.29296875 22.75 C32.68231879 24.73595328 34.92608601 26.68678824 37 29 C37 29.66 37 30.32 37 31 C37.66 31 38.32 31 39 31 C39 31.66 39 32.32 39 33 C39.66 33 40.32 33 41 33 C42.16478806 34.13052958 43.3227061 35.26898004 44.4453125 36.44140625 C46.22285038 38.22341031 48.09390719 39.8564445 50 41.5 C53.13737753 44.21277005 56.06689747 47.06689747 59 50 C59.763125 50.556875 60.52625 51.11375 61.3125 51.6875 C61.869375 52.120625 62.42625 52.55375 63 53 C63 53.66 63 54.32 63 55 C63.5775 55.2475 64.155 55.495 64.75 55.75 C67.3988272 57.22157066 69.10374141 58.62967676 71 61 C71.625 63.3125 71.625 63.3125 71 66 C69.3428766 68.77511418 67.55933759 71.01199518 65 73 C61.03413315 73.24280817 59.40017076 72.2696803 56.125 70.0625 C55.42375 69.381875 54.7225 68.70125 54 68 C54 67.34 54 66.68 54 66 C53.4225 65.731875 52.845 65.46375 52.25 65.1875 C49.94449957 63.97070811 47.97943808 62.69666121 46 61 C46 60.34 46 59.68 46 59 C45.14148438 58.62101563 45.14148438 58.62101563 44.265625 58.234375 C41.71894338 56.8468726 39.87445703 55.22161839 37.75 53.25 C34.14218867 49.95929315 30.43623579 47.01982927 26.43359375 44.2265625 C25.96050781 43.82179688 25.48742187 43.41703125 25 43 C25 42.34 25 41.68 25 41 C24.41089844 40.71769531 23.82179688 40.43539062 23.21484375 40.14453125 C21.20485031 39.10585739 19.42683506 37.96222353 17.5625 36.6875 C9.76704225 31.76634511 0.75631043 28.95913712 -8.171875 26.87109375 C-10 26 -10 26 -10.96484375 24.33203125 C-11.01748996 20.83983294 -9.43362959 18.24242345 -7.8125 15.25 C-7.32801392 14.3216333 -7.32801392 14.3216333 -6.83374023 13.37451172 C-5.89659026 11.5791099 -4.9485143 9.78942404 -4 8 C-3.18186257 6.37783096 -2.36798821 4.75348703 -1.5625 3.125 C-1.046875 2.09375 -0.53125 1.0625 0 0 Z " fill="#DADADA" transform="translate(831,688)"/>
<path d="M0 0 C2.92693253 1.08714637 4.89758234 2.71340881 7.1875 4.8125 C7.1875 5.4725 7.1875 6.1325 7.1875 6.8125 C7.8475 6.8125 8.5075 6.8125 9.1875 6.8125 C13.95494186 11.11482558 13.95494186 11.11482558 15.1875 14.8125 C16.1775 15.1425 17.1675 15.4725 18.1875 15.8125 C18.1875 16.4725 18.1875 17.1325 18.1875 17.8125 C18.8475 17.8125 19.5075 17.8125 20.1875 17.8125 C20.8475 19.4625 21.5075 21.1125 22.1875 22.8125 C19.42299979 24.48984723 16.64993144 26.15247634 13.875 27.8125 C13.08931641 28.28945313 12.30363281 28.76640625 11.49414062 29.2578125 C10.73681641 29.70898438 9.97949219 30.16015625 9.19921875 30.625 C8.15447388 31.25341797 8.15447388 31.25341797 7.08862305 31.89453125 C5.1875 32.8125 5.1875 32.8125 2.1875 32.8125 C2.1875 33.4725 2.1875 34.1325 2.1875 34.8125 C-4.74625834 38.10983533 -11.7277178 41.29074571 -18.8125 44.25 C-19.43455322 44.52086426 -20.05660645 44.79172852 -20.69750977 45.07080078 C-24.43099946 46.59898795 -26.99729535 47.33459384 -30.8125 45.8125 C-33.73038285 42.79594479 -35.77678213 39.34836849 -35.875 35.125 C-33.53685923 30.03610538 -29.75685667 26.80247 -25.546875 23.28515625 C-22.30378272 20.53144952 -19.42888284 17.60224052 -16.8125 14.25 C-14.8125 11.8125 -14.8125 11.8125 -12.4375 9.9375 C-9.59331769 7.6350667 -7.44202666 5.13173205 -5.14453125 2.30078125 C-3.47367468 0.43392978 -2.53451359 -0.26219106 0 0 Z " fill="#DADADA" transform="translate(687.8125,812.1875)"/>
<path d="M0 0 C0.47050781 0.40992188 0.94101562 0.81984375 1.42578125 1.2421875 C2.35970703 2.05042969 2.35970703 2.05042969 3.3125 2.875 C3.92738281 3.40867187 4.54226563 3.94234375 5.17578125 4.4921875 C7.13498212 6.1640447 7.13498212 6.1640447 10 8 C10 8.66 10 9.32 10 10 C10.5775 10.268125 11.155 10.53625 11.75 10.8125 C14.05550043 12.02929189 16.02056192 13.30333879 18 15 C18 15.66 18 16.32 18 17 C18.5775 17.268125 19.155 17.53625 19.75 17.8125 C22.05550043 19.02929189 24.02056192 20.30333879 26 22 C26 22.66 26 23.32 26 24 C26.66 24 27.32 24 28 24 C29.68816933 25.64488294 31.35353315 27.31337542 33 29 C33.99 29.66 34.98 30.32 36 31 C36 31.66 36 32.32 36 33 C36.5775 33.2475 37.155 33.495 37.75 33.75 C40.41076851 35.22820473 42.13556544 36.58314039 44 39 C44.09545655 42.72280552 43.07443137 43.91793464 40.5625 46.6875 C39.716875 47.450625 38.87125 48.21375 38 49 C37.34 49.66 36.68 50.32 36 51 C33.875 50.625 33.875 50.625 32 50 C32 49.34 32 48.68 32 48 C30.35 47.34 28.7 46.68 27 46 C27 45.34 27 44.68 27 44 C26.46375 43.773125 25.9275 43.54625 25.375 43.3125 C22.24304744 41.58168411 19.72029283 39.31514283 17 37 C16.01 36.34 15.02 35.68 14 35 C14 34.34 14 33.68 14 33 C13.43539062 32.75378906 12.87078125 32.50757813 12.2890625 32.25390625 C9.60920728 30.78593095 7.62041197 29.0064331 5.375 26.9375 C2.41210833 24.14219542 2.41210833 24.14219542 -1 22 C-1 21.34 -1 20.68 -1 20 C-1.598125 19.731875 -2.19625 19.46375 -2.8125 19.1875 C-5.07573361 17.95888747 -6.51540577 17.10968654 -8 15 C-7.61757792 10.71981438 -5.9467446 8.10919719 -3.4375 4.6875 C-2.79683594 3.80449219 -2.15617187 2.92148437 -1.49609375 2.01171875 C-0.75552734 1.01591797 -0.75552734 1.01591797 0 0 Z " fill="#DBDBDB" transform="translate(504,637)"/>
<path d="M0 0 C4.09848055 0.30359115 6.68770642 1.48009908 10.375 3.25 C10.21315816 9.72367357 6.55827563 12.80206815 2.375 17.25 C0.78227531 19.1562248 -0.79429142 21.07422618 -2.36328125 23 C-3.625 24.25 -3.625 24.25 -5.625 24.25 C-5.8828125 24.83652344 -6.140625 25.42304687 -6.40625 26.02734375 C-7.72006472 28.42337123 -9.1468401 29.93911552 -11.125 31.8125 C-13.34596733 33.92524223 -14.90242417 35.66613626 -16.625 38.25 C-17.285 38.25 -17.945 38.25 -18.625 38.25 C-18.955 39.24 -19.285 40.23 -19.625 41.25 C-23.40972282 37.80130397 -26.07787906 33.86946841 -28.875 29.625 C-29.33390625 28.944375 -29.7928125 28.26375 -30.265625 27.5625 C-33.625 22.50344122 -33.625 22.50344122 -33.625 20.25 C-34.285 20.25 -34.945 20.25 -35.625 20.25 C-35.5 18.5 -35.5 18.5 -34.625 16.25 C-25.91704245 9.9028665 -15.81758403 5.39495522 -5.63671875 1.9765625 C-0.22270515 0.02121001 -0.22270515 0.02121001 0 0 Z " fill="#DBDBDB" transform="translate(595.625,898.75)"/>
<path d="M0 0 C4.33320379 0.88759458 7.36577692 3.17209939 10.875 5.75 C11.77412109 6.39582031 11.77412109 6.39582031 12.69140625 7.0546875 C16.59740962 9.88463354 20.41168603 12.77380946 24 16 C24 16.66 24 17.32 24 18 C24.66 18 25.32 18 26 18 C27.68997323 19.64302953 29.35216394 21.31471312 31 23 C32.09504787 23.9069573 33.19913485 24.80312484 34.3125 25.6875 C35.199375 26.450625 36.08625 27.21375 37 28 C37 28.66 37 29.32 37 30 C37.99 30.33 38.98 30.66 40 31 C40 31.33 40 31.66 40 32 C35.91079921 32.10001808 31.82208689 32.17200015 27.73193359 32.21972656 C26.34508844 32.23965342 24.95832518 32.2668056 23.57177734 32.30175781 C14.84350859 32.51602578 7.92589369 31.84470685 0 28 C-2.67773101 27.16425374 -5.35604998 26.42975273 -8.06640625 25.7109375 C-10 25 -10 25 -11 23 C-10.01828414 20.18831832 -8.96995335 17.48830912 -7.8125 14.75 C-7.50763672 13.99847656 -7.20277344 13.24695313 -6.88867188 12.47265625 C-4.99966852 7.93429599 -2.8678574 3.99338015 0 0 Z " fill="#DADADA" transform="translate(807,947)"/>
<path d="M0 0 C7.185991 -0.34219005 13.70037569 0.5204515 20.72460938 1.86254883 C25.55665739 2.77962318 30.2921555 3.39110074 35.21484375 3.59375 C37 4 37 4 39 7 C39.52344267 12.44380382 38.58721153 16.19517858 36 21 C32.32269461 24.90654001 27.36778542 25.00975844 22.3125 25.6875 C21.45205078 25.81705078 20.59160156 25.94660156 19.70507812 26.08007812 C14.08467413 26.88057274 8.67521268 27.12074921 3 27 C2.86722656 26.08476563 2.73445312 25.16953125 2.59765625 24.2265625 C2.42105469 23.03804687 2.24445312 21.84953125 2.0625 20.625 C1.88847656 19.44164062 1.71445312 18.25828125 1.53515625 17.0390625 C1.16537214 14.09297619 1.16537214 14.09297619 0 12 C-0.07065617 9.95944995 -0.08421976 7.91665743 -0.0625 5.875 C-0.05347656 4.77929688 -0.04445313 3.68359375 -0.03515625 2.5546875 C-0.02355469 1.71164062 -0.01195312 0.86859375 0 0 Z " fill="#DBDBDB" transform="translate(878,903)"/>
<path d="M0 0 C8.42176038 0.06169788 16.90980815 1.43573328 25.25 2.5 C26.28656738 2.63051758 27.32313477 2.76103516 28.39111328 2.89550781 C29.84493408 3.0864502 29.84493408 3.0864502 31.328125 3.28125 C32.64151855 3.45237305 32.64151855 3.45237305 33.98144531 3.62695312 C36 4 36 4 37 5 C37.20511024 7.26500305 37.31412476 9.53904377 37.375 11.8125 C37.42398438 13.05644531 37.47296875 14.30039062 37.5234375 15.58203125 C37 19 37 19 34.96875 21.34765625 C31.43065104 23.31688765 28.07824759 24.04863867 24.125 24.625 C22.75206865 24.843008 21.37966092 25.06434066 20.0078125 25.2890625 C18.99895996 25.45003418 18.99895996 25.45003418 17.96972656 25.61425781 C15.70502794 26.01769562 15.70502794 26.01769562 12.4296875 27.1484375 C8.5806364 28.10412445 5.8561867 27.78697688 2 27 C-1.54452374 8.6233323 -1.54452374 8.6233323 -1 1 C-0.67 0.67 -0.34 0.34 0 0 Z " fill="#DADADA" transform="translate(817,448)"/>
<path d="M0 0 C12.21123607 0.23871589 25.3236049 1.39915041 37 5 C37.08160748 6.89510699 37.13946459 8.79124504 37.1875 10.6875 C37.23970703 12.27111328 37.23970703 12.27111328 37.29296875 13.88671875 C36.94746328 17.5582902 36.4396568 19.22217295 34 22 C31.30942197 23.02555665 29.03631835 23.69489986 26.25 24.25 C25.50371338 24.41274414 24.75742676 24.57548828 23.98852539 24.74316406 C16.69584687 26.24280913 9.43413846 26.78357676 2 27 C-0.60519892 18.33718408 -1.28635944 10.02032223 -1 1 C-0.67 0.67 -0.34 0.34 0 0 Z " fill="#DADADA" transform="translate(693,734)"/>
<path d="M0 0 C-0.66 1.98 -1.32 3.96 -2 6 C0.31 5.34 2.62 4.68 5 4 C5 3.34 5 2.68 5 2 C7.475 2.495 7.475 2.495 10 3 C10.67885987 5.49723452 11.34317427 7.99696141 12 10.5 C12.19078125 11.19609375 12.3815625 11.8921875 12.578125 12.609375 C13.85677012 17.5412919 14.18357474 21.90580091 14 27 C9.02328817 27.17364302 4.92859378 26.65604998 0.1484375 25.28515625 C-1.11484375 24.92873047 -2.378125 24.57230469 -3.6796875 24.20507812 C-4.99490407 23.8246071 -6.31000733 23.44374418 -7.625 23.0625 C-10.22046979 22.32107352 -12.81727717 21.58447417 -15.4140625 20.84765625 C-16.5582666 20.51773682 -17.7024707 20.18781738 -18.88134766 19.84790039 C-21.57932071 19.11437444 -24.25168479 18.50603185 -27 18 C-27.17602338 12.89532194 -27.24526856 8.71506397 -25 4 C-21.31529321 1.4783951 -16.81186918 1.05554707 -12.5 0.3125 C-11.74074219 0.17005859 -10.98148438 0.02761719 -10.19921875 -0.11914062 C-6.4656753 -0.77627043 -3.62523143 -1.09777423 0 0 Z " fill="#DCDCDC" transform="translate(824,649)"/>
<path d="M0 0 C3.29638313 1.18233907 5.00765314 3.3060575 7.36328125 5.84765625 C8.35328125 6.50765625 9.34328125 7.16765625 10.36328125 7.84765625 C10.36328125 8.50765625 10.36328125 9.16765625 10.36328125 9.84765625 C11.14703125 10.13640625 11.93078125 10.42515625 12.73828125 10.72265625 C15.36328125 11.84765625 15.36328125 11.84765625 17.36328125 13.84765625 C17.17578125 15.84765625 17.17578125 15.84765625 16.36328125 17.84765625 C15.37328125 18.50765625 14.38328125 19.16765625 13.36328125 19.84765625 C15.38151042 20.30338542 17.39973958 20.75911458 19.41796875 21.21484375 C21.36328125 21.84765625 21.36328125 21.84765625 23.36328125 23.84765625 C23.23461799 29.41234225 20.75348236 32.50116324 17.36328125 36.59765625 C14.05788638 40.51918313 14.05788638 40.51918313 11.36328125 44.84765625 C10.70328125 44.84765625 10.04328125 44.84765625 9.36328125 44.84765625 C8.08017275 42.98022134 6.88847006 41.04976953 5.73828125 39.09765625 C5.02277862 37.89987749 4.30528076 36.70328866 3.5859375 35.5078125 C3.21871582 34.89695801 2.85149414 34.28610352 2.47314453 33.65673828 C0.7814846 30.89932514 -1.01813115 28.21858431 -2.82421875 25.53515625 C-3.47777344 24.55804687 -4.13132812 23.5809375 -4.8046875 22.57421875 C-5.94550752 20.8763672 -7.0928168 19.18283536 -8.25 17.49609375 C-8.93642578 16.46355469 -8.93642578 16.46355469 -9.63671875 15.41015625 C-10.02859375 14.83394531 -10.42046875 14.25773438 -10.82421875 13.6640625 C-11.94288179 11.16320523 -12.05288117 9.55901746 -11.63671875 6.84765625 C-9.84375 4.79296875 -9.84375 4.79296875 -7.44921875 2.97265625 C-6.67191406 2.35648438 -5.89460937 1.7403125 -5.09375 1.10546875 C-2.63671875 -0.15234375 -2.63671875 -0.15234375 0 0 Z " fill="#DADADA" transform="translate(793.63671875,589.15234375)"/>
<path d="M0 0 C3.50637196 3.14794282 5.66601301 6.64736055 7.875 10.75 C10.5236591 15.53848383 13.31187836 19.94865527 16.6796875 24.2734375 C19.67686857 28.19282813 21.7328434 31.70874311 22.75 36.625 C21.89922028 40.45350873 21.42958403 40.84569503 18.3125 42.9375 C15.09023455 44.65074677 12.67153611 45.89307635 9 45 C6.6324266 43.36524694 4.6383302 41.66224459 2.64453125 39.59375 C0.65048086 37.66127361 -1.48575258 36.00369729 -3.6875 34.3125 C-4.49574219 33.68988281 -5.30398438 33.06726563 -6.13671875 32.42578125 C-6.75160156 31.95527344 -7.36648438 31.48476563 -8 31 C-7 28 -7 28 -4 26 C-5.134375 25.5875 -6.26875 25.175 -7.4375 24.75 C-11 23 -11 23 -11.86474609 21.15893555 C-12.04301656 18.3133657 -11.24288354 17.10428539 -9.7265625 14.70703125 C-9.2315625 13.91232422 -8.7365625 13.11761719 -8.2265625 12.29882812 C-7.69804688 11.47833984 -7.16953125 10.65785156 -6.625 9.8125 C-5.84382812 8.56436523 -5.84382812 8.56436523 -5.046875 7.29101562 C-1.2392342 1.2392342 -1.2392342 1.2392342 0 0 Z " fill="#DCDCDC" transform="translate(843,585)"/>
<path d="M0 0 C2.91280837 1.30574169 4.80294493 2.7074208 7 5 C7.99 5.66 8.98 6.32 10 7 C10 7.66 10 8.32 10 9 C10.59240479 9.27473145 11.18480957 9.54946289 11.79516602 9.83251953 C13.90507388 10.94973572 15.48680246 12.1137409 17.27734375 13.6796875 C17.87353516 14.19660156 18.46972656 14.71351563 19.08398438 15.24609375 C20.00147461 16.05240234 20.00147461 16.05240234 20.9375 16.875 C22.1542861 17.93565554 23.37172235 18.99556576 24.58984375 20.0546875 C25.45585205 20.81217285 25.45585205 20.81217285 26.33935547 21.58496094 C27.83324104 22.8579043 29.38451688 24.06275001 30.94140625 25.2578125 C31.62074219 25.83273437 32.30007813 26.40765625 33 27 C33 27.66 33 28.32 33 29 C33.639375 29.268125 34.27875 29.53625 34.9375 29.8125 C37 31 37 31 38 34 C38.66 34 39.32 34 40 34 C41.7081875 36.97076087 42.25188983 39.08148549 42.1875 42.5 C42.18105469 43.2528125 42.17460938 44.005625 42.16796875 44.78125 C42.00303563 46.95990143 41.59600906 48.90204811 41 51 C36.11422894 49.51342031 33.25528249 46.72252232 29.6875 43.25 C25.99051302 39.72781022 22.34507999 36.35954849 18.1875 33.375 C17.135625 32.59125 16.08375 31.8075 15 31 C15 30.34 15 29.68 15 29 C14.34 29 13.68 29 13 29 C11.31164415 27.35530852 9.64890618 25.68423988 8 24 C5.14417902 21.61624779 2.23925759 19.3039549 -0.671875 16.98828125 C-3.40942496 14.65034009 -3.9007068 13.85392155 -4.3125 10.3125 C-3.90208292 5.96207892 -2.34270011 3.66046892 0 0 Z " fill="#DBDBDB" transform="translate(473,693)"/>
<path d="M0 0 C7.60816474 1.46019593 15.15073345 3.14689777 22.6875 4.9375 C23.77611328 5.18951172 24.86472656 5.44152344 25.98632812 5.70117188 C31.60356696 7.0363332 36.78869051 8.50244824 42 11 C42.0772418 15.55726628 41.99296412 19.53557076 41 24 C38.16793882 24.50831867 35.33470266 25.00681505 32.5 25.5 C31.70851563 25.64308594 30.91703125 25.78617188 30.1015625 25.93359375 C24.9876082 26.81386457 20.18887598 27.1428131 15 27 C15.99 23.535 15.99 23.535 17 20 C15.4221875 20.99 15.4221875 20.99 13.8125 22 C10.73376063 23.7771585 8.61403672 24.43806506 5 24 C1.22645063 16.45290126 -0.07515726 8.40523453 0 0 Z " fill="#DADADA" transform="translate(881,864)"/>
<path d="M0 0 C2.3625258 0.50142149 4.66854124 1.06554114 7 1.6875 C8.45667953 2.06645872 9.91372424 2.44401595 11.37109375 2.8203125 C12.13019043 3.01657227 12.88928711 3.21283203 13.67138672 3.41503906 C15.97395915 3.99345839 18.28185559 4.53194009 20.59765625 5.0546875 C21.34466797 5.22395752 22.09167969 5.39322754 22.86132812 5.56762695 C24.28991506 5.88880549 25.71955953 6.20532901 27.15039062 6.51635742 C32.48980031 7.72862136 38.04247712 9.04247712 42 13 C42.54449142 17.79152445 41.96820975 21.15878739 39 25 C31.55793437 28.07789134 21.94474849 27.59746608 14 28 C15.875 22.25 15.875 22.25 17 20 C16.48050781 20.37253906 15.96101562 20.74507812 15.42578125 21.12890625 C9.67688615 25.02880367 9.67688615 25.02880367 6.0625 24.875 C4 24 4 24 3 23 C1.19540243 15.78160973 -0.23962945 8.40534798 -1 1 C-0.67 0.67 -0.34 0.34 0 0 Z " fill="#D9D9D9" transform="translate(695,694)"/>
<path d="M0 0 C11.52755902 1.90042188 23.06263295 4.78017626 31 14 C31.57610252 19.47297398 29.07203493 23.61137867 26 28 C23.13756188 29.0643368 20.408312 29.12848978 17.375 29.1328125 C16.06789063 29.13474609 16.06789063 29.13474609 14.734375 29.13671875 C13.83203125 29.13285156 12.9296875 29.12898437 12 29.125 C11.09765625 29.12886719 10.1953125 29.13273438 9.265625 29.13671875 C8.39421875 29.13542969 7.5228125 29.13414062 6.625 29.1328125 C5.83351563 29.13168457 5.04203125 29.13055664 4.2265625 29.12939453 C2.02998126 29.00174233 0.11011287 28.60641657 -2 28 C-2.36799953 18.53423442 -1.22914592 9.36126309 0 0 Z " fill="#DBDBDB" transform="translate(619,561)"/>
<path d="M0 0 C10.86860822 0.71269562 19.84267944 3.74908238 28.2109375 10.921875 C30 13 30 13 30.375 16.5625 C29 20 29 20 25 27 C15.43 27 5.86 27 -4 27 C-4 21.73852038 -3.77461439 16.97548001 -3.125 11.8125 C-3.04636719 11.11447266 -2.96773437 10.41644531 -2.88671875 9.69726562 C-2.44215822 6.1031647 -1.9114844 3.10817001 0 0 Z " fill="#DADADA" transform="translate(727,890)"/>
<path d="M0 0 C7.67710061 -0.74294522 16.38028608 3.38441328 23 7 C24.02235171 7.97713714 25.02461284 8.97597857 26 10 C27.64605826 11.03357147 29.30963442 12.04060332 31 13 C30.35753223 17.97912521 28.39982029 22.616932 26 27 C23.23382437 28.38308781 20.98982 28.11210196 17.8984375 28.09765625 C16.68671875 28.09443359 15.475 28.09121094 14.2265625 28.08789062 C12.95554687 28.07951172 11.68453125 28.07113281 10.375 28.0625 C9.09625 28.05798828 7.8175 28.05347656 6.5 28.04882812 C3.33328708 28.03701203 0.16666644 28.02053815 -3 28 C-2.93361328 27.28642334 -2.86722656 26.57284668 -2.79882812 25.83764648 C-2.21593805 19.5114809 -1.7125379 13.1860481 -1.28125 6.84765625 C-1.04464943 4.4520755 -0.66670438 2.30568597 0 0 Z " fill="#DBDBDB" transform="translate(448,860)"/>
<path d="M0 0 C8.28830245 2.17398097 19.62018873 5.50274265 25.0625 12.5 C25.75175405 16.46321077 25.22821277 18.19224771 23.3125 21.75 C21.24797572 24.27330745 20.0759177 25.42377939 17.0625 26.5 C17.0625 27.16 17.0625 27.82 17.0625 28.5 C11.50354729 28.6193869 6.14206402 28.15795767 0.625 27.5 C-0.61540039 27.35691406 -0.61540039 27.35691406 -1.88085938 27.2109375 C-3.90015139 26.97749334 -5.91888682 26.73924304 -7.9375 26.5 C-8.03519105 20.67686184 -7.92703284 14.87965251 -7.625 9.0625 C-7.56699219 7.88816406 -7.50898437 6.71382812 -7.44921875 5.50390625 C-6.9375 2.5 -6.9375 2.5 -5.640625 0.55859375 C-3.9375 -0.5 -3.9375 -0.5 0 0 Z " fill="#DBDBDB" transform="translate(755.9375,699.5)"/>
<path d="M0 0 C10.07127327 0.68667772 19.99549791 4.62571992 29 9 C26.63888889 24.36111111 26.63888889 24.36111111 23 28 C16.90154922 28.32205302 11.54261869 27.47122471 5.625 26.0625 C4.81933594 25.88009766 4.01367188 25.69769531 3.18359375 25.50976562 C-2.68269604 24.15865198 -2.68269604 24.15865198 -5 23 C-3.93032787 3.93032787 -3.93032787 3.93032787 0 0 Z " fill="#DBDBDB" transform="translate(714,774)"/>
<path d="M0 0 C9.00558577 1.16658314 22.55951318 3.99947084 29 11 C29.35148589 14.85971301 28.59755598 17.63509306 27.125 21.1875 C26.77695312 22.04730469 26.42890625 22.90710938 26.0703125 23.79296875 C25 26 25 26 23 28 C14.25022691 28.27798069 5.36971831 26.42142794 -3 24 C-4 23 -4 23 -4.3125 19.875 C-4.27525043 13.09557804 -1.88464358 6.46163514 0 0 Z " fill="#DBDBDB" transform="translate(900,943)"/>
<path d="M0 0 C4.51479205 1.52800155 8.92582381 3.25947947 13.3125 5.12109375 C12.66333537 11.12586654 10.45454997 16.52187475 8.3125 22.12109375 C-1.94570363 22.44848323 -12.02193777 21.87992351 -21.6875 18.12109375 C-21.22663252 10.95339156 -20.62025329 4.05626732 -18.6875 -2.87890625 C-13.3355022 -5.55490515 -5.27768885 -1.66760307 0 0 Z " fill="#DBDBDB" transform="translate(854.6875,492.87890625)"/>
<path d="M0 0 C9.01895852 -0.45346719 21.84991811 -0.81089527 29.43359375 4.80078125 C31.3464103 7.4863566 31.42738429 8.69352874 31.0625 11.9375 C30.99160156 12.77152344 30.92070313 13.60554688 30.84765625 14.46484375 C29.58931935 18.22825686 28.2409157 19.66202599 25 22 C21.25045183 22.88061219 17.5264134 23.10864215 13.6875 23.3125 C12.66076172 23.38533203 11.63402344 23.45816406 10.57617188 23.53320312 C8.05141131 23.70934921 5.52719894 23.86421116 3 24 C1.24376685 18.62421315 0.60683126 13.69889745 0.375 8.0625 C0.33632813 7.28326172 0.29765625 6.50402344 0.2578125 5.70117188 C0.16455873 3.80112621 0.08124038 1.90059722 0 0 Z " fill="#DCDCDC" transform="translate(865,455)"/>
<path d="M0 0 C8.23284955 -0.31619764 15.4087957 -0.42226424 23 3 C24.155 3.515625 25.31 4.03125 26.5 4.5625 C29 6 29 6 30 8 C30.01953125 10.2421875 30.01953125 10.2421875 29.8125 12.875 C29.75707031 13.73867188 29.70164062 14.60234375 29.64453125 15.4921875 C28.79785607 18.78652364 27.74261742 19.99752603 25 22 C21.87109375 22.57421875 21.87109375 22.57421875 18.4375 22.6875 C13.63417161 22.86430011 13.63417161 22.86430011 9 24 C6.66700175 24.03954234 4.33291811 24.04401732 2 24 C-0.25943749 15.95075394 -0.19676277 8.29683005 0 0 Z " fill="#DCDCDC" transform="translate(758,869)"/>
<path d="M0 0 C6.30395346 2.32203178 6.30395346 2.32203178 8 5 C8.63195944 9.81869071 8.49136311 12.01727378 6.3125 16.375 C1.57684976 21.32590707 -6.67355839 20.88150081 -13.0703125 21.109375 C-15.38543732 21.12256659 -17.68703491 21.09398052 -20 21 C-22.29612756 6.40318907 -22.29612756 6.40318907 -22 -1 C-15.82750381 -4.0862481 -6.41129998 -1.57368272 0 0 Z " fill="#DCDCDC" transform="translate(763,743)"/>
<path d="M0 0 C4.63517916 0.06019713 9.1309681 0.62163827 13.6875 1.4375 C14.93144531 1.65792969 16.17539062 1.87835937 17.45703125 2.10546875 C21.4348016 3.43745356 23.2370047 5.02742102 25.875 8.25 C26.7812579 11.64846714 26.39635485 13.34676103 24.6484375 16.375 C22.32153014 19.46283915 20.32433411 21.79063478 16.5703125 22.98046875 C13.97283283 23.26677242 11.48752139 23.3064666 8.875 23.25 C7.85664063 23.26160156 6.83828125 23.27320313 5.7890625 23.28515625 C3.14913822 23.30890878 0.51450079 23.29516256 -2.125 23.25 C-3.77798926 15.99610539 -4.96535846 8.70403177 -5.125 1.25 C-3.57714001 -0.29785999 -2.15970872 0.04276651 0 0 Z " fill="#DBDBDB" transform="translate(496.125,948.75)"/>
<path d="M0 0 C23.11246944 0.11246944 23.11246944 0.11246944 29 6 C29.25649451 10.83064654 28.65405234 14.93171451 26.125 19.0625 C22.92019425 21.98452878 19.9866474 22.17030712 15.8125 22.5 C11.18734011 22.88748015 6.60104109 23.39231533 2 24 C-0.01080891 16.3637138 -1.88282493 8.94542441 -1 1 C-0.67 0.67 -0.34 0.34 0 0 Z " fill="#DCDCDC" transform="translate(440,902)"/>
<path d="M0 0 C1.28197266 0.46986328 1.28197266 0.46986328 2.58984375 0.94921875 C2.91984375 1.93921875 3.24984375 2.92921875 3.58984375 3.94921875 C4.57984375 4.27921875 5.56984375 4.60921875 6.58984375 4.94921875 C7.37719234 12.98017434 7.37719234 12.98017434 4.15234375 16.94921875 C3.30671875 17.60921875 2.46109375 18.26921875 1.58984375 18.94921875 C1.25984375 19.27921875 0.92984375 19.60921875 0.58984375 19.94921875 C-6.27558461 21.09345681 -13.46830192 21.37757274 -20.41015625 20.94921875 C-22.96274919 18.39662581 -22.41414549 12.72083456 -22.47265625 9.37109375 C-22.47265625 5.89657454 -22.4535239 2.42344908 -22.41015625 -1.05078125 C-15.83628799 -4.33771538 -6.73939741 -1.48628484 0 0 Z " fill="#DCDCDC" transform="translate(816.41015625,790.05078125)"/>
<path d="M0 0 C6.63644218 -0.37962699 12.96943349 0.11931041 19.5 1.25 C20.54124023 1.41399292 20.54124023 1.41399292 21.60351562 1.58129883 C24.65957866 2.15224878 26.67064795 2.69663233 28.98046875 4.82421875 C30.18325754 7.39108985 30.21360458 8.77364345 29.8125 11.5625 C29.71582031 12.32691406 29.61914062 13.09132813 29.51953125 13.87890625 C29 16 29 16 27 19 C26.34 19 25.68 19 25 19 C25 19.66 25 20.32 25 21 C9.93806771 23.53674649 9.93806771 23.53674649 5 23 C1.14581801 20.12108547 1.06493101 16.4417412 0.33984375 11.94140625 C-0.12514589 7.91684073 -0.13270266 4.04743127 0 0 Z " fill="#DBDBDB" transform="translate(479,744)"/>
<path d="M0 0 C3.1612992 1.0537664 3.68248412 1.51750661 5.62890625 4.01953125 C6.10650391 4.62990234 6.58410156 5.24027344 7.07617188 5.86914062 C7.56666016 6.51044922 8.05714844 7.15175781 8.5625 7.8125 C9.05685547 8.44220703 9.55121094 9.07191406 10.06054688 9.72070312 C13.97529405 14.7690848 16.47779207 18.34612076 16.328125 25.03125 C15.80947233 28.14316604 14.21445226 29.85067869 12 32 C9.10822319 33.4458884 7.22262392 33.32759534 4 33 C1.51003364 31.62172705 -0.60954164 30.29590368 -2.875 28.625 C-3.46796875 28.2125 -4.0609375 27.8 -4.671875 27.375 C-6.16059195 26.31163075 -7.58667272 25.16169631 -9 24 C-9 23.34 -9 22.68 -9 22 C-10.32 21.34 -11.64 20.68 -13 20 C-12.67 18.68 -12.34 17.36 -12 16 C-11.34 16 -10.68 16 -10 16 C-9.75507812 15.29488281 -9.51015625 14.58976562 -9.2578125 13.86328125 C-7.82532472 10.60236963 -6.00478131 8.03865885 -3.875 5.1875 C-3.15054688 4.21167969 -2.42609375 3.23585938 -1.6796875 2.23046875 C-0.84824219 1.12638672 -0.84824219 1.12638672 0 0 Z " fill="#DBDBDB" transform="translate(715,469)"/>
<path d="M0 0 C8.83552869 -0.54967575 19.84894202 -0.44329978 26.88671875 5.39453125 C29 8 29 8 29.5 11.5 C28.97378505 15.18350462 28.3124305 17.10946187 26 20 C22.51247154 22.28716982 19.22711805 22.35518866 15.125 22.5625 C11.55655888 22.7513268 8.13917477 22.97573281 4.6171875 23.58984375 C3.75351562 23.72519531 2.88984375 23.86054687 2 24 C-1.02627621 20.97372379 -0.05736497 13.01491203 -0.06811523 9.07470703 C-0.05992751 6.04951955 -0.03544919 3.02499736 0 0 Z " fill="#DADADA" transform="translate(652,542)"/>
<path d="M0 0 C2.90579955 1.73504184 5.57929742 3.62844874 8 6 C8 6.66 8 7.32 8 8 C8.556875 8.226875 9.11375 8.45375 9.6875 8.6875 C12.63246684 10.35896766 14.68156544 12.55276352 17 15 C16.67 15.66 16.34 16.32 16 17 C15.34 17 14.68 17 14 17 C13.76539063 17.70511719 13.53078125 18.41023437 13.2890625 19.13671875 C11.76047677 22.53203191 9.77280427 24.96938922 7.375 27.8125 C6.14910156 29.27623047 6.14910156 29.27623047 4.8984375 30.76953125 C4.27195312 31.50558594 3.64546875 32.24164062 3 33 C-13.52413613 16.8207154 -13.52413613 16.8207154 -14.1875 7.3125 C-11.43722665 1.95670453 -5.9691064 -1.34000348 0 0 Z " fill="#DADADA" transform="translate(787,520)"/>
<path d="M0 0 C5.82748373 3.79464057 10.73079155 12.71994705 12.703125 19.37109375 C12.80109375 19.90863281 12.8990625 20.44617188 13 21 C11.37829621 22.00533667 9.75252763 23.00411907 8.125 24 C7.22007812 24.556875 6.31515625 25.11375 5.3828125 25.6875 C3 27 3 27 1 27 C1 27.66 1 28.32 1 29 C-1.26386208 30.42539464 -2.74331162 30.99424097 -5.4375 31.0546875 C-8 30 -8 30 -9.80078125 26.53515625 C-10.33125356 25.05351528 -10.83388494 23.56169594 -11.3125 22.0625 C-11.5688623 21.29212402 -11.82522461 20.52174805 -12.08935547 19.72802734 C-15.69687638 8.31100269 -15.69687638 8.31100269 -14 3 C-9.94281537 -1.0480262 -5.40137962 -0.88257837 0 0 Z " fill="#DBDBDB" transform="translate(818,547)"/>
<path d="M0 0 C10.48059566 0.97042552 18.51440184 3.6665463 27 10 C26.58539598 15.28620124 25.71677318 18.17390997 22 22 C18.15057491 24.56628339 14.95702113 24.29464462 10.5 24.25 C9.72785156 24.25773438 8.95570313 24.26546875 8.16015625 24.2734375 C4.26368532 24.25993153 2.31012753 24.20675169 -1 22 C-1.35644531 19.96875 -1.35644531 19.96875 -1.328125 17.5 C-1.32296875 16.613125 -1.3178125 15.72625 -1.3125 14.8125 C-1.291875 13.884375 -1.27125 12.95625 -1.25 12 C-1.24484375 11.071875 -1.2396875 10.14375 -1.234375 9.1875 C-1.15438988 2.30877976 -1.15438988 2.30877976 0 0 Z " fill="#DBDBDB" transform="translate(498,892)"/>
<path d="M0 0 C5.44700657 0.18782781 9.2334077 1.34652624 13.97265625 3.96484375 C16.08999104 5.04594918 18.17107584 5.73050494 20.4375 6.4375 C24 8 24 8 25.1875 10.25 C24.84184886 15.31955005 22.23871051 19.532355 20 24 C16.70840684 24.05790353 13.41694397 24.09356261 10.125 24.125 C8.71927734 24.15013672 8.71927734 24.15013672 7.28515625 24.17578125 C5.94130859 24.18544922 5.94130859 24.18544922 4.5703125 24.1953125 C3.74289551 24.20578613 2.91547852 24.21625977 2.06298828 24.22705078 C0 24 0 24 -2 22 C-2.25878906 19.96875 -2.25878906 19.96875 -2.265625 17.5 C-2.26820313 16.613125 -2.27078125 15.72625 -2.2734375 14.8125 C-2.26183594 13.4203125 -2.26183594 13.4203125 -2.25 12 C-2.25773438 11.071875 -2.26546875 10.14375 -2.2734375 9.1875 C-2.27085937 8.300625 -2.26828125 7.41375 -2.265625 6.5 C-2.26336914 5.6853125 -2.26111328 4.870625 -2.25878906 4.03125 C-2 2 -2 2 0 0 Z " fill="#DADADA" transform="translate(801,731)"/>
<path d="M0 0 C19.7320341 5.91961023 19.7320341 5.91961023 24 12 C24.1796875 14.375 24.1796875 14.375 23.875 17 C23.78992188 17.86625 23.70484375 18.7325 23.6171875 19.625 C22.89998926 22.38485145 22.21013292 23.24281946 20 25 C17.99462891 25.37231445 17.99462891 25.37231445 15.7265625 25.36328125 C14.9015625 25.36263672 14.0765625 25.36199219 13.2265625 25.36132812 C12.36804688 25.34521484 11.50953125 25.32910156 10.625 25.3125 C9.34882812 25.31733398 9.34882812 25.31733398 8.046875 25.32226562 C3.60307051 25.28419565 0.03513463 25.08398928 -4 23 C-3.71542568 20.47818712 -3.42254942 17.95778804 -3.125 15.4375 C-3.04636719 14.73302734 -2.96773437 14.02855469 -2.88671875 13.30273438 C-2.33366097 8.6868291 -1.38804164 4.43823397 0 0 Z " fill="#DCDCDC" transform="translate(828,872)"/>
<path d="M0 0 C2.3125 1.375 2.3125 1.375 4 3 C4 3.66 4 4.32 4 5 C4.66 5 5.32 5 6 5 C7.62109375 6.609375 7.62109375 6.609375 9.4375 8.75 C10.03433594 9.44609375 10.63117187 10.1421875 11.24609375 10.859375 C12.89081098 12.86673589 14.46126108 14.91070312 16 17 C13.3560853 19.03156389 10.6843898 21.02226248 8 23 C7.22140625 23.58394531 6.4428125 24.16789063 5.640625 24.76953125 C4.87234375 25.31996094 4.1040625 25.87039063 3.3125 26.4375 C2.60738281 26.95183594 1.90226563 27.46617187 1.17578125 27.99609375 C-1 29 -1 29 -3.59765625 29.09765625 C-6 28 -6 28 -7.546875 24.875 C-7.96899166 23.59006626 -8.36934035 22.29781949 -8.75 21 C-9.80432701 16.6630006 -9.80432701 16.6630006 -12 13 C-12.50781969 7.83716651 -12.50781969 7.83716651 -12 5 C-8.31014132 1.21303977 -5.2823927 -0.50308502 0 0 Z " fill="#DBDBDB" transform="translate(852,640)"/>
<path d="M0 0 C7.47642876 -0.5751099 15.64020102 0.83008219 21.83203125 5.33203125 C24.20908226 8.72668269 23.47878037 13.05006191 23 17 C20.97368421 21.51315789 20.97368421 21.51315789 18 23 C14.99129678 23.35711845 11.96253847 23.46664541 8.9375 23.625 C8.09638672 23.6765625 7.25527344 23.728125 6.38867188 23.78125 C4.26105823 23.89783157 2.13030492 23.9538259 0 24 C-1 23 -1 23 -1.1328125 20.41015625 C-1.1167857 13.54267416 -0.86155552 6.8155196 0 0 Z " fill="#DBDBDB" transform="translate(657,942)"/>
<path d="M0 0 C9.02811466 0.72369657 17.27778192 3.80145233 24 10 C24.71819653 14.8478266 23.43303352 17.81518235 21 22 C20 23 20 23 17.19140625 23.1328125 C10.06350866 23.11746719 3.07283071 22.91262332 -4 22 C-3.3622098 14.47407567 -1.80110167 7.32901118 0 0 Z " fill="#DADADA" transform="translate(642,704)"/>
<path d="M0 0 C16.70050761 2.70050761 16.70050761 2.70050761 21 7 C21.42773065 11.03899944 21.49468312 14.96642996 21 19 C18.39639615 22.02580988 16.73938948 22.75353684 13 24 C10.26134713 24.07051114 7.54972412 24.09357765 4.8125 24.0625 C4.06291016 24.05798828 3.31332031 24.05347656 2.54101562 24.04882812 C0.69397617 24.03706354 -1.15302213 24.01912865 -3 24 C-2.8901717 20.56183853 -2.75953137 17.12477652 -2.625 13.6875 C-2.5940625 12.71103516 -2.563125 11.73457031 -2.53125 10.72851562 C-2.49257813 9.79072266 -2.45390625 8.85292969 -2.4140625 7.88671875 C-2.3826416 7.02264404 -2.3512207 6.15856934 -2.31884766 5.26831055 C-2 3 -2 3 0 0 Z " fill="#DCDCDC" transform="translate(582,592)"/>
<path d="M0 0 C5.20308933 0.66483919 10.20365759 1.86829226 15 4 C16.0725 4.350625 17.145 4.70125 18.25 5.0625 C21 6 21 6 22 7 C22.61372943 12.60618228 22.34256705 17.27430176 19 22 C13.09686351 25.44349629 5.65712333 25.22955598 -1 25 C-2 24 -2 24 -2.1328125 21.91796875 C-2.07604017 2.07604017 -2.07604017 2.07604017 0 0 Z " fill="#DBDBDB" transform="translate(688,919)"/>
<path d="M0 0 C5.4042243 -0.2248832 9.81275243 0.5113589 14.9375 2 C15.62134766 2.19078125 16.30519531 2.3815625 17.00976562 2.578125 C18.67544526 3.04404937 20.33806675 3.52088411 22 4 C22.08119503 6.24940295 22.13927819 8.49964871 22.1875 10.75 C22.23970703 12.62945313 22.23970703 12.62945313 22.29296875 14.546875 C22 18 22 18 20.984375 20.375 C17.99760367 22.82085999 14.77801437 22.930672 11.0625 23.25 C10.34642578 23.32734375 9.63035156 23.4046875 8.89257812 23.484375 C5.57303331 23.82894314 2.34003999 24 -1 24 C-1.10466648 15.92905177 -1.03387512 8.0125322 0 0 Z " fill="#DADADA" transform="translate(551,615)"/>
<path d="M0 0 C6.87965668 0.51597425 15.54185122 2.66220807 21 7 C21.62890625 9.77734375 21.62890625 9.77734375 21.5625 12.9375 C21.56443359 14.49791016 21.56443359 14.49791016 21.56640625 16.08984375 C20.87340176 19.65045303 19.87521833 20.83852425 17 23 C15.02734375 23.609375 15.02734375 23.609375 12.9375 23.75 C11.77734375 23.83314453 11.77734375 23.83314453 10.59375 23.91796875 C6.06054252 24.06133826 1.53459843 24.07628296 -3 24 C-3.14550147 16.69259274 -3.21159362 9.22384123 -2 2 C-1.34 1.34 -0.68 0.68 0 0 Z " fill="#D9D9D9" transform="translate(735,651)"/>
<path d="M0 0 C2.88200681 0.41171526 5.55866983 0.93729147 8.375 1.625 C9.14328125 1.79128906 9.9115625 1.95757813 10.703125 2.12890625 C15.11610387 3.17488913 18.35963056 4.05326977 21 8 C21.53125 10.91015625 21.53125 10.91015625 21.5 14.0625 C21.5103125 15.10535156 21.520625 16.14820313 21.53125 17.22265625 C21 20 21 20 19.19921875 21.828125 C13.73861708 24.73785946 6.08237567 24.42904725 0 24 C-0.66 23.67 -1.32 23.34 -2 23 C-2.05789006 19.54173658 -2.09355821 16.08359707 -2.125 12.625 C-2.14175781 11.64015625 -2.15851562 10.6553125 -2.17578125 9.640625 C-2.18222656 8.69960938 -2.18867187 7.75859375 -2.1953125 6.7890625 C-2.20578613 5.91975098 -2.21625977 5.05043945 -2.22705078 4.15478516 C-2 2 -2 2 0 0 Z " fill="#DADADA" transform="translate(704,951)"/>
<path d="M0 0 C8.21928157 -0.40130308 13.49984861 -0.00010093 20.4375 4.625 C22.86540467 8.31541509 22.70307333 11.72042318 22 16 C20.75 18.9375 20.75 18.9375 18 21 C12.5149446 22.47406015 6.68836841 23.42539103 1 23 C-1 21 -1 21 -1.24291992 19.06054688 C-1.23881104 18.28775391 -1.23470215 17.51496094 -1.23046875 16.71875 C-1.22853516 15.87699219 -1.22660156 15.03523437 -1.22460938 14.16796875 C-1.21236328 13.28753906 -1.20011719 12.40710938 -1.1875 11.5 C-1.18685547 10.61957031 -1.18621094 9.73914063 -1.18554688 8.83203125 C-1.14040057 2.28080115 -1.14040057 2.28080115 0 0 Z " fill="#D9D9D9" transform="translate(597,625)"/>
<path d="M0 0 C6.64462166 0.352901 13.12911302 1.86886028 19 5 C21.05662927 9.11325854 20.20111029 14.01273132 19.3125 18.375 C18 21 18 21 15.75 22.3125 C9.74129229 23.81467693 4.16361795 24.12327236 -2 24 C-3.82733164 20.34533673 -2.8904422 16.00324332 -2.6875 12 C-2.65205078 11.071875 -2.61660156 10.14375 -2.58007812 9.1875 C-2.53689453 8.300625 -2.49371094 7.41375 -2.44921875 6.5 C-2.41143311 5.6853125 -2.37364746 4.870625 -2.3347168 4.03125 C-2 2 -2 2 0 0 Z " fill="#DADADA" transform="translate(576,662)"/>
<path d="M0 0 C0 10.89 0 21.78 0 33 C-0.66 33 -1.32 33 -2 33 C-2.33 33.99 -2.66 34.98 -3 36 C-5.375 38.6875 -5.375 38.6875 -8 41 C-8.99 41 -9.98 41 -11 41 C-12.14243132 31.13632957 -13.19791325 21.31380276 -13.25 11.375 C-13.25902344 10.65965088 -13.26804687 9.94430176 -13.27734375 9.20727539 C-13.24823356 4.24823356 -13.24823356 4.24823356 -11 2 C-6.94204131 0.37681652 -4.4860774 0 0 0 Z " fill="#DADADA" transform="translate(750,454)"/>
<path d="M0 0 C7.35423405 0.27037625 12.62151248 1.26918654 19 5 C19.37659963 15.77493398 19.37659963 15.77493398 17 20 C13.97906785 23.02093215 10.43627928 22.46676834 6.375 22.625 C5.17230469 22.68300781 5.17230469 22.68300781 3.9453125 22.7421875 C1.96392444 22.83653931 -0.01800645 22.91936215 -2 23 C-1.03644647 7.25512528 -1.03644647 7.25512528 0 0 Z " fill="#DADADA" transform="translate(435,813)"/>
<path d="M0 0 C3.66061576 0.62704992 6.01201461 2.21599836 9 4.375 C9.845625 4.98085938 10.69125 5.58671875 11.5625 6.2109375 C13.71893416 7.79370488 15.8648102 9.38872251 18 11 C17.67 13.31 17.34 15.62 17 18 C16.01 18.33 15.02 18.66 14 19 C13.67 19.99 13.34 20.98 13 22 C12.34 22 11.68 22 11 22 C11 22.66 11 23.32 11 24 C8.89535207 23.69075786 6.7912947 23.3774944 4.6875 23.0625 C3.51574219 22.88847656 2.34398437 22.71445312 1.13671875 22.53515625 C-2 22 -2 22 -5 21 C-4.3900874 16.01155691 -3.36525565 11.39844654 -1.9375 6.5625 C-1.57527344 5.32628906 -1.21304687 4.09007812 -0.83984375 2.81640625 C-0.56269531 1.88699219 -0.28554688 0.95757813 0 0 Z " fill="#DBDBDB" transform="translate(452,744)"/>
<path d="M0 0 C10 1 10 1 13 2 C13 8.93 13 15.86 13 23 C10.63386544 24.18306728 9.13219264 24.13354608 6.5 24.125 C5.7059375 24.12757813 4.911875 24.13015625 4.09375 24.1328125 C2 24 2 24 0 23 C0 15.41 0 7.82 0 0 Z " fill="#DBDBDB" transform="translate(919,821)"/>
<path d="M0 0 C6.38520354 0.15963009 9.66008365 3.78124883 14 8 C13.73812427 11.59600083 13.14949089 12.84906939 10.56640625 15.45703125 C9.57511719 16.23433594 8.58382812 17.01164063 7.5625 17.8125 C6.07943359 18.99779297 6.07943359 18.99779297 4.56640625 20.20703125 C2 22 2 22 0 22 C-1.76171875 19.76953125 -1.76171875 19.76953125 -3.6875 16.8125 C-4.65236328 15.36810547 -4.65236328 15.36810547 -5.63671875 13.89453125 C-7 11 -7 11 -6.828125 8.28125 C-5.77963651 5.39296094 -4.36251915 3.93297021 -2 2 C-1.34 2 -0.68 2 0 2 C0 1.34 0 0.68 0 0 Z " fill="#DBDBDB" transform="translate(787,559)"/>
<path d="M0 0 C5.95507399 0.3916035 10.62819824 1.37124595 16 4 C16.05391993 5.79133978 16.09275571 7.58313899 16.125 9.375 C16.14820313 10.37273438 16.17140625 11.37046875 16.1953125 12.3984375 C16 15 16 15 14 17 C11.26565038 17.3063859 8.61720179 17.5113336 5.875 17.625 C4.74384766 17.68300781 4.74384766 17.68300781 3.58984375 17.7421875 C1.72696816 17.83651031 -0.13648255 17.91934662 -2 18 C-2.2361959 11.59646678 -1.823321 6.15370839 0 0 Z " fill="#DCDCDC" transform="translate(460,723)"/>
<path d="M0 0 C10.23 0 20.46 0 31 0 C31 5 31 5 30.00390625 6.796875 C26.82591231 8.70491035 23.52881393 8.3528196 19.9375 8.25 C18.79764648 8.23247681 18.79764648 8.23247681 17.63476562 8.21459961 C1.89477642 7.89477642 1.89477642 7.89477642 0 6 C0 4.02 0 2.04 0 0 Z " fill="#DADADA" transform="translate(872,433)"/>
<path d="M0 0 C2.31 0.33 4.62 0.66 7 1 C7 8.26 7 15.52 7 23 C4.69 23 2.38 23 0 23 C-1.58413359 21.41586641 -1.12979629 19.79022215 -1.1328125 17.59765625 C-1.13474609 16.26250977 -1.13474609 16.26250977 -1.13671875 14.90039062 C-1.13285156 13.96388672 -1.12898437 13.02738281 -1.125 12.0625 C-1.12886719 11.12986328 -1.13273438 10.19722656 -1.13671875 9.23632812 C-1.13542969 8.34494141 -1.13414062 7.45355469 -1.1328125 6.53515625 C-1.13168457 5.714104 -1.13055664 4.89305176 -1.12939453 4.04711914 C-1 2 -1 2 0 0 Z " fill="#DBDBDB" transform="translate(925,445)"/>
<path d="M0 0 C2.36856179 0.8876531 3.85865488 1.99283903 5.76171875 3.65234375 C6.36371094 4.16539062 6.96570313 4.6784375 7.5859375 5.20703125 C9.07421875 6.77734375 9.07421875 6.77734375 10.07421875 9.77734375 C3.14421875 9.77734375 -3.78578125 9.77734375 -10.92578125 9.77734375 C-4.09213404 -0.47312706 -4.09213404 -0.47312706 0 0 Z " fill="#DBDBDB" transform="translate(597.92578125,969.22265625)"/>
<path d="M0 0 C0 8.25 0 16.5 0 25 C-0.66 25 -1.32 25 -2 25 C-4.12280563 21.81579155 -4.28019537 20.79462745 -4.4140625 17.11328125 C-4.45273437 16.17548828 -4.49140625 15.23769531 -4.53125 14.27148438 C-4.5621875 13.29501953 -4.593125 12.31855469 -4.625 11.3125 C-4.66367187 10.32443359 -4.70234375 9.33636719 -4.7421875 8.31835938 C-4.83645867 5.87909293 -4.92206218 3.43983405 -5 1 C-3 0 -3 0 0 0 Z " fill="#DDDDDD" transform="translate(932,909)"/>
<path d="M0 0 C1.98 0.66 3.96 1.32 6 2 C5.40380045 6.86896303 4.43023178 11.32790951 3 16 C2.34 16 1.68 16 1 16 C0.08342019 10.61509359 -0.11138159 5.45769811 0 0 Z " fill="#DCDCDC" transform="translate(435,942)"/>
<path d="M0 0 C0.99 0 1.98 0 3 0 C4.16983345 2.3396669 4.1661241 3.83391527 4.1875 6.4375 C4.20167969 7.21996094 4.21585937 8.00242187 4.23046875 8.80859375 C4 11 4 11 2 14 C1.34 14 0.68 14 0 14 C0 9.38 0 4.76 0 0 Z " fill="#DDDDDD" transform="translate(430,866)"/>
<path d="M0 0 C-0.33 0.99 -0.66 1.98 -1 3 C-2.65 3.33 -4.3 3.66 -6 4 C-6.33 3.01 -6.66 2.02 -7 1 C-4 0 -4 0 0 0 Z " fill="#F4F4F4" transform="translate(611,536)"/>
</svg>
