<svg id="visual" viewBox="0 0 900 600" width="900" height="600" xmlns="http://www.w3.org/2000/svg" xmlns:xlink="http://www.w3.org/1999/xlink" version="1.1"><rect width="900" height="600" fill="#001829"></rect><g><g transform="translate(895 554)"><path d="M0 -231.7L136.2 -187.5L220.4 -71.6L220.4 71.6L136.2 187.5L0 231.7L-136.2 187.5L-220.4 71.6L-220.4 -71.6L-136.2 -187.5Z" fill="none" stroke="#a69a29" stroke-width="2"></path></g><g transform="translate(11 533)"><path d="M0 -85L50 -68.8L80.8 -26.3L80.8 26.3L50 68.8L0 85L-50 68.8L-80.8 26.3L-80.8 -26.3L-50 -68.8Z" fill="none" stroke="#a69a29" stroke-width="2"></path></g><g transform="translate(42 62)"><path d="M0 -29L17 -23.5L27.6 -9L27.6 9L17 23.5L0 29L-17 23.5L-27.6 9L-27.6 -9L-17 -23.5Z" fill="none" stroke="#a69a29" stroke-width="2"></path></g><g transform="translate(556 209)"><path d="M0 -223L131.1 -180.4L212.1 -68.9L212.1 68.9L131.1 180.4L0 223L-131.1 180.4L-212.1 68.9L-212.1 -68.9L-131.1 -180.4Z" stroke="#a69a29" fill="none" stroke-width="2"></path></g></g></svg>