<svg version="1.1" id="Layer_1" xmlns="http://www.w3.org/2000/svg" xmlns:xlink="http://www.w3.org/1999/xlink" x="0px" y="0px"
	 width="100%" viewBox="0 0 932 979" enable-background="new 0 0 932 979" xml:space="preserve">
<path fill="#2D358F" opacity="1.000000" stroke="none" 
	d="
M843.000000,980.000000 
	C819.644653,980.000000 796.289307,980.000000 772.388000,979.601990 
	C766.670593,954.451660 761.778381,929.636047 756.194702,904.977112 
	C753.856018,894.648926 750.081116,884.643433 746.896301,874.510925 
	C745.730896,870.803223 743.195007,869.949829 739.905396,871.799927 
	C732.379150,876.032593 724.953552,880.444824 717.415710,884.656311 
	C713.238647,886.990051 712.909119,889.386597 715.734436,893.395142 
	C726.364441,908.476868 737.290833,923.390991 740.407166,942.387024 
	C742.476440,955.000366 745.437866,967.467468 748.000000,980.000000 
	C735.311340,980.000000 722.622620,980.000000 709.461548,979.580811 
	C708.534363,972.456665 707.267029,971.086670 700.747925,970.328125 
	C699.591736,970.193604 698.422668,970.171448 697.259827,970.092346 
	C669.034363,968.172363 640.813049,966.186951 612.581116,964.367615 
	C603.118286,963.757812 593.630066,963.350220 584.150024,963.274902 
	C578.617004,963.230957 576.632202,965.937195 577.617981,971.345520 
	C578.152405,974.277649 579.189575,977.118164 580.000000,980.000000 
	C387.030212,980.000000 194.060425,980.000000 1.045313,980.000000 
	C1.045313,653.747986 1.045313,327.495911 1.045313,1.121931 
	C311.666626,1.121931 622.333313,1.121931 933.000000,1.116056 
	C933.000000,96.428802 933.000000,191.747421 932.718872,287.346619 
	C931.170593,285.894165 929.660767,284.287598 928.680115,282.405365 
	C925.189270,275.705353 920.011658,272.159088 912.316833,270.981537 
	C899.317871,268.992249 886.464172,266.044708 873.563904,263.428528 
	C871.540527,263.018188 869.593750,262.230286 867.611511,261.616974 
	C867.373718,261.124451 867.135864,260.631897 866.898071,260.139374 
	C868.816467,258.625244 871.336426,257.468719 872.502563,255.507355 
	C873.991882,253.002625 875.605042,249.471497 874.868896,247.093536 
	C874.285522,245.208893 870.260254,243.333099 867.736328,243.296204 
	C858.759583,243.164948 849.757874,243.642471 840.798157,244.320480 
	C838.833069,244.469162 837.002441,246.393829 835.109924,247.500656 
	C836.491150,249.020538 837.658875,250.849640 839.304871,251.985901 
	C841.621399,253.584946 844.292603,254.670151 846.812134,255.975082 
	C846.624756,256.500397 846.437317,257.025726 846.249939,257.551056 
	C844.376709,257.375458 842.473938,257.353424 840.635193,256.998901 
	C830.000732,254.948547 819.457764,252.170532 808.734375,250.910126 
	C799.065002,249.773621 789.064026,249.133209 779.459717,250.312637 
	C765.110657,252.074692 750.781189,254.885941 736.825867,258.663696 
	C726.833923,261.368500 717.413757,266.263184 707.867004,270.472290 
	C705.837219,271.367188 704.364258,273.524933 702.634766,275.100861 
	C702.793335,275.610687 702.951965,276.120544 703.110535,276.630371 
	C705.936768,277.246155 708.737122,278.209015 711.593445,278.422333 
	C732.851379,280.009705 754.110779,281.609924 775.388794,282.888611 
	C796.832520,284.177216 818.295776,285.153168 839.755005,286.170624 
	C870.828369,287.643890 901.776855,292.178497 933.000000,290.000000 
	C933.000000,445.355347 933.000000,600.710693 932.563354,756.541077 
	C917.861206,757.041931 903.594238,756.956787 889.330750,757.141357 
	C882.411560,757.230835 880.318665,760.032654 881.852356,766.688721 
	C883.007812,771.703491 884.525024,776.633728 885.778625,781.627380 
	C889.317322,795.724182 889.453369,795.428162 903.555481,790.889771 
	C913.118958,787.812073 923.168091,786.243469 933.000000,784.000000 
	C933.000000,824.022034 933.000000,864.044006 932.695129,904.674683 
	C925.150146,910.506104 925.058289,912.646729 931.842346,918.088867 
	C932.225342,918.396179 932.613953,918.696472 933.000000,919.000000 
	C933.000000,928.355347 933.000000,937.710693 932.735840,947.330200 
	C925.954773,940.957336 919.551941,934.202698 912.877991,927.727539 
	C908.924988,923.892090 905.919067,923.787292 903.706970,927.429382 
	C899.571716,934.237610 895.629883,941.202393 892.260254,948.407349 
	C891.476562,950.083130 892.571899,954.204956 894.068359,955.111023 
	C900.870667,959.229858 907.997803,962.886597 915.263611,966.138611 
	C919.830444,968.182617 924.419373,966.819275 928.385376,963.800049 
	C929.969727,962.593933 931.464478,961.270203 933.000000,960.000000 
	C933.000000,966.632019 933.000000,973.264038 933.000000,980.000000 
	C911.978088,980.000000 890.956055,980.000000 869.666626,979.734863 
	C873.955627,976.134583 873.842163,972.246704 870.914124,967.878235 
	C865.640808,960.010803 860.589233,951.991272 855.179077,944.220459 
	C852.115601,939.820251 849.117249,939.777466 845.258728,943.289673 
	C840.465027,947.653076 835.708801,952.068054 830.737854,956.223083 
	C827.128052,959.240417 826.949097,962.150879 830.018005,965.538818 
	C834.366821,970.339722 838.674683,975.177795 843.000000,980.000000 
M541.405884,496.941040 
	C539.020630,505.919769 535.814575,514.774231 534.431885,523.904785 
	C532.028198,539.777405 534.549255,555.364807 545.014038,567.846985 
	C568.322388,595.648621 599.100708,609.210876 634.995911,609.574707 
	C664.181885,609.870483 688.077637,596.631592 706.980530,574.946716 
	C712.048462,569.132812 715.673584,561.483521 718.068481,554.065735 
	C720.958008,545.115845 722.576477,535.582581 723.426636,526.182617 
	C725.302185,505.444794 721.759094,485.166656 711.004333,467.452393 
	C697.088867,444.532257 675.442688,433.289795 648.540161,431.988678 
	C622.090088,430.709473 598.736694,438.847778 577.515625,454.141693 
	C562.111572,465.243286 549.657043,478.818359 541.405884,496.941040 
M657.453796,697.095764 
	C648.475891,695.291870 639.561096,692.947510 630.496216,691.888000 
	C625.110413,691.258545 618.675171,691.074829 614.119507,693.422363 
	C598.311523,701.568298 583.099731,710.875549 567.715210,719.833862 
	C565.535095,721.103271 563.653992,722.886414 561.634521,724.431824 
	C561.767151,724.931519 561.899841,725.431213 562.032532,725.930908 
	C564.007080,726.287903 565.968262,726.831482 567.958191,726.974060 
	C601.989319,729.412964 636.017151,731.904785 670.059937,734.171753 
	C700.447083,736.195312 730.842163,738.138062 761.254639,739.712158 
	C769.018921,740.114075 776.881897,739.195496 784.662537,738.481018 
	C789.555664,738.031738 790.339600,736.194336 788.174805,731.729553 
	C785.420410,726.048462 781.334351,722.234436 774.785095,720.922607 
	C735.929260,713.140015 697.110962,705.169434 657.453796,697.095764 
M873.213623,363.776093 
	C856.407898,370.178802 839.540466,376.427155 822.844482,383.104340 
	C819.159912,384.577911 814.562012,386.828247 813.012146,390.003418 
	C808.435547,399.380188 801.160156,402.687012 791.409973,403.398132 
	C781.147827,404.146545 770.359131,404.023682 760.844971,407.307739 
	C743.104248,413.431488 726.104187,421.710388 708.843079,429.201233 
	C706.898193,430.045288 705.030090,431.373230 703.571350,432.901489 
	C702.837158,433.670685 702.482483,435.793427 703.015991,436.620636 
	C706.491211,442.009033 716.277649,445.533508 722.594727,443.862976 
	C727.263977,442.628204 731.850220,441.058167 736.548340,439.957489 
	C780.334778,429.699493 824.126343,419.462769 867.947815,409.356079 
	C874.202759,407.913483 878.798462,404.542236 882.350464,399.412384 
	C892.593079,384.619598 902.862244,369.845154 913.062012,355.022888 
	C914.119751,353.485748 914.781921,351.676453 915.627686,349.993408 
	C915.292786,349.508331 914.957886,349.023254 914.622986,348.538177 
	C900.870728,352.969727 887.279663,357.881561 873.213623,363.776093 
M604.195435,886.588379 
	C615.466431,883.599976 626.671814,880.330688 638.021179,877.677734 
	C668.188965,870.625916 698.410278,863.801636 728.632568,856.985779 
	C733.634033,855.857910 737.318665,853.337585 740.258789,849.107239 
	C750.241455,834.743713 760.451416,820.538208 770.524109,806.236816 
	C771.805054,804.418152 772.786682,802.388550 773.906982,800.456604 
	C773.627502,799.972961 773.348083,799.489380 773.068604,799.005737 
	C769.331604,799.908325 765.459229,800.448792 761.883972,801.784485 
	C752.679626,805.223328 743.646301,809.116943 734.472839,812.641968 
	C717.842346,819.032471 701.164124,825.299194 684.496094,831.591614 
	C679.196411,833.592346 673.535156,835.076477 671.109802,841.078369 
	C668.371521,847.854858 663.047119,851.003540 656.101318,851.848083 
	C651.970703,852.350220 647.790955,852.509460 643.687561,853.163208 
	C634.677429,854.598633 625.257385,855.021851 616.807312,858.077515 
	C600.700500,863.902161 585.136108,871.235168 569.398560,878.061951 
	C567.143738,879.039978 564.927368,880.430359 563.194824,882.138611 
	C562.440430,882.882385 562.331299,885.728760 562.988708,886.229736 
	C568.793701,890.652954 574.522705,895.522949 582.814148,892.892578 
	C589.638855,890.727539 596.553162,888.844788 604.195435,886.588379 
M693.419189,627.961853 
	C681.107300,630.013733 668.781921,631.988342 656.488953,634.148132 
	C649.767273,635.329041 647.488586,638.877258 647.182739,647.874573 
	C646.981812,653.788391 648.879883,656.338135 655.292114,657.985535 
	C676.639221,663.469849 698.377319,666.475952 720.330261,668.146240 
	C724.681946,668.477356 726.123840,666.828369 725.383545,662.653076 
	C723.465698,651.836304 721.655457,641.000488 719.771790,630.177551 
	C719.007141,625.784119 716.416077,623.834229 711.957153,624.623779 
	C706.056763,625.668701 700.163696,626.755249 693.419189,627.961853 
M432.532074,762.053101 
	C439.566071,763.400208 446.567505,764.958130 453.640991,766.049255 
	C467.141296,768.131714 480.659668,770.137817 494.218353,771.781067 
	C499.607483,772.434204 500.592590,771.258118 499.860596,765.886230 
	C498.399200,755.160461 496.559601,744.486572 494.905273,733.786743 
	C494.248657,729.539978 491.867798,727.605103 487.596863,728.329590 
	C468.374664,731.590637 449.144318,734.809814 429.963715,738.301575 
	C427.932739,738.671265 425.519653,740.311951 424.458435,742.071472 
	C419.068573,751.007996 422.007751,758.582336 432.532074,762.053101 
M517.304993,865.671753 
	C517.847290,864.285583 518.564209,862.940796 518.904114,861.506653 
	C521.439636,850.806946 519.148865,847.194946 508.362091,845.100525 
	C499.042358,843.290894 489.718964,841.469543 480.346619,839.969482 
	C469.664215,838.259888 458.930481,836.865479 448.209015,835.407837 
	C444.464050,834.898682 441.774780,835.958984 442.395142,840.470520 
	C443.960571,851.854858 445.609711,863.227661 447.218201,874.606079 
	C447.656219,877.704529 449.355408,878.808655 452.456543,878.325806 
	C471.374268,875.380432 490.316498,872.588379 509.212982,869.514404 
	C511.859436,869.083923 514.299744,867.386169 517.304993,865.671753 
M633.511292,305.132996 
	C638.296143,324.505463 643.024475,343.892151 647.900696,363.241577 
	C649.338257,368.946075 651.510132,370.277710 657.261780,369.651489 
	C659.077332,369.453827 660.886597,369.123108 662.671265,368.729126 
	C668.818420,367.372101 670.341553,364.916992 668.983521,358.716522 
	C667.133667,350.270111 665.344116,341.810120 663.434448,333.377258 
	C660.239258,319.267242 656.924988,305.184113 653.762085,291.066956 
	C652.950439,287.444244 651.277039,285.715302 647.461182,287.114990 
	C643.407043,288.601929 639.038757,289.563141 635.416016,291.758087 
	C633.547058,292.890503 632.513428,296.104340 632.016663,298.562469 
	C631.659546,300.329681 632.815186,302.402618 633.511292,305.132996 
M371.646179,712.842529 
	C368.664215,711.110779 365.870026,708.457886 362.668060,707.805176 
	C348.019775,704.819092 333.253174,702.415588 318.538574,699.750488 
	C314.983459,699.106628 313.072296,700.349792 312.970856,704.054565 
	C312.693542,714.182129 312.394257,724.309204 312.150360,734.437561 
	C312.055420,738.381348 314.010071,739.830200 317.857788,738.992432 
	C324.349823,737.578918 330.858673,736.242493 337.363007,734.885803 
	C347.286041,732.816040 357.253784,730.939575 367.123779,728.642395 
	C377.454773,726.237793 378.845581,722.033691 372.437378,713.767639 
	C372.335602,713.636353 372.225952,713.511169 371.646179,712.842529 
M402.344635,925.029419 
	C400.667206,924.342468 399.048035,923.341370 397.303223,923.017822 
	C382.082916,920.195801 366.840851,917.490845 351.603516,914.760864 
	C346.996429,913.935486 344.351562,916.119690 344.177551,920.544250 
	C343.838654,929.162903 343.621490,937.808655 343.921936,946.423401 
	C344.173859,953.645569 344.900543,954.014099 352.178345,952.510559 
	C366.684845,949.513611 381.160339,946.366272 395.645264,943.265137 
	C409.638763,940.269226 410.706940,937.635254 402.344635,925.029419 
M512.039917,932.538696 
	C503.516052,931.055786 495.013611,929.432373 486.462280,928.129578 
	C478.009064,926.841797 476.284515,928.411621 476.084747,936.819275 
	C475.899048,944.634827 475.906830,952.460327 475.489471,960.263306 
	C475.121033,967.151123 475.758728,967.700928 482.696594,966.168396 
	C496.496002,963.120361 510.365784,960.387512 524.146790,957.261292 
	C527.961548,956.395996 531.899475,955.144348 535.190857,953.113586 
	C540.463989,949.860046 540.294495,948.343201 536.711731,943.092041 
	C533.720459,938.707825 529.835815,935.986389 524.630859,935.033386 
	C520.704041,934.314453 516.798706,933.478333 512.039917,932.538696 
M349.668152,848.077271 
	C355.538635,846.960876 361.434509,845.962280 367.274323,844.703552 
	C379.466095,842.075867 391.654358,839.421753 403.792969,836.561584 
	C411.324280,834.787048 413.460785,828.078979 407.819122,822.811096 
	C404.707031,819.905029 400.363434,818.102539 396.298920,816.504883 
	C393.432098,815.377991 390.090637,815.492432 386.979614,814.946960 
	C377.152893,813.223755 367.344360,811.395264 357.509949,809.717834 
	C351.508026,808.694092 348.562256,810.482056 348.248505,815.653748 
	C347.694977,824.776428 347.382568,833.917969 347.215271,843.056091 
	C347.186066,844.653015 348.363617,846.272034 349.668152,848.077271 
M491.139954,648.741821 
	C491.109772,656.397888 491.037842,664.054077 491.062042,671.709961 
	C491.082855,678.297180 491.872162,679.007629 498.437469,677.655273 
	C513.594360,674.533325 528.755798,671.415955 543.832397,667.937012 
	C546.915527,667.225525 549.806458,665.173035 552.433594,663.255798 
	C553.418152,662.537231 554.210327,660.016174 553.700806,659.048706 
	C551.145020,654.196228 548.439087,649.291382 542.271118,648.073059 
	C528.242310,645.301880 514.255371,642.302246 500.184296,639.768372 
	C494.028168,638.659729 491.715820,641.088745 491.139954,648.741821 
M841.324646,905.754883 
	C839.458313,909.685242 841.234985,912.043762 844.696472,913.769775 
	C852.746460,917.783813 860.992310,921.467957 868.753113,925.983093 
	C878.617493,931.721924 887.545471,926.494324 892.665222,920.370178 
	C895.775818,916.649353 895.730286,912.473083 892.263733,909.141296 
	C882.421265,899.681702 872.461975,890.337708 862.351379,881.165833 
	C858.078857,877.290100 855.134766,878.017578 852.513550,883.143188 
	C848.797485,890.409851 845.250061,897.762756 841.324646,905.754883 
M766.794678,573.388367 
	C768.443298,575.107727 769.785400,577.451294 771.793884,578.437561 
	C780.153015,582.542175 788.731873,586.196594 797.194275,590.094177 
	C808.045654,595.091919 811.591614,594.134399 820.188416,582.017151 
	C822.207581,579.171204 821.829834,576.346497 819.306091,573.914185 
	C809.479492,564.443420 799.726685,554.892822 789.747375,545.585510 
	C786.133057,542.214600 782.641663,542.779602 780.243591,547.099060 
	C775.565491,555.525208 771.273621,564.165710 766.794678,573.388367 
M574.927551,406.366364 
	C576.149536,410.330322 578.206299,410.835785 581.518921,408.306793 
	C588.105042,403.278687 590.976990,396.822693 589.418152,388.648743 
	C588.015747,381.295044 586.529480,373.949554 584.792603,366.669098 
	C581.742432,353.884125 578.555237,341.129669 575.191711,328.424316 
	C574.763306,326.806213 573.063965,324.481171 571.731323,324.319977 
	C564.610291,323.458588 557.232178,331.917206 558.894592,339.124756 
	C564.017273,361.335114 569.393616,383.486969 574.927551,406.366364 
M818.200073,538.059326 
	C816.505798,539.153442 814.811523,540.247620 812.352844,541.835388 
	C814.929749,543.441162 816.543335,544.525208 818.229004,545.482178 
	C823.149414,548.275391 828.197388,550.856873 833.015503,553.814392 
	C842.418518,559.586365 845.390015,559.157288 852.619080,550.855103 
	C855.741150,547.269531 856.089172,543.645630 853.075500,540.059021 
	C842.683716,527.691895 832.158325,515.437195 821.721619,503.107727 
	C819.660828,500.673187 817.848267,500.530365 816.440613,503.542664 
	C812.916077,511.085114 809.285645,518.590576 806.128052,526.287415 
	C804.149414,531.110352 806.132141,533.900085 811.386658,534.609619 
	C813.689941,534.920654 816.064453,534.728088 818.358032,535.080444 
	C820.882507,535.468140 820.604431,536.593140 818.200073,538.059326 
M886.552429,846.007324 
	C884.080322,851.098755 881.391541,856.098816 879.195740,861.306763 
	C876.912170,866.722900 879.029602,869.962769 884.888489,870.697937 
	C887.422913,871.015991 889.969666,871.235657 893.218445,871.573669 
	C892.272644,873.068359 891.962219,873.814636 891.436707,874.349731 
	C886.751526,879.120239 886.731995,879.237549 892.461243,882.173401 
	C899.573181,885.817932 906.775391,889.289978 913.829956,893.040833 
	C916.816162,894.628601 919.177795,894.425293 921.355347,891.873657 
	C922.543640,890.481323 923.772827,889.122864 924.932251,887.707031 
	C929.715271,881.866150 929.829590,880.106262 924.920227,874.331726 
	C916.188538,864.060974 907.233765,853.980042 898.489136,843.720093 
	C891.829712,835.906738 891.274475,835.925598 886.552429,846.007324 
M863.313965,586.172119 
	C866.234314,588.638794 869.359253,590.903503 872.033752,593.612976 
	C878.184143,599.843994 885.014038,599.308228 892.229858,596.125061 
	C898.934082,593.167664 900.464661,589.799622 898.938538,582.667053 
	C896.648010,571.962036 889.383240,564.178040 883.309082,555.723511 
	C879.034424,549.773682 875.423401,549.825134 870.451660,555.420654 
	C865.925659,560.514343 861.473389,565.673523 856.968079,570.785767 
	C851.811401,576.637146 851.841858,577.007202 858.095642,581.979675 
	C859.657166,583.221252 861.202332,584.483459 863.313965,586.172119 
M838.123657,294.764679 
	C831.614929,301.887146 824.975342,308.897949 818.718140,316.234955 
	C817.592529,317.554840 817.085083,321.414459 817.912537,322.076508 
	C826.315002,328.799744 834.643127,335.788940 843.837891,341.290009 
	C850.328796,345.173340 855.200928,338.678467 860.104675,335.383911 
	C863.726074,332.950867 862.887390,328.970123 861.941406,325.311646 
	C858.874268,313.450470 851.074585,304.477875 843.451660,295.455902 
	C842.610779,294.460693 840.296936,294.710052 838.123657,294.764679 
M408.930878,493.445618 
	C402.988312,499.961792 397.064972,506.495575 391.094269,512.985901 
	C388.504364,515.801147 388.700562,517.963379 391.902588,520.337646 
	C398.581726,525.290161 405.027710,530.556335 411.596039,535.659485 
	C416.631744,539.571899 420.809967,539.740295 426.276581,536.312500 
	C427.827667,535.339905 429.275909,534.182800 430.888519,533.332642 
	C435.502930,530.900024 436.437561,527.343140 435.099701,522.444214 
	C431.921539,510.806824 424.371826,501.921448 417.163177,492.761078 
	C414.331696,489.163055 411.901642,489.174927 408.930878,493.445618 
M676.082031,768.224426 
	C676.636597,769.647644 676.775208,771.616943 677.812195,772.406738 
	C685.350281,778.148376 693.093872,783.619080 700.721680,789.244446 
	C704.910767,792.333862 709.011475,792.151489 713.166565,789.271423 
	C714.943542,788.039734 716.733093,786.825928 718.500061,785.580078 
	C721.736450,783.298340 722.553162,780.413147 721.680969,776.449341 
	C719.018921,764.351746 711.174255,755.454834 703.575256,746.428345 
	C700.626709,742.926025 697.280029,744.106079 694.578247,747.106873 
	C688.459473,753.902893 682.444092,760.792114 676.082031,768.224426 
M801.175354,634.925781 
	C794.578674,625.949402 787.946777,616.998535 781.403503,607.983398 
	C778.945801,604.597229 776.143860,603.234680 772.663635,606.303101 
	C767.301208,611.031006 762.052979,615.891052 756.833008,620.777039 
	C753.889526,623.532227 753.760193,626.710083 756.513062,629.579956 
	C763.076355,636.422485 769.750366,643.161499 776.489990,649.830811 
	C779.311584,652.622925 782.804382,653.097168 786.065796,650.801697 
	C790.950195,647.363647 795.689087,643.694519 800.246033,639.835693 
	C801.202148,639.026062 801.100891,636.967712 801.175354,634.925781 
M765.143127,787.691345 
	C777.075500,783.882629 780.523621,777.035522 773.948547,766.848145 
	C769.549500,760.032227 762.976440,754.572632 757.131592,748.751709 
	C752.564575,744.203369 749.426392,744.502014 745.994751,750.100159 
	C742.445251,755.890381 739.511292,762.063721 736.415833,768.124390 
	C734.450500,771.972412 735.664001,774.814270 739.496277,776.687988 
	C743.972290,778.876404 748.356445,781.263916 752.896545,783.307007 
	C756.632446,784.988342 760.537842,786.292908 765.143127,787.691345 
M846.368469,694.820740 
	C844.450317,698.124634 842.492798,701.406555 840.625671,704.739075 
	C838.910767,707.799927 839.197083,710.684448 842.330444,712.523438 
	C849.487610,716.724243 856.631165,720.994080 864.061035,724.667908 
	C868.980957,727.100647 874.256958,724.389221 879.185913,717.957458 
	C882.028625,714.248047 882.278442,709.468384 878.846008,705.572754 
	C872.812378,698.725037 866.396667,692.204407 859.966309,685.720032 
	C857.025574,682.754639 853.846802,683.332275 851.437317,686.560852 
	C849.658630,688.944031 848.306091,691.645325 846.368469,694.820740 
M527.259338,404.895203 
	C525.331360,411.224701 526.156860,413.742035 531.513306,417.067596 
	C535.327148,419.435425 539.158264,421.800690 543.131042,423.881989 
	C551.664856,428.352783 557.438293,427.264343 564.067993,420.213257 
	C568.228699,415.788055 568.685974,411.900391 564.569824,407.442444 
	C558.149048,400.488525 551.359436,393.866699 544.563538,387.271576 
	C541.535950,384.333374 538.532227,384.778687 536.371094,388.540314 
	C533.390320,393.728577 530.502136,398.970001 527.259338,404.895203 
M408.444550,638.059448 
	C404.577423,634.172974 400.772156,630.222290 396.826416,626.417358 
	C392.570923,622.313721 389.569031,622.697510 386.529999,627.883484 
	C383.172241,633.613220 380.086853,639.502319 376.864960,645.312134 
	C375.223999,648.271057 375.644531,650.974365 378.508118,652.671021 
	C385.208130,656.640869 391.880676,660.743958 398.924896,664.017212 
	C404.152954,666.446533 412.203522,663.224792 415.780945,658.338989 
	C418.620544,654.460876 417.870300,649.047729 413.627808,643.723755 
	C412.182495,641.909973 410.511566,640.276001 408.444550,638.059448 
M908.995117,311.498627 
	C905.346069,307.618408 901.901794,303.515778 897.993774,299.916687 
	C893.549316,295.823486 890.025574,296.398376 887.030334,301.616425 
	C883.382507,307.971527 879.923767,314.454956 876.828979,321.090729 
	C876.231750,322.371277 877.120422,325.523010 878.294250,326.254974 
	C884.639099,330.211334 891.180786,333.894135 897.866333,337.249481 
	C903.957947,340.306702 910.058289,338.409424 914.662964,332.642975 
	C917.986877,328.480499 917.742737,322.547302 913.931519,317.408966 
	C912.544983,315.539581 910.961243,313.816406 908.995117,311.498627 
M827.503357,623.006287 
	C831.957397,625.265869 836.310669,627.760132 840.890503,629.726746 
	C846.863342,632.291565 852.363708,630.642761 857.017273,625.410583 
	C860.238831,621.788452 861.678894,615.436096 858.639709,612.051086 
	C852.230896,604.913025 845.222107,598.269348 838.050293,591.882263 
	C835.130493,589.281921 831.756775,590.284241 829.726379,593.955444 
	C827.389954,598.180115 824.986572,602.371582 822.782349,606.664795 
	C817.655518,616.650635 817.696899,616.671875 827.503357,623.006287 
M461.342865,587.164612 
	C456.766724,580.692505 452.345581,574.102478 447.546814,567.799866 
	C445.261963,564.798828 442.142639,564.433899 439.590942,567.753052 
	C435.338531,573.284546 430.953613,578.756409 427.270203,584.656433 
	C426.220032,586.338623 426.432068,590.518738 427.729462,591.657654 
	C433.048492,596.327148 438.683746,600.847534 444.835449,604.292908 
	C450.039337,607.207397 458.973297,604.597656 462.784027,600.300720 
	C466.777222,595.798157 462.956604,591.924927 461.342865,587.164612 
M394.832825,563.288330 
	C398.377838,559.122803 397.936462,554.990784 394.347534,551.238586 
	C388.372498,544.991760 382.214661,538.919800 376.135376,532.772644 
	C373.770172,530.380981 371.923828,530.723389 370.267609,533.659973 
	C366.265594,540.755981 362.238586,547.840515 358.060852,554.833679 
	C355.811432,558.598877 357.027313,560.572571 360.823120,561.969971 
	C364.548431,563.341370 368.400879,564.632629 371.763794,566.673767 
	C381.896576,572.823730 386.007324,572.446472 394.832825,563.288330 
M893.709290,654.786926 
	C898.153259,657.992798 902.464600,661.412292 907.109192,664.294983 
	C908.867676,665.386475 911.693237,666.105164 913.509705,665.478516 
	C917.377197,664.144409 920.996216,661.975037 924.542297,659.855652 
	C928.227783,657.652893 928.674255,654.157227 926.593567,650.781433 
	C921.893921,643.156494 917.066956,635.591125 911.886169,628.289307 
	C909.062012,624.309021 906.201111,624.504028 903.005615,628.492859 
	C899.166016,633.285828 895.550537,638.266113 891.995422,643.276978 
	C888.375122,648.379700 888.604736,649.803162 893.709290,654.786926 
M828.979492,845.445251 
	C839.624695,845.183105 845.441162,836.633301 840.832703,827.268066 
	C837.471069,820.436829 833.201660,814.047974 829.258301,807.509277 
	C827.509521,804.609558 825.192932,804.229553 822.685303,806.609741 
	C817.135071,811.877625 811.572937,817.135376 806.133850,822.516663 
	C803.780029,824.845459 804.129395,827.687195 806.536011,829.521362 
	C813.645752,834.939941 820.993225,840.046448 828.979492,845.445251 
M747.676758,473.215302 
	C742.767456,477.683380 737.859558,482.153076 732.948181,486.618927 
	C730.405579,488.930847 730.499817,490.969330 733.267273,493.154633 
	C737.825500,496.754028 742.510864,500.261078 746.645508,504.314178 
	C755.565430,513.058228 761.583984,509.515350 768.337097,502.769531 
	C769.698669,501.409393 770.448608,497.887421 769.668518,496.199768 
	C766.201050,488.698486 762.376587,481.318542 758.088379,474.254669 
	C754.822571,468.874908 753.435791,468.974670 747.676758,473.215302 
M596.385681,777.803345 
	C599.551086,773.701904 601.507935,769.105103 598.194824,764.487732 
	C594.227234,758.958130 589.595703,753.895874 585.129944,748.736633 
	C582.961182,746.231140 580.371460,746.243774 578.279663,748.791260 
	C573.100464,755.098694 567.979126,761.460266 563.048828,767.962646 
	C560.814392,770.909485 561.586365,773.678467 564.897644,775.438782 
	C570.634094,778.488403 576.405396,781.474121 582.197571,784.416687 
	C585.547729,786.118652 588.658142,785.659363 591.360168,782.987183 
	C592.899902,781.464355 594.400146,779.901672 596.385681,777.803345 
M789.030334,314.507294 
	C785.566711,310.051849 782.183838,305.530548 778.617554,301.158783 
	C774.771973,296.444611 772.219299,296.148376 768.078247,300.703796 
	C763.175964,306.096649 758.789612,311.961456 754.234192,317.665283 
	C752.124268,320.307068 752.690308,322.789032 755.466553,324.385345 
	C761.356201,327.771881 767.255737,331.197632 773.410034,334.048462 
	C777.739990,336.054230 781.913940,334.835693 785.017700,331.018982 
	C786.691040,328.961273 788.257874,326.809540 789.765808,324.626434 
	C791.990601,321.405457 792.259277,318.178650 789.030334,314.507294 
M620.015015,759.499512 
	C618.190491,761.650024 616.272888,763.729370 614.562073,765.966858 
	C611.563599,769.888062 611.979919,772.354858 616.277344,774.873962 
	C620.568359,777.389404 624.950378,779.782959 629.442383,781.914001 
	C635.666443,784.866943 639.197998,784.120239 644.247192,779.211731 
	C645.911316,777.593872 647.519592,775.911255 649.061157,774.176331 
	C651.746826,771.153564 651.958374,767.902100 649.499329,764.671753 
	C645.278442,759.126892 640.932678,753.677124 636.703430,748.138489 
	C634.420410,745.148682 632.098206,745.175537 629.746460,747.903625 
	C626.606262,751.546387 623.562622,755.272339 620.015015,759.499512 
M726.417297,336.187622 
	C733.381348,334.804871 735.968445,328.426819 740.302795,324.038208 
	C742.579651,321.732880 742.626709,319.409729 740.527405,316.999237 
	C736.167969,311.993500 731.981506,306.820679 727.382629,302.045166 
	C723.670105,298.190033 720.859497,298.327850 717.315002,302.551208 
	C712.619751,308.145844 708.330627,314.081390 703.869385,319.872284 
	C702.071289,322.206360 702.430359,324.507507 704.868164,325.794067 
	C711.724182,329.412231 718.740845,332.725983 726.417297,336.187622 
M579.764832,828.730835 
	C578.227234,826.773743 576.776062,824.740601 575.134827,822.874695 
	C571.206726,818.409119 568.246460,818.257996 564.451599,822.718811 
	C560.266785,827.638367 556.434509,832.856812 552.417114,837.920044 
	C549.439880,841.672119 550.407349,844.636536 554.188843,847.021179 
	C558.111755,849.495056 561.946777,852.151001 566.048279,854.289795 
	C573.522278,858.187317 578.044678,857.127380 583.545410,850.701477 
	C589.042358,844.279846 589.094482,841.815979 583.787537,834.066040 
	C582.664246,832.425659 581.389709,830.888733 579.764832,828.730835 
M630.114624,831.577881 
	C633.692505,828.533936 637.427917,825.653198 640.801208,822.397217 
	C643.813782,819.489319 644.149658,815.769226 641.650818,812.428589 
	C637.581360,806.988037 633.266357,801.719055 628.840454,796.561707 
	C626.144043,793.419556 622.823914,793.549316 620.269165,796.655640 
	C615.844666,802.035339 611.429749,807.489319 607.748718,813.373718 
	C606.646973,815.134827 607.066589,819.961121 608.387695,820.768799 
	C615.085205,824.863586 622.308716,828.098022 630.114624,831.577881 
M910.045288,515.559814 
	C915.877441,509.002441 916.020508,507.310059 910.857300,500.006989 
	C907.881226,495.797668 904.773438,491.675018 901.581177,487.626709 
	C898.388733,483.578186 896.168152,483.361420 892.618835,487.166870 
	C887.629639,492.516296 882.904541,498.115723 878.156616,503.685120 
	C875.583069,506.703979 875.919617,509.480713 879.429443,511.564697 
	C884.004700,514.281311 888.560669,517.042175 893.245361,519.559753 
	C900.691895,523.561523 904.163635,522.753967 910.045288,515.559814 
M781.677734,362.107391 
	C778.173706,357.707916 774.923706,353.070404 771.090698,348.979095 
	C767.590088,345.242615 764.193298,345.364960 760.811646,349.171539 
	C756.738464,353.756592 752.921692,358.596527 749.311157,363.557007 
	C746.269836,367.735413 746.776245,370.710602 751.218140,373.658875 
	C755.344482,376.397736 759.938904,378.421631 764.248596,380.897186 
	C768.561890,383.374847 772.444824,382.723602 776.269775,379.828156 
	C782.072327,375.435760 784.413147,369.945435 781.677734,362.107391 
M714.978394,372.630554 
	C711.975159,369.794708 709.132141,370.574280 706.758545,373.338715 
	C702.203979,378.643524 697.683838,383.992493 693.444214,389.548096 
	C690.625366,393.242004 691.238770,395.903992 695.363098,398.133484 
	C700.925476,401.140350 706.659668,403.842163 712.410828,406.476868 
	C713.646667,407.042969 715.904419,407.432373 716.609985,406.763123 
	C720.666870,402.915039 724.749023,398.979828 728.023621,394.491241 
	C728.989319,393.167542 728.024414,389.499542 726.793396,387.687866 
	C723.343140,382.609924 719.292114,377.940155 714.978394,372.630554 
M437.903564,428.194366 
	C436.337830,428.903687 434.268799,429.200684 433.292297,430.392700 
	C428.688080,436.012970 424.330536,441.839294 419.993164,447.672577 
	C417.738464,450.704895 418.550842,453.219147 421.701355,455.152344 
	C438.092224,465.209839 440.345428,463.718414 449.313934,451.578033 
	C452.151794,447.736633 452.244171,444.152344 449.419281,440.677917 
	C445.975708,436.442627 442.139587,432.526489 437.903564,428.194366 
M518.113098,382.325256 
	C516.189148,377.186768 514.265015,372.048370 512.341309,366.909790 
	C511.416504,364.439636 509.961426,363.196045 507.463226,365.060822 
	C501.465485,369.537872 495.484314,374.038239 489.553284,378.603027 
	C487.221252,380.397858 487.326691,382.464691 489.266113,384.586273 
	C492.296082,387.900909 495.174377,391.361755 498.319855,394.561157 
	C501.628876,397.926941 510.302917,397.987000 515.563721,394.897156 
	C520.607910,391.934509 519.927856,387.617004 518.113098,382.325256 
M522.054260,358.506439 
	C516.646667,364.384277 516.705994,364.723969 523.661316,368.257507 
	C525.587463,369.236053 527.534241,370.183594 529.402832,371.264191 
	C538.278992,376.396973 539.458618,376.136047 546.002258,368.300659 
	C549.183960,364.490814 549.207458,360.772064 546.223083,357.016815 
	C543.950500,354.157104 541.396973,351.522003 539.089417,348.688446 
	C536.267029,345.222656 533.639404,345.595856 530.882629,348.749084 
	C528.149475,351.875275 525.321350,354.918488 522.054260,358.506439 
M268.691986,768.236694 
	C264.076385,775.223694 265.342957,781.040771 272.678284,783.679443 
	C274.811157,784.446716 278.336548,783.583069 280.190887,782.140015 
	C281.550201,781.082214 281.830200,777.760132 281.489594,775.622864 
	C281.086975,773.096436 279.601990,770.706604 278.405518,768.349304 
	C275.039093,761.716858 273.674347,761.639526 268.691986,768.236694 
M278.048401,805.761536 
	C283.151367,811.671387 287.165894,813.166443 292.136414,810.394226 
	C293.337585,809.724304 294.630585,807.016479 294.181458,805.988037 
	C292.603577,802.374390 290.429871,798.981506 288.140259,795.747070 
	C287.602264,794.987000 284.928741,794.575073 284.588348,795.024963 
	C282.149384,798.248291 280.059570,801.735779 278.048401,805.761536 
M262.251617,832.219360 
	C265.989166,836.682190 270.164093,837.853821 273.326569,835.327393 
	C276.185028,833.043762 276.053375,829.177124 272.394592,824.691772 
	C270.204590,822.007080 267.505035,817.555420 263.787720,819.838318 
	C259.855225,822.253235 259.880737,827.202942 262.251617,832.219360 
M283.337189,736.443970 
	C279.251312,734.635620 278.177002,738.380066 276.465485,740.437805 
	C273.854645,743.577026 273.291260,747.023438 276.863403,750.043335 
	C280.343781,752.985657 284.568939,753.151855 287.222412,750.551270 
	C290.291687,747.543213 290.269653,743.587585 287.079254,739.936035 
	C286.104279,738.820068 284.948486,737.862061 283.337189,736.443970 
z"/>
<path fill="#4D5286" opacity="1.000000" stroke="none" 
	d="
M933.000000,289.666687 
	C901.776855,292.178497 870.828369,287.643890 839.755005,286.170624 
	C818.295776,285.153168 796.832520,284.177216 775.388794,282.888611 
	C754.110779,281.609924 732.851379,280.009705 711.593445,278.422333 
	C708.737122,278.209015 705.936768,277.246155 703.110535,276.630371 
	C702.951965,276.120544 702.793335,275.610687 702.634766,275.100861 
	C704.364258,273.524933 705.837219,271.367188 707.867004,270.472290 
	C717.413757,266.263184 726.833923,261.368500 736.825867,258.663696 
	C750.781189,254.885941 765.110657,252.074692 779.459717,250.312637 
	C789.064026,249.133209 799.065002,249.773621 808.734375,250.910126 
	C819.457764,252.170532 830.000732,254.948547 840.635193,256.998901 
	C842.473938,257.353424 844.376709,257.375458 846.249939,257.551056 
	C846.437317,257.025726 846.624756,256.500397 846.812134,255.975082 
	C844.292603,254.670151 841.621399,253.584946 839.304871,251.985901 
	C837.658875,250.849640 836.491150,249.020538 835.109924,247.500656 
	C837.002441,246.393829 838.833069,244.469162 840.798157,244.320480 
	C849.757874,243.642471 858.759583,243.164948 867.736328,243.296204 
	C870.260254,243.333099 874.285522,245.208893 874.868896,247.093536 
	C875.605042,249.471497 873.991882,253.002625 872.502563,255.507355 
	C871.336426,257.468719 868.816467,258.625244 866.898071,260.139374 
	C867.135864,260.631897 867.373718,261.124451 867.611511,261.616974 
	C869.593750,262.230286 871.540527,263.018188 873.563904,263.428528 
	C886.464172,266.044708 899.317871,268.992249 912.316833,270.981537 
	C920.011658,272.159088 925.189270,275.705353 928.680115,282.405365 
	C929.660767,284.287598 931.170593,285.894165 932.718872,287.813599 
	C933.000000,288.444458 933.000000,288.888885 933.000000,289.666687 
z"/>
<path fill="#4D5286" opacity="1.000000" stroke="none" 
	d="
M748.468628,980.000000 
	C745.437866,967.467468 742.476440,955.000366 740.407166,942.387024 
	C737.290833,923.390991 726.364441,908.476868 715.734436,893.395142 
	C712.909119,889.386597 713.238647,886.990051 717.415710,884.656311 
	C724.953552,880.444824 732.379150,876.032593 739.905396,871.799927 
	C743.195007,869.949829 745.730896,870.803223 746.896301,874.510925 
	C750.081116,884.643433 753.856018,894.648926 756.194702,904.977112 
	C761.778381,929.636047 766.670593,954.451660 771.921021,979.601990 
	C764.312439,980.000000 756.624817,980.000000 748.468628,980.000000 
z"/>
<path fill="#4D5286" opacity="1.000000" stroke="none" 
	d="
M580.468628,980.000000 
	C579.189575,977.118164 578.152405,974.277649 577.617981,971.345520 
	C576.632202,965.937195 578.617004,963.230957 584.150024,963.274902 
	C593.630066,963.350220 603.118286,963.757812 612.581116,964.367615 
	C640.813049,966.186951 669.034363,968.172363 697.259827,970.092346 
	C698.422668,970.171448 699.591736,970.193604 700.747925,970.328125 
	C707.267029,971.086670 708.534363,972.456665 708.994568,979.580811 
	C666.312439,980.000000 623.624878,980.000000 580.468628,980.000000 
z"/>
<path fill="#4D5286" opacity="1.000000" stroke="none" 
	d="
M933.000000,783.531372 
	C923.168091,786.243469 913.118958,787.812073 903.555481,790.889771 
	C889.453369,795.428162 889.317322,795.724182 885.778625,781.627380 
	C884.525024,776.633728 883.007812,771.703491 881.852356,766.688721 
	C880.318665,760.032654 882.411560,757.230835 889.330750,757.141357 
	C903.594238,756.956787 917.861206,757.041931 932.563354,757.008057 
	C933.000000,765.687561 933.000000,774.375183 933.000000,783.531372 
z"/>
<path fill="#4D5286" opacity="1.000000" stroke="none" 
	d="
M843.468628,980.000000 
	C838.674683,975.177795 834.366821,970.339722 830.018005,965.538818 
	C826.949097,962.150879 827.128052,959.240417 830.737854,956.223083 
	C835.708801,952.068054 840.465027,947.653076 845.258728,943.289673 
	C849.117249,939.777466 852.115601,939.820251 855.179077,944.220459 
	C860.589233,951.991272 865.640808,960.010803 870.914124,967.878235 
	C873.842163,972.246704 873.955627,976.134583 869.199707,979.734863 
	C860.645752,980.000000 852.291504,980.000000 843.468628,980.000000 
z"/>
<path fill="#4D5286" opacity="1.000000" stroke="none" 
	d="
M933.000000,959.539368 
	C931.464478,961.270203 929.969727,962.593933 928.385376,963.800049 
	C924.419373,966.819275 919.830444,968.182617 915.263611,966.138611 
	C907.997803,962.886597 900.870667,959.229858 894.068359,955.111023 
	C892.571899,954.204956 891.476562,950.083130 892.260254,948.407349 
	C895.629883,941.202393 899.571716,934.237610 903.706970,927.429382 
	C905.919067,923.787292 908.924988,923.892090 912.877991,927.727539 
	C919.551941,934.202698 925.954773,940.957336 932.735840,947.797241 
	C933.000000,951.692932 933.000000,955.385803 933.000000,959.539368 
z"/>
<path fill="#4D5286" opacity="1.000000" stroke="none" 
	d="
M933.000000,918.535339 
	C932.613953,918.696472 932.225342,918.396179 931.842346,918.088867 
	C925.058289,912.646729 925.150146,910.506104 932.695129,905.141602 
	C933.000000,909.356873 933.000000,913.713806 933.000000,918.535339 
z"/>
<path fill="#4E5386" opacity="1.000000" stroke="none" 
	d="
M541.556519,496.591888 
	C549.657043,478.818359 562.111572,465.243286 577.515625,454.141693 
	C598.736694,438.847778 622.090088,430.709473 648.540161,431.988678 
	C675.442688,433.289795 697.088867,444.532257 711.004333,467.452393 
	C721.759094,485.166656 725.302185,505.444794 723.426636,526.182617 
	C722.576477,535.582581 720.958008,545.115845 718.068481,554.065735 
	C715.673584,561.483521 712.048462,569.132812 706.980530,574.946716 
	C688.077637,596.631592 664.181885,609.870483 634.995911,609.574707 
	C599.100708,609.210876 568.322388,595.648621 545.014038,567.846985 
	C534.549255,555.364807 532.028198,539.777405 534.431885,523.904785 
	C535.814575,514.774231 539.020630,505.919769 541.556519,496.591888 
z"/>
<path fill="#4D5286" opacity="1.000000" stroke="none" 
	d="
M657.866943,697.178955 
	C697.110962,705.169434 735.929260,713.140015 774.785095,720.922607 
	C781.334351,722.234436 785.420410,726.048462 788.174805,731.729553 
	C790.339600,736.194336 789.555664,738.031738 784.662537,738.481018 
	C776.881897,739.195496 769.018921,740.114075 761.254639,739.712158 
	C730.842163,738.138062 700.447083,736.195312 670.059937,734.171753 
	C636.017151,731.904785 601.989319,729.412964 567.958191,726.974060 
	C565.968262,726.831482 564.007080,726.287903 562.032532,725.930908 
	C561.899841,725.431213 561.767151,724.931519 561.634521,724.431824 
	C563.653992,722.886414 565.535095,721.103271 567.715210,719.833862 
	C583.099731,710.875549 598.311523,701.568298 614.119507,693.422363 
	C618.675171,691.074829 625.110413,691.258545 630.496216,691.888000 
	C639.561096,692.947510 648.475891,695.291870 657.866943,697.178955 
z"/>
<path fill="#4D5286" opacity="1.000000" stroke="none" 
	d="
M873.566895,363.629822 
	C887.279663,357.881561 900.870728,352.969727 914.622986,348.538177 
	C914.957886,349.023254 915.292786,349.508331 915.627686,349.993408 
	C914.781921,351.676453 914.119751,353.485748 913.062012,355.022888 
	C902.862244,369.845154 892.593079,384.619598 882.350464,399.412384 
	C878.798462,404.542236 874.202759,407.913483 867.947815,409.356079 
	C824.126343,419.462769 780.334778,429.699493 736.548340,439.957489 
	C731.850220,441.058167 727.263977,442.628204 722.594727,443.862976 
	C716.277649,445.533508 706.491211,442.009033 703.015991,436.620636 
	C702.482483,435.793427 702.837158,433.670685 703.571350,432.901489 
	C705.030090,431.373230 706.898193,430.045288 708.843079,429.201233 
	C726.104187,421.710388 743.104248,413.431488 760.844971,407.307739 
	C770.359131,404.023682 781.147827,404.146545 791.409973,403.398132 
	C801.160156,402.687012 808.435547,399.380188 813.012146,390.003418 
	C814.562012,386.828247 819.159912,384.577911 822.844482,383.104340 
	C839.540466,376.427155 856.407898,370.178802 873.566895,363.629822 
z"/>
<path fill="#4D5286" opacity="1.000000" stroke="none" 
	d="
M603.811584,886.712646 
	C596.553162,888.844788 589.638855,890.727539 582.814148,892.892578 
	C574.522705,895.522949 568.793701,890.652954 562.988708,886.229736 
	C562.331299,885.728760 562.440430,882.882385 563.194824,882.138611 
	C564.927368,880.430359 567.143738,879.039978 569.398560,878.061951 
	C585.136108,871.235168 600.700500,863.902161 616.807312,858.077515 
	C625.257385,855.021851 634.677429,854.598633 643.687561,853.163208 
	C647.790955,852.509460 651.970703,852.350220 656.101318,851.848083 
	C663.047119,851.003540 668.371521,847.854858 671.109802,841.078369 
	C673.535156,835.076477 679.196411,833.592346 684.496094,831.591614 
	C701.164124,825.299194 717.842346,819.032471 734.472839,812.641968 
	C743.646301,809.116943 752.679626,805.223328 761.883972,801.784485 
	C765.459229,800.448792 769.331604,799.908325 773.068604,799.005737 
	C773.348083,799.489380 773.627502,799.972961 773.906982,800.456604 
	C772.786682,802.388550 771.805054,804.418152 770.524109,806.236816 
	C760.451416,820.538208 750.241455,834.743713 740.258789,849.107239 
	C737.318665,853.337585 733.634033,855.857910 728.632568,856.985779 
	C698.410278,863.801636 668.188965,870.625916 638.021179,877.677734 
	C626.671814,880.330688 615.466431,883.599976 603.811584,886.712646 
z"/>
<path fill="#4D5286" opacity="1.000000" stroke="none" 
	d="
M693.843384,627.892944 
	C700.163696,626.755249 706.056763,625.668701 711.957153,624.623779 
	C716.416077,623.834229 719.007141,625.784119 719.771790,630.177551 
	C721.655457,641.000488 723.465698,651.836304 725.383545,662.653076 
	C726.123840,666.828369 724.681946,668.477356 720.330261,668.146240 
	C698.377319,666.475952 676.639221,663.469849 655.292114,657.985535 
	C648.879883,656.338135 646.981812,653.788391 647.182739,647.874573 
	C647.488586,638.877258 649.767273,635.329041 656.488953,634.148132 
	C668.781921,631.988342 681.107300,630.013733 693.843384,627.892944 
z"/>
<path fill="#4D5286" opacity="1.000000" stroke="none" 
	d="
M432.146973,761.941772 
	C422.007751,758.582336 419.068573,751.007996 424.458435,742.071472 
	C425.519653,740.311951 427.932739,738.671265 429.963715,738.301575 
	C449.144318,734.809814 468.374664,731.590637 487.596863,728.329590 
	C491.867798,727.605103 494.248657,729.539978 494.905273,733.786743 
	C496.559601,744.486572 498.399200,755.160461 499.860596,765.886230 
	C500.592590,771.258118 499.607483,772.434204 494.218353,771.781067 
	C480.659668,770.137817 467.141296,768.131714 453.640991,766.049255 
	C446.567505,764.958130 439.566071,763.400208 432.146973,761.941772 
z"/>
<path fill="#4D5286" opacity="1.000000" stroke="none" 
	d="
M517.070190,865.973389 
	C514.299744,867.386169 511.859436,869.083923 509.212982,869.514404 
	C490.316498,872.588379 471.374268,875.380432 452.456543,878.325806 
	C449.355408,878.808655 447.656219,877.704529 447.218201,874.606079 
	C445.609711,863.227661 443.960571,851.854858 442.395142,840.470520 
	C441.774780,835.958984 444.464050,834.898682 448.209015,835.407837 
	C458.930481,836.865479 469.664215,838.259888 480.346619,839.969482 
	C489.718964,841.469543 499.042358,843.290894 508.362091,845.100525 
	C519.148865,847.194946 521.439636,850.806946 518.904114,861.506653 
	C518.564209,862.940796 517.847290,864.285583 517.070190,865.973389 
z"/>
<path fill="#4D5286" opacity="1.000000" stroke="none" 
	d="
M633.403687,304.736084 
	C632.815186,302.402618 631.659546,300.329681 632.016663,298.562469 
	C632.513428,296.104340 633.547058,292.890503 635.416016,291.758087 
	C639.038757,289.563141 643.407043,288.601929 647.461182,287.114990 
	C651.277039,285.715302 652.950439,287.444244 653.762085,291.066956 
	C656.924988,305.184113 660.239258,319.267242 663.434448,333.377258 
	C665.344116,341.810120 667.133667,350.270111 668.983521,358.716522 
	C670.341553,364.916992 668.818420,367.372101 662.671265,368.729126 
	C660.886597,369.123108 659.077332,369.453827 657.261780,369.651489 
	C651.510132,370.277710 649.338257,368.946075 647.900696,363.241577 
	C643.024475,343.892151 638.296143,324.505463 633.403687,304.736084 
z"/>
<path fill="#4D5286" opacity="1.000000" stroke="none" 
	d="
M371.883087,713.112793 
	C372.225952,713.511169 372.335602,713.636353 372.437378,713.767639 
	C378.845581,722.033691 377.454773,726.237793 367.123779,728.642395 
	C357.253784,730.939575 347.286041,732.816040 337.363007,734.885803 
	C330.858673,736.242493 324.349823,737.578918 317.857788,738.992432 
	C314.010071,739.830200 312.055420,738.381348 312.150360,734.437561 
	C312.394257,724.309204 312.693542,714.182129 312.970856,704.054565 
	C313.072296,700.349792 314.983459,699.106628 318.538574,699.750488 
	C333.253174,702.415588 348.019775,704.819092 362.668060,707.805176 
	C365.870026,708.457886 368.664215,711.110779 371.883087,713.112793 
z"/>
<path fill="#4D5286" opacity="1.000000" stroke="none" 
	d="
M402.604858,925.292480 
	C410.706940,937.635254 409.638763,940.269226 395.645264,943.265137 
	C381.160339,946.366272 366.684845,949.513611 352.178345,952.510559 
	C344.900543,954.014099 344.173859,953.645569 343.921936,946.423401 
	C343.621490,937.808655 343.838654,929.162903 344.177551,920.544250 
	C344.351562,916.119690 346.996429,913.935486 351.603516,914.760864 
	C366.840851,917.490845 382.082916,920.195801 397.303223,923.017822 
	C399.048035,923.341370 400.667206,924.342468 402.604858,925.292480 
z"/>
<path fill="#4D5286" opacity="1.000000" stroke="none" 
	d="
M512.461853,932.616516 
	C516.798706,933.478333 520.704041,934.314453 524.630859,935.033386 
	C529.835815,935.986389 533.720459,938.707825 536.711731,943.092041 
	C540.294495,948.343201 540.463989,949.860046 535.190857,953.113586 
	C531.899475,955.144348 527.961548,956.395996 524.146790,957.261292 
	C510.365784,960.387512 496.496002,963.120361 482.696594,966.168396 
	C475.758728,967.700928 475.121033,967.151123 475.489471,960.263306 
	C475.906830,952.460327 475.899048,944.634827 476.084747,936.819275 
	C476.284515,928.411621 478.009064,926.841797 486.462280,928.129578 
	C495.013611,929.432373 503.516052,931.055786 512.461853,932.616516 
z"/>
<path fill="#4D5286" opacity="1.000000" stroke="none" 
	d="
M349.325989,847.979065 
	C348.363617,846.272034 347.186066,844.653015 347.215271,843.056091 
	C347.382568,833.917969 347.694977,824.776428 348.248505,815.653748 
	C348.562256,810.482056 351.508026,808.694092 357.509949,809.717834 
	C367.344360,811.395264 377.152893,813.223755 386.979614,814.946960 
	C390.090637,815.492432 393.432098,815.377991 396.298920,816.504883 
	C400.363434,818.102539 404.707031,819.905029 407.819122,822.811096 
	C413.460785,828.078979 411.324280,834.787048 403.792969,836.561584 
	C391.654358,839.421753 379.466095,842.075867 367.274323,844.703552 
	C361.434509,845.962280 355.538635,846.960876 349.325989,847.979065 
z"/>
<path fill="#4D5286" opacity="1.000000" stroke="none" 
	d="
M491.148376,648.283264 
	C491.715820,641.088745 494.028168,638.659729 500.184296,639.768372 
	C514.255371,642.302246 528.242310,645.301880 542.271118,648.073059 
	C548.439087,649.291382 551.145020,654.196228 553.700806,659.048706 
	C554.210327,660.016174 553.418152,662.537231 552.433594,663.255798 
	C549.806458,665.173035 546.915527,667.225525 543.832397,667.937012 
	C528.755798,671.415955 513.594360,674.533325 498.437469,677.655273 
	C491.872162,679.007629 491.082855,678.297180 491.062042,671.709961 
	C491.037842,664.054077 491.109772,656.397888 491.148376,648.283264 
z"/>
<path fill="#4D5286" opacity="1.000000" stroke="none" 
	d="
M841.477600,905.416870 
	C845.250061,897.762756 848.797485,890.409851 852.513550,883.143188 
	C855.134766,878.017578 858.078857,877.290100 862.351379,881.165833 
	C872.461975,890.337708 882.421265,899.681702 892.263733,909.141296 
	C895.730286,912.473083 895.775818,916.649353 892.665222,920.370178 
	C887.545471,926.494324 878.617493,931.721924 868.753113,925.983093 
	C860.992310,921.467957 852.746460,917.783813 844.696472,913.769775 
	C841.234985,912.043762 839.458313,909.685242 841.477600,905.416870 
z"/>
<path fill="#4D5286" opacity="1.000000" stroke="none" 
	d="
M766.808228,573.052917 
	C771.273621,564.165710 775.565491,555.525208 780.243591,547.099060 
	C782.641663,542.779602 786.133057,542.214600 789.747375,545.585510 
	C799.726685,554.892822 809.479492,564.443420 819.306091,573.914185 
	C821.829834,576.346497 822.207581,579.171204 820.188416,582.017151 
	C811.591614,594.134399 808.045654,595.091919 797.194275,590.094177 
	C788.731873,586.196594 780.153015,582.542175 771.793884,578.437561 
	C769.785400,577.451294 768.443298,575.107727 766.808228,573.052917 
z"/>
<path fill="#4D5286" opacity="1.000000" stroke="none" 
	d="
M574.799500,406.013977 
	C569.393616,383.486969 564.017273,361.335114 558.894592,339.124756 
	C557.232178,331.917206 564.610291,323.458588 571.731323,324.319977 
	C573.063965,324.481171 574.763306,326.806213 575.191711,328.424316 
	C578.555237,341.129669 581.742432,353.884125 584.792603,366.669098 
	C586.529480,373.949554 588.015747,381.295044 589.418152,388.648743 
	C590.976990,396.822693 588.105042,403.278687 581.518921,408.306793 
	C578.206299,410.835785 576.149536,410.330322 574.799500,406.013977 
z"/>
<path fill="#4D5286" opacity="1.000000" stroke="none" 
	d="
M818.469360,537.919189 
	C820.604431,536.593140 820.882507,535.468140 818.358032,535.080444 
	C816.064453,534.728088 813.689941,534.920654 811.386658,534.609619 
	C806.132141,533.900085 804.149414,531.110352 806.128052,526.287415 
	C809.285645,518.590576 812.916077,511.085114 816.440613,503.542664 
	C817.848267,500.530365 819.660828,500.673187 821.721619,503.107727 
	C832.158325,515.437195 842.683716,527.691895 853.075500,540.059021 
	C856.089172,543.645630 855.741150,547.269531 852.619080,550.855103 
	C845.390015,559.157288 842.418518,559.586365 833.015503,553.814392 
	C828.197388,550.856873 823.149414,548.275391 818.229004,545.482178 
	C816.543335,544.525208 814.929749,543.441162 812.352844,541.835388 
	C814.811523,540.247620 816.505798,539.153442 818.469360,537.919189 
z"/>
<path fill="#4D5286" opacity="1.000000" stroke="none" 
	d="
M886.711609,845.670105 
	C891.274475,835.925598 891.829712,835.906738 898.489136,843.720093 
	C907.233765,853.980042 916.188538,864.060974 924.920227,874.331726 
	C929.829590,880.106262 929.715271,881.866150 924.932251,887.707031 
	C923.772827,889.122864 922.543640,890.481323 921.355347,891.873657 
	C919.177795,894.425293 916.816162,894.628601 913.829956,893.040833 
	C906.775391,889.289978 899.573181,885.817932 892.461243,882.173401 
	C886.731995,879.237549 886.751526,879.120239 891.436707,874.349731 
	C891.962219,873.814636 892.272644,873.068359 893.218445,871.573669 
	C889.969666,871.235657 887.422913,871.015991 884.888489,870.697937 
	C879.029602,869.962769 876.912170,866.722900 879.195740,861.306763 
	C881.391541,856.098816 884.080322,851.098755 886.711609,845.670105 
z"/>
<path fill="#4D5286" opacity="1.000000" stroke="none" 
	d="
M863.034485,585.954163 
	C861.202332,584.483459 859.657166,583.221252 858.095642,581.979675 
	C851.841858,577.007202 851.811401,576.637146 856.968079,570.785767 
	C861.473389,565.673523 865.925659,560.514343 870.451660,555.420654 
	C875.423401,549.825134 879.034424,549.773682 883.309082,555.723511 
	C889.383240,564.178040 896.648010,571.962036 898.938538,582.667053 
	C900.464661,589.799622 898.934082,593.167664 892.229858,596.125061 
	C885.014038,599.308228 878.184143,599.843994 872.033752,593.612976 
	C869.359253,590.903503 866.234314,588.638794 863.034485,585.954163 
z"/>
<path fill="#4D5286" opacity="1.000000" stroke="none" 
	d="
M838.394958,294.573425 
	C840.296936,294.710052 842.610779,294.460693 843.451660,295.455902 
	C851.074585,304.477875 858.874268,313.450470 861.941406,325.311646 
	C862.887390,328.970123 863.726074,332.950867 860.104675,335.383911 
	C855.200928,338.678467 850.328796,345.173340 843.837891,341.290009 
	C834.643127,335.788940 826.315002,328.799744 817.912537,322.076508 
	C817.085083,321.414459 817.592529,317.554840 818.718140,316.234955 
	C824.975342,308.897949 831.614929,301.887146 838.394958,294.573425 
z"/>
<path fill="#4D5286" opacity="1.000000" stroke="none" 
	d="
M409.156250,493.182007 
	C411.901642,489.174927 414.331696,489.163055 417.163177,492.761078 
	C424.371826,501.921448 431.921539,510.806824 435.099701,522.444214 
	C436.437561,527.343140 435.502930,530.900024 430.888519,533.332642 
	C429.275909,534.182800 427.827667,535.339905 426.276581,536.312500 
	C420.809967,539.740295 416.631744,539.571899 411.596039,535.659485 
	C405.027710,530.556335 398.581726,525.290161 391.902588,520.337646 
	C388.700562,517.963379 388.504364,515.801147 391.094269,512.985901 
	C397.064972,506.495575 402.988312,499.961792 409.156250,493.182007 
z"/>
<path fill="#4D5286" opacity="1.000000" stroke="none" 
	d="
M676.234375,767.933960 
	C682.444092,760.792114 688.459473,753.902893 694.578247,747.106873 
	C697.280029,744.106079 700.626709,742.926025 703.575256,746.428345 
	C711.174255,755.454834 719.018921,764.351746 721.680969,776.449341 
	C722.553162,780.413147 721.736450,783.298340 718.500061,785.580078 
	C716.733093,786.825928 714.943542,788.039734 713.166565,789.271423 
	C709.011475,792.151489 704.910767,792.333862 700.721680,789.244446 
	C693.093872,783.619080 685.350281,778.148376 677.812195,772.406738 
	C676.775208,771.616943 676.636597,769.647644 676.234375,767.933960 
z"/>
<path fill="#4D5286" opacity="1.000000" stroke="none" 
	d="
M801.331177,635.205322 
	C801.100891,636.967712 801.202148,639.026062 800.246033,639.835693 
	C795.689087,643.694519 790.950195,647.363647 786.065796,650.801697 
	C782.804382,653.097168 779.311584,652.622925 776.489990,649.830811 
	C769.750366,643.161499 763.076355,636.422485 756.513062,629.579956 
	C753.760193,626.710083 753.889526,623.532227 756.833008,620.777039 
	C762.052979,615.891052 767.301208,611.031006 772.663635,606.303101 
	C776.143860,603.234680 778.945801,604.597229 781.403503,607.983398 
	C787.946777,616.998535 794.578674,625.949402 801.331177,635.205322 
z"/>
<path fill="#4D5286" opacity="1.000000" stroke="none" 
	d="
M764.755615,787.727905 
	C760.537842,786.292908 756.632446,784.988342 752.896545,783.307007 
	C748.356445,781.263916 743.972290,778.876404 739.496277,776.687988 
	C735.664001,774.814270 734.450500,771.972412 736.415833,768.124390 
	C739.511292,762.063721 742.445251,755.890381 745.994751,750.100159 
	C749.426392,744.502014 752.564575,744.203369 757.131592,748.751709 
	C762.976440,754.572632 769.549500,760.032227 773.948547,766.848145 
	C780.523621,777.035522 777.075500,783.882629 764.755615,787.727905 
z"/>
<path fill="#4D5286" opacity="1.000000" stroke="none" 
	d="
M846.566040,694.512817 
	C848.306091,691.645325 849.658630,688.944031 851.437317,686.560852 
	C853.846802,683.332275 857.025574,682.754639 859.966309,685.720032 
	C866.396667,692.204407 872.812378,698.725037 878.846008,705.572754 
	C882.278442,709.468384 882.028625,714.248047 879.185913,717.957458 
	C874.256958,724.389221 868.980957,727.100647 864.061035,724.667908 
	C856.631165,720.994080 849.487610,716.724243 842.330444,712.523438 
	C839.197083,710.684448 838.910767,707.799927 840.625671,704.739075 
	C842.492798,701.406555 844.450317,698.124634 846.566040,694.512817 
z"/>
<path fill="#4D5286" opacity="1.000000" stroke="none" 
	d="
M527.416748,404.541931 
	C530.502136,398.970001 533.390320,393.728577 536.371094,388.540314 
	C538.532227,384.778687 541.535950,384.333374 544.563538,387.271576 
	C551.359436,393.866699 558.149048,400.488525 564.569824,407.442444 
	C568.685974,411.900391 568.228699,415.788055 564.067993,420.213257 
	C557.438293,427.264343 551.664856,428.352783 543.131042,423.881989 
	C539.158264,421.800690 535.327148,419.435425 531.513306,417.067596 
	C526.156860,413.742035 525.331360,411.224701 527.416748,404.541931 
z"/>
<path fill="#4D5286" opacity="1.000000" stroke="none" 
	d="
M408.694153,638.309692 
	C410.511566,640.276001 412.182495,641.909973 413.627808,643.723755 
	C417.870300,649.047729 418.620544,654.460876 415.780945,658.338989 
	C412.203522,663.224792 404.152954,666.446533 398.924896,664.017212 
	C391.880676,660.743958 385.208130,656.640869 378.508118,652.671021 
	C375.644531,650.974365 375.223999,648.271057 376.864960,645.312134 
	C380.086853,639.502319 383.172241,633.613220 386.529999,627.883484 
	C389.569031,622.697510 392.570923,622.313721 396.826416,626.417358 
	C400.772156,630.222290 404.577423,634.172974 408.694153,638.309692 
z"/>
<path fill="#4D5286" opacity="1.000000" stroke="none" 
	d="
M909.231262,311.762573 
	C910.961243,313.816406 912.544983,315.539581 913.931519,317.408966 
	C917.742737,322.547302 917.986877,328.480499 914.662964,332.642975 
	C910.058289,338.409424 903.957947,340.306702 897.866333,337.249481 
	C891.180786,333.894135 884.639099,330.211334 878.294250,326.254974 
	C877.120422,325.523010 876.231750,322.371277 876.828979,321.090729 
	C879.923767,314.454956 883.382507,307.971527 887.030334,301.616425 
	C890.025574,296.398376 893.549316,295.823486 897.993774,299.916687 
	C901.901794,303.515778 905.346069,307.618408 909.231262,311.762573 
z"/>
<path fill="#4D5286" opacity="1.000000" stroke="none" 
	d="
M827.190613,622.820679 
	C817.696899,616.671875 817.655518,616.650635 822.782349,606.664795 
	C824.986572,602.371582 827.389954,598.180115 829.726379,593.955444 
	C831.756775,590.284241 835.130493,589.281921 838.050293,591.882263 
	C845.222107,598.269348 852.230896,604.913025 858.639709,612.051086 
	C861.678894,615.436096 860.238831,621.788452 857.017273,625.410583 
	C852.363708,630.642761 846.863342,632.291565 840.890503,629.726746 
	C836.310669,627.760132 831.957397,625.265869 827.190613,622.820679 
z"/>
<path fill="#4D5286" opacity="1.000000" stroke="none" 
	d="
M461.494263,587.512451 
	C462.956604,591.924927 466.777222,595.798157 462.784027,600.300720 
	C458.973297,604.597656 450.039337,607.207397 444.835449,604.292908 
	C438.683746,600.847534 433.048492,596.327148 427.729462,591.657654 
	C426.432068,590.518738 426.220032,586.338623 427.270203,584.656433 
	C430.953613,578.756409 435.338531,573.284546 439.590942,567.753052 
	C442.142639,564.433899 445.261963,564.798828 447.546814,567.799866 
	C452.345581,574.102478 456.766724,580.692505 461.494263,587.512451 
z"/>
<path fill="#4D5286" opacity="1.000000" stroke="none" 
	d="
M394.604065,563.562500 
	C386.007324,572.446472 381.896576,572.823730 371.763794,566.673767 
	C368.400879,564.632629 364.548431,563.341370 360.823120,561.969971 
	C357.027313,560.572571 355.811432,558.598877 358.060852,554.833679 
	C362.238586,547.840515 366.265594,540.755981 370.267609,533.659973 
	C371.923828,530.723389 373.770172,530.380981 376.135376,532.772644 
	C382.214661,538.919800 388.372498,544.991760 394.347534,551.238586 
	C397.936462,554.990784 398.377838,559.122803 394.604065,563.562500 
z"/>
<path fill="#4D5286" opacity="1.000000" stroke="none" 
	d="
M893.432739,654.561707 
	C888.604736,649.803162 888.375122,648.379700 891.995422,643.276978 
	C895.550537,638.266113 899.166016,633.285828 903.005615,628.492859 
	C906.201111,624.504028 909.062012,624.309021 911.886169,628.289307 
	C917.066956,635.591125 921.893921,643.156494 926.593567,650.781433 
	C928.674255,654.157227 928.227783,657.652893 924.542297,659.855652 
	C920.996216,661.975037 917.377197,664.144409 913.509705,665.478516 
	C911.693237,666.105164 908.867676,665.386475 907.109192,664.294983 
	C902.464600,661.412292 898.153259,657.992798 893.432739,654.561707 
z"/>
<path fill="#4D5286" opacity="1.000000" stroke="none" 
	d="
M828.613586,845.360107 
	C820.993225,840.046448 813.645752,834.939941 806.536011,829.521362 
	C804.129395,827.687195 803.780029,824.845459 806.133850,822.516663 
	C811.572937,817.135376 817.135071,811.877625 822.685303,806.609741 
	C825.192932,804.229553 827.509521,804.609558 829.258301,807.509277 
	C833.201660,814.047974 837.471069,820.436829 840.832703,827.268066 
	C845.441162,836.633301 839.624695,845.183105 828.613586,845.360107 
z"/>
<path fill="#4D5286" opacity="1.000000" stroke="none" 
	d="
M747.944702,472.995544 
	C753.435791,468.974670 754.822571,468.874908 758.088379,474.254669 
	C762.376587,481.318542 766.201050,488.698486 769.668518,496.199768 
	C770.448608,497.887421 769.698669,501.409393 768.337097,502.769531 
	C761.583984,509.515350 755.565430,513.058228 746.645508,504.314178 
	C742.510864,500.261078 737.825500,496.754028 733.267273,493.154633 
	C730.499817,490.969330 730.405579,488.930847 732.948181,486.618927 
	C737.859558,482.153076 742.767456,477.683380 747.944702,472.995544 
z"/>
<path fill="#4D5286" opacity="1.000000" stroke="none" 
	d="
M596.151855,778.080078 
	C594.400146,779.901672 592.899902,781.464355 591.360168,782.987183 
	C588.658142,785.659363 585.547729,786.118652 582.197571,784.416687 
	C576.405396,781.474121 570.634094,778.488403 564.897644,775.438782 
	C561.586365,773.678467 560.814392,770.909485 563.048828,767.962646 
	C567.979126,761.460266 573.100464,755.098694 578.279663,748.791260 
	C580.371460,746.243774 582.961182,746.231140 585.129944,748.736633 
	C589.595703,753.895874 594.227234,758.958130 598.194824,764.487732 
	C601.507935,769.105103 599.551086,773.701904 596.151855,778.080078 
z"/>
<path fill="#4D5286" opacity="1.000000" stroke="none" 
	d="
M789.250854,314.793610 
	C792.259277,318.178650 791.990601,321.405457 789.765808,324.626434 
	C788.257874,326.809540 786.691040,328.961273 785.017700,331.018982 
	C781.913940,334.835693 777.739990,336.054230 773.410034,334.048462 
	C767.255737,331.197632 761.356201,327.771881 755.466553,324.385345 
	C752.690308,322.789032 752.124268,320.307068 754.234192,317.665283 
	C758.789612,311.961456 763.175964,306.096649 768.078247,300.703796 
	C772.219299,296.148376 774.771973,296.444611 778.617554,301.158783 
	C782.183838,305.530548 785.566711,310.051849 789.250854,314.793610 
z"/>
<path fill="#4D5286" opacity="1.000000" stroke="none" 
	d="
M620.246216,759.231018 
	C623.562622,755.272339 626.606262,751.546387 629.746460,747.903625 
	C632.098206,745.175537 634.420410,745.148682 636.703430,748.138489 
	C640.932678,753.677124 645.278442,759.126892 649.499329,764.671753 
	C651.958374,767.902100 651.746826,771.153564 649.061157,774.176331 
	C647.519592,775.911255 645.911316,777.593872 644.247192,779.211731 
	C639.197998,784.120239 635.666443,784.866943 629.442383,781.914001 
	C624.950378,779.782959 620.568359,777.389404 616.277344,774.873962 
	C611.979919,772.354858 611.563599,769.888062 614.562073,765.966858 
	C616.272888,763.729370 618.190491,761.650024 620.246216,759.231018 
z"/>
<path fill="#4D5286" opacity="1.000000" stroke="none" 
	d="
M726.055725,336.173706 
	C718.740845,332.725983 711.724182,329.412231 704.868164,325.794067 
	C702.430359,324.507507 702.071289,322.206360 703.869385,319.872284 
	C708.330627,314.081390 712.619751,308.145844 717.315002,302.551208 
	C720.859497,298.327850 723.670105,298.190033 727.382629,302.045166 
	C731.981506,306.820679 736.167969,311.993500 740.527405,316.999237 
	C742.626709,319.409729 742.579651,321.732880 740.302795,324.038208 
	C735.968445,328.426819 733.381348,334.804871 726.055725,336.173706 
z"/>
<path fill="#4D5286" opacity="1.000000" stroke="none" 
	d="
M579.974854,829.017456 
	C581.389709,830.888733 582.664246,832.425659 583.787537,834.066040 
	C589.094482,841.815979 589.042358,844.279846 583.545410,850.701477 
	C578.044678,857.127380 573.522278,858.187317 566.048279,854.289795 
	C561.946777,852.151001 558.111755,849.495056 554.188843,847.021179 
	C550.407349,844.636536 549.439880,841.672119 552.417114,837.920044 
	C556.434509,832.856812 560.266785,827.638367 564.451599,822.718811 
	C568.246460,818.257996 571.206726,818.409119 575.134827,822.874695 
	C576.776062,824.740601 578.227234,826.773743 579.974854,829.017456 
z"/>
<path fill="#4D5286" opacity="1.000000" stroke="none" 
	d="
M629.731262,831.605957 
	C622.308716,828.098022 615.085205,824.863586 608.387695,820.768799 
	C607.066589,819.961121 606.646973,815.134827 607.748718,813.373718 
	C611.429749,807.489319 615.844666,802.035339 620.269165,796.655640 
	C622.823914,793.549316 626.144043,793.419556 628.840454,796.561707 
	C633.266357,801.719055 637.581360,806.988037 641.650818,812.428589 
	C644.149658,815.769226 643.813782,819.489319 640.801208,822.397217 
	C637.427917,825.653198 633.692505,828.533936 629.731262,831.605957 
z"/>
<path fill="#4D5286" opacity="1.000000" stroke="none" 
	d="
M909.813843,515.835754 
	C904.163635,522.753967 900.691895,523.561523 893.245361,519.559753 
	C888.560669,517.042175 884.004700,514.281311 879.429443,511.564697 
	C875.919617,509.480713 875.583069,506.703979 878.156616,503.685120 
	C882.904541,498.115723 887.629639,492.516296 892.618835,487.166870 
	C896.168152,483.361420 898.388733,483.578186 901.581177,487.626709 
	C904.773438,491.675018 907.881226,495.797668 910.857300,500.006989 
	C916.020508,507.310059 915.877441,509.002441 909.813843,515.835754 
z"/>
<path fill="#4D5286" opacity="1.000000" stroke="none" 
	d="
M781.837280,362.463135 
	C784.413147,369.945435 782.072327,375.435760 776.269775,379.828156 
	C772.444824,382.723602 768.561890,383.374847 764.248596,380.897186 
	C759.938904,378.421631 755.344482,376.397736 751.218140,373.658875 
	C746.776245,370.710602 746.269836,367.735413 749.311157,363.557007 
	C752.921692,358.596527 756.738464,353.756592 760.811646,349.171539 
	C764.193298,345.364960 767.590088,345.242615 771.090698,348.979095 
	C774.923706,353.070404 778.173706,357.707916 781.837280,362.463135 
z"/>
<path fill="#4D5286" opacity="1.000000" stroke="none" 
	d="
M715.228271,372.869995 
	C719.292114,377.940155 723.343140,382.609924 726.793396,387.687866 
	C728.024414,389.499542 728.989319,393.167542 728.023621,394.491241 
	C724.749023,398.979828 720.666870,402.915039 716.609985,406.763123 
	C715.904419,407.432373 713.646667,407.042969 712.410828,406.476868 
	C706.659668,403.842163 700.925476,401.140350 695.363098,398.133484 
	C691.238770,395.903992 690.625366,393.242004 693.444214,389.548096 
	C697.683838,383.992493 702.203979,378.643524 706.758545,373.338715 
	C709.132141,370.574280 711.975159,369.794708 715.228271,372.869995 
z"/>
<path fill="#4D5286" opacity="1.000000" stroke="none" 
	d="
M438.188416,428.333344 
	C442.139587,432.526489 445.975708,436.442627 449.419281,440.677917 
	C452.244171,444.152344 452.151794,447.736633 449.313934,451.578033 
	C440.345428,463.718414 438.092224,465.209839 421.701355,455.152344 
	C418.550842,453.219147 417.738464,450.704895 419.993164,447.672577 
	C424.330536,441.839294 428.688080,436.012970 433.292297,430.392700 
	C434.268799,429.200684 436.337830,428.903687 438.188416,428.333344 
z"/>
<path fill="#4D5286" opacity="1.000000" stroke="none" 
	d="
M518.217041,382.708405 
	C519.927856,387.617004 520.607910,391.934509 515.563721,394.897156 
	C510.302917,397.987000 501.628876,397.926941 498.319855,394.561157 
	C495.174377,391.361755 492.296082,387.900909 489.266113,384.586273 
	C487.326691,382.464691 487.221252,380.397858 489.553284,378.603027 
	C495.484314,374.038239 501.465485,369.537872 507.463226,365.060822 
	C509.961426,363.196045 511.416504,364.439636 512.341309,366.909790 
	C514.265015,372.048370 516.189148,377.186768 518.217041,382.708405 
z"/>
<path fill="#4D5286" opacity="1.000000" stroke="none" 
	d="
M522.294556,358.252258 
	C525.321350,354.918488 528.149475,351.875275 530.882629,348.749084 
	C533.639404,345.595856 536.267029,345.222656 539.089417,348.688446 
	C541.396973,351.522003 543.950500,354.157104 546.223083,357.016815 
	C549.207458,360.772064 549.183960,364.490814 546.002258,368.300659 
	C539.458618,376.136047 538.278992,376.396973 529.402832,371.264191 
	C527.534241,370.183594 525.587463,369.236053 523.661316,368.257507 
	C516.705994,364.723969 516.646667,364.384277 522.294556,358.252258 
z"/>
<path fill="#4D5286" opacity="1.000000" stroke="none" 
	d="
M268.902527,767.952026 
	C273.674347,761.639526 275.039093,761.716858 278.405518,768.349304 
	C279.601990,770.706604 281.086975,773.096436 281.489594,775.622864 
	C281.830200,777.760132 281.550201,781.082214 280.190887,782.140015 
	C278.336548,783.583069 274.811157,784.446716 272.678284,783.679443 
	C265.342957,781.040771 264.076385,775.223694 268.902527,767.952026 
z"/>
<path fill="#4D5286" opacity="1.000000" stroke="none" 
	d="
M277.953613,805.450439 
	C280.059570,801.735779 282.149384,798.248291 284.588348,795.024963 
	C284.928741,794.575073 287.602264,794.987000 288.140259,795.747070 
	C290.429871,798.981506 292.603577,802.374390 294.181458,805.988037 
	C294.630585,807.016479 293.337585,809.724304 292.136414,810.394226 
	C287.165894,813.166443 283.151367,811.671387 277.953613,805.450439 
z"/>
<path fill="#4D5286" opacity="1.000000" stroke="none" 
	d="
M262.081024,831.898071 
	C259.880737,827.202942 259.855225,822.253235 263.787720,819.838318 
	C267.505035,817.555420 270.204590,822.007080 272.394592,824.691772 
	C276.053375,829.177124 276.185028,833.043762 273.326569,835.327393 
	C270.164093,837.853821 265.989166,836.682190 262.081024,831.898071 
z"/>
<path fill="#4D5286" opacity="1.000000" stroke="none" 
	d="
M283.606323,736.637817 
	C284.948486,737.862061 286.104279,738.820068 287.079254,739.936035 
	C290.269653,743.587585 290.291687,747.543213 287.222412,750.551270 
	C284.568939,753.151855 280.343781,752.985657 276.863403,750.043335 
	C273.291260,747.023438 273.854645,743.577026 276.465485,740.437805 
	C278.177002,738.380066 279.251312,734.635620 283.606323,736.637817 
z"/>
</svg>