<svg version="1.1" id="Layer_1" xmlns="http://www.w3.org/2000/svg" xmlns:xlink="http://www.w3.org/1999/xlink" x="0px" y="0px"
	 width="100%" viewBox="0 0 932 979" enable-background="new 0 0 932 979" xml:space="preserve">
<path fill="#2E368F" opacity="1.000000" stroke="none" 
	d="
M843.000000,980.000000 
	C819.644653,980.000000 796.289307,980.000000 772.344971,979.615723 
	C765.781128,951.063110 760.037476,922.842529 753.690857,894.758118 
	C751.782593,886.313843 748.195923,878.248901 744.876953,868.544800 
	C733.795837,875.171692 724.094971,880.890137 714.550964,886.859375 
	C713.883423,887.276855 713.809875,889.902222 714.428040,890.903320 
	C717.396667,895.711243 721.005066,900.137390 723.813110,905.028259 
	C728.598267,913.362671 734.330444,921.508057 737.180664,930.518677 
	C741.884949,945.390442 744.634644,960.882568 748.127258,976.131775 
	C748.405762,977.347656 748.057190,978.707214 748.000000,980.000000 
	C735.311340,980.000000 722.622620,980.000000 709.476807,979.582031 
	C708.640015,972.069214 707.878479,971.072693 700.335510,970.572510 
	C665.801758,968.282227 631.259705,966.117004 596.718506,963.940430 
	C592.403625,963.668457 588.067810,963.346130 583.756836,963.493042 
	C578.362366,963.676941 576.624023,966.091125 577.746277,971.306030 
	C578.375610,974.230225 579.240967,977.103699 580.000000,980.000000 
	C387.030212,980.000000 194.060394,980.000000 1.045296,980.000000 
	C1.045296,653.747925 1.045296,327.495850 1.045296,1.121884 
	C311.666626,1.121884 622.333313,1.121884 933.000000,1.116107 
	C933.000000,96.762238 933.000000,192.414139 932.702393,288.363068 
	C931.160217,286.698975 929.696411,284.841553 928.711304,282.757782 
	C925.442017,275.841919 920.155090,272.467529 912.511292,271.253906 
	C899.028503,269.113281 885.680908,266.112915 872.293274,263.390930 
	C870.508118,263.027985 868.819763,262.189240 866.343689,261.305786 
	C868.887756,258.888031 871.223206,257.481750 872.328796,255.416931 
	C873.787476,252.692612 875.365295,249.216064 874.779785,246.521881 
	C874.433044,244.926483 870.027527,243.309097 867.425293,243.273178 
	C858.773438,243.153763 850.101135,243.587585 841.460510,244.166306 
	C839.039490,244.328445 836.700806,245.720184 834.324402,246.547928 
	C834.217407,247.189819 834.110474,247.831726 834.003540,248.473618 
	C838.835632,251.330841 843.667725,254.188065 848.499817,257.045288 
	C848.293213,257.542877 848.086609,258.040497 847.880005,258.538086 
	C840.917236,257.186707 833.907654,256.038361 827.000549,254.445602 
	C806.865356,249.802444 786.800354,246.677231 766.296082,252.790665 
	C758.996338,254.967117 751.209656,255.454117 743.777161,257.256592 
	C735.714111,259.212036 727.566284,261.209381 719.901978,264.297058 
	C713.439453,266.900574 707.616455,271.091431 700.375183,275.228210 
	C703.030762,276.339630 704.037170,277.073364 705.096313,277.159607 
	C780.957031,283.333466 856.870483,288.591400 933.000000,290.000000 
	C933.000000,445.355347 933.000000,600.710693 932.568481,756.613770 
	C917.697632,757.166504 903.256287,757.030029 888.820068,757.243347 
	C882.664001,757.334351 880.404724,759.706421 881.545471,764.584717 
	C883.548584,773.150818 885.976379,781.617920 888.248413,790.120544 
	C889.153748,793.508728 891.097778,794.604431 894.596069,793.404053 
	C901.350159,791.086670 908.112061,788.699219 915.029602,786.979858 
	C920.903748,785.519775 927.001282,784.958801 933.000000,784.000000 
	C933.000000,824.022034 933.000000,864.044006 932.687744,904.642090 
	C924.988098,912.032593 924.987976,912.032715 932.241211,918.368469 
	C932.488953,918.584900 932.746826,918.789795 933.000000,919.000000 
	C933.000000,928.355347 933.000000,937.710693 932.696289,947.389526 
	C925.772095,940.959167 919.203857,934.153137 912.510498,927.472473 
	C908.885620,923.854431 905.980469,923.664185 903.850830,927.194580 
	C899.737854,934.012695 895.884399,941.001465 892.242432,948.083557 
	C890.470642,951.528870 891.486877,954.406799 895.296875,956.220337 
	C901.291748,959.073792 907.139526,962.234558 913.098083,965.166626 
	C919.416992,968.276123 924.259583,967.526794 929.576538,962.823242 
	C930.683716,961.843750 931.857117,960.939148 933.000000,960.000000 
	C933.000000,966.632019 933.000000,973.264038 933.000000,980.000000 
	C911.978088,980.000000 890.956055,980.000000 869.607056,979.693787 
	C870.751770,976.988831 875.379761,975.924500 872.726196,971.771301 
	C866.562134,962.123413 860.451233,952.434875 853.995544,942.983704 
	C851.870178,939.872131 848.765198,939.953918 845.852600,942.684509 
	C841.007751,947.226562 836.079346,951.680969 831.130188,956.109741 
	C826.694214,960.079285 826.624390,961.810242 830.761902,966.354797 
	C834.874878,970.872559 838.923279,975.449158 843.000000,980.000000 
M658.405945,433.040588 
	C655.425720,432.730530 652.451721,432.329956 649.464294,432.124603 
	C623.779175,430.359039 600.860474,438.015686 579.910889,452.496399 
	C555.221680,469.562042 538.563599,491.841492 534.459717,522.271179 
	C531.492859,544.270508 537.415955,563.066467 554.470459,577.981140 
	C564.965698,587.159668 576.177612,595.150269 589.232788,600.202942 
	C628.241089,615.299622 664.855713,613.529480 697.496765,584.493103 
	C705.534180,577.343262 713.197266,569.746826 716.649231,559.318848 
	C724.857544,534.522339 726.535339,509.578339 718.215149,484.252594 
	C708.697449,455.281677 688.846069,438.737976 658.405945,433.040588 
M734.257263,737.962769 
	C752.748413,738.878113 771.268433,741.146545 790.370483,737.262146 
	C786.802673,729.214172 783.782104,722.195374 774.134277,720.815735 
	C763.927673,719.356140 753.844360,717.009338 743.728333,714.946045 
	C706.359192,707.324219 669.001526,699.646057 631.632385,692.024170 
	C625.710815,690.816406 619.772278,689.928284 614.120789,693.210754 
	C597.564331,702.827087 580.991211,712.414734 564.447632,722.053223 
	C563.146484,722.811279 562.023865,723.875977 560.818237,724.798157 
	C560.952454,725.345581 561.086670,725.893005 561.220886,726.440491 
	C618.583252,730.267578 675.945618,734.094666 734.257263,737.962769 
M754.251770,435.548370 
	C792.502380,426.691101 830.799866,418.026459 868.943726,408.731201 
	C873.677307,407.577728 878.754639,403.932068 881.683533,399.970581 
	C892.757019,384.993225 903.022400,369.417725 913.550354,354.038818 
	C914.481628,352.678345 915.124268,351.120300 916.617493,348.301117 
	C913.505066,349.110657 911.920593,349.372314 910.447083,349.928192 
	C880.551880,361.206299 850.677490,372.539673 820.774963,383.798157 
	C816.685120,385.338013 813.536438,387.580780 811.847351,391.842621 
	C809.193787,398.538177 803.735657,401.860046 796.890747,402.780884 
	C791.294312,403.533752 785.585571,403.458344 779.992126,404.226807 
	C772.774048,405.218414 765.212891,405.612549 758.521057,408.159546 
	C742.200684,414.371368 726.256531,421.585449 710.257080,428.614746 
	C707.031494,430.031952 704.230530,432.415833 700.510498,434.821808 
	C707.812256,440.439606 713.666626,446.208557 723.025879,443.665741 
	C733.136963,440.918579 743.308716,438.394714 754.251770,435.548370 
M664.132568,871.310242 
	C684.927002,866.631104 705.684998,861.779114 726.537964,857.377197 
	C732.856262,856.043518 737.408325,853.094360 741.031494,847.828064 
	C751.323120,832.869202 761.874023,818.088867 772.288086,803.213867 
	C772.960571,802.253418 773.337891,801.086304 774.495422,798.677185 
	C769.155762,800.025024 765.031433,800.640259 761.227905,802.094604 
	C733.843567,812.564453 706.478577,823.090027 679.247681,833.949768 
	C676.190308,835.169006 673.134338,838.131165 671.604980,841.077759 
	C668.476746,847.104797 663.998108,850.768616 657.483276,851.751648 
	C651.399902,852.669678 645.210266,852.874451 639.119873,853.756042 
	C632.060120,854.777893 624.654968,855.143188 618.109680,857.648376 
	C601.629883,863.956055 585.511963,871.221741 569.341064,878.313232 
	C566.248718,879.669373 563.578064,881.986938 560.071228,884.280640 
	C567.655945,889.421631 573.402283,895.502502 583.181580,892.795837 
	C609.817749,885.423889 636.589722,878.542542 664.132568,871.310242 
M669.312439,632.096680 
	C665.206238,632.739868 661.092834,633.340332 656.995483,634.035461 
	C649.575989,635.294312 647.618958,638.285156 647.207520,648.833191 
	C646.992981,654.332703 649.068787,656.938293 656.074036,658.084778 
	C677.389038,661.573303 698.751038,664.776550 720.104309,668.027649 
	C721.809692,668.287292 723.588806,668.061890 725.854004,668.061890 
	C725.450867,664.912170 725.222168,662.461365 724.812378,660.041321 
	C723.230591,650.700134 721.552307,641.375183 719.985413,632.031616 
	C718.784668,624.871582 717.537720,623.825195 710.458557,625.007812 
	C697.015320,627.253540 683.590820,629.611511 669.312439,632.096680 
M439.856995,736.499573 
	C437.234283,736.943909 434.626892,737.590027 431.985687,737.790710 
	C426.447571,738.211243 423.825012,741.046814 423.085815,746.564636 
	C421.526886,758.201660 422.047729,759.205566 433.790924,762.299194 
	C435.076538,762.637878 436.367706,762.987061 437.677826,763.196594 
	C454.264557,765.848877 470.844604,768.546936 487.452667,771.059326 
	C491.453461,771.664490 495.550507,771.633850 500.168121,771.932007 
	C500.005554,769.428833 500.024017,767.791199 499.775391,766.195190 
	C498.138062,755.685364 496.515411,745.172363 494.741943,734.685059 
	C493.546539,727.615967 493.062286,727.355835 485.920013,728.576843 
	C470.845093,731.153870 455.774200,733.754333 439.856995,736.499573 
M513.821838,846.618591 
	C507.145813,845.230408 500.512177,843.575317 493.785248,842.507996 
	C478.352081,840.059265 462.872314,837.904785 447.413971,835.614014 
	C443.193512,834.988586 441.627350,836.513489 442.466858,840.880493 
	C443.407593,845.773865 443.841736,850.762695 444.578430,855.697693 
	C445.723236,863.366272 446.937439,871.024536 448.150940,878.872925 
	C456.128540,877.407288 463.262146,875.899841 470.459656,874.816589 
	C484.108704,872.762512 497.797913,870.976318 511.462799,869.025574 
	C516.006836,868.376953 518.836853,865.742310 518.925903,861.084900 
	C519.024353,855.939392 521.840393,849.784302 513.821838,846.618591 
M653.056091,289.402069 
	C652.687256,287.170807 652.013916,285.532715 649.152771,286.619629 
	C644.644043,288.332306 640.063782,289.855774 635.534912,291.516876 
	C632.397949,292.667419 631.135925,294.892975 631.965271,298.201019 
	C637.544800,320.456970 643.095032,342.720398 648.765930,364.953125 
	C649.145020,366.439545 650.508606,368.906769 651.290955,368.859833 
	C656.625427,368.539856 662.202087,368.455017 667.150879,366.723328 
	C671.035889,365.363922 669.281250,360.913422 668.580444,357.795685 
	C663.511414,335.245087 658.321472,312.721649 653.056091,289.402069 
M312.893707,702.095398 
	C312.669739,712.562439 312.417633,723.029053 312.232697,733.496765 
	C312.128082,739.418762 312.550476,739.800659 318.553101,738.587402 
	C331.739807,735.922058 344.919617,733.217834 358.071106,730.385071 
	C362.928894,729.338867 367.780396,728.127258 372.482941,726.541016 
	C375.980682,725.361084 377.476685,722.510254 375.779053,718.970459 
	C373.166168,713.522095 369.220154,709.081299 363.090576,707.907715 
	C347.756561,704.971741 332.355194,702.380981 316.951447,699.829163 
	C315.748749,699.629883 314.317322,700.811768 312.893707,702.095398 
M381.048279,946.281799 
	C387.704803,944.803772 394.463684,943.662231 400.968109,941.684021 
	C403.614258,940.879333 406.836761,938.711487 407.786591,936.353821 
	C409.197968,932.850586 402.320801,924.176025 398.347748,923.437012 
	C382.972290,920.577271 367.591888,917.741333 352.192230,915.015747 
	C346.524445,914.012634 344.297729,915.586914 344.096344,921.417725 
	C343.781189,930.543457 344.047546,939.688538 344.021545,948.825317 
	C344.010559,952.694580 345.808563,953.678528 349.449585,952.875305 
	C359.679932,950.618713 369.954254,948.561584 381.048279,946.281799 
M503.559631,931.153687 
	C497.317841,930.113892 491.091980,928.963379 484.829926,928.064880 
	C478.295258,927.127319 476.549927,928.525085 476.327118,934.961792 
	C476.010284,944.113586 475.878601,953.272461 475.752686,962.429504 
	C475.733337,963.836060 476.168427,965.248840 476.432220,966.902283 
	C478.377899,966.623169 479.852203,966.495483 481.289581,966.192627 
	C496.754822,962.934021 512.261169,959.846802 527.641113,956.223999 
	C531.327576,955.355652 534.672485,952.814880 537.984680,950.740295 
	C538.792664,950.234192 539.551331,948.058167 539.143066,947.454407 
	C536.034973,942.858337 533.796936,937.272583 527.403015,935.994568 
	C519.731384,934.461121 512.071716,932.867493 503.559631,931.153687 
M396.848572,816.686462 
	C383.724762,814.388367 370.603973,812.072693 357.475952,809.798950 
	C350.381165,808.570190 348.478638,810.122559 348.186890,817.435181 
	C347.848206,825.924072 347.711670,834.422607 347.261566,842.904907 
	C347.038879,847.101807 348.206543,848.861877 352.689972,847.649536 
	C356.860504,846.521729 361.162048,845.887146 365.387604,844.952576 
	C378.392090,842.076355 391.412048,839.263672 404.377014,836.217957 
	C411.207855,834.613159 413.382660,829.020264 408.692535,823.952026 
	C405.813141,820.840515 401.378876,819.168030 396.848572,816.686462 
M553.630798,658.639648 
	C550.342224,655.265137 547.573242,649.881714 543.672852,648.872986 
	C528.882996,645.048096 513.754211,642.486328 498.691711,639.790222 
	C493.847076,638.923035 491.716400,641.159241 491.568268,646.322632 
	C491.305756,655.474731 491.203491,664.631836 491.094482,673.787537 
	C491.077454,675.221008 491.378662,676.658325 491.612122,678.833801 
	C497.571564,677.567566 503.035187,676.381592 508.509827,675.248718 
	C520.401855,672.787903 532.354858,670.588257 544.166138,667.788696 
	C548.599182,666.737915 553.460815,665.167786 553.630798,658.639648 
M848.105469,892.468201 
	C845.886597,896.939331 843.743958,901.450500 841.424683,905.868958 
	C839.552124,909.436462 840.435913,911.671570 844.056396,913.426270 
	C852.288086,917.415955 860.423096,921.607056 868.565857,925.777832 
	C877.268372,930.235291 885.838928,928.479004 892.141052,920.863159 
	C896.052795,916.135986 895.965332,912.988953 891.590454,908.787476 
	C883.912659,901.413879 876.174011,894.103333 868.443054,886.785278 
	C866.390015,884.841919 864.372620,882.840393 862.162964,881.087219 
	C857.490601,877.379883 855.105530,877.950439 852.492798,883.231445 
	C851.091370,886.064087 849.757202,888.930054 848.105469,892.468201 
M777.280212,581.008179 
	C785.006958,584.473083 792.689697,588.040649 800.473755,591.371460 
	C807.094788,594.204468 810.081482,593.458252 815.108643,588.173523 
	C816.479736,586.732117 817.793091,585.222778 819.007690,583.647949 
	C822.593811,578.998535 822.614685,577.021545 818.401550,572.913940 
	C809.126648,563.871521 799.744263,554.937256 790.297546,546.074280 
	C785.831421,541.884094 782.729553,542.505859 779.709778,548.021057 
	C776.758057,553.411682 773.951843,558.882202 771.105286,564.329895 
	C765.369446,575.307129 765.376099,575.310608 777.280212,581.008179 
M559.174377,331.903168 
	C559.083557,334.187195 558.484863,336.588348 558.980408,338.737122 
	C563.988403,360.447968 569.146057,382.124603 574.354919,403.788422 
	C574.909485,406.094757 576.057556,408.258392 576.944031,410.523468 
	C587.080322,405.734802 590.856750,399.009674 589.197693,389.012939 
	C588.272644,383.438934 587.123718,377.890747 585.807190,372.395203 
	C582.243225,357.517426 578.577393,342.663513 574.832031,327.830383 
	C574.367126,325.988892 574.161255,322.707825 570.888000,324.350464 
	C566.943848,326.329773 563.307800,328.923035 559.174377,331.903168 
M850.019165,553.537964 
	C856.121155,547.443298 856.737549,544.519104 852.555420,539.570496 
	C842.471252,527.638489 832.300354,515.779663 822.123169,503.926788 
	C821.129272,502.769135 819.849121,501.857239 818.007080,500.209961 
	C813.838501,509.339935 809.908081,517.551819 806.332703,525.915344 
	C803.871765,531.671814 805.463196,533.928040 811.665161,534.343689 
	C814.846436,534.556946 818.030029,534.735962 821.212585,534.930481 
	C821.290100,535.448914 821.367676,535.967346 821.445190,536.485840 
	C818.586060,538.077820 815.726868,539.669861 812.180908,541.644287 
	C820.655518,546.550720 828.251343,550.907593 835.805847,555.334839 
	C842.119629,559.035034 843.909241,558.895752 850.019165,553.537964 
M888.437805,870.572510 
	C890.209778,870.875854 891.981750,871.179199 894.796631,871.661133 
	C891.555054,874.438354 889.331848,876.343079 886.595093,878.687805 
	C888.441711,879.814880 889.764954,880.732910 891.182861,881.468628 
	C896.934509,884.453247 902.661743,887.492676 908.496704,890.307129 
	C919.494263,895.611816 916.345520,896.657043 925.145752,887.291870 
	C929.845520,882.290466 929.769714,880.021606 925.311951,874.864685 
	C918.034302,866.445618 910.761475,858.022095 903.440979,849.640381 
	C899.765869,845.432556 895.990112,841.312683 891.370361,836.161072 
	C886.716003,846.154053 882.363770,855.043762 878.468811,864.129456 
	C877.251343,866.969543 878.977356,869.350037 882.135803,870.018616 
	C883.906982,870.393494 885.763977,870.363464 888.437805,870.572510 
M865.712646,561.181030 
	C862.000671,565.456543 858.368530,569.805237 854.543701,573.977295 
	C852.568848,576.131531 852.958801,577.677368 855.029114,579.365540 
	C861.869263,584.943237 868.533813,590.745728 875.521790,596.129700 
	C881.623962,600.831116 896.219971,597.009338 899.197266,590.039856 
	C899.843567,588.526978 899.657593,586.450867 899.300781,584.750427 
	C896.704956,572.378479 888.762634,563.021484 881.249573,553.477783 
	C878.812134,550.381531 875.626038,550.782593 872.945190,553.303955 
	C870.527710,555.577576 868.433044,558.194336 865.712646,561.181030 
M819.011719,323.436066 
	C824.057495,327.494751 829.082520,331.579590 834.153381,335.606628 
	C844.830322,344.085785 847.069153,344.078156 858.239868,336.738464 
	C862.384521,334.015228 863.285095,330.822266 862.023132,326.133057 
	C858.664429,313.653503 850.560913,304.197388 842.689026,294.536591 
	C840.658447,292.044464 839.247864,293.576752 837.868103,295.098297 
	C831.176025,302.478088 824.578857,309.944794 817.830200,317.272125 
	C815.666565,319.621368 816.194580,321.319855 819.011719,323.436066 
M427.569977,506.862213 
	C423.750580,501.834442 419.844208,496.869507 416.147247,491.753265 
	C414.195862,489.052795 412.614807,489.413635 410.633728,491.629028 
	C404.093262,498.943237 397.582855,506.289093 390.852631,513.426392 
	C388.279480,516.155151 388.891144,517.725037 391.597656,519.743103 
	C398.129791,524.613586 404.498383,529.703247 410.938416,534.697388 
	C417.771027,539.996033 431.276703,537.205322 435.252106,529.473022 
	C435.983459,528.050537 436.039215,525.766724 435.440674,524.265747 
	C433.171295,518.574463 430.504883,513.041504 427.569977,506.862213 
M710.809692,790.408997 
	C712.657410,789.286072 714.531677,788.204285 716.348083,787.032776 
	C722.563904,783.023926 722.940125,781.677551 721.012939,774.754089 
	C717.824219,763.299194 710.244934,754.627075 702.927063,745.795654 
	C700.547485,742.923950 697.876099,743.759644 695.669739,746.181335 
	C689.396851,753.066406 683.230591,760.048401 676.969299,766.944092 
	C675.273682,768.811523 675.175293,770.376770 677.311707,771.904846 
	C685.960266,778.090637 694.497620,784.442566 703.341553,790.334595 
	C704.978149,791.425049 707.842957,790.671936 710.809692,790.408997 
M755.900635,628.579346 
	C762.330017,635.304260 768.683472,642.104004 775.215698,648.727539 
	C779.552673,653.125183 783.007141,653.335999 788.005554,649.605957 
	C791.729248,646.827087 795.083435,643.540833 798.877441,640.871948 
	C802.057251,638.635010 802.410950,636.640808 800.055908,633.537170 
	C793.430298,624.805664 786.969604,615.947937 780.516663,607.087036 
	C778.252563,603.978027 775.854614,603.664368 773.014587,606.207520 
	C767.691711,610.973877 762.339417,615.707764 757.045715,620.506226 
	C754.749146,622.587891 753.626038,625.015503 755.900635,628.579346 
M745.522400,750.991821 
	C742.456116,756.700684 739.394043,762.411743 736.322083,768.117554 
	C734.252808,771.961182 735.189453,774.654175 739.168396,776.586060 
	C745.584229,779.700806 751.887512,783.046387 758.258606,786.254272 
	C764.484131,789.388916 767.798584,788.272827 774.760864,781.496338 
	C778.963440,777.405762 777.917419,772.947998 775.132263,769.348572 
	C769.695801,762.322937 763.726196,755.669434 757.567871,749.255005 
	C752.341492,743.811218 750.281372,744.236450 745.522400,750.991821 
M846.059814,695.461914 
	C844.238892,698.628296 841.915771,701.627441 840.784912,705.023560 
	C840.104248,707.067810 840.438782,711.057251 841.760376,711.894836 
	C849.170410,716.590332 856.864868,720.915649 864.777161,724.710632 
	C869.525635,726.988159 874.734802,723.960388 879.534180,717.223938 
	C882.188599,713.498230 881.979919,709.263062 879.249146,706.107239 
	C873.071655,698.968140 866.436218,692.209534 859.749817,685.533813 
	C856.783081,682.571838 853.707153,683.311462 851.440979,686.814148 
	C849.728455,689.461243 848.115417,692.172791 846.059814,695.461914 
M539.168701,385.541687 
	C534.871155,392.945709 530.275513,400.199310 526.425171,407.829010 
	C524.920166,410.811279 526.578064,414.003357 529.738159,415.834869 
	C534.189392,418.414673 538.595764,421.076599 543.107178,423.546722 
	C551.711975,428.258179 556.075806,427.625946 563.148865,420.856140 
	C568.498413,415.735962 568.790100,411.688110 563.697510,406.332367 
	C557.638855,399.960693 551.398132,393.754669 545.046997,387.674530 
	C543.745728,386.428802 541.607361,386.057587 539.168701,385.541687 
M379.896027,640.275146 
	C379.168488,641.585999 378.425690,642.888672 377.716187,644.209229 
	C374.815674,649.607605 375.006195,650.774780 380.161255,653.840149 
	C385.885040,657.243652 391.666809,660.577576 397.602448,663.588623 
	C402.794495,666.222595 411.833893,663.454346 415.617554,658.489136 
	C418.483154,654.728516 417.875031,648.854919 413.447723,643.888000 
	C407.913086,637.678894 402.076569,631.728699 396.190125,625.847168 
	C392.716675,622.376648 389.822754,622.772705 387.268799,626.955994 
	C384.754059,631.074951 382.559662,635.389587 379.896027,640.275146 
M882.562683,309.944794 
	C880.579651,313.781586 878.430481,317.546448 876.718567,321.500610 
	C876.227966,322.633850 876.503113,325.156891 877.273438,325.612823 
	C884.404358,329.833313 891.582825,334.024292 899.030823,337.640442 
	C904.111328,340.107117 909.472839,338.229675 913.811890,333.538208 
	C917.348877,329.713898 918.766846,324.427551 915.503845,320.289215 
	C909.373962,312.514984 902.376465,305.404572 895.491272,298.257507 
	C893.195068,295.874023 890.559021,296.730225 888.822876,299.487396 
	C886.788940,302.717499 884.881836,306.027435 882.562683,309.944794 
M846.963074,599.576721 
	C844.092163,597.059692 841.357544,594.360901 838.311707,592.077148 
	C835.313904,589.829468 832.185852,590.116089 830.236267,593.533142 
	C826.366760,600.315063 822.666809,607.200684 819.167480,614.179199 
	C818.662903,615.185425 819.197571,617.746948 820.034668,618.229370 
	C827.223022,622.371948 834.397400,626.641541 841.968140,629.985168 
	C847.986145,632.643066 854.210876,629.799011 858.323914,623.836121 
	C861.393677,619.385803 860.752075,614.031677 856.221619,608.911438 
	C853.476257,605.808716 850.405884,602.993530 846.963074,599.576721 
M434.750580,574.179138 
	C432.481659,577.264893 430.151398,580.307861 427.958527,583.446777 
	C424.847565,587.899841 425.107269,590.114197 429.380798,593.669006 
	C432.705597,596.434631 436.232208,598.958496 439.683044,601.571411 
	C446.370392,606.634888 453.275818,606.285217 460.237213,602.247742 
	C464.584900,599.726257 465.777100,596.725830 463.389130,592.206848 
	C459.993286,585.780640 456.524445,579.276733 452.167328,573.499451 
	C443.725616,562.306274 443.459900,562.506653 434.750580,574.179138 
M805.745972,828.695251 
	C812.446106,833.862610 818.901672,839.410278 825.992493,843.969971 
	C828.175720,845.374023 832.671509,845.120422 835.083069,843.780396 
	C838.770508,841.731628 843.972534,838.964050 842.812683,833.833984 
	C840.252136,822.507996 833.823242,813.059082 825.988647,803.591431 
	C818.874023,810.312988 812.158142,816.451843 805.770935,822.915466 
	C804.817261,823.880554 805.407410,826.371216 805.745972,828.695251 
M365.191620,542.646545 
	C362.702728,546.967407 360.334869,551.364258 357.685272,555.584229 
	C355.689819,558.762390 356.695465,560.268005 359.911011,561.492249 
	C364.237213,563.139221 368.668030,564.733765 372.630768,567.069031 
	C382.263580,572.745728 386.633118,572.239319 394.265076,563.735352 
	C398.148315,559.408386 398.342133,556.235962 394.532349,551.856201 
	C391.153870,547.972351 387.536591,544.289490 383.918915,540.622253 
	C380.465057,537.121033 376.874603,533.754578 372.702576,529.706299 
	C370.010773,534.361572 367.795044,538.193542 365.191620,542.646545 
M908.249023,665.079773 
	C910.099426,665.217773 912.210571,665.994263 913.748108,665.366211 
	C917.415588,663.868042 920.789856,661.663818 924.324524,659.825562 
	C928.306824,657.754456 928.877563,654.665161 926.661926,651.135620 
	C921.808167,643.403259 916.876648,635.713013 911.732849,628.171997 
	C909.033691,624.214905 906.450195,624.255127 903.426025,628.113831 
	C899.533997,633.079773 895.853638,638.213196 892.137451,643.314880 
	C888.093933,648.865845 888.350342,650.435791 894.002502,654.664551 
	C898.524597,658.047852 903.106384,661.351318 908.249023,665.079773 
M744.597534,476.120270 
	C740.535522,479.807434 736.505066,483.530212 732.396912,487.165161 
	C730.630371,488.728180 729.745605,490.167206 732.011902,492.002228 
	C738.470459,497.231812 744.659973,502.851410 751.501038,507.517578 
	C753.726318,509.035461 757.857361,508.864716 760.710022,508.047089 
	C763.575562,507.225769 766.291687,504.965302 768.380005,502.697174 
	C769.618347,501.352203 770.503967,498.344910 769.844604,496.823212 
	C767.079407,490.441376 764.098022,484.069763 760.402710,478.193085 
	C754.178650,468.294891 753.925171,468.454254 744.597534,476.120270 
M585.508911,749.072693 
	C583.538147,746.680725 581.296631,745.493591 578.912109,748.364441 
	C573.501404,754.878601 568.144104,761.441284 562.939087,768.119873 
	C560.816711,770.843079 561.337952,773.399658 564.559082,775.108276 
	C569.105469,777.520020 573.584106,780.071533 578.212830,782.313171 
	C587.719482,786.917236 589.115234,786.532104 595.805847,778.223755 
	C596.326172,777.577637 596.834595,776.916443 597.288208,776.222778 
	C600.753601,770.924011 600.731506,767.551941 596.818970,762.594910 
	C593.322754,758.165405 589.596313,753.917542 585.508911,749.072693 
M777.516479,299.928802 
	C774.913147,295.670868 771.449402,297.154053 769.221558,299.623962 
	C763.781555,305.654968 758.778503,312.101776 753.951538,318.641083 
	C753.217041,319.636047 753.765259,323.021057 754.733093,323.596405 
	C761.278076,327.486908 767.875305,331.454865 774.890808,334.339233 
	C781.154602,336.914459 792.813171,325.184113 791.108093,318.527344 
	C790.793518,317.299347 789.956970,316.149689 789.171265,315.107178 
	C785.475464,310.203766 781.713440,305.350250 777.516479,299.928802 
M725.701233,336.127136 
	C728.019043,335.036255 730.759338,334.404785 732.558472,332.750031 
	C735.469055,330.073151 738.088013,326.926056 740.166077,323.566742 
	C741.100464,322.056244 741.300110,318.914978 740.340820,317.614014 
	C736.308838,312.145569 731.890259,306.928650 727.267090,301.940430 
	C723.646057,298.033508 721.286682,298.150330 717.788513,302.321320 
	C712.874939,308.179840 708.315491,314.334686 703.575867,320.340088 
	C702.060669,322.259827 701.849548,323.956390 704.268921,325.231659 
	C711.158447,328.863007 718.069885,332.452911 725.701233,336.127136 
M564.916809,853.445557 
	C565.661499,853.817688 566.403076,854.196167 567.151184,854.561157 
	C575.659485,858.711487 586.958801,852.247192 587.789612,842.637756 
	C587.906677,841.283569 587.457642,839.596130 586.667542,838.495972 
	C582.787964,833.093628 578.802612,827.759521 574.662903,822.553894 
	C571.238831,818.248108 568.708435,818.094849 565.010742,822.409668 
	C560.367310,827.828247 556.189880,833.645020 551.779602,839.265076 
	C549.466614,842.212585 550.306641,844.480225 553.214233,846.304688 
	C556.875854,848.602356 560.569946,850.848206 564.916809,853.445557 
M640.681030,753.751404 
	C639.383728,752.024292 637.994568,750.357727 636.808594,748.557251 
	C634.481018,745.023438 632.267273,744.712158 629.468018,748.189331 
	C624.570740,754.272461 619.401917,760.136230 614.465149,766.188477 
	C611.365906,769.987915 612.002930,772.461609 616.465515,774.920227 
	C618.939880,776.283508 621.521545,777.464966 623.929016,778.934448 
	C637.346436,787.123962 641.128235,783.433899 649.561462,773.448975 
	C651.945129,770.626770 651.805481,767.720642 649.494751,764.847656 
	C646.682983,761.351746 643.922729,757.814453 640.681030,753.751404 
M902.673767,521.916565 
	C906.428894,518.051941 910.541748,514.453674 913.731812,510.168457 
	C914.754578,508.794617 914.064697,505.138611 912.904480,503.332062 
	C909.139771,497.470062 904.831970,491.952881 900.653687,486.362427 
	C898.856873,483.958313 896.449646,483.323120 894.312988,485.683136 
	C888.625061,491.965729 883.094116,498.392853 877.596069,504.843628 
	C875.205627,507.648285 876.687134,509.859436 879.269104,511.379700 
	C884.997498,514.752625 890.768860,518.064941 896.656982,521.145325 
	C898.173462,521.938660 900.187988,521.780151 902.673767,521.916565 
M641.651428,821.204346 
	C644.375793,817.570801 643.082886,814.206665 640.709595,811.148499 
	C636.936096,806.286011 633.030518,801.520813 629.047363,796.827759 
	C625.751038,792.943848 623.636536,792.986694 620.192261,796.985474 
	C617.478455,800.136047 614.900208,803.411621 612.394470,806.731812 
	C603.579712,818.411682 603.820496,819.059509 616.538513,826.189026 
	C633.450317,835.669556 631.701355,832.107605 641.651428,821.204346 
M765.975403,381.388062 
	C771.814575,382.994812 776.009155,381.273407 780.421570,375.459778 
	C783.505737,371.396057 784.062683,365.867096 780.973633,361.447479 
	C777.757446,356.845795 773.974854,352.613892 770.200317,348.436768 
	C767.228516,345.147858 763.986145,345.620941 761.265198,348.899933 
	C757.127441,353.886353 752.961426,358.866425 749.138123,364.091187 
	C746.120667,368.214752 746.746338,370.845398 751.248840,373.538818 
	C755.804504,376.264008 760.603821,378.581757 765.975403,381.388062 
M692.061707,392.219025 
	C690.992615,395.616180 693.190918,397.115784 695.701294,398.352936 
	C701.223389,401.074310 706.755249,403.777466 712.327332,406.394012 
	C713.319092,406.859741 715.091248,407.448517 715.542236,407.004517 
	C719.949768,402.665070 724.290588,398.234558 728.282104,393.518250 
	C728.961121,392.715912 728.399780,390.065338 727.547485,388.901306 
	C723.523254,383.405029 719.241211,378.094330 714.965027,372.786804 
	C712.433960,369.645294 709.509644,370.333649 707.307861,372.927673 
	C702.148621,379.006042 697.291748,385.341064 692.061707,392.219025 
M435.727295,461.765259 
	C437.966553,460.961212 440.633179,460.667786 442.345825,459.234497 
	C444.973145,457.035706 446.799438,453.910675 449.227722,451.435852 
	C452.787018,447.808441 452.096375,444.264496 449.305634,440.789734 
	C446.192230,436.913208 442.842133,433.227692 439.639404,429.421692 
	C437.912354,427.369324 436.089081,426.902222 434.333435,429.190369 
	C429.214691,435.861694 424.175842,442.594574 419.133118,449.323883 
	C417.588806,451.384766 418.112274,452.972900 420.372498,454.119141 
	C425.243774,456.589478 430.099487,459.090485 435.727295,461.765259 
M487.555328,380.900696 
	C490.218414,384.342255 492.684967,387.960419 495.585632,391.188507 
	C501.546234,397.821777 505.646698,398.676880 513.960144,395.552887 
	C518.577026,393.817993 520.411194,390.475830 518.916138,385.684998 
	C517.282227,380.449463 515.346252,375.304962 513.433167,370.161255 
	C512.608887,367.944824 511.510986,365.830139 510.174469,362.863861 
	C502.261017,369.095978 495.111694,374.726288 487.555328,380.900696 
M527.327576,352.807587 
	C524.007385,356.581207 520.687195,360.354828 517.148132,364.377136 
	C523.190613,367.827423 528.354187,370.777985 533.521240,373.722351 
	C533.953186,373.968506 534.407776,374.360260 534.854004,374.363220 
	C536.592590,374.374817 538.690125,374.866852 540.013672,374.089539 
	C549.467957,368.536987 550.420471,361.743683 543.164307,353.494263 
	C542.835449,353.120453 542.510254,352.743378 542.177551,352.373047 
	C535.050720,344.439423 535.050537,344.439606 527.327576,352.807587 
M282.293152,777.740540 
	C279.725220,772.577393 277.157318,767.414246 274.015808,761.097839 
	C270.850189,765.609863 268.491180,768.399536 266.781952,771.542664 
	C264.223328,776.247681 266.959656,781.243347 273.205902,783.994446 
	C276.955475,785.645935 280.581665,783.450867 282.293152,777.740540 
M292.852417,803.429199 
	C290.816925,800.162842 288.781433,796.896484 286.400421,793.075623 
	C284.458435,795.283569 283.143982,796.708862 281.905731,798.197632 
	C275.828308,805.504395 275.929382,806.047607 284.105133,810.861450 
	C284.389038,811.028564 284.696228,811.416260 284.928864,811.371338 
	C288.061279,810.765930 291.182404,810.101929 294.306305,809.452393 
	C293.929688,807.653809 293.553101,805.855286 292.852417,803.429199 
M264.645599,819.007507 
	C260.571747,821.572937 260.068878,825.800903 261.399048,829.496887 
	C262.375305,832.209412 265.189056,834.718750 267.815552,836.194214 
	C269.217438,836.981689 272.550140,835.995483 273.910248,834.675354 
	C275.027893,833.590454 275.448303,830.145691 274.559387,828.942871 
	C271.881439,825.319153 268.413696,822.279114 264.645599,819.007507 
M286.170105,739.401062 
	C284.726318,738.084290 283.282501,736.767578 281.894562,735.501770 
	C275.294434,739.675720 272.865112,744.966003 275.628357,748.792236 
	C278.015350,752.097534 283.841553,753.297180 286.739746,751.080078 
	C290.186462,748.443176 290.170227,744.036316 286.170105,739.401062 
z"/>
<path fill="#999673" opacity="1.000000" stroke="none" 
	d="
M933.000000,289.750000 
	C856.870483,288.591400 780.957031,283.333466 705.096313,277.159607 
	C704.037170,277.073364 703.030762,276.339630 700.375183,275.228210 
	C707.616455,271.091431 713.439453,266.900574 719.901978,264.297058 
	C727.566284,261.209381 735.714111,259.212036 743.777161,257.256592 
	C751.209656,255.454117 758.996338,254.967117 766.296082,252.790665 
	C786.800354,246.677231 806.865356,249.802444 827.000549,254.445602 
	C833.907654,256.038361 840.917236,257.186707 847.880005,258.538086 
	C848.086609,258.040497 848.293213,257.542877 848.499817,257.045288 
	C843.667725,254.188065 838.835632,251.330841 834.003540,248.473618 
	C834.110474,247.831726 834.217407,247.189819 834.324402,246.547928 
	C836.700806,245.720184 839.039490,244.328445 841.460510,244.166306 
	C850.101135,243.587585 858.773438,243.153763 867.425293,243.273178 
	C870.027527,243.309097 874.433044,244.926483 874.779785,246.521881 
	C875.365295,249.216064 873.787476,252.692612 872.328796,255.416931 
	C871.223206,257.481750 868.887756,258.888031 866.343689,261.305786 
	C868.819763,262.189240 870.508118,263.027985 872.293274,263.390930 
	C885.680908,266.112915 899.028503,269.113281 912.511292,271.253906 
	C920.155090,272.467529 925.442017,275.841919 928.711304,282.757782 
	C929.696411,284.841553 931.160217,286.698975 932.702393,288.830048 
	C933.000000,289.000000 933.000000,289.500000 933.000000,289.750000 
z"/>
<path fill="#999673" opacity="1.000000" stroke="none" 
	d="
M748.468628,980.000000 
	C748.057190,978.707214 748.405762,977.347656 748.127258,976.131775 
	C744.634644,960.882568 741.884949,945.390442 737.180664,930.518677 
	C734.330444,921.508057 728.598267,913.362671 723.813110,905.028259 
	C721.005066,900.137390 717.396667,895.711243 714.428040,890.903320 
	C713.809875,889.902222 713.883423,887.276855 714.550964,886.859375 
	C724.094971,880.890137 733.795837,875.171692 744.876953,868.544800 
	C748.195923,878.248901 751.782593,886.313843 753.690857,894.758118 
	C760.037476,922.842529 765.781128,951.063110 771.877930,979.615723 
	C764.312439,980.000000 756.624817,980.000000 748.468628,980.000000 
z"/>
<path fill="#999573" opacity="1.000000" stroke="none" 
	d="
M580.468628,980.000000 
	C579.240967,977.103699 578.375610,974.230225 577.746277,971.306030 
	C576.624023,966.091125 578.362366,963.676941 583.756836,963.493042 
	C588.067810,963.346130 592.403625,963.668457 596.718506,963.940430 
	C631.259705,966.117004 665.801758,968.282227 700.335510,970.572510 
	C707.878479,971.072693 708.640015,972.069214 709.009827,979.582031 
	C666.312439,980.000000 623.624878,980.000000 580.468628,980.000000 
z"/>
<path fill="#9A9673" opacity="1.000000" stroke="none" 
	d="
M933.000000,783.531372 
	C927.001282,784.958801 920.903748,785.519775 915.029602,786.979858 
	C908.112061,788.699219 901.350159,791.086670 894.596069,793.404053 
	C891.097778,794.604431 889.153748,793.508728 888.248413,790.120544 
	C885.976379,781.617920 883.548584,773.150818 881.545471,764.584717 
	C880.404724,759.706421 882.664001,757.334351 888.820068,757.243347 
	C903.256287,757.030029 917.697632,757.166504 932.568481,757.080688 
	C933.000000,765.687561 933.000000,774.375183 933.000000,783.531372 
z"/>
<path fill="#999673" opacity="1.000000" stroke="none" 
	d="
M843.468628,980.000000 
	C838.923279,975.449158 834.874878,970.872559 830.761902,966.354797 
	C826.624390,961.810242 826.694214,960.079285 831.130188,956.109741 
	C836.079346,951.680969 841.007751,947.226562 845.852600,942.684509 
	C848.765198,939.953918 851.870178,939.872131 853.995544,942.983704 
	C860.451233,952.434875 866.562134,962.123413 872.726196,971.771301 
	C875.379761,975.924500 870.751770,976.988831 869.140015,979.693787 
	C860.645752,980.000000 852.291504,980.000000 843.468628,980.000000 
z"/>
<path fill="#999573" opacity="1.000000" stroke="none" 
	d="
M933.000000,959.539368 
	C931.857117,960.939148 930.683716,961.843750 929.576538,962.823242 
	C924.259583,967.526794 919.416992,968.276123 913.098083,965.166626 
	C907.139526,962.234558 901.291748,959.073792 895.296875,956.220337 
	C891.486877,954.406799 890.470642,951.528870 892.242432,948.083557 
	C895.884399,941.001465 899.737854,934.012695 903.850830,927.194580 
	C905.980469,923.664185 908.885620,923.854431 912.510498,927.472473 
	C919.203857,934.153137 925.772095,940.959167 932.696289,947.856445 
	C933.000000,951.692932 933.000000,955.385803 933.000000,959.539368 
z"/>
<path fill="#949174" opacity="1.000000" stroke="none" 
	d="
M933.000000,918.535339 
	C932.746826,918.789795 932.488953,918.584900 932.241211,918.368469 
	C924.987976,912.032715 924.988098,912.032593 932.687744,905.109070 
	C933.000000,909.356873 933.000000,913.713806 933.000000,918.535339 
z"/>
<path fill="#9B9772" opacity="1.000000" stroke="none" 
	d="
M658.838074,433.101349 
	C688.846069,438.737976 708.697449,455.281677 718.215149,484.252594 
	C726.535339,509.578339 724.857544,534.522339 716.649231,559.318848 
	C713.197266,569.746826 705.534180,577.343262 697.496765,584.493103 
	C664.855713,613.529480 628.241089,615.299622 589.232788,600.202942 
	C576.177612,595.150269 564.965698,587.159668 554.470459,577.981140 
	C537.415955,563.066467 531.492859,544.270508 534.459717,522.271179 
	C538.563599,491.841492 555.221680,469.562042 579.910889,452.496399 
	C600.860474,438.015686 623.779175,430.359039 649.464294,432.124603 
	C652.451721,432.329956 655.425720,432.730530 658.838074,433.101349 
z"/>
<path fill="#9A9673" opacity="1.000000" stroke="none" 
	d="
M733.782593,737.942261 
	C675.945618,734.094666 618.583252,730.267578 561.220886,726.440491 
	C561.086670,725.893005 560.952454,725.345581 560.818237,724.798157 
	C562.023865,723.875977 563.146484,722.811279 564.447632,722.053223 
	C580.991211,712.414734 597.564331,702.827087 614.120789,693.210754 
	C619.772278,689.928284 625.710815,690.816406 631.632385,692.024170 
	C669.001526,699.646057 706.359192,707.324219 743.728333,714.946045 
	C753.844360,717.009338 763.927673,719.356140 774.134277,720.815735 
	C783.782104,722.195374 786.802673,729.214172 790.370483,737.262146 
	C771.268433,741.146545 752.748413,738.878113 733.782593,737.942261 
z"/>
<path fill="#9A9673" opacity="1.000000" stroke="none" 
	d="
M753.852905,435.660919 
	C743.308716,438.394714 733.136963,440.918579 723.025879,443.665741 
	C713.666626,446.208557 707.812256,440.439606 700.510498,434.821808 
	C704.230530,432.415833 707.031494,430.031952 710.257080,428.614746 
	C726.256531,421.585449 742.200684,414.371368 758.521057,408.159546 
	C765.212891,405.612549 772.774048,405.218414 779.992126,404.226807 
	C785.585571,403.458344 791.294312,403.533752 796.890747,402.780884 
	C803.735657,401.860046 809.193787,398.538177 811.847351,391.842621 
	C813.536438,387.580780 816.685120,385.338013 820.774963,383.798157 
	C850.677490,372.539673 880.551880,361.206299 910.447083,349.928192 
	C911.920593,349.372314 913.505066,349.110657 916.617493,348.301117 
	C915.124268,351.120300 914.481628,352.678345 913.550354,354.038818 
	C903.022400,369.417725 892.757019,384.993225 881.683533,399.970581 
	C878.754639,403.932068 873.677307,407.577728 868.943726,408.731201 
	C830.799866,418.026459 792.502380,426.691101 753.852905,435.660919 
z"/>
<path fill="#999673" opacity="1.000000" stroke="none" 
	d="
M663.720215,871.388550 
	C636.589722,878.542542 609.817749,885.423889 583.181580,892.795837 
	C573.402283,895.502502 567.655945,889.421631 560.071228,884.280640 
	C563.578064,881.986938 566.248718,879.669373 569.341064,878.313232 
	C585.511963,871.221741 601.629883,863.956055 618.109680,857.648376 
	C624.654968,855.143188 632.060120,854.777893 639.119873,853.756042 
	C645.210266,852.874451 651.399902,852.669678 657.483276,851.751648 
	C663.998108,850.768616 668.476746,847.104797 671.604980,841.077759 
	C673.134338,838.131165 676.190308,835.169006 679.247681,833.949768 
	C706.478577,823.090027 733.843567,812.564453 761.227905,802.094604 
	C765.031433,800.640259 769.155762,800.025024 774.495422,798.677185 
	C773.337891,801.086304 772.960571,802.253418 772.288086,803.213867 
	C761.874023,818.088867 751.323120,832.869202 741.031494,847.828064 
	C737.408325,853.094360 732.856262,856.043518 726.537964,857.377197 
	C705.684998,861.779114 684.927002,866.631104 663.720215,871.388550 
z"/>
<path fill="#9A9673" opacity="1.000000" stroke="none" 
	d="
M669.735474,632.009766 
	C683.590820,629.611511 697.015320,627.253540 710.458557,625.007812 
	C717.537720,623.825195 718.784668,624.871582 719.985413,632.031616 
	C721.552307,641.375183 723.230591,650.700134 724.812378,660.041321 
	C725.222168,662.461365 725.450867,664.912170 725.854004,668.061890 
	C723.588806,668.061890 721.809692,668.287292 720.104309,668.027649 
	C698.751038,664.776550 677.389038,661.573303 656.074036,658.084778 
	C649.068787,656.938293 646.992981,654.332703 647.207520,648.833191 
	C647.618958,638.285156 649.575989,635.294312 656.995483,634.035461 
	C661.092834,633.340332 665.206238,632.739868 669.735474,632.009766 
z"/>
<path fill="#9A9673" opacity="1.000000" stroke="none" 
	d="
M440.279327,736.422424 
	C455.774200,733.754333 470.845093,731.153870 485.920013,728.576843 
	C493.062286,727.355835 493.546539,727.615967 494.741943,734.685059 
	C496.515411,745.172363 498.138062,755.685364 499.775391,766.195190 
	C500.024017,767.791199 500.005554,769.428833 500.168121,771.932007 
	C495.550507,771.633850 491.453461,771.664490 487.452667,771.059326 
	C470.844604,768.546936 454.264557,765.848877 437.677826,763.196594 
	C436.367706,762.987061 435.076538,762.637878 433.790924,762.299194 
	C422.047729,759.205566 421.526886,758.201660 423.085815,746.564636 
	C423.825012,741.046814 426.447571,738.211243 431.985687,737.790710 
	C434.626892,737.590027 437.234283,736.943909 440.279327,736.422424 
z"/>
<path fill="#9A9673" opacity="1.000000" stroke="none" 
	d="
M514.192139,846.728271 
	C521.840393,849.784302 519.024353,855.939392 518.925903,861.084900 
	C518.836853,865.742310 516.006836,868.376953 511.462799,869.025574 
	C497.797913,870.976318 484.108704,872.762512 470.459656,874.816589 
	C463.262146,875.899841 456.128540,877.407288 448.150940,878.872925 
	C446.937439,871.024536 445.723236,863.366272 444.578430,855.697693 
	C443.841736,850.762695 443.407593,845.773865 442.466858,840.880493 
	C441.627350,836.513489 443.193512,834.988586 447.413971,835.614014 
	C462.872314,837.904785 478.352081,840.059265 493.785248,842.507996 
	C500.512177,843.575317 507.145813,845.230408 514.192139,846.728271 
z"/>
<path fill="#999573" opacity="1.000000" stroke="none" 
	d="
M653.112915,289.795837 
	C658.321472,312.721649 663.511414,335.245087 668.580444,357.795685 
	C669.281250,360.913422 671.035889,365.363922 667.150879,366.723328 
	C662.202087,368.455017 656.625427,368.539856 651.290955,368.859833 
	C650.508606,368.906769 649.145020,366.439545 648.765930,364.953125 
	C643.095032,342.720398 637.544800,320.456970 631.965271,298.201019 
	C631.135925,294.892975 632.397949,292.667419 635.534912,291.516876 
	C640.063782,289.855774 644.644043,288.332306 649.152771,286.619629 
	C652.013916,285.532715 652.687256,287.170807 653.112915,289.795837 
z"/>
<path fill="#999573" opacity="1.000000" stroke="none" 
	d="
M312.942963,701.723572 
	C314.317322,700.811768 315.748749,699.629883 316.951447,699.829163 
	C332.355194,702.380981 347.756561,704.971741 363.090576,707.907715 
	C369.220154,709.081299 373.166168,713.522095 375.779053,718.970459 
	C377.476685,722.510254 375.980682,725.361084 372.482941,726.541016 
	C367.780396,728.127258 362.928894,729.338867 358.071106,730.385071 
	C344.919617,733.217834 331.739807,735.922058 318.553101,738.587402 
	C312.550476,739.800659 312.128082,739.418762 312.232697,733.496765 
	C312.417633,723.029053 312.669739,712.562439 312.942963,701.723572 
z"/>
<path fill="#999573" opacity="1.000000" stroke="none" 
	d="
M380.629761,946.353760 
	C369.954254,948.561584 359.679932,950.618713 349.449585,952.875305 
	C345.808563,953.678528 344.010559,952.694580 344.021545,948.825317 
	C344.047546,939.688538 343.781189,930.543457 344.096344,921.417725 
	C344.297729,915.586914 346.524445,914.012634 352.192230,915.015747 
	C367.591888,917.741333 382.972290,920.577271 398.347748,923.437012 
	C402.320801,924.176025 409.197968,932.850586 407.786591,936.353821 
	C406.836761,938.711487 403.614258,940.879333 400.968109,941.684021 
	C394.463684,943.662231 387.704803,944.803772 380.629761,946.353760 
z"/>
<path fill="#999573" opacity="1.000000" stroke="none" 
	d="
M503.983215,931.226807 
	C512.071716,932.867493 519.731384,934.461121 527.403015,935.994568 
	C533.796936,937.272583 536.034973,942.858337 539.143066,947.454407 
	C539.551331,948.058167 538.792664,950.234192 537.984680,950.740295 
	C534.672485,952.814880 531.327576,955.355652 527.641113,956.223999 
	C512.261169,959.846802 496.754822,962.934021 481.289581,966.192627 
	C479.852203,966.495483 478.377899,966.623169 476.432220,966.902283 
	C476.168427,965.248840 475.733337,963.836060 475.752686,962.429504 
	C475.878601,953.272461 476.010284,944.113586 476.327118,934.961792 
	C476.549927,928.525085 478.295258,927.127319 484.829926,928.064880 
	C491.091980,928.963379 497.317841,930.113892 503.983215,931.226807 
z"/>
<path fill="#999573" opacity="1.000000" stroke="none" 
	d="
M397.245697,816.767944 
	C401.378876,819.168030 405.813141,820.840515 408.692535,823.952026 
	C413.382660,829.020264 411.207855,834.613159 404.377014,836.217957 
	C391.412048,839.263672 378.392090,842.076355 365.387604,844.952576 
	C361.162048,845.887146 356.860504,846.521729 352.689972,847.649536 
	C348.206543,848.861877 347.038879,847.101807 347.261566,842.904907 
	C347.711670,834.422607 347.848206,825.924072 348.186890,817.435181 
	C348.478638,810.122559 350.381165,808.570190 357.475952,809.798950 
	C370.603973,812.072693 383.724762,814.388367 397.245697,816.767944 
z"/>
<path fill="#999573" opacity="1.000000" stroke="none" 
	d="
M553.822754,658.919067 
	C553.460815,665.167786 548.599182,666.737915 544.166138,667.788696 
	C532.354858,670.588257 520.401855,672.787903 508.509827,675.248718 
	C503.035187,676.381592 497.571564,677.567566 491.612122,678.833801 
	C491.378662,676.658325 491.077454,675.221008 491.094482,673.787537 
	C491.203491,664.631836 491.305756,655.474731 491.568268,646.322632 
	C491.716400,641.159241 493.847076,638.923035 498.691711,639.790222 
	C513.754211,642.486328 528.882996,645.048096 543.672852,648.872986 
	C547.573242,649.881714 550.342224,655.265137 553.822754,658.919067 
z"/>
<path fill="#999573" opacity="1.000000" stroke="none" 
	d="
M848.249023,892.124573 
	C849.757202,888.930054 851.091370,886.064087 852.492798,883.231445 
	C855.105530,877.950439 857.490601,877.379883 862.162964,881.087219 
	C864.372620,882.840393 866.390015,884.841919 868.443054,886.785278 
	C876.174011,894.103333 883.912659,901.413879 891.590454,908.787476 
	C895.965332,912.988953 896.052795,916.135986 892.141052,920.863159 
	C885.838928,928.479004 877.268372,930.235291 868.565857,925.777832 
	C860.423096,921.607056 852.288086,917.415955 844.056396,913.426270 
	C840.435913,911.671570 839.552124,909.436462 841.424683,905.868958 
	C843.743958,901.450500 845.886597,896.939331 848.249023,892.124573 
z"/>
<path fill="#999573" opacity="1.000000" stroke="none" 
	d="
M776.948303,580.834045 
	C765.376099,575.310608 765.369446,575.307129 771.105286,564.329895 
	C773.951843,558.882202 776.758057,553.411682 779.709778,548.021057 
	C782.729553,542.505859 785.831421,541.884094 790.297546,546.074280 
	C799.744263,554.937256 809.126648,563.871521 818.401550,572.913940 
	C822.614685,577.021545 822.593811,578.998535 819.007690,583.647949 
	C817.793091,585.222778 816.479736,586.732117 815.108643,588.173523 
	C810.081482,593.458252 807.094788,594.204468 800.473755,591.371460 
	C792.689697,588.040649 785.006958,584.473083 776.948303,580.834045 
z"/>
<path fill="#989573" opacity="1.000000" stroke="none" 
	d="
M559.356384,331.576843 
	C563.307800,328.923035 566.943848,326.329773 570.888000,324.350464 
	C574.161255,322.707825 574.367126,325.988892 574.832031,327.830383 
	C578.577393,342.663513 582.243225,357.517426 585.807190,372.395203 
	C587.123718,377.890747 588.272644,383.438934 589.197693,389.012939 
	C590.856750,399.009674 587.080322,405.734802 576.944031,410.523468 
	C576.057556,408.258392 574.909485,406.094757 574.354919,403.788422 
	C569.146057,382.124603 563.988403,360.447968 558.980408,338.737122 
	C558.484863,336.588348 559.083557,334.187195 559.356384,331.576843 
z"/>
<path fill="#989573" opacity="1.000000" stroke="none" 
	d="
M849.739929,553.769287 
	C843.909241,558.895752 842.119629,559.035034 835.805847,555.334839 
	C828.251343,550.907593 820.655518,546.550720 812.180908,541.644287 
	C815.726868,539.669861 818.586060,538.077820 821.445190,536.485840 
	C821.367676,535.967346 821.290100,535.448914 821.212585,534.930481 
	C818.030029,534.735962 814.846436,534.556946 811.665161,534.343689 
	C805.463196,533.928040 803.871765,531.671814 806.332703,525.915344 
	C809.908081,517.551819 813.838501,509.339935 818.007080,500.209961 
	C819.849121,501.857239 821.129272,502.769135 822.123169,503.926788 
	C832.300354,515.779663 842.471252,527.638489 852.555420,539.570496 
	C856.737549,544.519104 856.121155,547.443298 849.739929,553.769287 
z"/>
<path fill="#989573" opacity="1.000000" stroke="none" 
	d="
M888.010010,870.544189 
	C885.763977,870.363464 883.906982,870.393494 882.135803,870.018616 
	C878.977356,869.350037 877.251343,866.969543 878.468811,864.129456 
	C882.363770,855.043762 886.716003,846.154053 891.370361,836.161072 
	C895.990112,841.312683 899.765869,845.432556 903.440979,849.640381 
	C910.761475,858.022095 918.034302,866.445618 925.311951,874.864685 
	C929.769714,880.021606 929.845520,882.290466 925.145752,887.291870 
	C916.345520,896.657043 919.494263,895.611816 908.496704,890.307129 
	C902.661743,887.492676 896.934509,884.453247 891.182861,881.468628 
	C889.764954,880.732910 888.441711,879.814880 886.595093,878.687805 
	C889.331848,876.343079 891.555054,874.438354 894.796631,871.661133 
	C891.981750,871.179199 890.209778,870.875854 888.010010,870.544189 
z"/>
<path fill="#999573" opacity="1.000000" stroke="none" 
	d="
M865.954346,560.920410 
	C868.433044,558.194336 870.527710,555.577576 872.945190,553.303955 
	C875.626038,550.782593 878.812134,550.381531 881.249573,553.477783 
	C888.762634,563.021484 896.704956,572.378479 899.300781,584.750427 
	C899.657593,586.450867 899.843567,588.526978 899.197266,590.039856 
	C896.219971,597.009338 881.623962,600.831116 875.521790,596.129700 
	C868.533813,590.745728 861.869263,584.943237 855.029114,579.365540 
	C852.958801,577.677368 852.568848,576.131531 854.543701,573.977295 
	C858.368530,569.805237 862.000671,565.456543 865.954346,560.920410 
z"/>
<path fill="#999573" opacity="1.000000" stroke="none" 
	d="
M818.733582,323.221680 
	C816.194580,321.319855 815.666565,319.621368 817.830200,317.272125 
	C824.578857,309.944794 831.176025,302.478088 837.868103,295.098297 
	C839.247864,293.576752 840.658447,292.044464 842.689026,294.536591 
	C850.560913,304.197388 858.664429,313.653503 862.023132,326.133057 
	C863.285095,330.822266 862.384521,334.015228 858.239868,336.738464 
	C847.069153,344.078156 844.830322,344.085785 834.153381,335.606628 
	C829.082520,331.579590 824.057495,327.494751 818.733582,323.221680 
z"/>
<path fill="#999573" opacity="1.000000" stroke="none" 
	d="
M427.778473,507.155762 
	C430.504883,513.041504 433.171295,518.574463 435.440674,524.265747 
	C436.039215,525.766724 435.983459,528.050537 435.252106,529.473022 
	C431.276703,537.205322 417.771027,539.996033 410.938416,534.697388 
	C404.498383,529.703247 398.129791,524.613586 391.597656,519.743103 
	C388.891144,517.725037 388.279480,516.155151 390.852631,513.426392 
	C397.582855,506.289093 404.093262,498.943237 410.633728,491.629028 
	C412.614807,489.413635 414.195862,489.052795 416.147247,491.753265 
	C419.844208,496.869507 423.750580,501.834442 427.778473,507.155762 
z"/>
<path fill="#999573" opacity="1.000000" stroke="none" 
	d="
M710.475281,790.589355 
	C707.842957,790.671936 704.978149,791.425049 703.341553,790.334595 
	C694.497620,784.442566 685.960266,778.090637 677.311707,771.904846 
	C675.175293,770.376770 675.273682,768.811523 676.969299,766.944092 
	C683.230591,760.048401 689.396851,753.066406 695.669739,746.181335 
	C697.876099,743.759644 700.547485,742.923950 702.927063,745.795654 
	C710.244934,754.627075 717.824219,763.299194 721.012939,774.754089 
	C722.940125,781.677551 722.563904,783.023926 716.348083,787.032776 
	C714.531677,788.204285 712.657410,789.286072 710.475281,790.589355 
z"/>
<path fill="#999573" opacity="1.000000" stroke="none" 
	d="
M755.688721,628.296143 
	C753.626038,625.015503 754.749146,622.587891 757.045715,620.506226 
	C762.339417,615.707764 767.691711,610.973877 773.014587,606.207520 
	C775.854614,603.664368 778.252563,603.978027 780.516663,607.087036 
	C786.969604,615.947937 793.430298,624.805664 800.055908,633.537170 
	C802.410950,636.640808 802.057251,638.635010 798.877441,640.871948 
	C795.083435,643.540833 791.729248,646.827087 788.005554,649.605957 
	C783.007141,653.335999 779.552673,653.125183 775.215698,648.727539 
	C768.683472,642.104004 762.330017,635.304260 755.688721,628.296143 
z"/>
<path fill="#999573" opacity="1.000000" stroke="none" 
	d="
M745.701660,750.678833 
	C750.281372,744.236450 752.341492,743.811218 757.567871,749.255005 
	C763.726196,755.669434 769.695801,762.322937 775.132263,769.348572 
	C777.917419,772.947998 778.963440,777.405762 774.760864,781.496338 
	C767.798584,788.272827 764.484131,789.388916 758.258606,786.254272 
	C751.887512,783.046387 745.584229,779.700806 739.168396,776.586060 
	C735.189453,774.654175 734.252808,771.961182 736.322083,768.117554 
	C739.394043,762.411743 742.456116,756.700684 745.701660,750.678833 
z"/>
<path fill="#999573" opacity="1.000000" stroke="none" 
	d="
M846.258972,695.158813 
	C848.115417,692.172791 849.728455,689.461243 851.440979,686.814148 
	C853.707153,683.311462 856.783081,682.571838 859.749817,685.533813 
	C866.436218,692.209534 873.071655,698.968140 879.249146,706.107239 
	C881.979919,709.263062 882.188599,713.498230 879.534180,717.223938 
	C874.734802,723.960388 869.525635,726.988159 864.777161,724.710632 
	C856.864868,720.915649 849.170410,716.590332 841.760376,711.894836 
	C840.438782,711.057251 840.104248,707.067810 840.784912,705.023560 
	C841.915771,701.627441 844.238892,698.628296 846.258972,695.158813 
z"/>
<path fill="#999573" opacity="1.000000" stroke="none" 
	d="
M539.511719,385.412476 
	C541.607361,386.057587 543.745728,386.428802 545.046997,387.674530 
	C551.398132,393.754669 557.638855,399.960693 563.697510,406.332367 
	C568.790100,411.688110 568.498413,415.735962 563.148865,420.856140 
	C556.075806,427.625946 551.711975,428.258179 543.107178,423.546722 
	C538.595764,421.076599 534.189392,418.414673 529.738159,415.834869 
	C526.578064,414.003357 524.920166,410.811279 526.425171,407.829010 
	C530.275513,400.199310 534.871155,392.945709 539.511719,385.412476 
z"/>
<path fill="#989573" opacity="1.000000" stroke="none" 
	d="
M380.060364,639.946777 
	C382.559662,635.389587 384.754059,631.074951 387.268799,626.955994 
	C389.822754,622.772705 392.716675,622.376648 396.190125,625.847168 
	C402.076569,631.728699 407.913086,637.678894 413.447723,643.888000 
	C417.875031,648.854919 418.483154,654.728516 415.617554,658.489136 
	C411.833893,663.454346 402.794495,666.222595 397.602448,663.588623 
	C391.666809,660.577576 385.885040,657.243652 380.161255,653.840149 
	C375.006195,650.774780 374.815674,649.607605 377.716187,644.209229 
	C378.425690,642.888672 379.168488,641.585999 380.060364,639.946777 
z"/>
<path fill="#989573" opacity="1.000000" stroke="none" 
	d="
M882.741211,309.623779 
	C884.881836,306.027435 886.788940,302.717499 888.822876,299.487396 
	C890.559021,296.730225 893.195068,295.874023 895.491272,298.257507 
	C902.376465,305.404572 909.373962,312.514984 915.503845,320.289215 
	C918.766846,324.427551 917.348877,329.713898 913.811890,333.538208 
	C909.472839,338.229675 904.111328,340.107117 899.030823,337.640442 
	C891.582825,334.024292 884.404358,329.833313 877.273438,325.612823 
	C876.503113,325.156891 876.227966,322.633850 876.718567,321.500610 
	C878.430481,317.546448 880.579651,313.781586 882.741211,309.623779 
z"/>
<path fill="#989573" opacity="1.000000" stroke="none" 
	d="
M847.222290,599.812927 
	C850.405884,602.993530 853.476257,605.808716 856.221619,608.911438 
	C860.752075,614.031677 861.393677,619.385803 858.323914,623.836121 
	C854.210876,629.799011 847.986145,632.643066 841.968140,629.985168 
	C834.397400,626.641541 827.223022,622.371948 820.034668,618.229370 
	C819.197571,617.746948 818.662903,615.185425 819.167480,614.179199 
	C822.666809,607.200684 826.366760,600.315063 830.236267,593.533142 
	C832.185852,590.116089 835.313904,589.829468 838.311707,592.077148 
	C841.357544,594.360901 844.092163,597.059692 847.222290,599.812927 
z"/>
<path fill="#999573" opacity="1.000000" stroke="none" 
	d="
M434.949524,573.879883 
	C443.459900,562.506653 443.725616,562.306274 452.167328,573.499451 
	C456.524445,579.276733 459.993286,585.780640 463.389130,592.206848 
	C465.777100,596.725830 464.584900,599.726257 460.237213,602.247742 
	C453.275818,606.285217 446.370392,606.634888 439.683044,601.571411 
	C436.232208,598.958496 432.705597,596.434631 429.380798,593.669006 
	C425.107269,590.114197 424.847565,587.899841 427.958527,583.446777 
	C430.151398,580.307861 432.481659,577.264893 434.949524,573.879883 
z"/>
<path fill="#989573" opacity="1.000000" stroke="none" 
	d="
M805.514648,828.425720 
	C805.407410,826.371216 804.817261,823.880554 805.770935,822.915466 
	C812.158142,816.451843 818.874023,810.312988 825.988647,803.591431 
	C833.823242,813.059082 840.252136,822.507996 842.812683,833.833984 
	C843.972534,838.964050 838.770508,841.731628 835.083069,843.780396 
	C832.671509,845.120422 828.175720,845.374023 825.992493,843.969971 
	C818.901672,839.410278 812.446106,833.862610 805.514648,828.425720 
z"/>
<path fill="#999573" opacity="1.000000" stroke="none" 
	d="
M365.385498,542.336060 
	C367.795044,538.193542 370.010773,534.361572 372.702576,529.706299 
	C376.874603,533.754578 380.465057,537.121033 383.918915,540.622253 
	C387.536591,544.289490 391.153870,547.972351 394.532349,551.856201 
	C398.342133,556.235962 398.148315,559.408386 394.265076,563.735352 
	C386.633118,572.239319 382.263580,572.745728 372.630768,567.069031 
	C368.668030,564.733765 364.237213,563.139221 359.911011,561.492249 
	C356.695465,560.268005 355.689819,558.762390 357.685272,555.584229 
	C360.334869,551.364258 362.702728,546.967407 365.385498,542.336060 
z"/>
<path fill="#989573" opacity="1.000000" stroke="none" 
	d="
M907.955322,664.885010 
	C903.106384,661.351318 898.524597,658.047852 894.002502,654.664551 
	C888.350342,650.435791 888.093933,648.865845 892.137451,643.314880 
	C895.853638,638.213196 899.533997,633.079773 903.426025,628.113831 
	C906.450195,624.255127 909.033691,624.214905 911.732849,628.171997 
	C916.876648,635.713013 921.808167,643.403259 926.661926,651.135620 
	C928.877563,654.665161 928.306824,657.754456 924.324524,659.825562 
	C920.789856,661.663818 917.415588,663.868042 913.748108,665.366211 
	C912.210571,665.994263 910.099426,665.217773 907.955322,664.885010 
z"/>
<path fill="#989573" opacity="1.000000" stroke="none" 
	d="
M744.874146,475.904480 
	C753.925171,468.454254 754.178650,468.294891 760.402710,478.193085 
	C764.098022,484.069763 767.079407,490.441376 769.844604,496.823212 
	C770.503967,498.344910 769.618347,501.352203 768.380005,502.697174 
	C766.291687,504.965302 763.575562,507.225769 760.710022,508.047089 
	C757.857361,508.864716 753.726318,509.035461 751.501038,507.517578 
	C744.659973,502.851410 738.470459,497.231812 732.011902,492.002228 
	C729.745605,490.167206 730.630371,488.728180 732.396912,487.165161 
	C736.505066,483.530212 740.535522,479.807434 744.874146,475.904480 
z"/>
<path fill="#989573" opacity="1.000000" stroke="none" 
	d="
M585.740173,749.331177 
	C589.596313,753.917542 593.322754,758.165405 596.818970,762.594910 
	C600.731506,767.551941 600.753601,770.924011 597.288208,776.222778 
	C596.834595,776.916443 596.326172,777.577637 595.805847,778.223755 
	C589.115234,786.532104 587.719482,786.917236 578.212830,782.313171 
	C573.584106,780.071533 569.105469,777.520020 564.559082,775.108276 
	C561.337952,773.399658 560.816711,770.843079 562.939087,768.119873 
	C568.144104,761.441284 573.501404,754.878601 578.912109,748.364441 
	C581.296631,745.493591 583.538147,746.680725 585.740173,749.331177 
z"/>
<path fill="#989573" opacity="1.000000" stroke="none" 
	d="
M777.745728,300.203857 
	C781.713440,305.350250 785.475464,310.203766 789.171265,315.107178 
	C789.956970,316.149689 790.793518,317.299347 791.108093,318.527344 
	C792.813171,325.184113 781.154602,336.914459 774.890808,334.339233 
	C767.875305,331.454865 761.278076,327.486908 754.733093,323.596405 
	C753.765259,323.021057 753.217041,319.636047 753.951538,318.641083 
	C758.778503,312.101776 763.781555,305.654968 769.221558,299.623962 
	C771.449402,297.154053 774.913147,295.670868 777.745728,300.203857 
z"/>
<path fill="#989573" opacity="1.000000" stroke="none" 
	d="
M725.336914,336.093140 
	C718.069885,332.452911 711.158447,328.863007 704.268921,325.231659 
	C701.849548,323.956390 702.060669,322.259827 703.575867,320.340088 
	C708.315491,314.334686 712.874939,308.179840 717.788513,302.321320 
	C721.286682,298.150330 723.646057,298.033508 727.267090,301.940430 
	C731.890259,306.928650 736.308838,312.145569 740.340820,317.614014 
	C741.300110,318.914978 741.100464,322.056244 740.166077,323.566742 
	C738.088013,326.926056 735.469055,330.073151 732.558472,332.750031 
	C730.759338,334.404785 728.019043,335.036255 725.336914,336.093140 
z"/>
<path fill="#989573" opacity="1.000000" stroke="none" 
	d="
M564.583435,853.281006 
	C560.569946,850.848206 556.875854,848.602356 553.214233,846.304688 
	C550.306641,844.480225 549.466614,842.212585 551.779602,839.265076 
	C556.189880,833.645020 560.367310,827.828247 565.010742,822.409668 
	C568.708435,818.094849 571.238831,818.248108 574.662903,822.553894 
	C578.802612,827.759521 582.787964,833.093628 586.667542,838.495972 
	C587.457642,839.596130 587.906677,841.283569 587.789612,842.637756 
	C586.958801,852.247192 575.659485,858.711487 567.151184,854.561157 
	C566.403076,854.196167 565.661499,853.817688 564.583435,853.281006 
z"/>
<path fill="#989573" opacity="1.000000" stroke="none" 
	d="
M640.910645,754.023193 
	C643.922729,757.814453 646.682983,761.351746 649.494751,764.847656 
	C651.805481,767.720642 651.945129,770.626770 649.561462,773.448975 
	C641.128235,783.433899 637.346436,787.123962 623.929016,778.934448 
	C621.521545,777.464966 618.939880,776.283508 616.465515,774.920227 
	C612.002930,772.461609 611.365906,769.987915 614.465149,766.188477 
	C619.401917,760.136230 624.570740,754.272461 629.468018,748.189331 
	C632.267273,744.712158 634.481018,745.023438 636.808594,748.557251 
	C637.994568,750.357727 639.383728,752.024292 640.910645,754.023193 
z"/>
<path fill="#989573" opacity="1.000000" stroke="none" 
	d="
M902.323730,521.987671 
	C900.187988,521.780151 898.173462,521.938660 896.656982,521.145325 
	C890.768860,518.064941 884.997498,514.752625 879.269104,511.379700 
	C876.687134,509.859436 875.205627,507.648285 877.596069,504.843628 
	C883.094116,498.392853 888.625061,491.965729 894.312988,485.683136 
	C896.449646,483.323120 898.856873,483.958313 900.653687,486.362427 
	C904.831970,491.952881 909.139771,497.470062 912.904480,503.332062 
	C914.064697,505.138611 914.754578,508.794617 913.731812,510.168457 
	C910.541748,514.453674 906.428894,518.051941 902.323730,521.987671 
z"/>
<path fill="#989573" opacity="1.000000" stroke="none" 
	d="
M641.445801,821.490479 
	C631.701355,832.107605 633.450317,835.669556 616.538513,826.189026 
	C603.820496,819.059509 603.579712,818.411682 612.394470,806.731812 
	C614.900208,803.411621 617.478455,800.136047 620.192261,796.985474 
	C623.636536,792.986694 625.751038,792.943848 629.047363,796.827759 
	C633.030518,801.520813 636.936096,806.286011 640.709595,811.148499 
	C643.082886,814.206665 644.375793,817.570801 641.445801,821.490479 
z"/>
<path fill="#989573" opacity="1.000000" stroke="none" 
	d="
M765.635925,381.233032 
	C760.603821,378.581757 755.804504,376.264008 751.248840,373.538818 
	C746.746338,370.845398 746.120667,368.214752 749.138123,364.091187 
	C752.961426,358.866425 757.127441,353.886353 761.265198,348.899933 
	C763.986145,345.620941 767.228516,345.147858 770.200317,348.436768 
	C773.974854,352.613892 777.757446,356.845795 780.973633,361.447479 
	C784.062683,365.867096 783.505737,371.396057 780.421570,375.459778 
	C776.009155,381.273407 771.814575,382.994812 765.635925,381.233032 
z"/>
<path fill="#989573" opacity="1.000000" stroke="none" 
	d="
M692.187073,391.895569 
	C697.291748,385.341064 702.148621,379.006042 707.307861,372.927673 
	C709.509644,370.333649 712.433960,369.645294 714.965027,372.786804 
	C719.241211,378.094330 723.523254,383.405029 727.547485,388.901306 
	C728.399780,390.065338 728.961121,392.715912 728.282104,393.518250 
	C724.290588,398.234558 719.949768,402.665070 715.542236,407.004517 
	C715.091248,407.448517 713.319092,406.859741 712.327332,406.394012 
	C706.755249,403.777466 701.223389,401.074310 695.701294,398.352936 
	C693.190918,397.115784 690.992615,395.616180 692.187073,391.895569 
z"/>
<path fill="#989573" opacity="1.000000" stroke="none" 
	d="
M435.344421,461.672119 
	C430.099487,459.090485 425.243774,456.589478 420.372498,454.119141 
	C418.112274,452.972900 417.588806,451.384766 419.133118,449.323883 
	C424.175842,442.594574 429.214691,435.861694 434.333435,429.190369 
	C436.089081,426.902222 437.912354,427.369324 439.639404,429.421692 
	C442.842133,433.227692 446.192230,436.913208 449.305634,440.789734 
	C452.096375,444.264496 452.787018,447.808441 449.227722,451.435852 
	C446.799438,453.910675 444.973145,457.035706 442.345825,459.234497 
	C440.633179,460.667786 437.966553,460.961212 435.344421,461.672119 
z"/>
<path fill="#979473" opacity="1.000000" stroke="none" 
	d="
M487.758850,380.628662 
	C495.111694,374.726288 502.261017,369.095978 510.174469,362.863861 
	C511.510986,365.830139 512.608887,367.944824 513.433167,370.161255 
	C515.346252,375.304962 517.282227,380.449463 518.916138,385.684998 
	C520.411194,390.475830 518.577026,393.817993 513.960144,395.552887 
	C505.646698,398.676880 501.546234,397.821777 495.585632,391.188507 
	C492.684967,387.960419 490.218414,384.342255 487.758850,380.628662 
z"/>
<path fill="#979473" opacity="1.000000" stroke="none" 
	d="
M527.560486,352.548737 
	C535.050537,344.439606 535.050720,344.439423 542.177551,352.373047 
	C542.510254,352.743378 542.835449,353.120453 543.164307,353.494263 
	C550.420471,361.743683 549.467957,368.536987 540.013672,374.089539 
	C538.690125,374.866852 536.592590,374.374817 534.854004,374.363220 
	C534.407776,374.360260 533.953186,373.968506 533.521240,373.722351 
	C528.354187,370.777985 523.190613,367.827423 517.148132,364.377136 
	C520.687195,360.354828 524.007385,356.581207 527.560486,352.548737 
z"/>
<path fill="#949174" opacity="1.000000" stroke="none" 
	d="
M282.327209,778.096436 
	C280.581665,783.450867 276.955475,785.645935 273.205902,783.994446 
	C266.959656,781.243347 264.223328,776.247681 266.781952,771.542664 
	C268.491180,768.399536 270.850189,765.609863 274.015808,761.097839 
	C277.157318,767.414246 279.725220,772.577393 282.327209,778.096436 
z"/>
<path fill="#949174" opacity="1.000000" stroke="none" 
	d="
M293.014465,803.742920 
	C293.553101,805.855286 293.929688,807.653809 294.306305,809.452393 
	C291.182404,810.101929 288.061279,810.765930 284.928864,811.371338 
	C284.696228,811.416260 284.389038,811.028564 284.105133,810.861450 
	C275.929382,806.047607 275.828308,805.504395 281.905731,798.197632 
	C283.143982,796.708862 284.458435,795.283569 286.400421,793.075623 
	C288.781433,796.896484 290.816925,800.162842 293.014465,803.742920 
z"/>
<path fill="#949174" opacity="1.000000" stroke="none" 
	d="
M264.949768,819.009460 
	C268.413696,822.279114 271.881439,825.319153 274.559387,828.942871 
	C275.448303,830.145691 275.027893,833.590454 273.910248,834.675354 
	C272.550140,835.995483 269.217438,836.981689 267.815552,836.194214 
	C265.189056,834.718750 262.375305,832.209412 261.399048,829.496887 
	C260.068878,825.800903 260.571747,821.572937 264.949768,819.009460 
z"/>
<path fill="#949174" opacity="1.000000" stroke="none" 
	d="
M286.434265,739.636719 
	C290.170227,744.036316 290.186462,748.443176 286.739746,751.080078 
	C283.841553,753.297180 278.015350,752.097534 275.628357,748.792236 
	C272.865112,744.966003 275.294434,739.675720 281.894562,735.501770 
	C283.282501,736.767578 284.726318,738.084290 286.434265,739.636719 
z"/>
</svg>