<svg version="1.1" id="Layer_1" xmlns="http://www.w3.org/2000/svg" xmlns:xlink="http://www.w3.org/1999/xlink" x="0px" y="0px"
	 width="100%" viewBox="0 0 932 979" enable-background="new 0 0 932 979" xml:space="preserve">
<path fill="#262F94" opacity="1.000000" stroke="none" 
	d="
M933.000000,483.000000 
	C933.000000,545.687561 933.000000,608.375122 932.649780,671.503052 
	C929.682068,670.889282 927.871765,671.532715 926.898315,674.329956 
	C925.867371,677.292358 924.672058,680.197021 923.598999,683.145264 
	C918.183594,698.024414 916.264404,696.565735 933.000000,701.000000 
	C933.000000,719.354248 933.000000,737.708435 932.651611,756.661499 
	C931.204956,758.721436 929.221558,760.151123 929.168335,761.649414 
	C928.981812,766.893250 929.257507,772.183105 929.831055,777.403442 
	C929.973877,778.702637 931.895874,779.806396 933.000000,781.000000 
	C933.000000,792.020874 933.000000,803.041809 932.644714,814.472168 
	C926.047791,814.453918 925.018799,815.477112 926.041870,821.423828 
	C926.746460,825.519348 927.296997,829.698059 928.609863,833.606689 
	C929.200195,835.364380 931.484375,836.553101 933.000000,838.000000 
	C933.000000,867.020874 933.000000,896.041809 932.782715,925.789429 
	C926.785034,936.581665 920.990540,946.639160 915.228882,956.715393 
	C910.797791,964.464661 906.408081,972.237610 902.000000,980.000000 
	C877.312439,980.000000 852.624878,980.000000 827.219177,979.763184 
	C821.541016,978.115479 816.601562,976.626465 811.614441,975.318726 
	C807.706299,974.293762 805.551575,975.657837 806.000000,980.000000 
	C756.312439,980.000000 706.624878,980.000000 656.648560,979.719849 
	C661.137024,973.701416 666.113525,968.114990 670.634338,962.181274 
	C674.994507,956.458374 673.357422,952.412292 666.385193,951.527161 
	C663.915161,951.213623 661.005066,951.668335 658.764404,952.746277 
	C651.741516,956.124695 644.890503,959.874268 638.067688,963.651245 
	C627.412292,969.549866 627.445374,969.609192 633.779785,979.553589 
	C633.868408,979.692688 633.927246,979.850769 634.000000,980.000000 
	C596.979126,980.000000 559.958191,980.000000 522.600220,979.691284 
	C529.103943,970.781982 535.955200,962.189636 542.779175,953.575745 
	C544.768799,951.064270 547.429382,947.898438 544.695068,945.233765 
	C542.684509,943.274292 538.854126,942.936890 535.745239,942.457520 
	C534.289978,942.233154 532.505920,943.164978 531.071594,943.942932 
	C522.436462,948.626648 513.819885,953.347778 505.279602,958.201721 
	C500.920258,960.679321 500.593201,962.528625 503.439178,966.596863 
	C506.584717,971.093567 509.809631,975.534668 513.000000,980.000000 
	C491.979095,980.000000 470.958221,980.000000 449.405670,979.613342 
	C448.354706,974.734497 442.281891,969.146851 437.934570,970.227600 
	C433.209076,971.402466 436.604523,975.693481 436.005859,978.523743 
	C435.906128,978.995178 435.997131,979.506897 436.000000,980.000000 
	C291.023224,980.000000 146.046448,980.000000 1.034834,980.000000 
	C1.034834,653.742188 1.034834,327.484314 1.034834,1.113232 
	C311.666656,1.113232 622.333313,1.113232 933.000000,1.118711 
	C933.000000,125.437019 933.000000,249.749847 932.704102,374.367950 
	C913.989807,360.847595 894.523132,355.764557 872.747192,366.906525 
	C870.423767,368.095367 866.957336,367.430573 864.084412,367.090790 
	C856.837219,366.233551 849.641296,364.941162 842.393127,364.094055 
	C839.475159,363.753021 836.558228,364.940643 837.145935,368.425568 
	C838.160889,374.443298 839.206604,380.634766 841.586609,386.174622 
	C842.962708,389.377625 843.246094,391.473206 841.621033,394.320038 
	C835.981262,404.200073 831.212341,414.487396 829.459106,425.825562 
	C825.580688,450.907562 830.712036,473.095978 850.637085,490.483490 
	C856.010132,495.172272 862.129211,497.472626 869.089966,498.420013 
	C892.434875,501.597290 913.725159,496.547729 933.000000,483.000000 
M456.673187,495.758270 
	C459.015991,494.512970 461.527130,493.505890 463.676697,491.987122 
	C503.505768,463.845337 543.315002,435.675201 583.046631,407.396149 
	C586.580322,404.881042 589.549927,401.573303 593.282349,398.178009 
	C586.744385,394.350403 581.468994,392.210022 575.077881,395.852600 
	C566.695618,400.630035 558.033081,404.918121 549.456726,409.350311 
	C547.810669,410.200928 546.005920,410.744720 543.602112,411.696198 
	C543.723999,409.265442 544.127197,407.732849 543.795715,406.380310 
	C543.237122,404.100983 542.786438,400.889801 541.216370,400.028412 
	C539.760437,399.229706 536.468384,400.425598 534.739624,401.737640 
	C530.110291,405.251068 525.791443,409.197723 521.554993,413.190613 
	C520.199402,414.468353 519.488159,416.429657 518.482056,418.078186 
	C518.823181,418.500092 519.164246,418.921967 519.505371,419.343872 
	C523.201721,418.857697 526.898132,418.371552 530.594482,417.885406 
	C522.503967,423.480591 513.919617,427.514801 505.855957,432.407135 
	C499.797607,436.082855 493.744812,440.223358 488.871918,445.293365 
	C481.049164,453.432556 473.955261,462.318359 467.023590,471.253448 
	C461.386719,478.519501 456.944153,486.542236 456.014984,496.062561 
	C456.014984,496.062561 455.993439,495.968933 456.673187,495.758270 
M532.439026,597.766357 
	C525.453369,599.002686 518.007874,599.087769 511.557465,601.664185 
	C472.647491,617.206238 452.683319,669.037659 470.643646,706.935669 
	C479.508484,725.641357 493.866425,735.784302 515.122437,735.823303 
	C533.360291,735.856750 549.840027,730.674927 565.211182,721.181824 
	C589.618408,706.108215 609.293579,665.369202 586.018127,632.197998 
	C573.023254,613.678223 557.567444,599.126526 532.439026,597.766357 
M846.371765,901.922302 
	C833.768860,908.362183 821.209473,914.889587 808.539734,921.195312 
	C803.994446,923.457520 800.726990,926.445496 798.947449,931.380554 
	C795.899658,939.832703 792.299622,948.084106 789.124207,956.492615 
	C787.390442,961.083435 786.052368,965.823730 784.535889,970.496582 
	C784.912292,970.826416 785.288696,971.156311 785.665100,971.486206 
	C787.578186,970.457031 789.618042,969.608826 791.385376,968.371521 
	C818.663574,949.274353 845.976501,930.225342 873.129517,910.951355 
	C888.047974,900.361877 902.700195,889.396240 917.420959,878.530518 
	C918.935547,877.412537 920.097595,875.816833 921.446228,874.419067 
	C915.304871,869.210449 910.311157,868.441345 904.109741,871.676819 
	C885.066589,881.612488 866.059387,891.617310 846.371765,901.922302 
M678.695984,750.166626 
	C692.013062,739.987183 707.025146,731.844421 718.366516,718.189636 
	C712.808167,714.820190 708.179443,712.866211 702.648560,715.737976 
	C670.446838,732.458069 638.148193,748.994324 606.092590,765.989197 
	C602.467468,767.911072 599.100891,771.851807 597.435608,775.654114 
	C592.301208,787.377747 588.026245,799.479248 583.486755,811.460205 
	C582.965576,812.835815 582.881287,814.376892 582.594421,815.841248 
	C582.988342,816.071960 583.382263,816.302673 583.776184,816.533386 
	C615.224426,794.554626 646.672607,772.575806 678.695984,750.166626 
M571.532837,547.061035 
	C584.693542,530.311829 597.819702,513.535278 611.039795,496.833038 
	C614.271606,492.749939 616.206116,488.428253 615.760193,483.075378 
	C614.710388,470.471741 613.850647,457.852356 612.854858,445.244019 
	C612.721436,443.554504 612.245972,441.891998 611.928955,440.216949 
	C609.791016,441.237885 608.808167,442.463715 608.020691,443.804291 
	C596.474121,463.460266 584.918335,483.111053 573.486450,502.833679 
	C572.452148,504.618103 571.327209,507.154419 571.824463,508.888489 
	C574.568665,518.459412 569.602783,524.605103 562.929321,529.906006 
	C553.835815,537.129211 547.640930,546.472900 542.434631,556.620972 
	C538.863403,563.581970 535.293213,570.543762 531.779358,577.533691 
	C530.961609,579.160461 530.249939,580.864502 529.710754,582.601685 
	C528.902832,585.204529 529.689026,586.804077 532.720703,586.840210 
	C537.973206,586.902771 542.431519,585.612183 545.795837,581.064880 
	C554.107666,569.830261 562.650757,558.766663 571.532837,547.061035 
M684.079041,855.582092 
	C671.054199,869.043518 664.604309,886.375977 656.372742,902.658630 
	C656.225525,902.949829 656.186096,903.295959 656.099670,903.617371 
	C655.424927,906.126526 656.188171,907.526794 658.985535,907.375183 
	C664.248474,907.089966 668.845947,906.112732 672.448181,901.319641 
	C693.936768,872.727905 715.636169,844.293701 737.415161,815.922058 
	C740.343384,812.107483 741.692627,808.269409 741.330078,803.498657 
	C740.371643,790.886841 739.657410,778.256531 738.813599,765.635742 
	C738.729187,764.374023 738.423401,763.127136 737.955505,760.237610 
	C735.125610,764.042664 732.848450,766.570801 731.170166,769.448181 
	C720.859070,787.127136 710.615112,804.846497 700.545654,822.663696 
	C699.231934,824.988159 698.008850,828.178650 698.534790,830.574890 
	C700.102173,837.714844 697.451660,842.896912 692.538025,847.511597 
	C689.868774,850.018311 687.233154,852.560791 684.079041,855.582092 
M699.694336,521.821167 
	C703.376099,525.987671 707.057922,530.154236 711.255920,534.905029 
	C716.216675,527.637573 720.538147,521.158081 725.027039,514.796753 
	C727.091431,511.871399 726.301758,510.080078 723.459839,508.369690 
	C717.471802,504.765747 711.710938,500.769012 705.618530,497.359192 
	C701.074585,494.816040 699.154053,491.270569 698.532776,486.200317 
	C695.435852,460.924835 692.100952,435.678314 688.788574,410.429626 
	C688.301147,406.714233 687.485901,403.041840 686.797180,399.209991 
	C678.180786,402.723083 675.151672,407.549622 676.036560,415.500916 
	C678.632080,438.825348 681.966736,462.099945 683.545959,485.493011 
	C684.509399,499.765289 688.616089,511.705780 699.694336,521.821167 
M801.587219,669.083557 
	C796.248169,673.601318 790.880188,678.085449 785.578003,682.646057 
	C779.807983,687.609314 779.921509,689.487244 786.155457,694.092529 
	C788.967163,696.169617 791.835449,698.170471 794.634705,700.263977 
	C801.626648,705.493530 801.619507,705.508850 806.349548,698.444092 
	C806.997742,697.475891 807.614380,696.485718 808.221313,695.490906 
	C814.543701,685.127991 822.485107,676.415222 832.588440,669.457153 
	C843.273987,662.098145 853.445862,653.991882 863.818176,646.180237 
	C867.297485,643.559814 866.980042,640.644165 864.232910,637.691223 
	C861.661560,634.927246 859.928589,630.492615 854.676514,633.995483 
	C837.225525,645.634644 819.662476,657.105713 801.587219,669.083557 
M926.703308,611.212524 
	C927.195679,610.541321 927.679443,609.863647 928.181824,609.200073 
	C933.434998,602.260193 933.239380,601.688110 925.694946,597.320251 
	C915.994934,591.704529 907.011353,585.335815 900.348999,575.933105 
	C892.171387,564.392029 883.488708,553.203552 874.817749,542.022888 
	C873.447693,540.256348 870.894897,538.102417 869.050720,538.243408 
	C862.503479,538.744202 859.088806,546.617615 862.758606,551.884094 
	C877.512390,573.056763 892.271912,594.225525 907.104004,615.343323 
	C908.814026,617.778137 910.936951,619.934998 912.966614,622.129883 
	C914.982666,624.310059 916.846436,624.232788 918.674133,621.694519 
	C921.104980,618.318420 923.721863,615.076233 926.703308,611.212524 
M769.563965,823.938904 
	C765.605957,821.491821 761.626404,819.078674 757.697083,816.586365 
	C754.814453,814.757874 752.746338,815.223511 751.459656,818.499878 
	C749.516846,823.447266 747.401611,828.332397 745.624817,833.338135 
	C743.423279,839.540771 743.582092,839.694458 749.862671,841.715027 
	C752.554871,842.581116 755.262268,843.407593 757.988220,844.159851 
	C767.735657,846.849548 776.526001,851.226379 784.408569,857.707886 
	C794.298706,865.840088 804.488220,873.618835 814.755859,881.271790 
	C816.654358,882.686768 819.967224,883.963440 821.885437,883.265320 
	C827.857727,881.091858 829.004822,872.578674 824.201050,868.634338 
	C806.199280,853.853455 788.149231,839.131409 769.563965,823.938904 
M779.648254,589.651978 
	C781.756653,590.980164 783.970276,592.168152 785.956299,593.659363 
	C798.343384,602.960205 810.665283,612.348083 823.039856,621.665649 
	C828.040710,625.431091 829.244873,625.323975 832.538330,621.189819 
	C837.638672,614.787292 837.699402,613.583313 832.508606,609.314636 
	C826.849243,604.660645 821.083557,600.134521 815.321838,595.606628 
	C798.834473,582.649902 782.300354,569.752441 765.848816,556.750610 
	C762.917297,554.433777 761.287659,554.901917 760.008728,558.355164 
	C757.868591,564.133240 755.617493,569.874329 753.245667,575.561157 
	C751.847778,578.912720 752.543884,580.675171 756.210510,581.780151 
	C763.858276,584.084900 771.386230,586.786804 779.648254,589.651978 
M750.508179,928.938354 
	C761.974609,920.634583 773.466614,912.365723 784.873901,903.981445 
	C786.252930,902.967896 788.399719,900.576172 788.109619,900.105103 
	C786.135742,896.900452 783.978210,893.559082 781.074097,891.296021 
	C779.855042,890.346191 776.240967,891.260376 774.455688,892.443542 
	C762.934387,900.078735 751.535828,907.907104 740.256836,915.897766 
	C728.840271,923.985779 717.550598,932.256714 706.323730,940.606689 
	C701.700317,944.045288 701.700500,946.278625 705.919861,949.635132 
	C708.915161,952.017883 712.066040,954.207336 715.176697,956.442444 
	C723.209473,962.214294 723.342529,962.172546 728.803955,953.695068 
	C734.679810,944.574463 740.606018,935.493408 750.508179,928.938354 
M617.293091,728.766968 
	C627.100403,722.810303 636.899780,716.840393 646.720520,710.905945 
	C649.292175,709.351929 649.939087,707.692627 647.414001,705.491455 
	C641.268494,700.134705 635.295715,694.563293 628.909241,689.513672 
	C627.645996,688.514893 623.890930,688.581604 622.895752,689.653015 
	C613.162659,700.132507 603.614380,710.796204 594.361572,721.702820 
	C590.749512,725.960510 594.088989,729.856262 596.564148,733.384155 
	C598.799011,736.569641 601.859009,736.415039 605.010437,734.878967 
	C608.898682,732.983765 612.753296,731.019592 617.293091,728.766968 
M551.870056,854.647156 
	C544.738892,848.654480 544.777954,848.688599 538.465454,855.914612 
	C530.594788,864.924255 522.694946,873.909424 514.713196,882.820435 
	C512.333252,885.477417 511.617371,888.031921 513.330811,891.383911 
	C517.004822,898.571289 519.476929,899.914001 526.713013,896.028198 
	C539.584167,889.116333 552.129639,881.596069 564.769653,874.258423 
	C566.138916,873.463501 567.232971,872.194519 569.197266,870.507812 
	C563.321106,865.116577 557.865112,860.110779 551.870056,854.647156 
M598.375244,913.907227 
	C588.769287,919.515930 579.165344,925.128052 569.556274,930.731506 
	C566.121826,932.734314 565.772339,934.786621 568.930664,937.591431 
	C574.642822,942.664429 580.190613,947.927124 585.701111,953.220825 
	C588.094177,955.519775 589.609863,955.092590 591.733765,952.648743 
	C598.484619,944.880859 605.507996,937.349548 612.437988,929.737732 
	C615.008789,926.914001 617.717773,924.209045 620.176514,921.292175 
	C623.656250,917.163696 621.404968,913.633118 618.824219,910.104370 
	C616.305969,906.661011 613.247559,906.241760 609.653137,908.069885 
	C606.099731,909.877197 602.572815,911.736572 598.375244,913.907227 
M452.164581,560.284302 
	C456.865814,563.717102 461.456970,567.320190 466.337708,570.475281 
	C467.739777,571.381653 470.352173,571.762817 471.769958,571.071960 
	C479.121033,567.490051 479.784180,561.566956 473.502228,556.574707 
	C461.518616,547.051331 449.398254,537.700073 437.402954,528.191284 
	C432.468353,524.279602 432.300873,524.215942 428.813904,529.594299 
	C428.180328,530.571594 427.633606,531.609192 426.953674,532.551819 
	C424.001038,536.644897 424.938934,539.705750 428.952606,542.625244 
	C436.619812,548.202271 444.058624,554.093201 452.164581,560.284302 
M475.203186,898.986450 
	C470.565735,895.596252 465.640198,895.382935 460.687378,898.036926 
	C451.606445,902.903015 442.646484,907.994873 433.563293,912.856628 
	C430.366119,914.567932 429.495697,916.317383 432.009460,919.398071 
	C436.211121,924.547424 440.240936,929.840271 444.238800,935.151245 
	C446.311646,937.904907 448.160950,938.353149 450.509979,935.437073 
	C458.328339,925.731812 466.349335,916.186401 473.990875,906.345459 
	C475.294922,904.666016 475.115967,901.835022 475.203186,898.986450 
M537.170044,802.690674 
	C539.858337,799.517212 542.747192,796.487732 545.164246,793.119629 
	C546.765686,790.887939 547.956848,788.254333 548.779724,785.627747 
	C549.080811,784.666565 547.992737,782.312744 547.189880,782.130676 
	C543.892517,781.382874 539.857910,779.888062 537.186157,781.091553 
	C527.200867,785.589233 517.572449,790.911377 508.011108,796.282166 
	C506.633423,797.056091 505.158173,800.602722 505.758148,801.483704 
	C510.467804,808.399292 515.672180,814.977905 521.264221,822.374939 
	C526.957214,815.345337 531.851318,809.302124 537.170044,802.690674 
M843.455688,790.875366 
	C846.056702,790.310486 848.674316,789.811951 851.255493,789.167786 
	C857.635376,787.575562 862.234985,780.708130 860.687988,774.314636 
	C860.243042,772.475708 858.074341,769.874084 856.459656,769.689575 
	C846.061035,768.501221 835.603699,767.771484 825.150208,767.151367 
	C821.834473,766.954651 820.312378,768.990417 821.072876,772.372498 
	C822.386536,778.214844 823.721680,784.052368 825.050049,789.891418 
	C825.776550,793.085144 827.709412,794.294495 830.927185,793.563049 
	C834.819641,792.678223 838.729675,791.870300 843.455688,790.875366 
M733.369385,328.229889 
	C734.142151,331.802856 734.913269,335.376190 735.688171,338.948669 
	C736.561096,342.973236 738.854248,344.497559 742.964050,343.376038 
	C748.732178,341.802063 754.529724,340.323029 760.351746,338.962280 
	C769.244324,336.883942 771.164001,334.300323 771.101929,325.140289 
	C771.070679,320.533691 769.112549,318.505005 764.580505,318.297852 
	C757.277466,317.964081 749.984436,317.401337 742.689453,316.902954 
	C731.273621,316.123047 731.274414,316.111633 733.369385,328.229889 
M630.017334,635.189209 
	C630.583008,635.507751 631.243103,636.203613 631.700500,636.089172 
	C641.490112,633.640625 651.535156,631.834290 660.913330,628.276245 
	C665.747314,626.442322 664.591125,620.197876 664.101013,615.626282 
	C663.680786,611.706970 660.167114,611.577698 657.194031,611.304077 
	C648.578735,610.511169 639.961304,609.692261 631.327393,609.170471 
	C626.463318,608.876526 624.856750,610.740906 625.701904,615.504761 
	C626.834106,621.886475 628.303284,628.208374 630.017334,635.189209 
M739.228394,479.193634 
	C737.281982,478.672546 735.335571,478.151459 732.194702,477.310608 
	C738.381653,473.770294 735.847473,471.532379 732.741150,469.292847 
	C729.233826,466.764252 725.776917,464.165833 722.295105,461.601807 
	C717.645203,458.177521 715.720032,458.626556 710.231750,463.480133 
	C706.443359,466.830383 706.469116,470.096252 709.320618,473.914948 
	C715.593628,482.315674 721.804626,490.763031 727.987671,499.230225 
	C728.862915,500.428802 729.439941,501.845215 730.155029,503.160767 
	C735.592102,496.625885 739.350525,490.988098 742.700317,485.117126 
	C744.227539,482.440460 742.881531,480.317749 739.228394,479.193634 
M751.136902,520.152161 
	C751.136902,518.820557 751.136902,517.488953 751.136902,516.102356 
	C746.294861,517.027527 742.234924,517.790161 738.181091,518.583984 
	C736.390503,518.934631 734.570312,519.214966 732.836304,519.759033 
	C727.688049,521.374390 725.152832,526.009705 725.663574,532.508301 
	C726.056702,537.511597 730.287231,536.564941 733.211670,537.157898 
	C742.972900,539.136902 752.792847,540.829895 762.601746,542.567444 
	C764.293091,542.867065 766.040649,542.849792 768.828491,543.058899 
	C766.839722,535.786255 765.243469,529.399963 763.325378,523.111755 
	C761.848022,518.268677 760.260376,517.941101 755.591309,520.387817 
	C754.385681,521.019592 752.663452,520.665344 751.136902,520.152161 
M426.120758,597.424194 
	C421.047150,593.643860 416.047852,589.757019 410.861084,586.138916 
	C408.956696,584.810547 406.608734,584.118103 404.463104,583.135559 
	C403.176666,586.127014 401.042206,589.079590 400.902527,592.123657 
	C400.809723,594.146240 403.197479,596.754333 405.113647,598.317139 
	C414.272186,605.786499 423.628082,613.015015 432.959137,620.270874 
	C436.375092,622.927185 439.896271,625.450134 443.406769,627.982117 
	C446.015015,629.863403 447.715576,629.170715 448.433167,626.039429 
	C449.692505,620.544556 448.543793,615.766663 444.093719,612.081421 
	C438.323547,607.302917 432.491455,602.599182 426.120758,597.424194 
M637.934448,592.344299 
	C639.492126,591.370300 641.049866,590.396301 643.529236,588.845947 
	C642.846191,592.007935 642.451843,593.833557 641.868835,596.532532 
	C649.687195,595.189819 656.939636,594.393433 663.932312,592.589966 
	C668.821594,591.328918 668.668457,586.268066 668.154297,582.523926 
	C667.866150,580.424988 665.171082,577.483765 663.080933,577.001953 
	C652.237122,574.502197 641.241516,572.657715 630.292542,570.618713 
	C627.233643,570.049133 625.763794,571.184265 626.571289,574.431824 
	C627.894470,579.753174 629.135437,585.098389 630.614563,590.376526 
	C631.679382,594.176331 634.050598,595.047913 637.934448,592.344299 
M769.769409,488.701965 
	C771.736511,490.229034 773.695190,491.767242 775.672485,493.281006 
	C780.331665,496.847900 783.291931,496.511780 788.312378,491.866150 
	C792.147339,488.317566 792.342102,486.173065 788.742249,481.034424 
	C782.740784,472.467377 776.575684,464.014954 770.507812,455.494080 
	C769.843994,454.561859 769.365601,453.497650 768.143433,451.325806 
	C764.900330,457.064148 762.574585,461.172852 760.254944,465.285065 
	C755.283447,474.098450 755.286377,474.095154 764.367371,477.796967 
	C764.554199,477.873108 764.569580,478.369598 764.723572,478.854675 
	C763.614990,479.869049 762.455750,480.929718 760.832581,482.414856 
	C763.868103,484.533630 766.535522,486.395477 769.769409,488.701965 
M835.432922,730.177246 
	C832.313538,729.676147 829.195374,729.167114 826.074402,728.676331 
	C823.395996,728.255188 822.205566,729.460876 822.770508,732.062134 
	C823.934265,737.420898 825.006165,742.817993 826.559998,748.067932 
	C827.777527,752.181580 829.999573,752.697266 833.804016,750.385742 
	C835.395630,749.418762 836.988525,748.453796 839.235596,747.090698 
	C839.235596,750.010742 839.235596,751.893311 839.235596,754.557922 
	C845.968872,753.140015 852.222168,751.503296 858.579041,750.577393 
	C864.546326,749.708313 864.148499,745.453125 864.467896,741.312805 
	C864.810425,736.873840 862.338135,735.060791 858.366821,734.369873 
	C850.994446,733.087219 843.641907,731.690491 835.432922,730.177246 
M897.753418,943.402161 
	C899.471680,940.808655 901.799438,938.407410 902.698853,935.555725 
	C903.322266,933.579163 902.767334,929.755371 901.382568,928.864014 
	C893.286194,923.652222 884.810547,918.911987 874.946472,918.035645 
	C873.732056,917.927673 871.298157,919.928162 871.171387,921.134583 
	C870.496094,927.562866 870.208069,934.048889 870.191345,940.515991 
	C870.187561,941.963196 871.672302,944.561829 872.700623,944.682556 
	C880.862366,945.641724 889.133362,947.448364 897.753418,943.402161 
M706.403137,597.141968 
	C707.779419,595.716919 709.403870,594.457825 710.488098,592.837341 
	C714.648193,586.619629 714.083069,582.278931 707.393921,579.003479 
	C700.908447,575.827820 693.771729,573.913940 686.812866,571.802185 
	C683.387756,570.762695 681.340454,572.832092 681.094360,576.225403 
	C680.661682,582.190552 680.291382,588.174438 680.321289,594.148315 
	C680.328125,595.514587 682.051392,598.035706 683.013245,598.049561 
	C690.593018,598.159180 698.179810,597.789001 706.403137,597.141968 
M571.724243,451.885284 
	C564.376648,445.797241 555.477600,443.623566 546.381287,442.217590 
	C545.230103,442.039703 542.693481,444.009399 542.562256,445.181519 
	C541.840881,451.625305 541.634949,458.128876 541.322754,464.615356 
	C541.185425,467.468140 542.635376,469.021149 545.523499,468.969147 
	C551.841187,468.855408 558.212402,469.134552 564.460083,468.394653 
	C571.548035,467.555206 575.380127,459.097839 571.724243,451.885284 
M420.548584,762.154663 
	C413.087616,753.543457 402.609894,752.005676 392.268768,750.322083 
	C391.496094,750.196289 389.658783,752.050842 389.557220,753.104431 
	C388.918396,759.732178 388.404327,766.394226 388.420532,773.043579 
	C388.423706,774.358521 390.858368,776.725525 392.264893,776.797913 
	C398.741486,777.131287 405.277161,777.127502 411.733765,776.572021 
	C413.827606,776.391785 416.532715,774.607666 417.564117,772.773376 
	C419.224426,769.820679 419.726959,766.216980 420.548584,762.154663 
M881.512085,756.018311 
	C886.653992,756.325012 891.798157,756.908020 896.937195,756.866028 
	C902.903198,756.817383 909.948730,748.108459 909.001648,742.198120 
	C908.819641,741.062500 907.880310,739.565918 906.891235,739.118896 
	C899.477844,735.768372 892.082092,732.310730 884.435730,729.570618 
	C880.180542,728.045776 877.876587,730.082153 877.435669,734.721741 
	C876.932556,740.016479 876.728699,745.339050 876.342102,750.645691 
	C876.111145,753.815918 877.167236,755.848022 881.512085,756.018311 
M695.711426,787.526733 
	C696.641296,785.983459 697.807800,784.533630 698.460510,782.880859 
	C701.458435,775.289917 701.068054,773.107117 693.744751,769.752380 
	C687.460999,766.873840 680.592957,765.208496 673.893799,763.325134 
	C670.532715,762.380249 668.908081,764.550598 668.705139,767.696045 
	C668.319092,773.679871 667.829468,779.677979 667.955078,785.658081 
	C667.983643,787.017944 670.378662,789.506104 671.627014,789.470398 
	C679.424988,789.247314 687.206787,788.455261 695.711426,787.526733 
M673.304565,674.050354 
	C676.302979,671.528198 680.351929,659.968689 679.054932,656.866882 
	C678.622925,655.833923 677.307251,654.795959 676.192749,654.483337 
	C668.685120,652.376587 661.129211,650.439758 653.575073,648.502075 
	C650.817444,647.794739 648.989380,648.860229 648.498596,651.721497 
	C647.657043,656.627319 646.513977,661.535645 646.338562,666.472839 
	C646.274963,668.263733 648.391052,671.490906 649.907104,671.749451 
	C657.388184,673.025208 665.001526,673.525208 673.304565,674.050354 
M855.845215,807.677307 
	C854.726929,807.362793 853.613892,807.028076 852.489441,806.737305 
	C846.723633,805.246582 845.287842,806.183533 844.405151,811.903564 
	C843.823181,815.674927 843.294922,819.460510 842.530396,823.196228 
	C841.690369,827.301514 843.061340,829.590820 847.339966,830.067322 
	C851.297119,830.507996 855.236511,831.105286 859.187256,831.605957 
	C871.563049,833.174255 872.624878,832.367554 874.632751,819.941345 
	C874.659241,819.777588 874.681946,819.612061 874.724731,819.452209 
	C875.683289,815.866760 874.131531,813.723633 870.792297,812.612427 
	C866.069702,811.041016 861.345520,809.474304 855.845215,807.677307 
M753.778870,366.146759 
	C753.487244,368.282379 753.305176,370.440125 752.880066,372.548859 
	C752.106506,376.386566 753.332825,378.559143 757.444214,379.029877 
	C761.226807,379.462921 764.951294,380.538940 768.737000,380.785828 
	C784.759033,381.830627 782.150757,381.323639 786.129578,367.742279 
	C787.011353,364.732330 786.098389,363.022919 783.028870,362.245728 
	C775.796753,360.414642 768.588318,358.489105 761.377136,356.576202 
	C757.534546,355.556824 755.266846,356.950439 754.598328,360.883057 
	C754.348267,362.353699 754.124084,363.828735 753.778870,366.146759 
M872.377197,785.236328 
	C872.761353,787.191528 872.624695,789.512817 873.671448,791.002319 
	C874.789062,792.592773 877.159119,794.530457 878.747070,794.341309 
	C884.329102,793.676208 889.882080,792.417603 895.306091,790.887817 
	C899.478271,789.710999 902.159058,784.766846 901.678772,780.130554 
	C901.219849,775.700378 898.331421,773.213745 894.256226,772.549927 
	C888.036560,771.536804 881.744995,770.921692 875.465454,770.335632 
	C871.816956,769.995178 870.248413,771.977356 870.770447,775.552246 
	C871.202393,778.510315 871.738586,781.453247 872.377197,785.236328 
M808.529480,322.702484 
	C801.458740,321.791260 794.397400,320.796234 787.313416,320.003174 
	C783.614258,319.589050 781.501587,321.216309 782.131104,325.215576 
	C782.905273,330.133331 783.471802,335.125397 784.823914,339.887817 
	C785.294983,341.546906 787.945862,343.865021 789.413330,343.736511 
	C795.003784,343.246857 800.685486,342.409729 806.019104,340.714630 
	C813.377258,338.376068 815.080139,327.835419 808.529480,322.702484 
M707.431885,763.822571 
	C712.804871,762.704102 718.179199,761.592102 723.550476,760.465271 
	C728.514465,759.423706 729.144592,755.386169 729.869385,751.370789 
	C730.579346,747.437134 728.913452,744.383240 725.332214,743.587158 
	C718.102417,741.979980 710.728821,740.884460 703.356812,740.185486 
	C702.138245,740.070007 699.365784,743.135620 699.475342,744.565308 
	C699.892395,750.006531 700.951538,755.444092 702.338684,760.734009 
	C702.691040,762.077698 705.140442,762.871460 707.431885,763.822571 
M737.289124,656.846985 
	C730.843689,656.661804 729.774902,657.700806 730.504578,663.841003 
	C730.974304,667.793762 731.615845,671.728760 732.282593,675.654419 
	C732.813293,678.779419 734.769836,680.360535 737.925110,679.889709 
	C743.334961,679.082397 748.780762,678.348999 754.088196,677.072266 
	C758.685913,675.966248 760.320007,672.492920 760.094177,666.445190 
	C759.929626,662.041077 757.425537,659.759583 753.393127,659.077148 
	C748.326904,658.219849 743.214478,657.636230 737.289124,656.846985 
M414.700653,642.909668 
	C415.185425,645.179016 415.596069,647.467346 416.171906,649.713379 
	C417.095184,653.314697 419.471985,655.013000 423.175842,654.466492 
	C427.599731,653.813660 432.070618,653.276123 436.390717,652.176208 
	C441.414459,650.897217 444.391602,645.474182 443.827759,639.566162 
	C443.318665,634.232300 439.178040,633.714172 435.169525,633.179382 
	C431.392609,632.675415 427.594666,632.308350 423.797272,631.983032 
	C412.812531,631.041870 412.810822,631.061951 414.700653,642.909668 
M706.765442,390.581055 
	C701.313049,389.439758 697.953491,393.059540 695.039062,396.477844 
	C692.187378,399.822632 694.959595,403.260498 696.954834,405.910492 
	C700.733154,410.928711 705.024292,415.562195 709.129089,420.332520 
	C711.035156,422.547607 712.646362,422.209045 714.234985,419.827057 
	C716.901001,415.829865 719.518982,411.772919 722.530457,408.042419 
	C725.125916,404.827148 724.823181,402.597656 721.427551,400.381592 
	C716.712158,397.304291 712.104614,394.061676 706.765442,390.581055 
M597.435852,440.222076 
	C602.046997,438.206085 604.167297,434.227356 603.128235,429.771301 
	C602.493530,427.049011 599.748962,423.544495 597.231812,422.788116 
	C591.102539,420.946289 584.572449,420.347992 578.165649,419.557739 
	C574.849548,419.148712 573.131592,421.093658 573.644714,424.434753 
	C574.449951,429.678558 575.197876,434.961456 576.565674,440.068237 
	C576.927124,441.417694 579.557556,443.166473 580.997131,443.039764 
	C586.261902,442.576294 591.463806,441.398590 597.435852,440.222076 
M438.277008,839.796265 
	C439.113861,844.701355 439.983337,849.601196 440.776489,854.513306 
	C441.339600,858.000732 443.408356,859.353638 446.762177,858.814270 
	C451.510925,858.050598 456.299561,857.418457 460.966309,856.294739 
	C465.366455,855.235229 469.158813,849.726440 468.790039,845.315979 
	C468.385712,840.480652 464.862701,838.567322 460.707947,837.868164 
	C454.987183,836.905518 449.214935,836.034241 443.435272,835.771179 
	C441.783508,835.695923 440.029694,837.861938 438.277008,839.796265 
M648.297058,360.380890 
	C644.218994,355.601562 640.187012,350.781799 636.042114,346.061249 
	C634.180664,343.941315 632.426514,344.176819 630.874451,346.641510 
	C627.864258,351.421814 624.585999,356.043640 621.808228,360.951599 
	C621.226562,361.979340 621.797852,364.690735 622.744324,365.377899 
	C627.438782,368.786377 632.241577,372.153839 637.379456,374.814941 
	C643.262024,377.861664 650.081848,373.372833 649.956299,366.848572 
	C649.919189,364.918060 649.091858,363.002716 648.297058,360.380890 
M929.927734,913.284912 
	C933.450073,905.881653 932.425659,900.280396 926.473145,898.890930 
	C919.913818,897.359741 913.067688,896.938965 906.317444,896.397949 
	C903.363831,896.161194 901.655701,898.057922 902.153992,901.191772 
	C902.882446,905.773926 903.316650,910.483276 904.785278,914.831360 
	C905.457214,916.820740 908.612427,919.683655 910.097412,919.390747 
	C916.654724,918.097961 923.014160,915.801270 929.927734,913.284912 
M383.377258,794.311279 
	C384.318848,800.364197 385.000031,806.478149 386.393738,812.425049 
	C386.722717,813.828735 389.622803,815.792114 391.042542,815.572754 
	C396.596832,814.714172 402.117004,813.354126 407.486115,811.661194 
	C412.330780,810.133606 413.002045,805.551819 412.865845,801.403625 
	C412.792114,799.157104 411.188293,795.321411 409.720245,795.033936 
	C401.932709,793.508911 393.974487,792.831360 386.058472,792.026672 
	C385.325195,791.952148 384.473145,793.046082 383.377258,794.311279 
M678.398865,613.480103 
	C677.404175,615.179077 675.447449,616.965515 675.592468,618.560852 
	C676.057373,623.673401 677.094727,628.769043 678.396606,633.744141 
	C678.698486,634.898010 681.019775,636.411316 682.252747,636.278748 
	C687.367126,635.729065 692.482666,634.864929 697.479187,633.634399 
	C702.701721,632.348206 705.371948,628.174011 705.086243,622.769592 
	C704.845154,618.209229 702.223083,615.341614 696.610779,614.604492 
	C690.857910,613.848938 685.023315,613.715088 678.398865,613.480103 
M731.503052,440.028137 
	C734.130066,446.336487 735.687256,447.533508 739.336670,445.294708 
	C743.722473,442.604218 747.928589,439.580536 751.957031,436.379486 
	C752.823181,435.691193 753.312805,433.194244 752.753479,432.271210 
	C749.915833,427.588501 746.839966,423.024994 743.527649,418.662598 
	C740.522400,414.704712 735.002625,414.272858 729.382751,417.118134 
	C724.740234,419.468597 725.780884,423.455414 726.830750,427.116150 
	C728.020020,431.262573 729.742188,435.256104 731.503052,440.028137 
M463.679810,799.332275 
	C465.327911,796.897766 467.591858,794.648010 468.397705,791.960938 
	C468.896606,790.297241 467.703033,786.702576 466.369934,786.151978 
	C459.532440,783.328064 452.460205,781.013916 445.346008,778.948853 
	C442.702332,778.181458 440.905182,779.903198 440.978241,782.885986 
	C441.092041,787.534119 440.892029,792.235596 441.577515,796.801453 
	C441.847992,798.602905 444.160492,801.513611 445.505890,801.492920 
	C451.364197,801.402954 457.208832,800.419800 463.679810,799.332275 
M846.249756,307.260223 
	C842.983948,306.743042 840.420410,307.519562 840.315063,311.326141 
	C840.181824,316.139862 840.000488,321.013702 840.638977,325.754028 
	C840.863770,327.423401 843.392883,329.983978 844.960083,330.051788 
	C850.232239,330.279907 855.605042,329.944580 860.825073,329.110046 
	C865.886475,328.300934 865.739136,323.504669 866.691223,319.712677 
	C867.547180,316.303711 865.879883,314.128510 862.993530,313.009308 
	C857.747742,310.975311 852.380676,309.254089 846.249756,307.260223 
M732.948547,604.879517 
	C732.994934,606.868591 733.023438,608.858276 733.090576,610.846619 
	C733.525940,623.742676 733.528625,623.742615 746.210510,623.068848 
	C755.514954,622.574524 757.079956,621.199646 759.365662,612.283997 
	C760.134155,609.286560 759.220581,607.282227 756.501160,606.332092 
	C750.402100,604.201172 744.255371,602.191956 738.065125,600.343811 
	C735.104309,599.459717 733.239258,600.762390 732.948547,604.879517 
M770.211609,762.967957 
	C775.847595,762.886658 781.488281,762.918945 787.117981,762.685242 
	C791.037048,762.522583 792.957031,759.952942 793.676575,756.326233 
	C794.388184,752.739197 794.678223,749.114014 790.651123,747.297058 
	C785.227600,744.849976 779.701843,742.599915 774.101135,740.598022 
	C772.874329,740.159424 769.931458,740.912598 769.835388,741.470825 
	C768.721680,747.943542 767.947876,754.478699 767.284790,761.017639 
	C767.231445,761.544006 768.660400,762.220703 770.211609,762.967957 
M772.652039,508.134857 
	C768.811279,510.168976 766.675598,513.180359 768.337158,517.533691 
	C770.293579,522.659485 772.571045,527.672852 774.925049,532.632568 
	C776.204285,535.327820 778.325317,536.237305 781.004761,534.180725 
	C785.231445,530.936584 789.449829,527.681824 793.684570,524.448303 
	C796.222900,522.510071 795.843079,520.756897 793.597778,518.804077 
	C790.080750,515.745239 786.659363,512.573303 783.264282,509.378296 
	C780.268250,506.558716 777.044006,505.639587 772.652039,508.134857 
M624.745178,823.880981 
	C618.619446,822.197815 612.525391,820.369202 606.326538,819.022522 
	C605.582336,818.860779 603.447327,821.262024 603.364258,822.565186 
	C603.016846,828.007812 603.139221,833.485779 603.224426,838.948730 
	C603.277466,842.349976 605.191772,843.670349 608.486450,843.047668 
	C612.065369,842.371155 615.625122,841.577148 619.221191,841.011658 
	C624.593689,840.166748 627.058594,837.029297 626.605103,831.725464 
	C626.397461,829.298279 625.673645,826.915161 624.745178,823.880981 
M578.657349,604.978760 
	C582.475037,605.005493 586.294983,605.127502 590.109863,605.036987 
	C596.047729,604.896179 596.923828,600.219666 598.195862,595.858215 
	C599.414062,591.681335 596.681091,590.155640 593.653564,588.854919 
	C589.239929,586.958801 584.794495,585.134827 580.340515,583.334778 
	C576.220520,581.669739 573.646301,582.696655 573.041443,587.465027 
	C572.603210,590.919434 571.828735,594.329895 571.311279,597.775940 
	C570.255127,604.809387 570.419556,604.964661 578.657349,604.978760 
M527.753845,492.959076 
	C530.895142,482.479492 529.102112,479.240631 518.647888,476.586517 
	C516.396851,476.014984 514.104980,475.600067 511.863617,474.995483 
	C507.588531,473.842316 505.407379,475.621002 505.288361,479.845612 
	C505.148285,484.819885 505.061157,489.818481 505.438263,494.769440 
	C505.541046,496.118622 507.654419,498.573303 508.406464,498.416534 
	C514.768494,497.090485 521.028870,495.276611 527.753845,492.959076 
M655.373413,351.299164 
	C656.288391,356.676056 657.203369,362.052917 658.118347,367.429779 
	C658.757507,367.435150 659.396667,367.440552 660.035828,367.445923 
	C663.722046,363.471344 669.026184,360.472198 668.677246,353.881561 
	C668.256042,345.923492 667.546082,337.975983 666.715576,330.049652 
	C666.598572,328.932983 665.223145,327.231781 664.203247,327.045746 
	C658.786987,326.057922 652.896057,331.634369 653.455505,337.089630 
	C653.913025,341.551575 654.645752,345.985321 655.373413,351.299164 
M491.203918,500.249725 
	C488.411621,499.831390 485.626862,499.350861 482.825104,499.010345 
	C479.246887,498.575470 477.432648,500.465912 477.359467,503.845886 
	C477.251526,508.828461 477.355804,513.818848 477.493744,518.802490 
	C477.583282,522.037231 479.451538,523.122192 482.521027,522.560425 
	C485.464081,522.021912 488.429413,521.605103 491.373199,521.070312 
	C498.377136,519.797729 499.802551,518.145081 499.987793,511.203217 
	C500.223999,502.354218 500.223938,502.354218 491.203918,500.249725 
M633.886536,888.950500 
	C638.152649,888.299561 642.474182,887.891663 646.670532,886.934753 
	C651.630127,885.803772 652.780884,881.825317 652.881226,877.344238 
	C652.979492,872.952759 651.911377,869.481934 646.833740,868.506226 
	C642.918335,867.753845 639.079285,866.607788 635.200256,865.661682 
	C631.651245,864.796021 629.544250,866.355103 629.408630,869.844116 
	C629.215271,874.819702 629.198853,879.837158 629.673401,884.782349 
	C629.814453,886.252563 631.857605,887.540283 633.886536,888.950500 
M681.752014,528.725952 
	C676.949524,527.404541 672.148193,526.078674 667.344055,524.763245 
	C664.277588,523.923584 662.381348,525.040039 662.172546,528.248291 
	C661.827393,533.553528 661.600525,538.869202 661.460999,544.184082 
	C661.378784,547.320557 663.119934,548.790283 666.213440,548.393616 
	C669.673584,547.949951 673.123962,547.407837 676.559937,546.802185 
	C685.302979,545.261169 688.267029,536.279053 681.752014,528.725952 
M651.697815,815.241699 
	C652.696472,813.209473 654.204956,811.271912 654.603271,809.128174 
	C656.123718,800.945862 654.884521,799.294495 646.760132,797.421204 
	C643.522217,796.674561 640.285706,795.920410 637.057983,795.131287 
	C634.031189,794.391174 632.102783,795.211182 632.049255,798.633667 
	C631.963562,804.116394 631.882385,809.600159 631.899719,815.083130 
	C631.908386,817.819031 633.251221,819.833740 636.164734,819.280579 
	C641.183838,818.327454 646.114990,816.911377 651.697815,815.241699 
M652.851990,826.070129 
	C651.661499,827.237061 649.512451,828.352661 649.446655,829.579895 
	C649.163025,834.870667 649.092529,840.251465 649.844849,845.469727 
	C650.061584,846.973206 653.286987,849.092407 655.134888,849.094360 
	C659.061768,849.098572 663.025208,848.051086 666.909607,847.156494 
	C673.282532,845.688843 672.049622,840.273254 672.451477,835.816833 
	C672.812500,831.813110 670.616028,829.565796 666.898987,828.742432 
	C662.518494,827.772095 658.103821,826.956360 652.851990,826.070129 
M834.127625,966.289795 
	C834.162476,974.188232 835.177551,975.077881 842.818542,973.745605 
	C845.926392,973.203735 849.047363,972.680237 852.104492,971.916687 
	C857.594116,970.545593 857.036926,966.000000 857.136108,961.860352 
	C857.230164,957.936340 856.546387,954.496033 851.901306,953.517883 
	C847.839661,952.662476 843.782166,951.785767 839.733948,950.869080 
	C836.331177,950.098633 834.641785,951.500793 834.497925,954.893860 
	C834.350159,958.377808 834.254089,961.864014 834.127625,966.289795 
M537.707336,527.163879 
	C544.913513,525.587036 548.212952,520.739502 546.291382,514.384521 
	C544.777100,509.376465 540.573975,507.877594 536.073853,506.780640 
	C524.801025,504.032867 523.236572,505.249420 523.282837,516.846558 
	C523.333435,529.525208 524.325623,530.290283 537.707336,527.163879 
M861.380615,682.729980 
	C860.235901,683.809814 858.173950,684.833252 858.103394,685.979187 
	C857.778259,691.264893 857.916687,696.587280 858.071167,701.891235 
	C858.171204,705.325500 860.475098,706.561401 863.518433,706.068481 
	C867.599243,705.407593 871.707336,704.651001 875.641724,703.418457 
	C880.166748,702.000916 881.149231,698.170959 881.128357,693.858337 
	C881.108093,689.672913 879.336792,686.768005 875.259705,685.702942 
	C870.939270,684.574402 866.537964,683.755310 861.380615,682.729980 
M503.865692,549.594604 
	C503.727509,552.912415 503.460663,556.230835 503.475616,559.547913 
	C503.517700,568.868958 504.362030,569.507019 513.224182,567.380371 
	C514.677795,567.031616 516.134827,566.696228 517.595215,566.377319 
	C524.440674,564.882507 528.223572,557.943726 525.460144,551.497131 
	C524.883911,550.152954 523.382263,548.728455 522.006165,548.293762 
	C517.901672,546.997375 513.668274,546.074890 509.444885,545.201416 
	C506.610474,544.615173 504.530701,545.617859 503.865692,549.594604 
M387.997833,724.625061 
	C392.517914,722.156555 394.846649,713.070923 392.136505,708.477783 
	C390.537537,705.767883 377.741272,702.491211 375.475952,704.372009 
	C374.694702,705.020630 374.167542,706.335083 374.075684,707.393311 
	C373.629974,712.528748 373.334564,717.678528 373.060669,722.827148 
	C372.898682,725.872131 374.534088,727.117065 377.432800,726.655457 
	C380.716431,726.132385 383.976990,725.464294 387.997833,724.625061 
M396.841705,638.705750 
	C386.528259,632.822876 387.394440,630.955261 384.300232,644.158997 
	C381.481659,656.186523 380.905884,654.707031 393.248199,656.492249 
	C398.076111,657.190491 402.492462,654.311523 404.398193,649.425903 
	C406.294189,644.565369 402.789642,642.545959 399.567932,640.402283 
	C398.878632,639.943604 398.167877,639.517151 396.841705,638.705750 
M397.073181,612.110229 
	C394.121246,611.498718 392.618927,612.863892 392.388641,615.707947 
	C392.093719,619.350525 391.923645,623.003113 391.692017,626.650940 
	C391.472565,630.106567 393.122955,631.052979 396.321320,630.318665 
	C399.069427,629.687683 401.943726,629.533813 404.627563,628.723145 
	C406.216827,628.243225 408.193237,627.229370 408.879089,625.885742 
	C411.989594,619.791748 409.016998,614.266602 402.256714,612.986267 
	C400.787354,612.708008 399.310059,612.471558 397.073181,612.110229 
M711.813416,429.621887 
	C709.095032,432.527771 703.872681,435.780701 704.216675,438.262115 
	C704.803772,442.498322 708.744507,446.367004 711.778503,449.967072 
	C712.001770,450.232147 716.379028,447.240845 718.610168,445.489655 
	C720.291992,444.169556 722.023743,442.617065 722.984802,440.777039 
	C723.644287,439.514404 723.677063,436.740051 722.853210,436.096466 
	C719.652283,433.595612 715.996887,431.676422 711.813416,429.621887 
M793.716919,298.019592 
	C791.032776,298.376953 787.318604,297.733521 787.338623,301.777405 
	C787.360718,306.245270 791.265625,305.448059 794.103760,305.467621 
	C799.407654,305.504181 804.718445,305.409302 810.014954,305.142761 
	C811.778809,305.054047 813.840271,304.702148 815.155884,303.683167 
	C816.381653,302.733856 816.796875,300.737976 817.568848,299.202789 
	C816.215942,298.530518 814.858948,297.275818 813.510925,297.285400 
	C807.212891,297.330017 800.917236,297.723450 793.716919,298.019592 
M427.236816,955.361145 
	C427.413757,958.870422 429.076324,961.545288 432.717224,960.683594 
	C434.751404,960.202026 437.398193,957.863464 437.804688,955.945435 
	C438.491394,952.704956 435.755585,951.098816 432.573486,950.673279 
	C429.495697,950.261719 427.218475,950.816162 427.236816,955.361145 
M383.103241,845.628967 
	C383.781036,845.970093 384.458832,846.311218 385.136627,846.652344 
	C385.820068,842.950806 386.820862,839.259521 386.941803,835.539673 
	C386.968750,834.711914 383.898560,833.783447 382.254333,832.901367 
	C381.856659,834.192505 381.007019,835.537354 381.152954,836.763794 
	C381.483582,839.542664 382.304810,842.263123 383.103241,845.628967 
M374.761505,769.391907 
	C377.877808,763.750793 377.376160,759.633179 372.636841,757.199036 
	C372.652771,761.634888 370.717072,765.815491 374.761505,769.391907 
z"/>
<path fill="#666167" opacity="1.000000" stroke="none" 
	d="
M933.000000,482.531342 
	C913.725159,496.547729 892.434875,501.597290 869.089966,498.420013 
	C862.129211,497.472626 856.010132,495.172272 850.637085,490.483490 
	C830.712036,473.095978 825.580688,450.907562 829.459106,425.825562 
	C831.212341,414.487396 835.981262,404.200073 841.621033,394.320038 
	C843.246094,391.473206 842.962708,389.377625 841.586609,386.174622 
	C839.206604,380.634766 838.160889,374.443298 837.145935,368.425568 
	C836.558228,364.940643 839.475159,363.753021 842.393127,364.094055 
	C849.641296,364.941162 856.837219,366.233551 864.084412,367.090790 
	C866.957336,367.430573 870.423767,368.095367 872.747192,366.906525 
	C894.523132,355.764557 913.989807,360.847595 932.704102,374.836609 
	C933.000000,410.687561 933.000000,446.375122 933.000000,482.531342 
z"/>
<path fill="#656068" opacity="1.000000" stroke="none" 
	d="
M513.449951,980.000000 
	C509.809631,975.534668 506.584717,971.093567 503.439178,966.596863 
	C500.593201,962.528625 500.920258,960.679321 505.279602,958.201721 
	C513.819885,953.347778 522.436462,948.626648 531.071594,943.942932 
	C532.505920,943.164978 534.289978,942.233154 535.745239,942.457520 
	C538.854126,942.936890 542.684509,943.274292 544.695068,945.233765 
	C547.429382,947.898438 544.768799,951.064270 542.779175,953.575745 
	C535.955200,962.189636 529.103943,970.781982 522.131531,979.691284 
	C519.299988,980.000000 516.599976,980.000000 513.449951,980.000000 
z"/>
<path fill="#656068" opacity="1.000000" stroke="none" 
	d="
M902.468628,980.000000 
	C906.408081,972.237610 910.797791,964.464661 915.228882,956.715393 
	C920.990540,946.639160 926.785034,936.581665 932.782715,926.258057 
	C933.000000,943.906860 933.000000,961.813660 933.000000,980.000000 
	C922.980835,980.000000 912.959106,980.000000 902.468628,980.000000 
z"/>
<path fill="#656068" opacity="1.000000" stroke="none" 
	d="
M634.468567,980.000000 
	C633.927246,979.850769 633.868408,979.692688 633.779785,979.553589 
	C627.445374,969.609192 627.412292,969.549866 638.067688,963.651245 
	C644.890503,959.874268 651.741516,956.124695 658.764404,952.746277 
	C661.005066,951.668335 663.915161,951.213623 666.385193,951.527161 
	C673.357422,952.412292 674.994507,956.458374 670.634338,962.181274 
	C666.113525,968.114990 661.137024,973.701416 656.179932,979.719849 
	C648.979065,980.000000 641.958069,980.000000 634.468567,980.000000 
z"/>
<path fill="#645F68" opacity="1.000000" stroke="none" 
	d="
M933.000000,700.531372 
	C916.264404,696.565735 918.183594,698.024414 923.598999,683.145264 
	C924.672058,680.197021 925.867371,677.292358 926.898315,674.329956 
	C927.871765,671.532715 929.682068,670.889282 932.649780,671.971741 
	C933.000000,681.354248 933.000000,690.708435 933.000000,700.531372 
z"/>
<path fill="#645F69" opacity="1.000000" stroke="none" 
	d="
M933.000000,837.531372 
	C931.484375,836.553101 929.200195,835.364380 928.609863,833.606689 
	C927.296997,829.698059 926.746460,825.519348 926.041870,821.423828 
	C925.018799,815.477112 926.047791,814.453918 932.644714,814.940857 
	C933.000000,822.354248 933.000000,829.708496 933.000000,837.531372 
z"/>
<path fill="#645F69" opacity="1.000000" stroke="none" 
	d="
M436.463196,980.000000 
	C435.997131,979.506897 435.906128,978.995178 436.005859,978.523743 
	C436.604523,975.693481 433.209076,971.402466 437.934570,970.227600 
	C442.281891,969.146851 448.354706,974.734497 448.937012,979.613342 
	C444.975464,980.000000 440.950897,980.000000 436.463196,980.000000 
z"/>
<path fill="#645F69" opacity="1.000000" stroke="none" 
	d="
M933.000000,780.531372 
	C931.895874,779.806396 929.973877,778.702637 929.831055,777.403442 
	C929.257507,772.183105 928.981812,766.893250 929.168335,761.649414 
	C929.221558,760.151123 931.204956,758.721436 932.651611,757.130127 
	C933.000000,764.687561 933.000000,772.375183 933.000000,780.531372 
z"/>
<path fill="#645F69" opacity="1.000000" stroke="none" 
	d="
M806.468506,980.000000 
	C805.551575,975.657837 807.706299,974.293762 811.614441,975.318726 
	C816.601562,976.626465 821.541016,978.115479 826.750488,979.763184 
	C820.312378,980.000000 813.624695,980.000000 806.468506,980.000000 
z"/>
<path fill="#666167" opacity="1.000000" stroke="none" 
	d="
M532.921021,597.773193 
	C557.567444,599.126526 573.023254,613.678223 586.018127,632.197998 
	C609.293579,665.369202 589.618408,706.108215 565.211182,721.181824 
	C549.840027,730.674927 533.360291,735.856750 515.122437,735.823303 
	C493.866425,735.784302 479.508484,725.641357 470.643646,706.935669 
	C452.683319,669.037659 472.647491,617.206238 511.557465,601.664185 
	C518.007874,599.087769 525.453369,599.002686 532.921021,597.773193 
z"/>
<path fill="#656068" opacity="1.000000" stroke="none" 
	d="
M456.042267,496.017181 
	C456.944153,486.542236 461.386719,478.519501 467.023590,471.253448 
	C473.955261,462.318359 481.049164,453.432556 488.871918,445.293365 
	C493.744812,440.223358 499.797607,436.082855 505.855957,432.407135 
	C513.919617,427.514801 522.503967,423.480591 530.594482,417.885406 
	C526.898132,418.371552 523.201721,418.857697 519.505371,419.343872 
	C519.164246,418.921967 518.823181,418.500092 518.482056,418.078186 
	C519.488159,416.429657 520.199402,414.468353 521.554993,413.190613 
	C525.791443,409.197723 530.110291,405.251068 534.739624,401.737640 
	C536.468384,400.425598 539.760437,399.229706 541.216370,400.028412 
	C542.786438,400.889801 543.237122,404.100983 543.795715,406.380310 
	C544.127197,407.732849 543.723999,409.265442 543.602112,411.696198 
	C546.005920,410.744720 547.810669,410.200928 549.456726,409.350311 
	C558.033081,404.918121 566.695618,400.630035 575.077881,395.852600 
	C581.468994,392.210022 586.744385,394.350403 593.282349,398.178009 
	C589.549927,401.573303 586.580322,404.881042 583.046631,407.396149 
	C543.315002,435.675201 503.505768,463.845337 463.676697,491.987122 
	C461.527130,493.505890 459.015991,494.512970 456.346405,495.874634 
	C456.019623,495.991028 456.042267,496.017181 456.042267,496.017181 
z"/>
<path fill="#656068" opacity="1.000000" stroke="none" 
	d="
M846.704956,901.758789 
	C866.059387,891.617310 885.066589,881.612488 904.109741,871.676819 
	C910.311157,868.441345 915.304871,869.210449 921.446228,874.419067 
	C920.097595,875.816833 918.935547,877.412537 917.420959,878.530518 
	C902.700195,889.396240 888.047974,900.361877 873.129517,910.951355 
	C845.976501,930.225342 818.663574,949.274353 791.385376,968.371521 
	C789.618042,969.608826 787.578186,970.457031 785.665100,971.486206 
	C785.288696,971.156311 784.912292,970.826416 784.535889,970.496582 
	C786.052368,965.823730 787.390442,961.083435 789.124207,956.492615 
	C792.299622,948.084106 795.899658,939.832703 798.947449,931.380554 
	C800.726990,926.445496 803.994446,923.457520 808.539734,921.195312 
	C821.209473,914.889587 833.768860,908.362183 846.704956,901.758789 
z"/>
<path fill="#656068" opacity="1.000000" stroke="none" 
	d="
M678.408386,750.381836 
	C646.672607,772.575806 615.224426,794.554626 583.776184,816.533386 
	C583.382263,816.302673 582.988342,816.071960 582.594421,815.841248 
	C582.881287,814.376892 582.965576,812.835815 583.486755,811.460205 
	C588.026245,799.479248 592.301208,787.377747 597.435608,775.654114 
	C599.100891,771.851807 602.467468,767.911072 606.092590,765.989197 
	C638.148193,748.994324 670.446838,732.458069 702.648560,715.737976 
	C708.179443,712.866211 712.808167,714.820190 718.366516,718.189636 
	C707.025146,731.844421 692.013062,739.987183 678.408386,750.381836 
z"/>
<path fill="#656068" opacity="1.000000" stroke="none" 
	d="
M571.316833,547.347656 
	C562.650757,558.766663 554.107666,569.830261 545.795837,581.064880 
	C542.431519,585.612183 537.973206,586.902771 532.720703,586.840210 
	C529.689026,586.804077 528.902832,585.204529 529.710754,582.601685 
	C530.249939,580.864502 530.961609,579.160461 531.779358,577.533691 
	C535.293213,570.543762 538.863403,563.581970 542.434631,556.620972 
	C547.640930,546.472900 553.835815,537.129211 562.929321,529.906006 
	C569.602783,524.605103 574.568665,518.459412 571.824463,508.888489 
	C571.327209,507.154419 572.452148,504.618103 573.486450,502.833679 
	C584.918335,483.111053 596.474121,463.460266 608.020691,443.804291 
	C608.808167,442.463715 609.791016,441.237885 611.928955,440.216949 
	C612.245972,441.891998 612.721436,443.554504 612.854858,445.244019 
	C613.850647,457.852356 614.710388,470.471741 615.760193,483.075378 
	C616.206116,488.428253 614.271606,492.749939 611.039795,496.833038 
	C597.819702,513.535278 584.693542,530.311829 571.316833,547.347656 
z"/>
<path fill="#656068" opacity="1.000000" stroke="none" 
	d="
M684.330688,855.334595 
	C687.233154,852.560791 689.868774,850.018311 692.538025,847.511597 
	C697.451660,842.896912 700.102173,837.714844 698.534790,830.574890 
	C698.008850,828.178650 699.231934,824.988159 700.545654,822.663696 
	C710.615112,804.846497 720.859070,787.127136 731.170166,769.448181 
	C732.848450,766.570801 735.125610,764.042664 737.955505,760.237610 
	C738.423401,763.127136 738.729187,764.374023 738.813599,765.635742 
	C739.657410,778.256531 740.371643,790.886841 741.330078,803.498657 
	C741.692627,808.269409 740.343384,812.107483 737.415161,815.922058 
	C715.636169,844.293701 693.936768,872.727905 672.448181,901.319641 
	C668.845947,906.112732 664.248474,907.089966 658.985535,907.375183 
	C656.188171,907.526794 655.424927,906.126526 656.099670,903.617371 
	C656.186096,903.295959 656.225525,902.949829 656.372742,902.658630 
	C664.604309,886.375977 671.054199,869.043518 684.330688,855.334595 
z"/>
<path fill="#646068" opacity="1.000000" stroke="none" 
	d="
M699.459229,521.555786 
	C688.616089,511.705780 684.509399,499.765289 683.545959,485.493011 
	C681.966736,462.099945 678.632080,438.825348 676.036560,415.500916 
	C675.151672,407.549622 678.180786,402.723083 686.797180,399.209991 
	C687.485901,403.041840 688.301147,406.714233 688.788574,410.429626 
	C692.100952,435.678314 695.435852,460.924835 698.532776,486.200317 
	C699.154053,491.270569 701.074585,494.816040 705.618530,497.359192 
	C711.710938,500.769012 717.471802,504.765747 723.459839,508.369690 
	C726.301758,510.080078 727.091431,511.871399 725.027039,514.796753 
	C720.538147,521.158081 716.216675,527.637573 711.255920,534.905029 
	C707.057922,530.154236 703.376099,525.987671 699.459229,521.555786 
z"/>
<path fill="#656068" opacity="1.000000" stroke="none" 
	d="
M801.864807,668.862427 
	C819.662476,657.105713 837.225525,645.634644 854.676514,633.995483 
	C859.928589,630.492615 861.661560,634.927246 864.232910,637.691223 
	C866.980042,640.644165 867.297485,643.559814 863.818176,646.180237 
	C853.445862,653.991882 843.273987,662.098145 832.588440,669.457153 
	C822.485107,676.415222 814.543701,685.127991 808.221313,695.490906 
	C807.614380,696.485718 806.997742,697.475891 806.349548,698.444092 
	C801.619507,705.508850 801.626648,705.493530 794.634705,700.263977 
	C791.835449,698.170471 788.967163,696.169617 786.155457,694.092529 
	C779.921509,689.487244 779.807983,687.609314 785.578003,682.646057 
	C790.880188,678.085449 796.248169,673.601318 801.864807,668.862427 
z"/>
<path fill="#656068" opacity="1.000000" stroke="none" 
	d="
M926.481079,611.494507 
	C923.721863,615.076233 921.104980,618.318420 918.674133,621.694519 
	C916.846436,624.232788 914.982666,624.310059 912.966614,622.129883 
	C910.936951,619.934998 908.814026,617.778137 907.104004,615.343323 
	C892.271912,594.225525 877.512390,573.056763 862.758606,551.884094 
	C859.088806,546.617615 862.503479,538.744202 869.050720,538.243408 
	C870.894897,538.102417 873.447693,540.256348 874.817749,542.022888 
	C883.488708,553.203552 892.171387,564.392029 900.348999,575.933105 
	C907.011353,585.335815 915.994934,591.704529 925.694946,597.320251 
	C933.239380,601.688110 933.434998,602.260193 928.181824,609.200073 
	C927.679443,609.863647 927.195679,610.541321 926.481079,611.494507 
z"/>
<path fill="#656068" opacity="1.000000" stroke="none" 
	d="
M769.840576,824.163147 
	C788.149231,839.131409 806.199280,853.853455 824.201050,868.634338 
	C829.004822,872.578674 827.857727,881.091858 821.885437,883.265320 
	C819.967224,883.963440 816.654358,882.686768 814.755859,881.271790 
	C804.488220,873.618835 794.298706,865.840088 784.408569,857.707886 
	C776.526001,851.226379 767.735657,846.849548 757.988220,844.159851 
	C755.262268,843.407593 752.554871,842.581116 749.862671,841.715027 
	C743.582092,839.694458 743.423279,839.540771 745.624817,833.338135 
	C747.401611,828.332397 749.516846,823.447266 751.459656,818.499878 
	C752.746338,815.223511 754.814453,814.757874 757.697083,816.586365 
	C761.626404,819.078674 765.605957,821.491821 769.840576,824.163147 
z"/>
<path fill="#656068" opacity="1.000000" stroke="none" 
	d="
M779.305847,589.488770 
	C771.386230,586.786804 763.858276,584.084900 756.210510,581.780151 
	C752.543884,580.675171 751.847778,578.912720 753.245667,575.561157 
	C755.617493,569.874329 757.868591,564.133240 760.008728,558.355164 
	C761.287659,554.901917 762.917297,554.433777 765.848816,556.750610 
	C782.300354,569.752441 798.834473,582.649902 815.321838,595.606628 
	C821.083557,600.134521 826.849243,604.660645 832.508606,609.314636 
	C837.699402,613.583313 837.638672,614.787292 832.538330,621.189819 
	C829.244873,625.323975 828.040710,625.431091 823.039856,621.665649 
	C810.665283,612.348083 798.343384,602.960205 785.956299,593.659363 
	C783.970276,592.168152 781.756653,590.980164 779.305847,589.488770 
z"/>
<path fill="#646068" opacity="1.000000" stroke="none" 
	d="
M750.219238,929.151855 
	C740.606018,935.493408 734.679810,944.574463 728.803955,953.695068 
	C723.342529,962.172546 723.209473,962.214294 715.176697,956.442444 
	C712.066040,954.207336 708.915161,952.017883 705.919861,949.635132 
	C701.700500,946.278625 701.700317,944.045288 706.323730,940.606689 
	C717.550598,932.256714 728.840271,923.985779 740.256836,915.897766 
	C751.535828,907.907104 762.934387,900.078735 774.455688,892.443542 
	C776.240967,891.260376 779.855042,890.346191 781.074097,891.296021 
	C783.978210,893.559082 786.135742,896.900452 788.109619,900.105103 
	C788.399719,900.576172 786.252930,902.967896 784.873901,903.981445 
	C773.466614,912.365723 761.974609,920.634583 750.219238,929.151855 
z"/>
<path fill="#656068" opacity="1.000000" stroke="none" 
	d="
M616.957764,728.926086 
	C612.753296,731.019592 608.898682,732.983765 605.010437,734.878967 
	C601.859009,736.415039 598.799011,736.569641 596.564148,733.384155 
	C594.088989,729.856262 590.749512,725.960510 594.361572,721.702820 
	C603.614380,710.796204 613.162659,700.132507 622.895752,689.653015 
	C623.890930,688.581604 627.645996,688.514893 628.909241,689.513672 
	C635.295715,694.563293 641.268494,700.134705 647.414001,705.491455 
	C649.939087,707.692627 649.292175,709.351929 646.720520,710.905945 
	C636.899780,716.840393 627.100403,722.810303 616.957764,728.926086 
z"/>
<path fill="#656068" opacity="1.000000" stroke="none" 
	d="
M552.139587,854.876038 
	C557.865112,860.110779 563.321106,865.116577 569.197266,870.507812 
	C567.232971,872.194519 566.138916,873.463501 564.769653,874.258423 
	C552.129639,881.596069 539.584167,889.116333 526.713013,896.028198 
	C519.476929,899.914001 517.004822,898.571289 513.330811,891.383911 
	C511.617371,888.031921 512.333252,885.477417 514.713196,882.820435 
	C522.694946,873.909424 530.594788,864.924255 538.465454,855.914612 
	C544.777954,848.688599 544.738892,848.654480 552.139587,854.876038 
z"/>
<path fill="#656068" opacity="1.000000" stroke="none" 
	d="
M598.704773,913.740173 
	C602.572815,911.736572 606.099731,909.877197 609.653137,908.069885 
	C613.247559,906.241760 616.305969,906.661011 618.824219,910.104370 
	C621.404968,913.633118 623.656250,917.163696 620.176514,921.292175 
	C617.717773,924.209045 615.008789,926.914001 612.437988,929.737732 
	C605.507996,937.349548 598.484619,944.880859 591.733765,952.648743 
	C589.609863,955.092590 588.094177,955.519775 585.701111,953.220825 
	C580.190613,947.927124 574.642822,942.664429 568.930664,937.591431 
	C565.772339,934.786621 566.121826,932.734314 569.556274,930.731506 
	C579.165344,925.128052 588.769287,919.515930 598.704773,913.740173 
z"/>
<path fill="#646068" opacity="1.000000" stroke="none" 
	d="
M451.878418,560.069092 
	C444.058624,554.093201 436.619812,548.202271 428.952606,542.625244 
	C424.938934,539.705750 424.001038,536.644897 426.953674,532.551819 
	C427.633606,531.609192 428.180328,530.571594 428.813904,529.594299 
	C432.300873,524.215942 432.468353,524.279602 437.402954,528.191284 
	C449.398254,537.700073 461.518616,547.051331 473.502228,556.574707 
	C479.784180,561.566956 479.121033,567.490051 471.769958,571.071960 
	C470.352173,571.762817 467.739777,571.381653 466.337708,570.475281 
	C461.456970,567.320190 456.865814,563.717102 451.878418,560.069092 
z"/>
<path fill="#656068" opacity="1.000000" stroke="none" 
	d="
M475.412659,899.261230 
	C475.115967,901.835022 475.294922,904.666016 473.990875,906.345459 
	C466.349335,916.186401 458.328339,925.731812 450.509979,935.437073 
	C448.160950,938.353149 446.311646,937.904907 444.238800,935.151245 
	C440.240936,929.840271 436.211121,924.547424 432.009460,919.398071 
	C429.495697,916.317383 430.366119,914.567932 433.563293,912.856628 
	C442.646484,907.994873 451.606445,902.903015 460.687378,898.036926 
	C465.640198,895.382935 470.565735,895.596252 475.412659,899.261230 
z"/>
<path fill="#646068" opacity="1.000000" stroke="none" 
	d="
M536.957764,802.974854 
	C531.851318,809.302124 526.957214,815.345337 521.264221,822.374939 
	C515.672180,814.977905 510.467804,808.399292 505.758148,801.483704 
	C505.158173,800.602722 506.633423,797.056091 508.011108,796.282166 
	C517.572449,790.911377 527.200867,785.589233 537.186157,781.091553 
	C539.857910,779.888062 543.892517,781.382874 547.189880,782.130676 
	C547.992737,782.312744 549.080811,784.666565 548.779724,785.627747 
	C547.956848,788.254333 546.765686,790.887939 545.164246,793.119629 
	C542.747192,796.487732 539.858337,799.517212 536.957764,802.974854 
z"/>
<path fill="#646068" opacity="1.000000" stroke="none" 
	d="
M843.043884,790.952271 
	C838.729675,791.870300 834.819641,792.678223 830.927185,793.563049 
	C827.709412,794.294495 825.776550,793.085144 825.050049,789.891418 
	C823.721680,784.052368 822.386536,778.214844 821.072876,772.372498 
	C820.312378,768.990417 821.834473,766.954651 825.150208,767.151367 
	C835.603699,767.771484 846.061035,768.501221 856.459656,769.689575 
	C858.074341,769.874084 860.243042,772.475708 860.687988,774.314636 
	C862.234985,780.708130 857.635376,787.575562 851.255493,789.167786 
	C848.674316,789.811951 846.056702,790.310486 843.043884,790.952271 
z"/>
<path fill="#656068" opacity="1.000000" stroke="none" 
	d="
M733.286011,327.813446 
	C731.274414,316.111633 731.273621,316.123047 742.689453,316.902954 
	C749.984436,317.401337 757.277466,317.964081 764.580505,318.297852 
	C769.112549,318.505005 771.070679,320.533691 771.101929,325.140289 
	C771.164001,334.300323 769.244324,336.883942 760.351746,338.962280 
	C754.529724,340.323029 748.732178,341.802063 742.964050,343.376038 
	C738.854248,344.497559 736.561096,342.973236 735.688171,338.948669 
	C734.913269,335.376190 734.142151,331.802856 733.286011,327.813446 
z"/>
<path fill="#656068" opacity="1.000000" stroke="none" 
	d="
M629.822571,634.872559 
	C628.303284,628.208374 626.834106,621.886475 625.701904,615.504761 
	C624.856750,610.740906 626.463318,608.876526 631.327393,609.170471 
	C639.961304,609.692261 648.578735,610.511169 657.194031,611.304077 
	C660.167114,611.577698 663.680786,611.706970 664.101013,615.626282 
	C664.591125,620.197876 665.747314,626.442322 660.913330,628.276245 
	C651.535156,631.834290 641.490112,633.640625 631.700500,636.089172 
	C631.243103,636.203613 630.583008,635.507751 629.822571,634.872559 
z"/>
<path fill="#646068" opacity="1.000000" stroke="none" 
	d="
M739.580750,479.281860 
	C742.881531,480.317749 744.227539,482.440460 742.700317,485.117126 
	C739.350525,490.988098 735.592102,496.625885 730.155029,503.160767 
	C729.439941,501.845215 728.862915,500.428802 727.987671,499.230225 
	C721.804626,490.763031 715.593628,482.315674 709.320618,473.914948 
	C706.469116,470.096252 706.443359,466.830383 710.231750,463.480133 
	C715.720032,458.626556 717.645203,458.177521 722.295105,461.601807 
	C725.776917,464.165833 729.233826,466.764252 732.741150,469.292847 
	C735.847473,471.532379 738.381653,473.770294 732.194702,477.310608 
	C735.335571,478.151459 737.281982,478.672546 739.580750,479.281860 
z"/>
<path fill="#646068" opacity="1.000000" stroke="none" 
	d="
M751.157715,520.458130 
	C752.663452,520.665344 754.385681,521.019592 755.591309,520.387817 
	C760.260376,517.941101 761.848022,518.268677 763.325378,523.111755 
	C765.243469,529.399963 766.839722,535.786255 768.828491,543.058899 
	C766.040649,542.849792 764.293091,542.867065 762.601746,542.567444 
	C752.792847,540.829895 742.972900,539.136902 733.211670,537.157898 
	C730.287231,536.564941 726.056702,537.511597 725.663574,532.508301 
	C725.152832,526.009705 727.688049,521.374390 732.836304,519.759033 
	C734.570312,519.214966 736.390503,518.934631 738.181091,518.583984 
	C742.234924,517.790161 746.294861,517.027527 751.136902,516.102356 
	C751.136902,517.488953 751.136902,518.820557 751.157715,520.458130 
z"/>
<path fill="#645F68" opacity="1.000000" stroke="none" 
	d="
M426.403381,597.643677 
	C432.491455,602.599182 438.323547,607.302917 444.093719,612.081421 
	C448.543793,615.766663 449.692505,620.544556 448.433167,626.039429 
	C447.715576,629.170715 446.015015,629.863403 443.406769,627.982117 
	C439.896271,625.450134 436.375092,622.927185 432.959137,620.270874 
	C423.628082,613.015015 414.272186,605.786499 405.113647,598.317139 
	C403.197479,596.754333 400.809723,594.146240 400.902527,592.123657 
	C401.042206,589.079590 403.176666,586.127014 404.463104,583.135559 
	C406.608734,584.118103 408.956696,584.810547 410.861084,586.138916 
	C416.047852,589.757019 421.047150,593.643860 426.403381,597.643677 
z"/>
<path fill="#645F68" opacity="1.000000" stroke="none" 
	d="
M637.660278,592.536255 
	C634.050598,595.047913 631.679382,594.176331 630.614563,590.376526 
	C629.135437,585.098389 627.894470,579.753174 626.571289,574.431824 
	C625.763794,571.184265 627.233643,570.049133 630.292542,570.618713 
	C641.241516,572.657715 652.237122,574.502197 663.080933,577.001953 
	C665.171082,577.483765 667.866150,580.424988 668.154297,582.523926 
	C668.668457,586.268066 668.821594,591.328918 663.932312,592.589966 
	C656.939636,594.393433 649.687195,595.189819 641.868835,596.532532 
	C642.451843,593.833557 642.846191,592.007935 643.529236,588.845947 
	C641.049866,590.396301 639.492126,591.370300 637.660278,592.536255 
z"/>
<path fill="#646068" opacity="1.000000" stroke="none" 
	d="
M769.486206,488.479675 
	C766.535522,486.395477 763.868103,484.533630 760.832581,482.414856 
	C762.455750,480.929718 763.614990,479.869049 764.723572,478.854675 
	C764.569580,478.369598 764.554199,477.873108 764.367371,477.796967 
	C755.286377,474.095154 755.283447,474.098450 760.254944,465.285065 
	C762.574585,461.172852 764.900330,457.064148 768.143433,451.325806 
	C769.365601,453.497650 769.843994,454.561859 770.507812,455.494080 
	C776.575684,464.014954 782.740784,472.467377 788.742249,481.034424 
	C792.342102,486.173065 792.147339,488.317566 788.312378,491.866150 
	C783.291931,496.511780 780.331665,496.847900 775.672485,493.281006 
	C773.695190,491.767242 771.736511,490.229034 769.486206,488.479675 
z"/>
<path fill="#646068" opacity="1.000000" stroke="none" 
	d="
M835.857056,730.259277 
	C843.641907,731.690491 850.994446,733.087219 858.366821,734.369873 
	C862.338135,735.060791 864.810425,736.873840 864.467896,741.312805 
	C864.148499,745.453125 864.546326,749.708313 858.579041,750.577393 
	C852.222168,751.503296 845.968872,753.140015 839.235596,754.557922 
	C839.235596,751.893311 839.235596,750.010742 839.235596,747.090698 
	C836.988525,748.453796 835.395630,749.418762 833.804016,750.385742 
	C829.999573,752.697266 827.777527,752.181580 826.559998,748.067932 
	C825.006165,742.817993 823.934265,737.420898 822.770508,732.062134 
	C822.205566,729.460876 823.395996,728.255188 826.074402,728.676331 
	C829.195374,729.167114 832.313538,729.676147 835.857056,730.259277 
z"/>
<path fill="#646068" opacity="1.000000" stroke="none" 
	d="
M897.457031,943.631836 
	C889.133362,947.448364 880.862366,945.641724 872.700623,944.682556 
	C871.672302,944.561829 870.187561,941.963196 870.191345,940.515991 
	C870.208069,934.048889 870.496094,927.562866 871.171387,921.134583 
	C871.298157,919.928162 873.732056,917.927673 874.946472,918.035645 
	C884.810547,918.911987 893.286194,923.652222 901.382568,928.864014 
	C902.767334,929.755371 903.322266,933.579163 902.698853,935.555725 
	C901.799438,938.407410 899.471680,940.808655 897.457031,943.631836 
z"/>
<path fill="#646068" opacity="1.000000" stroke="none" 
	d="
M706.083740,597.354248 
	C698.179810,597.789001 690.593018,598.159180 683.013245,598.049561 
	C682.051392,598.035706 680.328125,595.514587 680.321289,594.148315 
	C680.291382,588.174438 680.661682,582.190552 681.094360,576.225403 
	C681.340454,572.832092 683.387756,570.762695 686.812866,571.802185 
	C693.771729,573.913940 700.908447,575.827820 707.393921,579.003479 
	C714.083069,582.278931 714.648193,586.619629 710.488098,592.837341 
	C709.403870,594.457825 707.779419,595.716919 706.083740,597.354248 
z"/>
<path fill="#646068" opacity="1.000000" stroke="none" 
	d="
M571.984070,452.142609 
	C575.380127,459.097839 571.548035,467.555206 564.460083,468.394653 
	C558.212402,469.134552 551.841187,468.855408 545.523499,468.969147 
	C542.635376,469.021149 541.185425,467.468140 541.322754,464.615356 
	C541.634949,458.128876 541.840881,451.625305 542.562256,445.181519 
	C542.693481,444.009399 545.230103,442.039703 546.381287,442.217590 
	C555.477600,443.623566 564.376648,445.797241 571.984070,452.142609 
z"/>
<path fill="#645F68" opacity="1.000000" stroke="none" 
	d="
M420.633606,762.521484 
	C419.726959,766.216980 419.224426,769.820679 417.564117,772.773376 
	C416.532715,774.607666 413.827606,776.391785 411.733765,776.572021 
	C405.277161,777.127502 398.741486,777.131287 392.264893,776.797913 
	C390.858368,776.725525 388.423706,774.358521 388.420532,773.043579 
	C388.404327,766.394226 388.918396,759.732178 389.557220,753.104431 
	C389.658783,752.050842 391.496094,750.196289 392.268768,750.322083 
	C402.609894,752.005676 413.087616,753.543457 420.633606,762.521484 
z"/>
<path fill="#646068" opacity="1.000000" stroke="none" 
	d="
M881.086304,755.976562 
	C877.167236,755.848022 876.111145,753.815918 876.342102,750.645691 
	C876.728699,745.339050 876.932556,740.016479 877.435669,734.721741 
	C877.876587,730.082153 880.180542,728.045776 884.435730,729.570618 
	C892.082092,732.310730 899.477844,735.768372 906.891235,739.118896 
	C907.880310,739.565918 908.819641,741.062500 909.001648,742.198120 
	C909.948730,748.108459 902.903198,756.817383 896.937195,756.866028 
	C891.798157,756.908020 886.653992,756.325012 881.086304,755.976562 
z"/>
<path fill="#646068" opacity="1.000000" stroke="none" 
	d="
M695.352661,787.689209 
	C687.206787,788.455261 679.424988,789.247314 671.627014,789.470398 
	C670.378662,789.506104 667.983643,787.017944 667.955078,785.658081 
	C667.829468,779.677979 668.319092,773.679871 668.705139,767.696045 
	C668.908081,764.550598 670.532715,762.380249 673.893799,763.325134 
	C680.592957,765.208496 687.460999,766.873840 693.744751,769.752380 
	C701.068054,773.107117 701.458435,775.289917 698.460510,782.880859 
	C697.807800,784.533630 696.641296,785.983459 695.352661,787.689209 
z"/>
<path fill="#646068" opacity="1.000000" stroke="none" 
	d="
M672.936401,674.174683 
	C665.001526,673.525208 657.388184,673.025208 649.907104,671.749451 
	C648.391052,671.490906 646.274963,668.263733 646.338562,666.472839 
	C646.513977,661.535645 647.657043,656.627319 648.498596,651.721497 
	C648.989380,648.860229 650.817444,647.794739 653.575073,648.502075 
	C661.129211,650.439758 668.685120,652.376587 676.192749,654.483337 
	C677.307251,654.795959 678.622925,655.833923 679.054932,656.866882 
	C680.351929,659.968689 676.302979,671.528198 672.936401,674.174683 
z"/>
<path fill="#646068" opacity="1.000000" stroke="none" 
	d="
M856.233643,807.791443 
	C861.345520,809.474304 866.069702,811.041016 870.792297,812.612427 
	C874.131531,813.723633 875.683289,815.866760 874.724731,819.452209 
	C874.681946,819.612061 874.659241,819.777588 874.632751,819.941345 
	C872.624878,832.367554 871.563049,833.174255 859.187256,831.605957 
	C855.236511,831.105286 851.297119,830.507996 847.339966,830.067322 
	C843.061340,829.590820 841.690369,827.301514 842.530396,823.196228 
	C843.294922,819.460510 843.823181,815.674927 844.405151,811.903564 
	C845.287842,806.183533 846.723633,805.246582 852.489441,806.737305 
	C853.613892,807.028076 854.726929,807.362793 856.233643,807.791443 
z"/>
<path fill="#646068" opacity="1.000000" stroke="none" 
	d="
M753.833496,365.724274 
	C754.124084,363.828735 754.348267,362.353699 754.598328,360.883057 
	C755.266846,356.950439 757.534546,355.556824 761.377136,356.576202 
	C768.588318,358.489105 775.796753,360.414642 783.028870,362.245728 
	C786.098389,363.022919 787.011353,364.732330 786.129578,367.742279 
	C782.150757,381.323639 784.759033,381.830627 768.737000,380.785828 
	C764.951294,380.538940 761.226807,379.462921 757.444214,379.029877 
	C753.332825,378.559143 752.106506,376.386566 752.880066,372.548859 
	C753.305176,370.440125 753.487244,368.282379 753.833496,365.724274 
z"/>
<path fill="#646068" opacity="1.000000" stroke="none" 
	d="
M872.302917,784.819580 
	C871.738586,781.453247 871.202393,778.510315 870.770447,775.552246 
	C870.248413,771.977356 871.816956,769.995178 875.465454,770.335632 
	C881.744995,770.921692 888.036560,771.536804 894.256226,772.549927 
	C898.331421,773.213745 901.219849,775.700378 901.678772,780.130554 
	C902.159058,784.766846 899.478271,789.710999 895.306091,790.887817 
	C889.882080,792.417603 884.329102,793.676208 878.747070,794.341309 
	C877.159119,794.530457 874.789062,792.592773 873.671448,791.002319 
	C872.624695,789.512817 872.761353,787.191528 872.302917,784.819580 
z"/>
<path fill="#646068" opacity="1.000000" stroke="none" 
	d="
M808.895569,322.860657 
	C815.080139,327.835419 813.377258,338.376068 806.019104,340.714630 
	C800.685486,342.409729 795.003784,343.246857 789.413330,343.736511 
	C787.945862,343.865021 785.294983,341.546906 784.823914,339.887817 
	C783.471802,335.125397 782.905273,330.133331 782.131104,325.215576 
	C781.501587,321.216309 783.614258,319.589050 787.313416,320.003174 
	C794.397400,320.796234 801.458740,321.791260 808.895569,322.860657 
z"/>
<path fill="#646068" opacity="1.000000" stroke="none" 
	d="
M707.029053,763.870239 
	C705.140442,762.871460 702.691040,762.077698 702.338684,760.734009 
	C700.951538,755.444092 699.892395,750.006531 699.475342,744.565308 
	C699.365784,743.135620 702.138245,740.070007 703.356812,740.185486 
	C710.728821,740.884460 718.102417,741.979980 725.332214,743.587158 
	C728.913452,744.383240 730.579346,747.437134 729.869385,751.370789 
	C729.144592,755.386169 728.514465,759.423706 723.550476,760.465271 
	C718.179199,761.592102 712.804871,762.704102 707.029053,763.870239 
z"/>
<path fill="#646068" opacity="1.000000" stroke="none" 
	d="
M737.705566,656.890747 
	C743.214478,657.636230 748.326904,658.219849 753.393127,659.077148 
	C757.425537,659.759583 759.929626,662.041077 760.094177,666.445190 
	C760.320007,672.492920 758.685913,675.966248 754.088196,677.072266 
	C748.780762,678.348999 743.334961,679.082397 737.925110,679.889709 
	C734.769836,680.360535 732.813293,678.779419 732.282593,675.654419 
	C731.615845,671.728760 730.974304,667.793762 730.504578,663.841003 
	C729.774902,657.700806 730.843689,656.661804 737.705566,656.890747 
z"/>
<path fill="#646068" opacity="1.000000" stroke="none" 
	d="
M414.619446,642.497681 
	C412.810822,631.061951 412.812531,631.041870 423.797272,631.983032 
	C427.594666,632.308350 431.392609,632.675415 435.169525,633.179382 
	C439.178040,633.714172 443.318665,634.232300 443.827759,639.566162 
	C444.391602,645.474182 441.414459,650.897217 436.390717,652.176208 
	C432.070618,653.276123 427.599731,653.813660 423.175842,654.466492 
	C419.471985,655.013000 417.095184,653.314697 416.171906,649.713379 
	C415.596069,647.467346 415.185425,645.179016 414.619446,642.497681 
z"/>
<path fill="#646068" opacity="1.000000" stroke="none" 
	d="
M707.108154,390.735443 
	C712.104614,394.061676 716.712158,397.304291 721.427551,400.381592 
	C724.823181,402.597656 725.125916,404.827148 722.530457,408.042419 
	C719.518982,411.772919 716.901001,415.829865 714.234985,419.827057 
	C712.646362,422.209045 711.035156,422.547607 709.129089,420.332520 
	C705.024292,415.562195 700.733154,410.928711 696.954834,405.910492 
	C694.959595,403.260498 692.187378,399.822632 695.039062,396.477844 
	C697.953491,393.059540 701.313049,389.439758 707.108154,390.735443 
z"/>
<path fill="#646068" opacity="1.000000" stroke="none" 
	d="
M597.062622,440.355988 
	C591.463806,441.398590 586.261902,442.576294 580.997131,443.039764 
	C579.557556,443.166473 576.927124,441.417694 576.565674,440.068237 
	C575.197876,434.961456 574.449951,429.678558 573.644714,424.434753 
	C573.131592,421.093658 574.849548,419.148712 578.165649,419.557739 
	C584.572449,420.347992 591.102539,420.946289 597.231812,422.788116 
	C599.748962,423.544495 602.493530,427.049011 603.128235,429.771301 
	C604.167297,434.227356 602.046997,438.206085 597.062622,440.355988 
z"/>
<path fill="#646068" opacity="1.000000" stroke="none" 
	d="
M438.299835,839.398193 
	C440.029694,837.861938 441.783508,835.695923 443.435272,835.771179 
	C449.214935,836.034241 454.987183,836.905518 460.707947,837.868164 
	C464.862701,838.567322 468.385712,840.480652 468.790039,845.315979 
	C469.158813,849.726440 465.366455,855.235229 460.966309,856.294739 
	C456.299561,857.418457 451.510925,858.050598 446.762177,858.814270 
	C443.408356,859.353638 441.339600,858.000732 440.776489,854.513306 
	C439.983337,849.601196 439.113861,844.701355 438.299835,839.398193 
z"/>
<path fill="#646068" opacity="1.000000" stroke="none" 
	d="
M648.461853,360.730652 
	C649.091858,363.002716 649.919189,364.918060 649.956299,366.848572 
	C650.081848,373.372833 643.262024,377.861664 637.379456,374.814941 
	C632.241577,372.153839 627.438782,368.786377 622.744324,365.377899 
	C621.797852,364.690735 621.226562,361.979340 621.808228,360.951599 
	C624.585999,356.043640 627.864258,351.421814 630.874451,346.641510 
	C632.426514,344.176819 634.180664,343.941315 636.042114,346.061249 
	C640.187012,350.781799 644.218994,355.601562 648.461853,360.730652 
z"/>
<path fill="#645F68" opacity="1.000000" stroke="none" 
	d="
M929.686523,913.576477 
	C923.014160,915.801270 916.654724,918.097961 910.097412,919.390747 
	C908.612427,919.683655 905.457214,916.820740 904.785278,914.831360 
	C903.316650,910.483276 902.882446,905.773926 902.153992,901.191772 
	C901.655701,898.057922 903.363831,896.161194 906.317444,896.397949 
	C913.067688,896.938965 919.913818,897.359741 926.473145,898.890930 
	C932.425659,900.280396 933.450073,905.881653 929.686523,913.576477 
z"/>
<path fill="#646068" opacity="1.000000" stroke="none" 
	d="
M383.526764,793.954346 
	C384.473145,793.046082 385.325195,791.952148 386.058472,792.026672 
	C393.974487,792.831360 401.932709,793.508911 409.720245,795.033936 
	C411.188293,795.321411 412.792114,799.157104 412.865845,801.403625 
	C413.002045,805.551819 412.330780,810.133606 407.486115,811.661194 
	C402.117004,813.354126 396.596832,814.714172 391.042542,815.572754 
	C389.622803,815.792114 386.722717,813.828735 386.393738,812.425049 
	C385.000031,806.478149 384.318848,800.364197 383.526764,793.954346 
z"/>
<path fill="#645F68" opacity="1.000000" stroke="none" 
	d="
M678.811646,613.394653 
	C685.023315,613.715088 690.857910,613.848938 696.610779,614.604492 
	C702.223083,615.341614 704.845154,618.209229 705.086243,622.769592 
	C705.371948,628.174011 702.701721,632.348206 697.479187,633.634399 
	C692.482666,634.864929 687.367126,635.729065 682.252747,636.278748 
	C681.019775,636.411316 678.698486,634.898010 678.396606,633.744141 
	C677.094727,628.769043 676.057373,623.673401 675.592468,618.560852 
	C675.447449,616.965515 677.404175,615.179077 678.811646,613.394653 
z"/>
<path fill="#646068" opacity="1.000000" stroke="none" 
	d="
M731.367798,439.672119 
	C729.742188,435.256104 728.020020,431.262573 726.830750,427.116150 
	C725.780884,423.455414 724.740234,419.468597 729.382751,417.118134 
	C735.002625,414.272858 740.522400,414.704712 743.527649,418.662598 
	C746.839966,423.024994 749.915833,427.588501 752.753479,432.271210 
	C753.312805,433.194244 752.823181,435.691193 751.957031,436.379486 
	C747.928589,439.580536 743.722473,442.604218 739.336670,445.294708 
	C735.687256,447.533508 734.130066,446.336487 731.367798,439.672119 
z"/>
<path fill="#645F69" opacity="1.000000" stroke="none" 
	d="
M463.369110,799.546692 
	C457.208832,800.419800 451.364197,801.402954 445.505890,801.492920 
	C444.160492,801.513611 441.847992,798.602905 441.577515,796.801453 
	C440.892029,792.235596 441.092041,787.534119 440.978241,782.885986 
	C440.905182,779.903198 442.702332,778.181458 445.346008,778.948853 
	C452.460205,781.013916 459.532440,783.328064 466.369934,786.151978 
	C467.703033,786.702576 468.896606,790.297241 468.397705,791.960938 
	C467.591858,794.648010 465.327911,796.897766 463.369110,799.546692 
z"/>
<path fill="#645F68" opacity="1.000000" stroke="none" 
	d="
M846.656982,307.331268 
	C852.380676,309.254089 857.747742,310.975311 862.993530,313.009308 
	C865.879883,314.128510 867.547180,316.303711 866.691223,319.712677 
	C865.739136,323.504669 865.886475,328.300934 860.825073,329.110046 
	C855.605042,329.944580 850.232239,330.279907 844.960083,330.051788 
	C843.392883,329.983978 840.863770,327.423401 840.638977,325.754028 
	C840.000488,321.013702 840.181824,316.139862 840.315063,311.326141 
	C840.420410,307.519562 842.983948,306.743042 846.656982,307.331268 
z"/>
<path fill="#646068" opacity="1.000000" stroke="none" 
	d="
M732.970947,604.434448 
	C733.239258,600.762390 735.104309,599.459717 738.065125,600.343811 
	C744.255371,602.191956 750.402100,604.201172 756.501160,606.332092 
	C759.220581,607.282227 760.134155,609.286560 759.365662,612.283997 
	C757.079956,621.199646 755.514954,622.574524 746.210510,623.068848 
	C733.528625,623.742615 733.525940,623.742676 733.090576,610.846619 
	C733.023438,608.858276 732.994934,606.868591 732.970947,604.434448 
z"/>
<path fill="#646068" opacity="1.000000" stroke="none" 
	d="
M769.806030,762.897705 
	C768.660400,762.220703 767.231445,761.544006 767.284790,761.017639 
	C767.947876,754.478699 768.721680,747.943542 769.835388,741.470825 
	C769.931458,740.912598 772.874329,740.159424 774.101135,740.598022 
	C779.701843,742.599915 785.227600,744.849976 790.651123,747.297058 
	C794.678223,749.114014 794.388184,752.739197 793.676575,756.326233 
	C792.957031,759.952942 791.037048,762.522583 787.117981,762.685242 
	C781.488281,762.918945 775.847595,762.886658 769.806030,762.897705 
z"/>
<path fill="#645F68" opacity="1.000000" stroke="none" 
	d="
M772.973145,507.965820 
	C777.044006,505.639587 780.268250,506.558716 783.264282,509.378296 
	C786.659363,512.573303 790.080750,515.745239 793.597778,518.804077 
	C795.843079,520.756897 796.222900,522.510071 793.684570,524.448303 
	C789.449829,527.681824 785.231445,530.936584 781.004761,534.180725 
	C778.325317,536.237305 776.204285,535.327820 774.925049,532.632568 
	C772.571045,527.672852 770.293579,522.659485 768.337158,517.533691 
	C766.675598,513.180359 768.811279,510.168976 772.973145,507.965820 
z"/>
<path fill="#645F69" opacity="1.000000" stroke="none" 
	d="
M624.964539,824.196533 
	C625.673645,826.915161 626.397461,829.298279 626.605103,831.725464 
	C627.058594,837.029297 624.593689,840.166748 619.221191,841.011658 
	C615.625122,841.577148 612.065369,842.371155 608.486450,843.047668 
	C605.191772,843.670349 603.277466,842.349976 603.224426,838.948730 
	C603.139221,833.485779 603.016846,828.007812 603.364258,822.565186 
	C603.447327,821.262024 605.582336,818.860779 606.326538,819.022522 
	C612.525391,820.369202 618.619446,822.197815 624.964539,824.196533 
z"/>
<path fill="#646068" opacity="1.000000" stroke="none" 
	d="
M578.191345,604.975586 
	C570.419556,604.964661 570.255127,604.809387 571.311279,597.775940 
	C571.828735,594.329895 572.603210,590.919434 573.041443,587.465027 
	C573.646301,582.696655 576.220520,581.669739 580.340515,583.334778 
	C584.794495,585.134827 589.239929,586.958801 593.653564,588.854919 
	C596.681091,590.155640 599.414062,591.681335 598.195862,595.858215 
	C596.923828,600.219666 596.047729,604.896179 590.109863,605.036987 
	C586.294983,605.127502 582.475037,605.005493 578.191345,604.975586 
z"/>
<path fill="#645F69" opacity="1.000000" stroke="none" 
	d="
M527.536804,493.284180 
	C521.028870,495.276611 514.768494,497.090485 508.406464,498.416534 
	C507.654419,498.573303 505.541046,496.118622 505.438263,494.769440 
	C505.061157,489.818481 505.148285,484.819885 505.288361,479.845612 
	C505.407379,475.621002 507.588531,473.842316 511.863617,474.995483 
	C514.104980,475.600067 516.396851,476.014984 518.647888,476.586517 
	C529.102112,479.240631 530.895142,482.479492 527.536804,493.284180 
z"/>
<path fill="#645F69" opacity="1.000000" stroke="none" 
	d="
M655.314941,350.865356 
	C654.645752,345.985321 653.913025,341.551575 653.455505,337.089630 
	C652.896057,331.634369 658.786987,326.057922 664.203247,327.045746 
	C665.223145,327.231781 666.598572,328.932983 666.715576,330.049652 
	C667.546082,337.975983 668.256042,345.923492 668.677246,353.881561 
	C669.026184,360.472198 663.722046,363.471344 660.035828,367.445923 
	C659.396667,367.440552 658.757507,367.435150 658.118347,367.429779 
	C657.203369,362.052917 656.288391,356.676056 655.314941,350.865356 
z"/>
<path fill="#645F69" opacity="1.000000" stroke="none" 
	d="
M491.614502,500.341309 
	C500.223938,502.354218 500.223999,502.354218 499.987793,511.203217 
	C499.802551,518.145081 498.377136,519.797729 491.373199,521.070312 
	C488.429413,521.605103 485.464081,522.021912 482.521027,522.560425 
	C479.451538,523.122192 477.583282,522.037231 477.493744,518.802490 
	C477.355804,513.818848 477.251526,508.828461 477.359467,503.845886 
	C477.432648,500.465912 479.246887,498.575470 482.825104,499.010345 
	C485.626862,499.350861 488.411621,499.831390 491.614502,500.341309 
z"/>
<path fill="#645F69" opacity="1.000000" stroke="none" 
	d="
M633.457886,888.931030 
	C631.857605,887.540283 629.814453,886.252563 629.673401,884.782349 
	C629.198853,879.837158 629.215271,874.819702 629.408630,869.844116 
	C629.544250,866.355103 631.651245,864.796021 635.200256,865.661682 
	C639.079285,866.607788 642.918335,867.753845 646.833740,868.506226 
	C651.911377,869.481934 652.979492,872.952759 652.881226,877.344238 
	C652.780884,881.825317 651.630127,885.803772 646.670532,886.934753 
	C642.474182,887.891663 638.152649,888.299561 633.457886,888.931030 
z"/>
<path fill="#645F69" opacity="1.000000" stroke="none" 
	d="
M682.089417,528.919556 
	C688.267029,536.279053 685.302979,545.261169 676.559937,546.802185 
	C673.123962,547.407837 669.673584,547.949951 666.213440,548.393616 
	C663.119934,548.790283 661.378784,547.320557 661.460999,544.184082 
	C661.600525,538.869202 661.827393,533.553528 662.172546,528.248291 
	C662.381348,525.040039 664.277588,523.923584 667.344055,524.763245 
	C672.148193,526.078674 676.949524,527.404541 682.089417,528.919556 
z"/>
<path fill="#645F69" opacity="1.000000" stroke="none" 
	d="
M651.390442,815.465698 
	C646.114990,816.911377 641.183838,818.327454 636.164734,819.280579 
	C633.251221,819.833740 631.908386,817.819031 631.899719,815.083130 
	C631.882385,809.600159 631.963562,804.116394 632.049255,798.633667 
	C632.102783,795.211182 634.031189,794.391174 637.057983,795.131287 
	C640.285706,795.920410 643.522217,796.674561 646.760132,797.421204 
	C654.884521,799.294495 656.123718,800.945862 654.603271,809.128174 
	C654.204956,811.271912 652.696472,813.209473 651.390442,815.465698 
z"/>
<path fill="#646068" opacity="1.000000" stroke="none" 
	d="
M653.277954,826.071899 
	C658.103821,826.956360 662.518494,827.772095 666.898987,828.742432 
	C670.616028,829.565796 672.812500,831.813110 672.451477,835.816833 
	C672.049622,840.273254 673.282532,845.688843 666.909607,847.156494 
	C663.025208,848.051086 659.061768,849.098572 655.134888,849.094360 
	C653.286987,849.092407 650.061584,846.973206 649.844849,845.469727 
	C649.092529,840.251465 649.163025,834.870667 649.446655,829.579895 
	C649.512451,828.352661 651.661499,827.237061 653.277954,826.071899 
z"/>
<path fill="#645F68" opacity="1.000000" stroke="none" 
	d="
M834.131470,965.819458 
	C834.254089,961.864014 834.350159,958.377808 834.497925,954.893860 
	C834.641785,951.500793 836.331177,950.098633 839.733948,950.869080 
	C843.782166,951.785767 847.839661,952.662476 851.901306,953.517883 
	C856.546387,954.496033 857.230164,957.936340 857.136108,961.860352 
	C857.036926,966.000000 857.594116,970.545593 852.104492,971.916687 
	C849.047363,972.680237 845.926392,973.203735 842.818542,973.745605 
	C835.177551,975.077881 834.162476,974.188232 834.131470,965.819458 
z"/>
<path fill="#645F69" opacity="1.000000" stroke="none" 
	d="
M537.309814,527.260010 
	C524.325623,530.290283 523.333435,529.525208 523.282837,516.846558 
	C523.236572,505.249420 524.801025,504.032867 536.073853,506.780640 
	C540.573975,507.877594 544.777100,509.376465 546.291382,514.384521 
	C548.212952,520.739502 544.913513,525.587036 537.309814,527.260010 
z"/>
<path fill="#646068" opacity="1.000000" stroke="none" 
	d="
M861.776245,682.765503 
	C866.537964,683.755310 870.939270,684.574402 875.259705,685.702942 
	C879.336792,686.768005 881.108093,689.672913 881.128357,693.858337 
	C881.149231,698.170959 880.166748,702.000916 875.641724,703.418457 
	C871.707336,704.651001 867.599243,705.407593 863.518433,706.068481 
	C860.475098,706.561401 858.171204,705.325500 858.071167,701.891235 
	C857.916687,696.587280 857.778259,691.264893 858.103394,685.979187 
	C858.173950,684.833252 860.235901,683.809814 861.776245,682.765503 
z"/>
<path fill="#646068" opacity="1.000000" stroke="none" 
	d="
M503.920380,549.173767 
	C504.530701,545.617859 506.610474,544.615173 509.444885,545.201416 
	C513.668274,546.074890 517.901672,546.997375 522.006165,548.293762 
	C523.382263,548.728455 524.883911,550.152954 525.460144,551.497131 
	C528.223572,557.943726 524.440674,564.882507 517.595215,566.377319 
	C516.134827,566.696228 514.677795,567.031616 513.224182,567.380371 
	C504.362030,569.507019 503.517700,568.868958 503.475616,559.547913 
	C503.460663,556.230835 503.727509,552.912415 503.920380,549.173767 
z"/>
<path fill="#645F69" opacity="1.000000" stroke="none" 
	d="
M387.622711,724.742188 
	C383.976990,725.464294 380.716431,726.132385 377.432800,726.655457 
	C374.534088,727.117065 372.898682,725.872131 373.060669,722.827148 
	C373.334564,717.678528 373.629974,712.528748 374.075684,707.393311 
	C374.167542,706.335083 374.694702,705.020630 375.475952,704.372009 
	C377.741272,702.491211 390.537537,705.767883 392.136505,708.477783 
	C394.846649,713.070923 392.517914,722.156555 387.622711,724.742188 
z"/>
<path fill="#645F69" opacity="1.000000" stroke="none" 
	d="
M397.154358,638.890747 
	C398.167877,639.517151 398.878632,639.943604 399.567932,640.402283 
	C402.789642,642.545959 406.294189,644.565369 404.398193,649.425903 
	C402.492462,654.311523 398.076111,657.190491 393.248199,656.492249 
	C380.905884,654.707031 381.481659,656.186523 384.300232,644.158997 
	C387.394440,630.955261 386.528259,632.822876 397.154358,638.890747 
z"/>
<path fill="#645F69" opacity="1.000000" stroke="none" 
	d="
M397.454803,612.163086 
	C399.310059,612.471558 400.787354,612.708008 402.256714,612.986267 
	C409.016998,614.266602 411.989594,619.791748 408.879089,625.885742 
	C408.193237,627.229370 406.216827,628.243225 404.627563,628.723145 
	C401.943726,629.533813 399.069427,629.687683 396.321320,630.318665 
	C393.122955,631.052979 391.472565,630.106567 391.692017,626.650940 
	C391.923645,623.003113 392.093719,619.350525 392.388641,615.707947 
	C392.618927,612.863892 394.121246,611.498718 397.454803,612.163086 
z"/>
<path fill="#645F69" opacity="1.000000" stroke="none" 
	d="
M712.162048,429.581360 
	C715.996887,431.676422 719.652283,433.595612 722.853210,436.096466 
	C723.677063,436.740051 723.644287,439.514404 722.984802,440.777039 
	C722.023743,442.617065 720.291992,444.169556 718.610168,445.489655 
	C716.379028,447.240845 712.001770,450.232147 711.778503,449.967072 
	C708.744507,446.367004 704.803772,442.498322 704.216675,438.262115 
	C703.872681,435.780701 709.095032,432.527771 712.162048,429.581360 
z"/>
<path fill="#645F69" opacity="1.000000" stroke="none" 
	d="
M794.168823,298.005890 
	C800.917236,297.723450 807.212891,297.330017 813.510925,297.285400 
	C814.858948,297.275818 816.215942,298.530518 817.568848,299.202820 
	C816.796875,300.737976 816.381653,302.733856 815.155884,303.683167 
	C813.840271,304.702148 811.778809,305.054047 810.014954,305.142761 
	C804.718445,305.409302 799.407654,305.504181 794.103760,305.467621 
	C791.265625,305.448059 787.360718,306.245270 787.338623,301.777405 
	C787.318604,297.733521 791.032776,298.376953 794.168823,298.005890 
z"/>
<path fill="#5F5B6D" opacity="1.000000" stroke="none" 
	d="
M427.231110,954.967041 
	C427.218475,950.816162 429.495697,950.261719 432.573486,950.673279 
	C435.755585,951.098816 438.491394,952.704956 437.804688,955.945435 
	C437.398193,957.863464 434.751404,960.202026 432.717224,960.683594 
	C429.076324,961.545288 427.413757,958.870422 427.231110,954.967041 
z"/>
<path fill="#5F5B6D" opacity="1.000000" stroke="none" 
	d="
M383.014893,845.318115 
	C382.304810,842.263123 381.483582,839.542664 381.152954,836.763794 
	C381.007019,835.537354 381.856659,834.192505 382.254333,832.901367 
	C383.898560,833.783447 386.968750,834.711914 386.941803,835.539673 
	C386.820862,839.259521 385.820068,842.950806 385.136627,846.652344 
	C384.458832,846.311218 383.781036,845.970093 383.014893,845.318115 
z"/>
<path fill="#5F5B6D" opacity="1.000000" stroke="none" 
	d="
M374.490173,769.490723 
	C370.717072,765.815491 372.652771,761.634888 372.636841,757.199036 
	C377.376160,759.633179 377.877808,763.750793 374.490173,769.490723 
z"/>
<path fill="#656068" opacity="1.000000" stroke="none" 
	d="
M456.006531,495.979980 
	C455.993439,495.968933 456.014984,496.062561 456.028625,496.039856 
	C456.042267,496.017181 456.019623,495.991028 456.006531,495.979980 
z"/>
</svg>