<svg id="visual" viewBox="0 0 900 600" width="900" height="600" xmlns="http://www.w3.org/2000/svg" xmlns:xlink="http://www.w3.org/1999/xlink" version="1.1"><rect x="0" y="0" width="900" height="600" fill="#151a4e"></rect><defs><linearGradient id="grad1_0" x1="33.3%" y1="0%" x2="100%" y2="100%"><stop offset="20%" stop-color="#151a4e" stop-opacity="1"></stop><stop offset="80%" stop-color="#151a4e" stop-opacity="1"></stop></linearGradient></defs><defs><linearGradient id="grad2_0" x1="0%" y1="0%" x2="66.7%" y2="100%"><stop offset="20%" stop-color="#151a4e" stop-opacity="1"></stop><stop offset="80%" stop-color="#151a4e" stop-opacity="1"></stop></linearGradient></defs><g transform="translate(900, 0)"><path d="M0 175C-15.9 181.4 -31.9 187.7 -51 190.3C-70.1 192.9 -92.3 191.6 -101 174.9C-109.7 158.3 -104.8 126.1 -108.9 108.9C-113 91.7 -126.2 89.4 -145.5 84C-164.8 78.6 -190.3 70.2 -207.7 55.6C-225 41.1 -234.2 20.6 -243.4 0L0 0Z" fill="#D4AF37"></path></g><g transform="translate(0, 600)"><path d="M0 -154C10.1 -140.2 20.2 -126.5 33.4 -124.6C46.6 -122.7 63 -132.8 75.5 -130.8C88 -128.8 96.6 -114.8 105.4 -105.4C114.1 -96 123 -91.1 149.8 -86.5C176.6 -81.9 221.2 -77.4 235.1 -63C248.9 -48.6 232 -24.3 215 0L0 0Z" fill="#D4AF37"></path></g></svg>