<?xml version="1.0" encoding="UTF-8"?>
<svg version="1.1" xmlns="http://www.w3.org/2000/svg" width="932" height="979">
<path d="M0 0 C307.56 0 615.12 0 932 0 C932 323.07 932 646.14 932 979 C624.44 979 316.88 979 0 979 C0 655.93 0 332.86 0 0 Z " fill="#0B0B44" transform="translate(0,0)"/>
<path d="M0 0 C1.155 0.54785156 2.31 1.09570312 3.5 1.66015625 C17.49891384 8.51547204 28.68191017 17.4542007 38 30 C38.57363281 30.68707031 39.14726563 31.37414062 39.73828125 32.08203125 C50.37131343 45.03691661 50.28633556 62.0861915 49 78 C46.19924909 95.33933815 35.26042793 112.84286272 21.27539062 123.28808594 C16.96428606 126.37945228 12.51322842 129.21550819 8 132 C7.0615625 132.60070312 6.123125 133.20140625 5.15625 133.8203125 C-9.52040701 142.61746534 -30.27020227 145.54349677 -47 142.25 C-61.97403247 138.10945314 -71.21676804 126.43691856 -78.75 113.4375 C-79.52059553 111.96895768 -80.27089194 110.4895756 -81 109 C-81.36996094 108.24460937 -81.73992188 107.48921875 -82.12109375 106.7109375 C-90.68617189 87.44735516 -88.72732372 61.84948816 -82.25 42.25 C-77.40636633 30.14091581 -70.09391926 21.10034378 -61 12 C-60.32066406 11.29746094 -59.64132812 10.59492187 -58.94140625 9.87109375 C-44.12485184 -4.37191662 -18.5273316 -9.50602915 0 0 Z " fill="#493B3A" transform="translate(595,675)"/>
<path d="M0 0 C0 44.22 0 88.44 0 134 C-14.16070406 140.43668367 -33.53001428 146.58198665 -49.453125 142.34765625 C-60.96536695 137.65822902 -72.12974874 128.3164223 -79 118 C-79 117.34 -79 116.68 -79 116 C-79.66 116 -80.32 116 -81 116 C-86.98497316 100.73735001 -90.61496333 87.71726214 -90.06933594 71.20361328 C-90.01015103 69.32261689 -89.98937896 67.44047738 -89.9765625 65.55859375 C-89.66475484 56.16838611 -86.62163309 47.6665897 -83.53491211 38.87841797 C-82.86306049 36.84463397 -82.86306049 36.84463397 -83 34 C-83.7425 33.34 -84.485 32.68 -85.25 32 C-91.02552705 26.56903565 -92.42785448 17.58092809 -93 10 C-88.41396996 6.94264664 -84.44968134 6.8792702 -79.03515625 7.0078125 C-77.90529297 7.02457031 -76.77542969 7.04132813 -75.61132812 7.05859375 C-73.2491883 7.1027945 -70.8871822 7.15485346 -68.52539062 7.21484375 C-60.33176533 7.38084911 -60.33176533 7.38084911 -53 4 C-52.07380859 3.36578125 -52.07380859 3.36578125 -51.12890625 2.71875 C-50.61199219 2.3165625 -50.09507812 1.914375 -49.5625 1.5 C-35.30745226 -8.94740805 -15.49695964 -6.19878386 0 0 Z " fill="#493B3A" transform="translate(932,367)"/>
<path d="M0 0 C1.42505859 0.16242188 1.42505859 0.16242188 2.87890625 0.328125 C5.4375 0.75 5.4375 0.75 8.4375 1.75 C7.82571244 5.40396407 6.2710544 7.61042559 4 10.5 C3.38253906 11.29921875 2.76507812 12.0984375 2.12890625 12.921875 C1.57074219 13.52515625 1.01257813 14.1284375 0.4375 14.75 C-0.2225 14.75 -0.8825 14.75 -1.5625 14.75 C-1.94921875 15.62398438 -1.94921875 15.62398438 -2.34375 16.515625 C-3.66084017 18.9302903 -5.11338384 20.56740177 -7.0625 22.5 C-7.6709375 23.11359375 -8.279375 23.7271875 -8.90625 24.359375 C-10.5625 25.75 -10.5625 25.75 -12.5625 25.75 C-12.80871094 26.32073242 -13.05492187 26.89146484 -13.30859375 27.47949219 C-14.77148997 30.1284281 -16.48895319 31.93548546 -18.625 34.078125 C-19.42164063 34.87734375 -20.21828125 35.6765625 -21.0390625 36.5 C-21.87179687 37.325 -22.70453125 38.15 -23.5625 39 C-24.81160156 40.26070313 -24.81160156 40.26070313 -26.0859375 41.546875 C-26.88257813 42.3409375 -27.67921875 43.135 -28.5 43.953125 C-29.23089844 44.68176758 -29.96179688 45.41041016 -30.71484375 46.16113281 C-32.5625 47.75 -32.5625 47.75 -34.5625 47.75 C-34.81652588 48.32967026 -35.07055176 48.90934052 -35.33227539 49.50657654 C-36.70028701 52.0012668 -38.2243895 53.6457568 -40.24609375 55.64477539 C-41.37736694 56.77098045 -41.37736694 56.77098045 -42.53149414 57.91993713 C-43.34610107 58.72108444 -44.16070801 59.52223175 -45 60.34765625 C-45.83587646 61.17833115 -46.67175293 62.00900604 -47.53295898 62.86485291 C-50.20477617 65.51885361 -52.88317623 68.16607936 -55.5625 70.8125 C-58.24095333 73.46334289 -60.91794307 76.11562216 -63.59204102 78.77085876 C-65.25645399 80.42300923 -66.92353275 82.07247926 -68.59350586 83.7190094 C-69.34768799 84.46666061 -70.10187012 85.21431183 -70.87890625 85.98461914 C-71.54349854 86.6409584 -72.20809082 87.29729767 -72.89282227 87.973526 C-74.74866236 89.84979109 -74.74866236 89.84979109 -76.5625 92.75 C-77.2225 92.75 -77.8825 92.75 -78.5625 92.75 C-78.5625 93.41 -78.5625 94.07 -78.5625 94.75 C-79.8840332 96.04370117 -79.8840332 96.04370117 -81.80078125 97.60546875 C-85.52455305 100.76997775 -88.99905093 104.12585023 -92.41796875 107.61328125 C-92.93167023 108.13501923 -93.4453717 108.6567572 -93.97463989 109.19430542 C-96.11210402 111.36756549 -98.2460299 113.5441069 -100.37084961 115.72973633 C-101.94228889 117.34355043 -103.52307205 118.94771977 -105.10546875 120.55078125 C-105.57953659 121.04347 -106.05360443 121.53615875 -106.54203796 122.04377747 C-109.34234045 124.8653722 -111.75980989 126.56098743 -115.5625 127.75 C-116.09660498 121.87484527 -114.6145815 117.33209366 -112.6328125 111.8125 C-111.49955683 108.72497221 -111.49955683 108.72497221 -110.7265625 105.35546875 C-109.34205629 101.0672163 -107.28944668 97.79162499 -104.8125 94.0625 C-101.72559303 89.29207624 -98.87037168 84.58551024 -96.4375 79.4375 C-90.36783344 66.85362793 -81.37395019 57.58059114 -70.3125 49.3125 C-69.57394775 48.75409424 -68.83539551 48.19568848 -68.07446289 47.62036133 C-62.28933931 43.25868677 -56.45645959 38.96360826 -50.5625 34.75 C-53.65967098 34.518717 -53.65967098 34.518717 -56.4375 36.25 C-59.53807388 37.73827546 -61.19757773 38.04690491 -64.5625 37.75 C-64.18940028 31.99732298 -61.96670539 29.26962533 -58.25 25.1875 C-57.27422607 24.08248449 -56.2989577 22.97702233 -55.32421875 21.87109375 C-54.85346924 21.34628418 -54.38271973 20.82147461 -53.89770508 20.28076172 C-52.66665192 18.8694062 -51.51260233 17.39185836 -50.3671875 15.91015625 C-48.5625 13.75 -48.5625 13.75 -46 12.75 C-43.5625 12.75 -43.5625 12.75 -41.921875 13.89453125 C-40.03246274 16.47347039 -40.26353094 18.27920998 -40.375 21.4375 C-40.41560547 22.92830078 -40.41560547 22.92830078 -40.45703125 24.44921875 C-40.49183594 25.20847656 -40.52664063 25.96773438 -40.5625 26.75 C-39.74910156 26.10675781 -38.93570313 25.46351563 -38.09765625 24.80078125 C-29.21434826 17.79082392 -20.28215269 10.84315535 -11.23901367 4.04003906 C-9.92562828 3.02941893 -8.66106755 1.95529453 -7.41796875 0.859375 C-4.79148816 -0.71098392 -2.99857365 -0.37533167 0 0 Z " fill="#483A3A" transform="translate(583.5625,452.25)"/>
<path d="M0 0 C1.56210161 -0.05459773 3.12477089 -0.09306101 4.6875 -0.125 C5.55761719 -0.14820313 6.42773438 -0.17140625 7.32421875 -0.1953125 C10.23457694 0.0171224 12.35991129 0.79174318 15 2 C6.04347035 16.62521929 -6.2509117 28.55387639 -18.31640625 40.58203125 C-19.86560207 42.13257736 -21.41450115 43.68341999 -22.96311951 45.23454285 C-26.18124678 48.45559457 -29.40290336 51.67306094 -32.62719727 54.88793945 C-36.76678443 59.01602748 -40.89718463 63.15317408 -45.02507114 67.29295826 C-48.20835202 70.48344061 -51.39634872 73.66917625 -54.58582878 76.85346031 C-56.11239474 78.37869047 -57.63747189 79.90541222 -59.16104317 81.4336338 C-61.2764856 83.5541246 -63.39817739 85.66815158 -65.52172852 87.78051758 C-66.15180817 88.41464569 -66.78188782 89.0487738 -67.43106079 89.70211792 C-71.77145144 94 -71.77145144 94 -74 94 C-74 94.66 -74 95.32 -74 96 C-75.37207031 97.35083008 -75.37207031 97.35083008 -77.328125 98.95703125 C-82.76179406 103.57804364 -87.73204559 108.62367118 -92.75 113.6875 C-93.69116823 114.63370035 -94.63257327 115.57966522 -95.57421875 116.52539062 C-97.29901747 118.25885046 -99.02278003 119.99334242 -100.74511719 121.72924805 C-101.48922852 122.47859619 -102.23333984 123.22794434 -103 124 C-103.71575195 124.75772705 -104.43150391 125.5154541 -105.16894531 126.29614258 C-107 128 -107 128 -109 128 C-108.46222138 122.44295425 -107.67517796 117.06131585 -106.53515625 111.59765625 C-105.41193221 106.14551035 -104.4703732 100.65687365 -103.5 95.17578125 C-103.16957361 93.3248772 -102.82860593 91.47582066 -102.4765625 89.62890625 C-102.17351684 87.95718716 -101.91325323 86.27671948 -101.7109375 84.58984375 C-100.25019711 74.68738271 -92.00457426 69.88159147 -84.5 64.25 C-82.39806514 62.69555278 -80.29088697 61.14851346 -78.18164062 59.60400391 C-74.51694298 56.90961452 -70.88521175 54.17146119 -67.25 51.4375 C-65.35596425 50.01651569 -63.46172992 48.59585357 -61.56445312 47.17919922 C-60.2531788 46.19083234 -58.96018913 45.17827027 -57.671875 44.16015625 C-56 43 -56 43 -54 43 C-54 42.34 -54 41.68 -54 41 C-52.63330078 39.80175781 -52.63330078 39.80175781 -50.6953125 38.453125 C-49.61612549 37.69116821 -49.61612549 37.69116821 -48.51513672 36.91381836 C-47.7263916 36.3647583 -46.93764648 35.81569824 -46.125 35.25 C-39.58965065 30.62095658 -33.17337176 25.88434902 -26.875 20.9375 C-20.94628079 16.29361838 -15.00402763 11.6713354 -9 7.125 C-8.32308105 6.60671631 -7.64616211 6.08843262 -6.94873047 5.55444336 C-2.23266841 2 -2.23266841 2 0 2 C0 1.34 0 0.68 0 0 Z " fill="#483A3A" transform="translate(764,761)"/>
<path d="M0 0 C0.66 0 1.32 0 2 0 C5.16084166 10.22625244 7.57484948 20.57844614 9.89306641 31.02294922 C10.13718262 32.10979004 10.38129883 33.19663086 10.6328125 34.31640625 C10.84824707 35.29037354 11.06368164 36.26434082 11.28564453 37.26782227 C11.94458552 40.02032259 11.94458552 40.02032259 13.05419922 42.63256836 C14.96057361 47.40440948 14.7363235 51.15919126 12.8671875 55.83203125 C10.53849846 60.58085 7.93567593 65.11207271 5.18359375 69.625 C1.74734989 75.32327776 -1.28550331 81.20194076 -4.3125 87.125 C-8.02842795 94.34163139 -11.77477688 101.52025168 -15.8125 108.5625 C-19.06042811 114.22996683 -22.03222524 119.98816272 -24.90698242 125.8527832 C-27.87656075 131.86315101 -31.12098154 137.70343958 -34.41845703 143.5390625 C-37.37898188 148.80017384 -40.06518214 154.11280082 -42.55078125 159.6171875 C-44.76546983 163.2585892 -47.27388929 165.57190259 -51.45703125 166.609375 C-52.23433594 166.65578125 -53.01164063 166.7021875 -53.8125 166.75 C-54.60269531 166.80671875 -55.39289062 166.8634375 -56.20703125 166.921875 C-57.09455078 166.96054687 -57.09455078 166.96054687 -58 167 C-58.41776821 159.98149401 -56.92068791 154.18753974 -54.875 147.5 C-54.56095215 146.4486084 -54.2469043 145.3972168 -53.92333984 144.31396484 C-48.15672671 125.31345341 -48.15672671 125.31345341 -44 117 C-43.34 117 -42.68 117 -42 117 C-41.91105469 116.27167969 -41.82210937 115.54335938 -41.73046875 114.79296875 C-40.86462962 111.48240737 -39.54610496 109.88646381 -37.3125 107.3125 C-28.87478864 97.33598012 -28.87478864 97.33598012 -26.69140625 84.91015625 C-26.98207728 82.78563803 -26.98207728 82.78563803 -28 80 C-28.85951039 71.57679821 -24.8405231 64.79965186 -21.375 57.375 C-19.32913827 52.9496437 -17.9895582 48.76787134 -17 44 C-16.34 44 -15.68 44 -15 44 C-14.731875 42.741875 -14.46375 41.48375 -14.1875 40.1875 C-10.77557166 24.97798846 -10.77557166 24.97798846 -7 19 C-6.20819271 16.84957255 -5.5195616 14.67683293 -4.828125 12.4921875 C-3.41871284 8.25065467 -1.69942709 4.13210951 0 0 Z " fill="#483A3A" transform="translate(618,494)"/>
<path d="M0 0 C0.66 0.33 1.32 0.66 2 1 C2.57010969 3.84159386 3.03389668 6.63427479 3.4375 9.5 C4.29047423 15.06786098 5.20131604 20.30439947 7.171875 25.59765625 C8.35793989 29.03836335 9.27725388 32.54138 10.1875 36.0625 C10.36659912 36.7239502 10.54569824 37.38540039 10.73022461 38.06689453 C12.63665104 45.56792426 12.80614403 51.50815036 9.0625 58.5625 C8.75256104 59.15401855 8.44262207 59.74553711 8.12329102 60.35498047 C5.36508469 65.5341808 2.32123467 70.54408901 -0.73876953 75.54882812 C-3.49325661 80.07464072 -5.90403896 84.68737567 -8.21484375 89.45703125 C-10.64887536 94.28781171 -13.26663159 99.0116381 -15.875 103.75 C-20.19367257 111.61126092 -24.3652082 119.51837746 -28.31640625 127.5703125 C-29.80609199 130.60498553 -31.33471055 133.61585482 -32.875 136.625 C-34.57232752 140.00822523 -35.9443203 143.3531065 -37 147 C-37.66 147 -38.32 147 -39 147 C-39.11859375 147.72960937 -39.2371875 148.45921875 -39.359375 149.2109375 C-40.56808094 154.47323043 -43.14085783 159.39907202 -47.25 162.9375 C-51.08006696 164.4172986 -54.96925936 165.25356655 -59 166 C-59.23881533 161.62171898 -59.21190686 158.10760654 -57.71875 153.96875 C-55.75547832 148.33907862 -54.03708596 142.64411534 -52.3125 136.9375 C-51.99216797 135.88111328 -51.67183594 134.82472656 -51.34179688 133.73632812 C-50.56009647 131.15788349 -49.77952089 128.57910421 -49 126 C-48.34 126 -47.68 126 -47 126 C-46.9071875 124.5459375 -46.9071875 124.5459375 -46.8125 123.0625 C-45.40339295 113.95750059 -38.69108288 106.71773798 -33.19018555 99.67211914 C-28.51416821 93.77765282 -28.51416821 93.77765282 -26.98828125 86.578125 C-27.09527344 85.80984375 -27.20226562 85.0415625 -27.3125 84.25 C-27.41175781 83.47140625 -27.51101563 82.6928125 -27.61328125 81.890625 C-27.81980821 79.99650461 -27.81980821 79.99650461 -29 79 C-28.95496812 73.55114193 -28.07094992 69.54500588 -25 65 C-24.30741771 63.00882592 -23.64252365 61.0078864 -23 59 C-22.505 57.88625 -22.01 56.7725 -21.5 55.625 C-19.89706378 51.75123747 -18.9304531 48.07967898 -18 44 C-17.34 44 -16.68 44 -16 44 C-15.7525 42.7625 -15.505 41.525 -15.25 40.25 C-13.4792215 32.27521739 -10.66360836 24.60782746 -7.7109375 17.00390625 C-6.8707076 14.63556593 -6.22634897 12.23590566 -5.5625 9.8125 C-4.39974601 5.79852478 -2.95077604 3.05252693 0 0 Z " fill="#483A3A" transform="translate(806,804)"/>
<path d="M0 0 C0.99 0.33 1.98 0.66 3 1 C3.81619118 3.37955739 4.44651784 5.62108083 5 8.0625 C6.13080273 12.84924544 7.46522172 17.3839713 9.24609375 21.97094727 C10.52129342 25.40300181 11.49978798 28.91739897 12.5 32.4375 C13.71630341 36.69456193 14.95765259 40.92864253 16.3828125 45.12109375 C18.33915323 50.91578499 20.04822854 56.78301988 21.78561401 62.64627075 C22.38381568 64.65459663 22.98956195 66.6604943 23.59790039 68.66577148 C26.99545978 79.87273794 26.99545978 79.87273794 28.34765625 85.12109375 C30.0135781 91.62992707 30.0135781 91.62992707 34.06640625 96.81640625 C36.67118019 98.21704713 39.17965347 99.113387 42 100 C44.21055264 100.86937802 46.4188232 101.74457678 48.625 102.625 C50.7481893 103.42151007 52.87306476 104.21354745 55 105 C56.60433146 105.60372893 58.20852799 106.20781675 59.8125 106.8125 C60.864375 107.204375 61.91625 107.59625 63 108 C62.36393948 110.84955111 61.4736939 113.35200664 60.25 116 C58.08601561 120.73715857 56.15524588 125.55357276 54.24609375 130.3984375 C53.0748281 132.84377582 52.04279048 134.25918725 50 136 C49.3915625 135.50113281 48.783125 135.00226563 48.15625 134.48828125 C47.2796875 133.77027344 46.403125 133.05226563 45.5 132.3125 C44.50742187 131.49652344 43.51484375 130.68054688 42.4921875 129.83984375 C39.97743602 127.78278583 37.43649358 125.76239951 34.8828125 123.75390625 C34.17833984 123.19469482 33.47386719 122.6354834 32.74804688 122.05932617 C31.36194527 120.95965794 29.97022738 119.86702167 28.57226562 118.7824707 C20.20644411 112.11116333 17.15503415 105.64577057 14.375 95.375 C14.07432617 94.30556152 13.77365234 93.23612305 13.46386719 92.13427734 C11.67115274 85.68932195 10.03399129 79.23232187 8.61328125 72.6953125 C7.42648735 67.47946668 5.94524169 62.33530301 3.9375 57.375 C2.84101445 54.59723661 2.19262042 51.80659803 1.5 48.90625 C1.00812826 46.87088328 1.00812826 46.87088328 0 44.5 C-1.07909126 41.80227185 -1.73481853 39.0821986 -2.42480469 36.26464844 C-3.00196947 33.99224586 -3.63435987 31.74339461 -4.2890625 29.4921875 C-4.50820313 28.73292969 -4.72734375 27.97367187 -4.953125 27.19140625 C-5.40374054 25.63783057 -5.85953551 24.08574849 -6.3203125 22.53515625 C-7.53416128 18.29391081 -8.63577655 14.43796964 -8 10 C-6.25 7.2265625 -6.25 7.2265625 -4 4.625 C-3.2575 3.75101562 -2.515 2.87703125 -1.75 1.9765625 C-1.1725 1.32429688 -0.595 0.67203125 0 0 Z " fill="#473A3A" transform="translate(688,439)"/>
<path d="M0 0 C2.99220268 1.36370299 5.29026529 2.94908083 7.75 5.125 C8.36359375 5.66382813 8.9771875 6.20265625 9.609375 6.7578125 C10.29773438 7.37269531 10.29773438 7.37269531 11 8 C10.47503374 11.98559909 9.4940498 14.02045576 6.75 16.9375 C4.47140557 19.40324798 2.27197069 21.86796686 0.1875 24.5 C-0.534375 25.325 -1.25625 26.15 -2 27 C-2.66 27 -3.32 27 -4 27 C-4.3544519 27.84776001 -4.3544519 27.84776001 -4.71606445 28.71264648 C-6.29463825 31.52490317 -8.21200256 33.36824432 -10.54296875 35.59765625 C-11.45240234 36.48259766 -12.36183594 37.36753906 -13.29882812 38.27929688 C-15.19880594 40.11419151 -17.10680776 41.93993452 -19.01757812 43.76367188 C-27.90172628 52.43525069 -33.80289843 61.34359468 -38 73 C-38.66142484 74.66875385 -39.32674898 76.33598219 -40 78 C-40.66 78 -41.32 78 -42 78 C-42.66 80.31 -43.32 82.62 -44 85 C-52.09026865 83.8645237 -63.05708568 79.94291432 -69 74 C-69.44066078 70.753613 -69.28911113 69.40051802 -67.34765625 66.7109375 C-66.59355469 65.94007813 -65.83945312 65.16921875 -65.0625 64.375 C-61.81981971 60.96667196 -58.81176748 57.53573065 -55.9375 53.8125 C-47.52895031 43.4124517 -37.0258839 34.73828569 -27.0546875 25.875 C-25.13213324 24.12057786 -23.30936121 22.30746183 -21.5 20.4375 C-19 18 -19 18 -17 18 C-16.505 16.515 -16.505 16.515 -16 15 C-15.34 15 -14.68 15 -14 15 C-14 14.34 -14 13.68 -14 13 C-12.4609375 11.484375 -12.4609375 11.484375 -10.375 9.75 C-6.72639996 6.65323448 -3.34103014 3.42455589 0 0 Z " fill="#483A3A" transform="translate(907,649)"/>
<path d="M0 0 C9.16858601 1.14607325 16.42549176 5.19560706 24.25 9.8125 C32.59305281 14.67059958 32.59305281 14.67059958 41.1875 19.0625 C47.18534007 21.95830531 52.77044923 25.45986065 58.42504883 28.96411133 C63.33390586 32.00154135 68.28879266 34.87444338 73.38671875 37.5859375 C78.33114431 40.26139647 83.15831188 43.14399549 88 46 C87.28325304 51.32656159 85.79481947 54.49222665 83 59 C75.51978838 60.04872781 70.10125485 56.36857872 63.6875 52.875 C62.61048828 52.30523438 61.53347656 51.73546875 60.42382812 51.1484375 C54.56862703 48.02755503 48.84171313 44.7458084 43.1730957 41.29931641 C40.42455987 39.65593839 37.61695374 38.17564366 34.75 36.75 C33.79609375 36.27046875 32.8421875 35.7909375 31.859375 35.296875 C26.34289808 32.79486634 20.82537127 31.45781346 14.875 30.4375 C14.13451416 30.30819092 13.39402832 30.17888184 12.63110352 30.0456543 C6.44462685 29.00109742 0.26577838 28.35011093 -6 28 C-5.45728771 18.66160573 -4.62465837 8.30836893 0 0 Z " fill="#483A3A" transform="translate(832,857)"/>
<path d="M0 0 C1.4589426 0.47730838 2.91713496 0.95691042 4.375 1.4375 C5.18710937 1.70433594 5.99921875 1.97117187 6.8359375 2.24609375 C9 3 9 3 11 4 C11 4.66 11 5.32 11 6 C11.65097656 6.07734375 12.30195312 6.1546875 12.97265625 6.234375 C17.14995002 7.29082607 20.65437241 9.21886413 24.4375 11.25 C25.25790771 11.68602539 26.07831543 12.12205078 26.92358398 12.57128906 C38.04621402 18.54987243 48.87148858 25.06145022 59.66137695 31.61694336 C64.05627857 34.27918819 68.43000149 36.82769411 73.0625 39.0625 C78.13774456 41.55087993 83.09135478 44.19860147 88 47 C88.74737188 52.97897503 86.3231898 56.32379721 83 61 C77.15854442 60.52144122 73.13072958 58.8002481 68.0625 55.9375 C66.55556585 55.11297598 65.04773151 54.29009535 63.5390625 53.46875 C62.78141602 53.05367187 62.02376953 52.63859375 61.24316406 52.2109375 C57.84549255 50.37675697 54.39745868 48.65054188 50.9375 46.9375 C50.28934326 46.61628174 49.64118652 46.29506348 48.97338867 45.96411133 C47.65834482 45.31253946 46.34315877 44.66125451 45.02783203 44.01025391 C42.89702126 42.9486966 40.77409045 41.87252028 38.65234375 40.79296875 C37.9363501 40.43017822 37.22035645 40.0673877 36.48266602 39.69360352 C35.1209025 39.00317853 33.76060241 38.30985608 32.40209961 37.61303711 C26.61141618 34.68797064 21.1393152 32.88207652 14.7265625 31.9296875 C13.57285156 31.75566406 12.41914062 31.58164062 11.23046875 31.40234375 C10.04066406 31.22832031 8.85085938 31.05429687 7.625 30.875 C6.41199219 30.69324219 5.19898438 30.51148438 3.94921875 30.32421875 C0.96682325 29.8780336 -2.01621666 29.43679079 -5 29 C-4.50021573 21.94044293 -3.57576441 15.19552608 -1.9375 8.3125 C-1.75123047 7.50361328 -1.56496094 6.69472656 -1.37304688 5.86132812 C-0.92182864 3.90604911 -0.46188051 1.95278783 0 0 Z " fill="#483A3A" transform="translate(794,586)"/>
<path d="M0 0 C7.31034687 1.34696508 12.42854721 4.95642372 18.38671875 9.21484375 C22.10991537 11.75819331 26.00964832 13.90843885 30 16 C30 19 30 19 28.390625 20.75390625 C27.33101562 21.64916016 27.33101562 21.64916016 26.25 22.5625 C25.55390625 23.16191406 24.8578125 23.76132812 24.140625 24.37890625 C22.15522037 25.88245173 20.2624561 26.97578001 18 28 C18 28.66 18 29.32 18 30 C16.5390625 31.5078125 16.5390625 31.5078125 14.625 33.125 C13.99851562 33.66382813 13.37203125 34.20265625 12.7265625 34.7578125 C11 36 11 36 9 36 C9 36.66 9 37.32 9 38 C7.26059253 39.44054021 5.45528806 40.80184465 3.625 42.125 C-1.33958096 45.72413677 -6.04407785 49.50792429 -10.6484375 53.56640625 C-13.69953137 55.42645849 -15.48322557 55.5156697 -19 55 C-21.15234375 53.53125 -21.15234375 53.53125 -22.9375 51.5 C-23.54464844 50.8503125 -24.15179687 50.200625 -24.77734375 49.53125 C-26.54758049 45.86635094 -26.11583413 42.78460095 -25 39 C-23.74795977 36.44904988 -22.1798333 34.22369692 -20.5 31.9375 C-19.58544299 30.63367848 -18.67406571 29.32762167 -17.765625 28.01953125 C-17.07243164 27.02687256 -17.07243164 27.02687256 -16.36523438 26.01416016 C-14.18688147 22.80038843 -12.21718208 19.47077852 -10.25 16.125 C-7.00297405 10.62915796 -3.62961494 5.25226633 0 0 Z " fill="#483A3A" transform="translate(676,748)"/>
<path d="M0 0 C3.92444972 0.6829312 7.10460053 2.58550278 10.5 4.5625 C11.10859863 4.913125 11.71719727 5.26375 12.34423828 5.625 C18.40424718 9.1588262 24.22251591 13.02136627 30 17 C26.31659274 21.70657595 22.31599773 25.61248756 17.75 29.4375 C17.21858398 29.88657715 16.68716797 30.3356543 16.13964844 30.79833984 C12.25200685 34 12.25200685 34 10 34 C9.67 34.99 9.34 35.98 9 37 C7.14453125 38.6484375 7.14453125 38.6484375 4.8125 40.375 C2.10998796 42.39152517 -0.3197906 44.31703773 -2.72265625 46.69921875 C-6.56925112 49.92670144 -10.42630874 49.63589375 -15.25 49.4375 C-16.47203125 49.42879883 -16.47203125 49.42879883 -17.71875 49.41992188 C-23.70394389 49.29605611 -23.70394389 49.29605611 -26 47 C-26.67057473 41.79186961 -25.19000789 39.00489974 -22.375 34.6875 C-22.01108154 34.12063477 -21.64716309 33.55376953 -21.2722168 32.96972656 C-18.69516774 28.97544197 -16.02575405 25.04052816 -13.359375 21.10546875 C-11.98187978 18.97193448 -10.76463649 16.79894224 -9.5625 14.5625 C-6.78318057 9.42166733 -3.42436644 4.72700728 0 0 Z " fill="#483A3A" transform="translate(622,930)"/>
<path d="M0 0 C2.73553268 1.09202901 4.69106191 2.92199311 6.95703125 4.78125 C7.94703125 5.11125 8.93703125 5.44125 9.95703125 5.78125 C10.85546875 7.60449219 10.85546875 7.60449219 10.95703125 9.78125 C9.62109375 11.66894531 9.62109375 11.66894531 7.58203125 13.609375 C6.47408203 14.68638672 6.47408203 14.68638672 5.34375 15.78515625 C4.55613281 16.52636719 3.76851562 17.26757812 2.95703125 18.03125 C1.43375346 19.49224727 -0.08710145 20.95577508 -1.60546875 22.421875 C-2.35352783 23.14375 -3.10158691 23.865625 -3.87231445 24.609375 C-6.56362967 27.30220372 -9.05259716 30.13271433 -11.52880859 33.02246094 C-13.39377852 35.18873687 -15.34456622 37.25019814 -17.35546875 39.28125 C-18.01160156 39.9515625 -18.66773438 40.621875 -19.34375 41.3125 C-21.04296875 42.78125 -21.04296875 42.78125 -23.04296875 42.78125 C-23.47609375 43.709375 -23.47609375 43.709375 -23.91796875 44.65625 C-25.04296875 46.78125 -25.04296875 46.78125 -27.04296875 48.78125 C-29.47314453 49.00830078 -29.47314453 49.00830078 -32.48828125 48.9765625 C-33.56464844 48.97011719 -34.64101563 48.96367188 -35.75 48.95703125 C-37.44189453 48.93189453 -37.44189453 48.93189453 -39.16796875 48.90625 C-40.30363281 48.89722656 -41.43929687 48.88820313 -42.609375 48.87890625 C-45.42078174 48.85528098 -48.23177173 48.82234013 -51.04296875 48.78125 C-49.79578963 45.03971263 -47.94409094 43.40607484 -45.04296875 40.78125 C-43.55796875 40.28625 -43.55796875 40.28625 -42.04296875 39.78125 C-41.36595219 38.45314202 -40.70149309 37.11862351 -40.04296875 35.78125 C-38.52062159 34.07333614 -36.93988323 32.41679442 -35.32421875 30.796875 C-33.92623047 29.39501953 -33.92623047 29.39501953 -32.5 27.96484375 C-32.0148291 27.4838623 -31.5296582 27.00288086 -31.02978516 26.50732422 C-29.54090536 25.02920152 -28.06305224 23.54065089 -26.5859375 22.05078125 C-25.65394531 21.12136719 -24.72195313 20.19195313 -23.76171875 19.234375 C-22.90513672 18.38004883 -22.04855469 17.52572266 -21.16601562 16.64550781 C-19.04296875 14.78125 -19.04296875 14.78125 -17.04296875 14.78125 C-17.04296875 14.12125 -17.04296875 13.46125 -17.04296875 12.78125 C-15.22214521 10.94623823 -13.25017285 9.3372308 -11.2734375 7.671875 C-9.85087889 6.4660635 -8.45397022 5.22884256 -7.09375 3.953125 C-6.49949219 3.40140625 -5.90523437 2.8496875 -5.29296875 2.28125 C-4.761875 1.7759375 -4.23078125 1.270625 -3.68359375 0.75 C-2.04296875 -0.21875 -2.04296875 -0.21875 0 0 Z " fill="#473A3A" transform="translate(873.04296875,930.21875)"/>
<path d="M0 0 C4.46736572 1.33553534 8.18434051 3.1205337 12.1875 5.5 C17.83639852 8.80938594 23.56856204 11.91371691 29.375 14.9375 C32.58539404 16.62109829 35.79320376 18.30956027 39 20 C40.18432617 20.62237549 40.18432617 20.62237549 41.39257812 21.25732422 C43.6448613 22.44874257 45.88605692 23.65873683 48.125 24.875 C48.8061084 25.23198975 49.4872168 25.58897949 50.18896484 25.95678711 C54.65879159 28.41675794 54.65879159 28.41675794 56.12890625 30.9296875 C55.93628106 34.02336474 54.59038669 35.74262991 52.8125 38.25 C52.20019531 39.14203125 51.58789062 40.0340625 50.95703125 40.953125 C50.31121094 41.62859375 49.66539062 42.3040625 49 43 C47.68 43 46.36 43 45 43 C45 42.34 45 41.68 45 41 C44.175 40.92007813 43.35 40.84015625 42.5 40.7578125 C38.16728364 39.81970204 34.84643977 38.01966561 31 35.875 C29.48646823 35.05062915 27.9721331 34.22773166 26.45703125 33.40625 C25.70631348 32.99761719 24.9555957 32.58898437 24.18212891 32.16796875 C21.05287883 30.49306023 17.87552471 28.93532355 14.6875 27.375 C12.45674199 26.25315878 10.22754684 25.12820393 8 24 C6.25009766 23.13761719 6.25009766 23.13761719 4.46484375 22.2578125 C1.44088974 20.66625776 -1.32139642 19.12095835 -4 17 C-5.76361419 11.15802801 -2.42587847 5.38241786 0 0 Z " fill="#473A3A" transform="translate(448,614)"/>
<path d="M0 0 C1.79244141 0.01740234 1.79244141 0.01740234 3.62109375 0.03515625 C5.41740234 0.04869141 5.41740234 0.04869141 7.25 0.0625 C8.17683594 0.07410156 9.10367188 0.08570313 10.05859375 0.09765625 C11.11187585 7.99727199 8.79637698 11.63637033 4.21484375 17.984375 C1.52074188 21.87422861 -0.45207821 25.94364541 -2.49609375 30.19921875 C-4.34661887 33.91027182 -6.46063023 37.41898525 -8.64453125 40.94140625 C-9.85418987 42.95264588 -10.92313488 44.98426285 -11.94140625 47.09765625 C-16.47688375 43.28373199 -20.8875862 39.35273871 -25.25390625 35.34765625 C-25.78145508 34.86385498 -26.30900391 34.38005371 -26.85253906 33.8815918 C-28.91559915 31.98380264 -30.95903162 30.08003088 -32.94140625 28.09765625 C-32.77547538 25.04050569 -32.24668892 23.46717097 -30.2890625 21.09765625 C-22.45815374 14.24393782 -14.0540605 8.24605402 -5.54858398 2.26171875 C-2.54245613 0.08441089 -2.54245613 0.08441089 0 0 Z " fill="#483A3A" transform="translate(605.94140625,858.90234375)"/>
<path d="M0 0 C0 13.2 0 26.4 0 40 C-11.55 40 -23.1 40 -35 40 C-34.34 37.03 -33.68 34.06 -33 31 C-32.979375 29.824375 -32.95875 28.64875 -32.9375 27.4375 C-30.37886652 18.05584391 -17.54809673 12.0255481 -9.890625 6.734375 C-0.1673457 0 -0.1673457 0 0 0 Z " fill="#483A3A" transform="translate(932,939)"/>
<path d="M0 0 C2.97612287 5.00420661 2.83675093 10.35967891 2 16 C-1.74982179 20.89560067 -7.17217317 22.51642263 -12.82421875 24.7265625 C-16.85908469 26.34447922 -20.73353612 28.2455373 -24.625 30.1796875 C-27.30966087 31.10695523 -28.43259647 31.18666167 -31 30 C-32.59669985 27.32166476 -33.8046991 24.86095485 -35 22 C-35.44988281 20.92878906 -35.89976562 19.85757812 -36.36328125 18.75390625 C-40.32821851 8.91416053 -40.32821851 8.91416053 -40 4 C-37.27451193 2.63725596 -34.92067952 2.73247528 -31.875 2.5625 C-25.12537629 2.13196845 -18.48615948 1.3366638 -11.7890625 0.40234375 C-7.80356697 -0.02085835 -4.0033371 -0.06657434 0 0 Z " fill="#483A3A" transform="translate(762,342)"/>
<path d="M0 0 C2.6487551 5.29751021 3.77938473 9.0571914 3 15 C-0.74401517 18.63663424 -5.17245453 20.79704036 -9.8125 23.0625 C-10.48603516 23.40087891 -11.15957031 23.73925781 -11.85351562 24.08789062 C-24.94997205 30.56719012 -24.94997205 30.56719012 -31 30 C-31.40992188 28.90300781 -31.81984375 27.80601562 -32.2421875 26.67578125 C-32.78642886 25.22134314 -33.33070133 23.76691667 -33.875 22.3125 C-34.14441406 21.59126953 -34.41382813 20.87003906 -34.69140625 20.12695312 C-35.81863107 17.11643806 -36.95064813 14.11929425 -38.1796875 11.1484375 C-39.15312836 8.59894954 -39.29262486 6.70677994 -39 4 C-36.56050437 1.56050437 -35.63323936 1.65295112 -32.265625 1.3671875 C-31.30470947 1.2832373 -30.34379395 1.19928711 -29.35375977 1.11279297 C-28.32951904 1.03432129 -27.30527832 0.95584961 -26.25 0.875 C-25.21480225 0.79008301 -24.17960449 0.70516602 -23.11303711 0.61767578 C-15.39001699 0.01938399 -7.74664791 -0.24166319 0 0 Z " fill="#483A3A" transform="translate(703,664)"/>
<path d="M0 0 C0.99 0 1.98 0 3 0 C3 2.31 3 4.62 3 7 C3.67095703 6.3503125 3.67095703 6.3503125 4.35546875 5.6875 C4.96003906 5.130625 5.56460938 4.57375 6.1875 4 C6.77917969 3.443125 7.37085938 2.88625 7.98046875 2.3125 C10.48048137 0.68773358 12.07500966 0.75751375 15 1 C16.18698784 3.37397568 17.37310309 5.74832736 18.5546875 8.125 C19.50154568 10.00848006 20.46457038 11.88393932 21.4453125 13.75 C21.89648438 14.61625 22.34765625 15.4825 22.8125 16.375 C23.23144531 17.16648437 23.65039062 17.95796875 24.08203125 18.7734375 C25 21 25 21 25 25 C18.60962769 25.02527062 12.21926817 25.04283317 5.82885742 25.05493164 C3.65307127 25.05997308 1.47728853 25.06680607 -0.69848633 25.07543945 C-3.81853067 25.08751338 -6.93853038 25.09323005 -10.05859375 25.09765625 C-11.52733192 25.10539818 -11.52733192 25.10539818 -13.02574158 25.11329651 C-13.92659988 25.11337204 -14.82745819 25.11344757 -15.75561523 25.11352539 C-16.95141457 25.11685631 -16.95141457 25.11685631 -18.17137146 25.12025452 C-20 25 -20 25 -21 24 C-21.20534848 21.92304676 -21.31419166 19.83619393 -21.375 17.75 C-21.42398438 16.61046875 -21.47296875 15.4709375 -21.5234375 14.296875 C-20.82922995 9.92440359 -19.50040228 8.6599363 -16 6 C-13.47989149 4.82636313 -10.91877016 4.01617872 -8.25 3.25 C-3.77618503 2.22501735 -3.77618503 2.22501735 0 0 Z " fill="#473A3A" transform="translate(774,549)"/>
<path d="M0 0 C2.536875 0.020625 5.07375 0.04125 7.6875 0.0625 C7.6875 6.6625 7.6875 13.2625 7.6875 20.0625 C5.79 20.784375 3.8925 21.50625 1.9375 22.25 C-3.69407955 24.40415611 -9.23736379 26.71186327 -14.75390625 29.14453125 C-17.3125 30.0625 -17.3125 30.0625 -21.3125 30.0625 C-24.03855503 24.92493474 -26.43051404 19.66976277 -28.6875 14.3125 C-28.97447754 13.66273193 -29.26145508 13.01296387 -29.55712891 12.34350586 C-31.48871025 7.65503115 -31.48871025 7.65503115 -30.6015625 4.671875 C-29.3125 3.0625 -29.3125 3.0625 -27.3125 2.0625 C-25.0449804 1.85557806 -22.77303676 1.69578802 -20.5 1.5625 C-15.65802234 1.29961131 -15.65802234 1.29961131 -10.8828125 0.53515625 C-7.25913184 -0.13120448 -3.66863369 -0.04228865 0 0 Z " fill="#483A3A" transform="translate(924.3125,791.9375)"/>
<path d="M0 0 C3.02563474 0.47578684 4.75818096 1.46873792 7.30859375 3.15234375 C11.89831273 6.06054406 16.5384757 8.34094262 21.55859375 10.40234375 C21.24609375 12.33984375 21.24609375 12.33984375 20.55859375 14.40234375 C19.56859375 14.73234375 18.57859375 15.06234375 17.55859375 15.40234375 C17.55859375 16.06234375 17.55859375 16.72234375 17.55859375 17.40234375 C18.71488281 17.38494141 18.71488281 17.38494141 19.89453125 17.3671875 C20.89742187 17.35816406 21.9003125 17.34914063 22.93359375 17.33984375 C23.93132813 17.32824219 24.9290625 17.31664062 25.95703125 17.3046875 C28.55859375 17.40234375 28.55859375 17.40234375 30.55859375 18.40234375 C30.17322155 24.18292674 28.25383699 28.52882107 25.76953125 33.734375 C24.32255884 36.92238196 23.38820434 40.00848226 22.55859375 43.40234375 C19.52881946 42.05003188 17.47386762 40.54753832 15.16796875 38.171875 C14.5445459 37.53693115 13.92112305 36.9019873 13.27880859 36.24780273 C12.6286377 35.57692627 11.9784668 34.9060498 11.30859375 34.21484375 C5.30249296 28.08599213 5.30249296 28.08599213 -1.06640625 22.33984375 C-9.16972578 15.42194432 -9.16972578 15.42194432 -9.765625 10.9921875 C-9.36408274 7.78468727 -8.37970288 6.49666253 -6.25390625 4.08984375 C-5.36638672 3.04376953 -5.36638672 3.04376953 -4.4609375 1.9765625 C-2.44140625 0.40234375 -2.44140625 0.40234375 0 0 Z " fill="#483A3A" transform="translate(732.44140625,495.59765625)"/>
<path d="M0 0 C3.81936528 1.55603771 6.26044438 3.95604931 9 7 C9 7.66 9 8.32 9 9 C9.57073242 9.24911133 10.14146484 9.49822266 10.72949219 9.75488281 C15.22214287 12.21859448 18.62925185 16.17451121 22.25 19.75 C23.09046875 20.54921875 23.9309375 21.3484375 24.796875 22.171875 C25.5909375 22.955625 26.385 23.739375 27.203125 24.546875 C27.93176758 25.25682617 28.66041016 25.96677734 29.41113281 26.69824219 C31.47440413 29.68725909 31.46522425 31.43645367 31 35 C28.57184111 38.41254763 26.48478855 40.67680763 23 43 C17.54508308 42.89090166 13.91825479 41.04529629 9.35546875 38.34375 C5.70455791 36.26097499 1.86691016 34.63635205 -2 33 C-0.75453595 29.26360784 0.63404953 28.81243487 4 27 C3.06027344 26.90912109 3.06027344 26.90912109 2.1015625 26.81640625 C1.28429687 26.73261719 0.46703125 26.64882813 -0.375 26.5625 C-1.59316406 26.44068359 -1.59316406 26.44068359 -2.8359375 26.31640625 C-5 26 -5 26 -7 25 C-6.3587977 19.50606211 -5.0961052 14.41494865 -3.5 9.125 C-3.27441406 8.35414063 -3.04882812 7.58328125 -2.81640625 6.7890625 C-1.13375235 1.13375235 -1.13375235 1.13375235 0 0 Z " fill="#473A3A" transform="translate(782,480)"/>
<path d="M0 0 C5.12919764 0.61797562 9.33288832 2.94042905 13.875 5.25 C14.73617432 5.68530029 15.59734863 6.12060059 16.48461914 6.5690918 C23.54503873 10.17853638 30.51191187 13.95132162 37.4375 17.8125 C38.41380371 18.35100586 39.39010742 18.88951172 40.39599609 19.44433594 C52.00059208 26.00177623 52.00059208 26.00177623 54 32 C54.06802967 33.72795352 54.08495645 35.45835365 54.0625 37.1875 C54.05347656 38.08855469 54.04445313 38.98960937 54.03515625 39.91796875 C54.02355469 40.60503906 54.01195312 41.29210937 54 42 C51.61435923 41.42415568 49.33317216 40.77772405 47 40 C47 39.34 47 38.68 47 38 C46.11715332 37.89131592 45.23430664 37.78263184 44.32470703 37.6706543 C40.94512254 36.98893021 38.76241128 36.00178503 35.8046875 34.26953125 C34.84699463 33.716604 33.88930176 33.16367676 32.90258789 32.59399414 C31.90348389 32.00610107 30.90437988 31.41820801 29.875 30.8125 C27.8099601 29.61742754 25.743567 28.42469011 23.67578125 27.234375 C22.19972412 26.38456055 22.19972412 26.38456055 20.69384766 25.51757812 C17.53230018 23.73652147 14.33643576 22.1259199 11.0625 20.5625 C1.25367038 15.73707284 1.25367038 15.73707284 -2 12 C-2.80468641 7.41328747 -2.01476867 4.15546038 0 0 Z " fill="#473A3A" transform="translate(430,679)"/>
<path d="M0 0 C6.06890175 -0.07408977 12.13754097 -0.12857359 18.20678711 -0.16479492 C20.27193791 -0.17989271 22.3370566 -0.20037274 24.40209961 -0.22631836 C27.36840739 -0.26265795 30.33429171 -0.2797163 33.30078125 -0.29296875 C34.2258699 -0.30845261 35.15095856 -0.32393646 36.1040802 -0.33988953 C36.96474594 -0.34011612 37.82541168 -0.34034271 38.7121582 -0.34057617 C39.46938675 -0.34723801 40.2266153 -0.35389984 41.00679016 -0.36076355 C43.56615844 0.10247257 44.44054204 0.95084084 46 3 C46.43359375 5.8125 46.43359375 5.8125 46.4375 9 C46.45683594 10.051875 46.47617187 11.10375 46.49609375 12.1875 C46 15 46 15 44.47265625 16.70703125 C41.10833463 18.46625788 37.62227912 19.60147247 34 20.6875 C33.2884375 20.91244141 32.576875 21.13738281 31.84375 21.36914062 C28.38165741 22.43166718 25.6529346 23 22 23 C21.875 17.25 21.875 17.25 23 15 C22.22076172 15.74056641 22.22076172 15.74056641 21.42578125 16.49609375 C20.72839844 17.13675781 20.03101563 17.77742187 19.3125 18.4375 C18.62800781 19.07558594 17.94351563 19.71367188 17.23828125 20.37109375 C14.77710578 22.16221098 12.99183426 22.62798558 10 23 C5.62984469 15.87826543 1.93863644 8.15447807 0 0 Z " fill="#483A3A" transform="translate(657,627)"/>
<path d="M0 0 C6.24795675 -0.02527124 12.49590041 -0.04283344 18.74389648 -0.05493164 C20.87118014 -0.05997298 22.99846031 -0.06680591 25.12573242 -0.07543945 C28.17627826 -0.08751379 31.22677845 -0.09323014 34.27734375 -0.09765625 C35.71327126 -0.10539818 35.71327126 -0.10539818 37.1782074 -0.11329651 C38.49946373 -0.11340981 38.49946373 -0.11340981 39.84741211 -0.11352539 C40.62684677 -0.115746 41.40628143 -0.11796661 42.20933533 -0.12025452 C44 0 44 0 45 1 C45.07313567 3.53049402 45.09247527 6.03304837 45.0625 8.5625 C45.05798828 9.27341797 45.05347656 9.98433594 45.04882812 10.71679688 C45.03700864 12.47790013 45.01907263 14.23896036 45 16 C42.62683362 16.94926655 40.25346872 17.89797832 37.87890625 18.84375 C35.98651393 19.60378816 34.09830302 20.37433704 32.21484375 21.15625 C31.33957031 21.5171875 30.46429687 21.878125 29.5625 22.25 C28.75941406 22.58515625 27.95632813 22.9203125 27.12890625 23.265625 C25 24 25 24 22 24 C22 21.69 22 19.38 22 17 C21.01 17 20.02 17 19 17 C18.71125 17.61875 18.4225 18.2375 18.125 18.875 C17 21 17 21 15 23 C12.375 23.125 12.375 23.125 10 23 C6.74276985 17.76071065 4.3576699 12.49442833 2.32421875 6.6640625 C2.0984314 6.02057861 1.87264404 5.37709473 1.64001465 4.71411133 C1.08968079 3.14401977 0.54432105 1.5721862 0 0 Z " fill="#473A3A" transform="translate(887,755)"/>
<path d="M0 0 C3.83524157 0.52899884 5.91051805 1.37893973 8.75 4 C9.43578125 4.6290625 10.1215625 5.258125 10.828125 5.90625 C13.84917481 8.81862895 16.80342265 11.79374797 19.75 14.78125 C22.5520803 17.54441252 25.48177652 20.12723701 28.46875 22.6875 C29.33646374 23.43125463 30.1918855 24.1918855 31 25 C31.08737645 26.85369611 31.10698153 28.71067541 31.09765625 30.56640625 C31.09443359 31.69111328 31.09121094 32.81582031 31.08789062 33.97460938 C31.07532227 35.75061523 31.07532227 35.75061523 31.0625 37.5625 C31.05798828 38.75037109 31.05347656 39.93824219 31.04882812 41.16210938 C31.03699675 44.10812226 31.02051287 47.05403681 31 50 C26 45 26 45 23.73974609 42.7265625 C21.2269031 40.22581125 18.6889594 37.75520677 16.13882446 35.29272461 C13.61667634 32.85106646 11.11057623 30.39319789 8.60498047 27.93457031 C7.27948692 26.6394765 5.94869278 25.34978666 4.61279297 24.06542969 C2.67819177 22.20339382 0.76344512 20.3228195 -1.1484375 18.4375 C-1.75037933 17.86652588 -2.35232117 17.29555176 -2.97250366 16.70727539 C-4.62255859 15.05859375 -4.62255859 15.05859375 -7 12 C-6.93432474 8.04871203 -5.57145282 6.04561902 -2.9375 3.1875 C-2.38964844 2.58292969 -1.84179688 1.97835937 -1.27734375 1.35546875 C-0.85582031 0.90816406 -0.43429687 0.46085938 0 0 Z " fill="#483A3A" transform="translate(901,550)"/>
<path d="M0 0 C10.24656458 -0.38747513 19.03143819 0.41954024 29 3 C29 3.66 29 4.32 29 5 C29.9590625 5.2165625 29.9590625 5.2165625 30.9375 5.4375 C33 6 33 6 34 7 C34.31240624 12.10263518 34.36553567 17.36823335 32 22 C25.86424934 24.93418351 19.70196929 25.84166526 13 26.6875 C11.55173828 26.88182617 11.55173828 26.88182617 10.07421875 27.08007812 C7.71712169 27.39513565 5.35925041 27.70157529 3 28 C0.60306492 22.29022783 0.56375535 16.72022485 0.375 10.625 C0.33632813 9.60277344 0.29765625 8.58054687 0.2578125 7.52734375 C0.16402036 5.01840403 0.07832121 2.50946236 0 0 Z " fill="#483A3A" transform="translate(549,509)"/>
<path d="M0 0 C2.70260369 0.00852556 5.40000246 0.05583453 8.1015625 0.1328125 C9.00003906 0.14957031 9.89851562 0.16632812 10.82421875 0.18359375 C18.09734979 0.54986654 23.68463511 2.78288215 30.1015625 6.1328125 C30.7615625 6.4628125 31.4215625 6.7928125 32.1015625 7.1328125 C32.6004736 13.11974569 31.30165963 17.05236633 28.1015625 22.1328125 C25.65409265 24.58028235 24.35534655 24.63545384 20.98046875 25.203125 C19.96275391 25.37714844 18.94503906 25.55117188 17.89648438 25.73046875 C16.29643555 25.99150391 16.29643555 25.99150391 14.6640625 26.2578125 C13.60123047 26.43957031 12.53839844 26.62132812 11.44335938 26.80859375 C3.57272086 28.1328125 3.57272086 28.1328125 0.1015625 28.1328125 C-0.40630796 25.13395836 -0.90490375 22.13403124 -1.3984375 19.1328125 C-1.54152344 18.29363281 -1.68460938 17.45445312 -1.83203125 16.58984375 C-2.68250994 11.36547465 -3.13911765 6.42777585 -2.8984375 1.1328125 C-1.8984375 0.1328125 -1.8984375 0.1328125 0 0 Z " fill="#483B3A" transform="translate(717.8984375,617.8671875)"/>
<path d="M0 0 C7.88884974 0.11613546 18.46136944 0.42279522 24.29174805 6.25317383 C24.58467617 9.18245508 24.602672 11.38634957 24.29174805 14.25317383 C24.18862305 15.49067383 24.08549805 16.72817383 23.97924805 18.00317383 C22.04713193 21.72428635 21.36772585 22.02905196 17.60424805 23.50317383 C-1.05335163 29.20410706 -1.05335163 29.20410706 -7.70825195 27.25317383 C-8.04721463 24.4204143 -8.3795489 21.58712721 -8.70825195 18.75317383 C-8.80364258 17.96168945 -8.8990332 17.17020508 -8.99731445 16.35473633 C-9.57908083 11.28505789 -9.8921835 6.35727414 -9.70825195 1.25317383 C-7.49272945 -0.96234867 -2.98616579 0.00469012 0 0 Z " fill="#473A3A" transform="translate(745.708251953125,817.746826171875)"/>
<path d="M0 0 C13.00338327 -0.44051612 23.37137778 0.63716897 35 7 C35.04254356 8.99954746 35.04080783 11.00041636 35 13 C34.67 13.33 34.34 13.66 34 14 C33.896875 15.11375 33.79375 16.2275 33.6875 17.375 C33 21 33 21 31.24389648 22.65356445 C28.8954882 24.06271163 27.08836388 24.64991627 24.41015625 25.16796875 C23.54326172 25.33876953 22.67636719 25.50957031 21.78320312 25.68554688 C20.88537109 25.85119141 19.98753906 26.01683594 19.0625 26.1875 C18.16853516 26.36474609 17.27457031 26.54199219 16.35351562 26.72460938 C12.15691186 27.53152873 8.28678509 28.09351087 4 28 C1.69452646 22.32349791 1.35051684 16.66640249 0.875 10.625 C0.78863281 9.60277344 0.70226562 8.58054687 0.61328125 7.52734375 C0.40227374 5.01869888 0.19805006 2.50969545 0 0 Z " fill="#483A3A" transform="translate(445,854)"/>
<path d="M0 0 C11.08088291 -0.41295216 21.99566626 0.83709121 33 2 C33.08680492 6.99128285 32.89637507 11.56993712 32 16.5 C31.7215625 18.06234375 31.7215625 18.06234375 31.4375 19.65625 C31.293125 20.4296875 31.14875 21.203125 31 22 C24.08616486 24.13120646 17.70118424 24.23698014 10.5 24.125 C9.39140625 24.11597656 8.2828125 24.10695313 7.140625 24.09765625 C4.42685408 24.07426167 1.71354455 24.04148175 -1 24 C-1.02901394 20.5625177 -1.04680335 17.12506688 -1.0625 13.6875 C-1.07087891 12.71103516 -1.07925781 11.73457031 -1.08789062 10.72851562 C-1.09111328 9.79072266 -1.09433594 8.85292969 -1.09765625 7.88671875 C-1.10551147 6.59060669 -1.10551147 6.59060669 -1.11352539 5.26831055 C-1 3 -1 3 0 0 Z " fill="#473A3A" transform="translate(754,382)"/>
<path d="M0 0 C6.53267174 -0.09938142 12.88018285 0.25510863 19.375 0.9375 C20.70724609 1.06801758 20.70724609 1.06801758 22.06640625 1.20117188 C25.56787118 1.55873448 28.64738447 1.88246149 32 3 C32.08107646 5.75059381 32.14052813 8.49879021 32.1875 11.25 C32.21263672 12.02730469 32.23777344 12.80460938 32.26367188 13.60546875 C32.30671516 16.96284509 32.2649026 19.40721097 30.8828125 22.5 C28.17752298 24.65525141 26.12102247 24.61001494 22.6875 24.75 C21.45128906 24.80542969 20.21507812 24.86085938 18.94140625 24.91796875 C12.95902041 25.04247827 6.98367444 25.08184357 1 25 C-0.27861615 22.44276771 -0.11336609 20.63262898 -0.09765625 17.7734375 C-0.09443359 16.7421875 -0.09121094 15.7109375 -0.08789062 14.6484375 C-0.07951172 13.56820312 -0.07113281 12.48796875 -0.0625 11.375 C-0.05798828 10.28703125 -0.05347656 9.1990625 -0.04882812 8.078125 C-0.03701776 5.38536211 -0.02054778 2.69270812 0 0 Z " fill="#483B3A" transform="translate(695,703)"/>
<path d="M0 0 C1.25361328 -0.01224609 2.50722656 -0.02449219 3.79882812 -0.03710938 C5.59803711 -0.04000977 5.59803711 -0.04000977 7.43359375 -0.04296875 C8.53630615 -0.04707764 9.63901855 -0.05118652 10.77514648 -0.05541992 C13.5625 0.1875 13.5625 0.1875 16.5625 2.1875 C16.99609375 4.83203125 16.99609375 4.83203125 17 8 C17.01933594 9.03769531 17.03867187 10.07539063 17.05859375 11.14453125 C16.43633653 14.96136886 15.32233422 16.50126136 12.5625 19.1875 C9.72265625 20.69921875 9.72265625 20.69921875 6.625 21.875 C5.60535156 22.27074219 4.58570313 22.66648437 3.53515625 23.07421875 C2.55417969 23.44160156 1.57320312 23.80898438 0.5625 24.1875 C-0.28441406 24.56519531 -1.13132812 24.94289063 -2.00390625 25.33203125 C-4.64569299 26.26068502 -6.66025436 26.25074392 -9.4375 26.1875 C-10.64523064 22.96554155 -11.8250077 19.73402644 -13 16.5 C-13.34224609 15.58798828 -13.68449219 14.67597656 -14.03710938 13.73632812 C-14.51567383 12.40698242 -14.51567383 12.40698242 -15.00390625 11.05078125 C-15.30240479 10.23907471 -15.60090332 9.42736816 -15.90844727 8.59106445 C-16.53040017 5.76544083 -16.30672975 3.93476491 -15.4375 1.1875 C-10.9888295 -1.03683525 -4.88528113 0.00250399 0 0 Z " fill="#473A3A" transform="translate(790.4375,338.8125)"/>
<path d="M0 0 C1.72584734 1.72584734 1.2533507 3.96209367 1.3125 6.3125 C1.36857422 7.76076172 1.36857422 7.76076172 1.42578125 9.23828125 C0.86197253 12.89527911 -0.04583573 13.78207605 -3 16 C-5.74256776 17.45943136 -8.55858583 18.64962519 -11.4375 19.8125 C-12.18837891 20.13669922 -12.93925781 20.46089844 -13.71289062 20.79492188 C-16.94711703 22.12331566 -19.37868375 23.01003472 -22.90234375 22.953125 C-25.62721205 21.7150098 -26.07031583 20.70723366 -27.125 17.9375 C-27.44210937 17.12667969 -27.75921875 16.31585937 -28.0859375 15.48046875 C-28.38757813 14.66191406 -28.68921875 13.84335937 -29 13 C-29.30164063 12.27425781 -29.60328125 11.54851563 -29.9140625 10.80078125 C-31.40968515 7.13161352 -32.58459633 3.97525506 -32 0 C-25.37573075 -6.62426925 -7.6817756 -3.62347906 0 0 Z " fill="#483A3A" transform="translate(795,790)"/>
<path d="M0 0 C0.83273437 -0.02900391 1.66546875 -0.05800781 2.5234375 -0.08789062 C6.53211305 -0.12938169 8.85294209 0.02573579 12.42578125 1.98828125 C14.79175117 4.80942774 15.02262542 6.16712906 14.9375 9.8125 C14.93943359 11.22015625 14.93943359 11.22015625 14.94140625 12.65625 C14.19350486 16.1636496 13.24959136 17.16331492 10.375 19.3125 C7.63039571 20.63512193 4.81907761 21.64314734 1.9375 22.625 C1.18662109 22.90150391 0.43574219 23.17800781 -0.33789062 23.46289062 C-7.61024216 26.00213738 -7.61024216 26.00213738 -11.625 24.3125 C-15.47198017 19.73674408 -17.57001876 12.109967 -18.625 6.3125 C-18.04253653 2.73003653 -18.04253653 2.73003653 -16.625 1.3125 C-11.08823225 0.29718243 -5.62063227 0.06586678 0 0 Z " fill="#473A3A" transform="translate(798.625,695.6875)"/>
<path d="M0 0 C0.78947021 -0.0213501 1.57894043 -0.0427002 2.39233398 -0.06469727 C8.06589306 -0.09834827 8.06589306 -0.09834827 10.21533203 1.62646484 C12.808919 4.90418307 11.93715962 9.29655645 11.5 13.25 C10.4618593 16.43363147 9.50894721 17.67345874 6.61328125 19.328125 C4.27475338 20.42188673 1.92097625 21.35404816 -0.5 22.25 C-1.30824219 22.56324219 -2.11648438 22.87648438 -2.94921875 23.19921875 C-9.9661888 25.76244252 -9.9661888 25.76244252 -13.5 24.25 C-16.38420468 21.22336546 -17.69978075 17.67699595 -19.1875 13.8125 C-19.62449219 12.70003906 -20.06148438 11.58757813 -20.51171875 10.44140625 C-21.43304952 7.46619978 -21.79634449 5.33086444 -21.5 2.25 C-17.61369045 -1.63630955 -5.40307212 0.07847796 0 0 Z " fill="#473A3A" transform="translate(470.5,725.75)"/>
<path d="M0 0 C1.03318359 -0.03738281 2.06636719 -0.07476562 3.13085938 -0.11328125 C11.68679893 -0.21206695 11.68679893 -0.21206695 15.37109375 2.5859375 C18.47956119 6.32867907 18.58756761 8.31080471 18.24609375 13.0078125 C17.55468568 15.93783553 16.37508248 17.65895384 13.86328125 19.35546875 C9.00731636 21.63088498 3.83856879 22.94345297 -1.3125 24.375 C-3.31637229 25.02993532 -5.31766595 25.69303113 -7.3125 26.375 C-8.10461929 24.47935574 -8.89617576 22.58347629 -9.6875 20.6875 C-10.12835937 19.63175781 -10.56921875 18.57601563 -11.0234375 17.48828125 C-11.66152344 15.94720703 -11.66152344 15.94720703 -12.3125 14.375 C-12.6940625 13.50875 -13.075625 12.6425 -13.46875 11.75 C-14.73704854 8.17997449 -14.44018084 5.14158475 -14.3125 1.375 C-9.62473703 -0.18758766 -4.91084927 0.0666494 0 0 Z " fill="#473A3A" transform="translate(591.3125,478.625)"/>
<path d="M0 0 C5.51820223 0.9558087 9.58858664 4.76496354 14 8 C14.94875 8.66 15.8975 9.32 16.875 10 C20.51037877 13.42153296 22.59236814 17.04336707 23.625 22 C22.73830265 26.25614727 20.59502917 29.49975337 17 32 C12.41617906 32.54854528 9.23029971 31.54411512 5.0625 29.6875 C4.02738281 29.23375 2.99226562 28.78 1.92578125 28.3125 C0.96027344 27.879375 -0.00523437 27.44625 -1 27 C-2.41546865 26.39303187 -3.83188144 25.78825083 -5.25 25.1875 C-6.1575 24.795625 -7.065 24.40375 -8 24 C-7.73103251 17.14132894 -5.36826907 11.99310941 -2.375 5.85546875 C-0.93837521 3.02624677 -0.93837521 3.02624677 0 0 Z " fill="#473A3A" transform="translate(623,392)"/>
<path d="M0 0 C0.84087158 -0.00902344 1.68174316 -0.01804687 2.5480957 -0.02734375 C3.74438599 -0.02154297 3.74438599 -0.02154297 4.96484375 -0.015625 C5.68148193 -0.01336914 6.39812012 -0.01111328 7.13647461 -0.00878906 C9.0625 0.25 9.0625 0.25 12.0625 2.25 C12.42578125 5.18359375 12.42578125 5.18359375 12.375 8.6875 C12.37113281 9.84121094 12.36726563 10.99492188 12.36328125 12.18359375 C12.0625 15.25 12.0625 15.25 10.0625 18.25 C7.41796875 19.3125 7.41796875 19.3125 4.25 20.25 C0.0846201 21.49185239 -3.24115057 22.98020052 -6.9375 25.25 C-9.5625 25.625 -9.5625 25.625 -11.9375 25.25 C-14.79776695 23.00213277 -15.57918787 20.83725361 -16.5 17.375 C-17.25993041 14.61925235 -18.0113294 12.0751409 -19.125 9.4375 C-20.06177337 6.91541785 -19.99487798 4.92028279 -19.9375 2.25 C-13.23586911 0.49219518 -6.89398252 0.03125046 0 0 Z " fill="#473A3A" transform="translate(465.9375,896.75)"/>
<path d="M0 0 C3.2265625 1.27734375 3.2265625 1.27734375 6.625 2.9375 C11.22829459 5.17586026 11.22829459 5.17586026 16 7 C16 7.66 16 8.32 16 9 C17.32 9.33 18.64 9.66 20 10 C20 10.99 20 11.98 20 13 C19.34 13 18.68 13 18 13 C17.76216797 13.92619141 17.76216797 13.92619141 17.51953125 14.87109375 C15.79195772 21.14189933 13.38825255 26.45558674 10 32 C5.04615881 30.46778726 1.76093254 27.54060574 -2.0625 24.1875 C-2.67416016 23.66607422 -3.28582031 23.14464844 -3.91601562 22.60742188 C-12.41322712 15.24929603 -12.41322712 15.24929603 -13.75 10.125 C-12.72603594 5.85848307 -10.48066489 4.14136945 -7.23828125 1.3203125 C-4.46398755 -0.31618186 -3.18333912 -0.4561062 0 0 Z " fill="#473A3A" transform="translate(710,427)"/>
<path d="M0 0 C4.48601621 -0.16614875 7.87350354 -0.19203937 12.0390625 1.5703125 C14.31529111 4.98465542 14.38988173 7.52757967 14.453125 11.5625 C13.51216585 15.29312626 11.68789065 17.76154627 8.7890625 20.1953125 C6.01083178 21.66940495 3.16071341 22.63449831 0.1640625 23.5703125 C-0.5990625 23.82941406 -1.3621875 24.08851563 -2.1484375 24.35546875 C-5.26186525 25.38781585 -7.91185892 26.1953125 -11.2109375 26.1953125 C-12.20009783 23.84492237 -13.17730431 21.49064389 -14.1484375 19.1328125 C-14.56512695 18.14764648 -14.56512695 18.14764648 -14.99023438 17.14257812 C-16.76775698 12.79514331 -17.7306633 8.87038667 -18.2109375 4.1953125 C-12.87673567 -0.41037566 -6.72995491 0.40936465 0 0 Z " fill="#473A3A" transform="translate(734.2109375,659.8046875)"/>
<path d="M0 0 C1.18529297 -0.02900391 2.37058594 -0.05800781 3.59179688 -0.08789062 C13.40881996 -0.15946735 13.40881996 -0.15946735 17.09765625 2.12890625 C19.3125 4.3125 19.3125 4.3125 20.0625 7.5625 C19.02634814 12.74325931 17.4021872 15.90680229 13.3125 19.3125 C6.98096336 22.41091155 0.45335197 24.9767653 -6.6875 24.3125 C-9.3657938 21.6342062 -10.15171442 18.57860052 -11.3125 15.0625 C-11.54195312 14.40636719 -11.77140625 13.75023437 -12.0078125 13.07421875 C-13.35622654 9.03700292 -14.03540038 5.56461578 -13.6875 1.3125 C-11.04548506 -1.32951494 -3.54943742 0.02848666 0 0 Z " fill="#483A3A" transform="translate(524.6875,932.6875)"/>
<path d="M0 0 C2.51217655 1.85982785 4.40341586 4.08801005 6.375 6.5 C9.72829462 10.80556695 9.72829462 10.80556695 14 14 C13.10333451 18.89476996 10.22351268 21.32770503 6.8125 24.75 C6.24724609 25.35199219 5.68199219 25.95398438 5.09960938 26.57421875 C0.81045881 30.90758737 0.81045881 30.90758737 -3.42578125 31.390625 C-4.70001953 31.19726562 -4.70001953 31.19726562 -6 31 C-6.37511719 30.23816406 -6.75023437 29.47632813 -7.13671875 28.69140625 C-9.58823478 23.74514847 -12.04594085 18.8671192 -14.875 14.125 C-16.83154485 10.60067003 -18.04337746 8.07865735 -17 4 C-11.68256332 -0.3721146 -6.71127667 -2.14558916 0 0 Z " fill="#483A3A" transform="translate(751,448)"/>
<path d="M0 0 C4.98930875 -0.11840862 9.21286361 0.0565255 14.0625 1.375 C15.08085938 1.65085937 16.09921875 1.92671875 17.1484375 2.2109375 C18.08945312 2.47132813 19.03046875 2.73171875 20 3 C21.13308594 3.26683594 21.13308594 3.26683594 22.2890625 3.5390625 C24.1875 4 24.1875 4 27 5 C27.91476665 7.74429996 28.19238444 9.59033094 28.25 12.4375 C28.27578125 13.19933594 28.3015625 13.96117187 28.328125 14.74609375 C27.8928596 17.73595248 27.20403649 18.91642704 25 21 C21.7421875 22.046875 21.7421875 22.046875 17.875 22.75 C16.87218994 22.93320801 16.87218994 22.93320801 15.84912109 23.12011719 C10.8077815 23.98977567 6.09568592 24.35142662 1 24 C0 23 0 23 -0.11352539 20.77514648 C-0.10828857 19.81680908 -0.10305176 18.85847168 -0.09765625 17.87109375 C-0.09443359 16.83662109 -0.09121094 15.80214844 -0.08789062 14.73632812 C-0.07951172 13.64771484 -0.07113281 12.55910156 -0.0625 11.4375 C-0.05798828 10.34501953 -0.05347656 9.25253906 -0.04882812 8.12695312 C-0.03699826 5.41791505 -0.02051543 2.70898401 0 0 Z " fill="#47393A" transform="translate(835,776)"/>
<path d="M0 0 C20.59033079 -0.60559796 20.59033079 -0.60559796 28 3 C30 5 30 5 30.375 8.25 C29.93191306 12.68086945 28.8479438 14.61325602 26 18 C19.5491438 23.0173326 11.82971905 23.32623829 4 23 C3.32035388 20.66978474 2.65625814 18.33681109 2 16 C1.80921875 15.35160156 1.6184375 14.70320312 1.421875 14.03515625 C0.0879421 9.22346973 -0.17827993 4.99183806 0 0 Z " fill="#483A3A" transform="translate(504,875)"/>
<path d="M0 0 C7.94286251 0.05205021 15.7892688 1.74225627 23.3125 4.25 C23.75117244 15.21681097 23.75117244 15.21681097 21.3125 19.25 C15.14422079 23.06089725 7.51890116 24.60972052 0.3125 24.25 C-2.6875 22.25 -2.6875 22.25 -3.63671875 18.984375 C-3.89574131 17.65871084 -4.14135511 16.33037146 -4.375 15 C-4.50455078 14.34386719 -4.63410156 13.68773437 -4.76757812 13.01171875 C-5.51174036 9.05072823 -5.91326145 5.2770962 -5.6875 1.25 C-4.05315539 -0.38434461 -2.25689987 0.03953693 0 0 Z " fill="#473A3A" transform="translate(837.6875,315.75)"/>
<path d="M0 0 C4.89484102 0.04759975 9.62462015 0.8019571 14.4375 1.625 C15.57445312 1.81400879 15.57445312 1.81400879 16.734375 2.00683594 C22.25381606 3.00381606 22.25381606 3.00381606 24.5 5.25 C24.51171875 7.7109375 24.51171875 7.7109375 24.1875 10.625 C24.08824219 11.58148437 23.98898437 12.53796875 23.88671875 13.5234375 C23.55934408 15.83159427 23.12199296 18.0065724 22.5 20.25 C6.75512528 25.02676538 6.75512528 25.02676538 -0.5 23.25 C-2.29671367 15.93884438 -3.99826994 8.77595086 -4.5 1.25 C-3.5 0.25 -3.5 0.25 0 0 Z " fill="#473A3A" transform="translate(777.5,637.75)"/>
<path d="M0 0 C3.026181 0.91866209 5.15248544 1.87785811 7.6796875 3.7421875 C10.17228405 5.55012234 12.77201845 7.16816127 15.375 8.8125 C16.34179688 9.42609375 17.30859375 10.0396875 18.3046875 10.671875 C19.02914062 11.13078125 19.75359375 11.5896875 20.5 12.0625 C19.07268007 14.99096676 17.63071088 17.57667063 15.5 20.0625 C14.84 20.0625 14.18 20.0625 13.5 20.0625 C13.29375 20.59875 13.0875 21.135 12.875 21.6875 C10.9943538 24.93588889 8.66192322 27.98228735 5.5 30.0625 C1.89522565 29.61009358 1.47610769 29.03373247 -1.0078125 26.04296875 C-1.89146331 24.78648629 -2.7635124 23.52178066 -3.625 22.25 C-4.06714844 21.62029297 -4.50929688 20.99058594 -4.96484375 20.34179688 C-10.5 12.37351303 -10.5 12.37351303 -10.5 8.125 C-8.75717367 2.78759435 -5.65481941 0.10097892 0 0 Z " fill="#483A3A" transform="translate(803.5,533.9375)"/>
<path d="M0 0 C3.24992446 -0.05819424 6.49971435 -0.09366116 9.75 -0.125 C10.67039062 -0.14175781 11.59078125 -0.15851562 12.5390625 -0.17578125 C13.42851563 -0.18222656 14.31796875 -0.18867187 15.234375 -0.1953125 C16.05131836 -0.20578613 16.86826172 -0.21625977 17.70996094 -0.22705078 C20.28593115 0.02834925 21.84459355 0.57232403 24 2 C26.17878722 7.33802868 26.23302133 12.2909775 26 18 C21.50320868 20.37566334 16.98267 22.50734231 12.25 24.375 C10.89648438 24.91253906 10.89648438 24.91253906 9.515625 25.4609375 C7 26 7 26 4.78125 25.6484375 C1.77270522 22.86421404 1.77876989 19.18155962 1.25 15.25 C1.12496094 14.45078125 0.99992188 13.6515625 0.87109375 12.828125 C0.22596151 8.51779093 -0.14096167 4.36981163 0 0 Z " fill="#473A3A" transform="translate(678,887)"/>
<path d="M0 0 C20.90909091 0.90909091 20.90909091 0.90909091 27 7 C27.3359375 9.2421875 27.3359375 9.2421875 27.375 11.875 C27.40335938 12.73867188 27.43171875 13.60234375 27.4609375 14.4921875 C26.82170406 17.97005081 25.89417657 18.95757647 23 21 C20.05960303 21.89828979 17.10420894 22.33466625 14.0625 22.75 C13.26392578 22.87503906 12.46535156 23.00007812 11.64257812 23.12890625 C7.65723989 23.72984375 4.06884116 24 0 24 C0 16.08 0 8.16 0 0 Z " fill="#483A3A" transform="translate(606,648)"/>
<path d="M0 0 C0.98068214 3.24954466 1.95928012 6.49971335 2.9375 9.75 C3.21529297 10.67039062 3.49308594 11.59078125 3.77929688 12.5390625 C4.04677734 13.42851562 4.31425781 14.31796875 4.58984375 15.234375 C4.83597412 16.05131836 5.08210449 16.86826172 5.33569336 17.70996094 C7.04030799 23.58621423 8.86883459 30.37027794 5.91796875 36.1015625 C4.67608754 37.78364945 3.34175064 39.39644436 2 41 C1.67 41.99 1.34 42.98 1 44 C0.01 44 -0.98 44 -2 44 C-10.47321084 21.64699529 -10.47321084 21.64699529 -12 14 C-12.16113281 13.26523437 -12.32226562 12.53046875 -12.48828125 11.7734375 C-12.75 9.6875 -12.75 9.6875 -12 6 C-8.50295204 2.66028344 -4.92130236 0 0 0 Z " fill="#46393A" transform="translate(656,368)"/>
<path d="M0 0 C0.80373047 -0.020625 1.60746094 -0.04125 2.43554688 -0.0625 C7.47133863 -0.09544058 10.96633958 0.41435347 15.3125 3.25 C17.20638939 7.71416786 16.39645635 13.44583132 16.3125 18.25 C9.24173365 21.49226342 3.11576294 23.85983685 -4.6875 24.25 C-9.42644866 17.57239052 -10.45822877 9.27991835 -9.6875 1.25 C-7.5503635 -0.8871365 -2.94862869 0.01847222 0 0 Z " fill="#47393A" transform="translate(736.6875,885.75)"/>
<path d="M0 0 C20.58502055 -0.28634495 20.58502055 -0.28634495 24.0625 2.875 C25.49274892 7.64249641 25.89082503 12.08142759 25 17 C22.75148061 19.43589601 21.97095266 19.92015189 19 21 C18.03320312 21.36738281 17.06640625 21.73476563 16.0703125 22.11328125 C11.52668178 23.72965844 7.85531963 25 3 25 C2.29653406 21.77409978 1.61509298 18.54392527 0.9375 15.3125 C0.73833984 14.40048828 0.53917969 13.48847656 0.33398438 12.54882812 C0.15029297 11.66259766 -0.03339844 10.77636719 -0.22265625 9.86328125 C-0.39547119 9.05157471 -0.56828613 8.23986816 -0.74633789 7.40356445 C-1.0295819 4.71969793 -0.65100431 2.60604529 0 0 Z " fill="#483A3A" transform="translate(517,549)"/>
<path d="M0 0 C3.60509105 0.0807876 7.20847921 0.19363684 10.8125 0.3125 C12.34874023 0.34633789 12.34874023 0.34633789 13.91601562 0.38085938 C14.89892578 0.41630859 15.88183594 0.45175781 16.89453125 0.48828125 C17.80050049 0.51446533 18.70646973 0.54064941 19.63989258 0.56762695 C22.42163707 1.07724416 23.33579082 1.74557905 25 4 C25.8994388 9.26171699 26.01296049 14.29967346 23.25 18.9375 C11.43076501 26.43816836 11.43076501 26.43816836 5.125 25.6328125 C4.42375 25.42398438 3.7225 25.21515625 3 25 C1.25529999 16.58139896 -0.0532479 8.60841095 0 0 Z " fill="#483A3A" transform="translate(704,857)"/>
<path d="M0 0 C0.98484375 -0.00128906 1.9696875 -0.00257813 2.984375 -0.00390625 C4.02078125 -0.00003906 5.0571875 0.00382813 6.125 0.0078125 C7.67960937 0.00201172 7.67960937 0.00201172 9.265625 -0.00390625 C10.25046875 -0.00261719 11.2353125 -0.00132812 12.25 0 C13.16007812 0.00112793 14.07015625 0.00225586 15.0078125 0.00341797 C17.125 0.1328125 17.125 0.1328125 18.125 1.1328125 C18.85734907 5.03867423 19.25586103 8.91270354 19.4375 12.8828125 C19.47488281 13.62015625 19.51226563 14.3575 19.55078125 15.1171875 C19.125 17.1328125 19.125 17.1328125 17.578125 18.7265625 C14.37830894 20.56085196 11.05313784 21.74507326 7.5625 22.8828125 C6.89025391 23.11613281 6.21800781 23.34945312 5.52539062 23.58984375 C0.49826173 25.25723308 0.49826173 25.25723308 -2.875 24.1328125 C-3.38312114 21.61337854 -3.88164534 19.09264377 -4.375 16.5703125 C-4.51808594 15.86583984 -4.66117187 15.16136719 -4.80859375 14.43554688 C-5.67753908 9.94599602 -6.11167979 5.73031738 -5.875 1.1328125 C-4.22105883 -0.52112867 -2.27184587 0.00281567 0 0 Z " fill="#483A3A" transform="translate(497.875,578.8671875)"/>
<path d="M0 0 C18.40494297 -0.35931559 18.40494297 -0.35931559 23.625 2.375 C25.907377 6.73226518 26.38743473 11.11981248 26 16 C22.55720859 20.97292092 14.7100465 22.61841861 9 24 C5.68359375 24.171875 5.68359375 24.171875 3 24 C1.35696827 22.35696827 1.68137147 20.31992705 1.5 18.0625 C1.24785057 14.39442535 1.24785057 14.39442535 0 11 C-0.07033769 9.12620395 -0.0843022 7.24998898 -0.0625 5.375 C-0.05347656 4.37210938 -0.04445313 3.36921875 -0.03515625 2.3359375 C-0.02355469 1.56507813 -0.01195312 0.79421875 0 0 Z " fill="#473A3A" transform="translate(687,573)"/>
<path d="M0 0 C14.60903657 0.18918177 14.60903657 0.18918177 18.41015625 3.95703125 C20.56700346 7.91703047 20.33586416 11.81568539 19.625 16.1875 C16.42932197 21.43754249 11.14234861 22.72124319 5.5625 24.5859375 C2.50473614 25.2121285 0.60105895 25.02998728 -2.375 24.1875 C-4.32630852 19.19374309 -4.81453846 14.66334341 -5.0625 9.375 C-5.10955078 8.59962891 -5.15660156 7.82425781 -5.20507812 7.02539062 C-5.30882729 5.08136944 -5.34758317 3.13409461 -5.375 1.1875 C-3.79102341 -0.39647659 -2.19474403 0.01730871 0 0 Z " fill="#483A3A" transform="translate(719.375,929.8125)"/>
<path d="M0 0 C0.75990234 -0.02900391 1.51980469 -0.05800781 2.30273438 -0.08789062 C6.29027719 -0.13292803 8.21520488 0.0122862 11.66796875 2.20703125 C14.43877669 5.09574591 14.87659271 6.7774375 15 10.6875 C15.03738281 11.45835937 15.07476563 12.22921875 15.11328125 13.0234375 C14.51803911 16.22354661 13.18932797 17.27897372 10.6875 19.3125 C8.1015625 20.796875 8.1015625 20.796875 5.3125 22.0625 C4.39726563 22.49046875 3.48203125 22.9184375 2.5390625 23.359375 C-0.57256254 24.39942501 -3.05384466 24.48552595 -6.3125 24.3125 C-9.90352002 16.66206604 -10.48345569 9.68932902 -10.3125 1.3125 C-7.07124994 -0.30812503 -3.55800138 0.04458648 0 0 Z " fill="#473A3A" transform="translate(551.3125,577.6875)"/>
<path d="M0 0 C1.95292969 -0.02126953 1.95292969 -0.02126953 3.9453125 -0.04296875 C13.18651003 0.49901003 13.18651003 0.49901003 15.875 3.1875 C15.94813567 5.71799402 15.96747527 8.22054837 15.9375 10.75 C15.93298828 11.46091797 15.92847656 12.17183594 15.92382812 12.90429688 C15.91200864 14.66540013 15.89407263 16.42646036 15.875 18.1875 C13.48324639 19.19835436 11.08738415 20.19629203 8.6875 21.1875 C8.01396484 21.47367188 7.34042969 21.75984375 6.64648438 22.0546875 C2.92506206 23.57956299 -0.08971408 24.56360432 -4.125 24.1875 C-7.12590099 16.62001056 -8.08025029 9.33194705 -8.125 1.1875 C-6.17105013 -0.76644987 -2.58007879 0.01262269 0 0 Z " fill="#473A3A" transform="translate(535.125,621.8125)"/>
<path d="M0 0 C2.743125 -0.04125 5.48625 -0.0825 8.3125 -0.125 C9.60281128 -0.15231201 9.60281128 -0.15231201 10.91918945 -0.18017578 C11.60198975 -0.1851709 12.28479004 -0.19016602 12.98828125 -0.1953125 C13.68477783 -0.20578613 14.38127441 -0.21625977 15.09887695 -0.22705078 C17 0 17 0 20 2 C21.311212 5.32673215 21.10092408 8.71498461 21.0625 12.25 C21.05347656 13.32765625 21.04445313 14.4053125 21.03515625 15.515625 C21.02355469 16.33546875 21.01195312 17.1553125 21 18 C19.43880578 18.79423861 17.87598036 19.58527123 16.3125 20.375 C15.44238281 20.81585937 14.57226562 21.25671875 13.67578125 21.7109375 C9.48172271 23.73143285 6.72371086 25 2 25 C1.34 16.75 0.68 8.5 0 0 Z " fill="#473A3A" transform="translate(421,809)"/>
<path d="M0 0 C0.99 0 1.98 0 3 0 C3 0.66 3 1.32 3 2 C4.27875 2.226875 5.5575 2.45375 6.875 2.6875 C12.38668828 3.88797901 17.07825159 6.30793719 22 9 C22.35099077 12.77315072 22.36755366 14.48542488 20.125 17.625 C19.073125 18.800625 19.073125 18.800625 18 20 C17.34 21.32 16.68 22.64 16 24 C10.39 24 4.78 24 -1 24 C-1.0793016 15.91123663 -1.03555846 8.02557807 0 0 Z " fill="#45383A" transform="translate(421,734)"/>
<path d="M0 0 C5.28 0 10.56 0 16 0 C16.08063171 3.62544051 16.14032292 7.24910455 16.1875 10.875 C16.21263672 11.90753906 16.23777344 12.94007813 16.26367188 14.00390625 C16.27333984 14.99003906 16.28300781 15.97617187 16.29296875 16.9921875 C16.3086792 17.90339355 16.32438965 18.81459961 16.34057617 19.75341797 C16.22818604 20.49479004 16.1157959 21.23616211 16 22 C11.95807022 24.69461986 9.7948504 24.23200889 5 24 C2.95471342 21.95471342 3.00448609 18.17714554 2.5 15.375 C2.36980469 14.67503906 2.23960937 13.97507812 2.10546875 13.25390625 C1.2948738 8.84066705 0.6357549 4.45028428 0 0 Z " fill="#473A3A" transform="translate(916,701)"/>
<path d="M0 0 C2.24973447 -0.054138 4.49984383 -0.09285491 6.75 -0.125 C8.00296875 -0.14820313 9.2559375 -0.17140625 10.546875 -0.1953125 C15.79981291 0.10179937 15.79981291 0.10179937 18 2 C18.609375 4.8203125 18.609375 4.8203125 18.75 8.125 C18.80671875 9.22070312 18.8634375 10.31640625 18.921875 11.4453125 C18.94765625 12.28835938 18.9734375 13.13140625 19 14 C13.4590134 16.52958084 7.85659906 18.33846988 2 20 C0.2120463 13.1834265 -0.23668569 7.03482474 0 0 Z " fill="#473A3A" transform="translate(424,711)"/>
<path d="M0 0 C4.42649597 1.42548175 7.90459739 3.52472959 11.6875 6.1875 C11.16265308 10.74450425 9.37242697 13.380374 6.625 17 C5.89152344 17.97582031 5.15804687 18.95164062 4.40234375 19.95703125 C3.83644531 20.69308594 3.27054688 21.42914063 2.6875 22.1875 C-0.88032871 21.63147475 -2.23479114 20.50143174 -4.4375 17.6875 C-6.51137681 14.9994616 -6.51137681 14.9994616 -9.3125 13.1875 C-9.06918295 9.13221589 -8.55621334 5.99593241 -6.1875 2.6875 C-3.3125 0.1875 -3.3125 0.1875 0 0 Z " fill="#473A3A" transform="translate(723.3125,465.8125)"/>
<path d="M0 0 C0.36707587 5.50613806 0.36707587 5.50613806 -1.1875 7.59765625 C-8.80379858 13.49043898 -21.74294971 12.65932175 -31 13 C-31.33 11.02 -31.66 9.04 -32 7 C-25.22222677 4.50292565 -18.43486949 2.9907092 -11.35546875 1.6484375 C-9.49319394 1.28855669 -7.63357529 0.90237352 -5.80078125 0.4140625 C-4 0 -4 0 0 0 Z " fill="#45383A" transform="translate(807,311)"/>
<path d="M0 0 C1.98 0 3.96 0 6 0 C6 8.25 6 16.5 6 25 C4.35 25 2.7 25 1 25 C-1.5080113 22.4919887 -0.48799092 15.88895981 -0.625 12.5 C-0.6765625 11.41589844 -0.728125 10.33179688 -0.78125 9.21484375 C-0.82507813 8.18488281 -0.86890625 7.15492188 -0.9140625 6.09375 C-0.9548291 5.14177734 -0.9955957 4.18980469 -1.03759766 3.20898438 C-1 1 -1 1 0 0 Z " fill="#483A3A" transform="translate(926,831)"/>
<path d="M0 0 C5.875 0.875 5.875 0.875 7 2 C7.07271741 4.35313555 7.08370868 6.70833668 7.0625 9.0625 C7.05347656 10.35285156 7.04445313 11.64320313 7.03515625 12.97265625 C7.02355469 13.97167969 7.01195312 14.97070312 7 16 C6.34 16 5.68 16 5 16 C4.15488176 14.27656245 3.32436646 12.54595947 2.5 10.8125 C2.0359375 9.84957031 1.571875 8.88664063 1.09375 7.89453125 C0.00407079 5.01077307 -0.22277524 3.04645139 0 0 Z " fill="#41363B" transform="translate(451,941)"/>
<path d="M0 0 C4 1 4 1 6 4 C6.23046875 5.9375 6.23046875 5.9375 6.1875 8 C6.18105469 8.680625 6.17460937 9.36125 6.16796875 10.0625 C6 12 6 12 5 15 C4.34 15 3.68 15 3 15 C2.01 10.05 1.02 5.1 0 0 Z " fill="#40353B" transform="translate(428,864)"/>
<path d="M0 0 C-0.33 2.64 -0.66 5.28 -1 8 C-0.01 8.33 0.98 8.66 2 9 C0.35 9.33 -1.3 9.66 -3 10 C-3 8.02 -3 6.04 -3 4 C-3.99 4.99 -4.98 5.98 -6 7 C-6.66 6.67 -7.32 6.34 -8 6 C-7.0479279 4.99403703 -6.08812654 3.99538437 -5.125 3 C-4.59132813 2.443125 -4.05765625 1.88625 -3.5078125 1.3125 C-2 0 -2 0 0 0 Z " fill="#231E40" transform="translate(680,642)"/>
<path d="M0 0 C2.625 0.1875 2.625 0.1875 5 1 C5.33 1.66 5.66 2.32 6 3 C3.03 3 0.06 3 -3 3 C-2.01 2.01 -1.02 1.02 0 0 Z " fill="#3D323C" transform="translate(703,976)"/>
<path d="M0 0 C1.32 0.33 2.64 0.66 4 1 C0.04 4.465 0.04 4.465 -4 8 C-4.66 7.67 -5.32 7.34 -6 7 C-4.02 4.69 -2.04 2.38 0 0 Z " fill="#3C313C" transform="translate(901,550)"/>
</svg>
