<?xml version="1.0" encoding="UTF-8"?>
<svg version="1.1" xmlns="http://www.w3.org/2000/svg" width="932" height="979">
<path d="M0 0 C307.56 0 615.12 0 932 0 C932 323.07 932 646.14 932 979 C624.44 979 316.88 979 0 979 C0 655.93 0 332.86 0 0 Z " fill="#FDFDFD" transform="translate(0,0)"/>
<path d="M0 0 C5.70891351 0.4448504 10.59208189 2.10950732 15.875 4.25 C16.64585937 4.53746094 17.41671875 4.82492187 18.2109375 5.12109375 C23.67522992 7.32412714 23.67522992 7.32412714 25.15625 10.40625 C24.96680961 13.55096056 24.12343761 15.48492728 22.625 18.25 C22.16351562 19.12140625 21.70203125 19.9928125 21.2265625 20.890625 C20 23 20 23 19 24 C16.19822034 24.10027422 13.42650888 24.13873289 10.625 24.125 C9.84382812 24.12886719 9.06265625 24.13273438 8.2578125 24.13671875 C4.9234054 24.13100915 2.18393014 24.06131005 -1 23 C-2.13514087 15.55852095 -2.00040288 8.46967487 -1 1 C-0.67 0.67 -0.34 0.34 0 0 Z " fill="#EFEFEF" transform="translate(801,731)"/>
<path d="M0 0 C5.23115393 -0.21544006 9.43785303 0.47629807 14.4375 2 C15.67371094 2.37125 16.90992188 2.7425 18.18359375 3.125 C19.11300781 3.41375 20.04242187 3.7025 21 4 C21.43188288 15.92476617 21.43188288 15.92476617 19 21 C12.72202627 24.13898687 4.89654735 23.63652039 -2 24 C-2.05819424 20.75007554 -2.09366116 17.50028565 -2.125 14.25 C-2.14175781 13.32960938 -2.15851562 12.40921875 -2.17578125 11.4609375 C-2.18222656 10.57148437 -2.18867187 9.68203125 -2.1953125 8.765625 C-2.20578613 7.94868164 -2.21625977 7.13173828 -2.22705078 6.29003906 C-1.97829916 3.78112482 -1.25700129 2.16604375 0 0 Z " fill="#EFEFEF" transform="translate(552,615)"/>
<path d="M0 0 C2.98270792 0.77871682 5.96040495 1.57511635 8.9375 2.375 C9.78763672 2.59671875 10.63777344 2.8184375 11.51367188 3.046875 C12.72700195 3.37558594 12.72700195 3.37558594 13.96484375 3.7109375 C14.7137085 3.90993652 15.46257324 4.10893555 16.23413086 4.31396484 C18 5 18 5 19 7 C19.38367844 12.65925706 19.49202892 17.281042 16 22 C9.79356462 23.89220591 3.44872001 24.08780405 -3 24 C-4.36501162 19.90496515 -3.97165894 16.27197224 -3.75 12 C-3.70939453 10.77023437 -3.70939453 10.77023437 -3.66796875 9.515625 C-3.62800781 8.72671875 -3.58804688 7.9378125 -3.546875 7.125 C-3.51432617 6.40570312 -3.48177734 5.68640625 -3.44824219 4.9453125 C-2.89078852 2.52603644 -1.86615401 1.58144431 0 0 Z " fill="#EFEFEF" transform="translate(577,662)"/>
<path d="M0 0 C13.93548387 0.93548387 13.93548387 0.93548387 18 5 C18.47713492 10.27067643 18.25177863 15.14089875 16 20 C10.34406272 23.77062485 3.58289369 23.13434477 -3 23 C-2.22095672 7.25512528 -2.22095672 7.25512528 0 0 Z " fill="#EFEFEF" transform="translate(436,813)"/>
<path d="M0 0 C1.43791516 0.14168137 2.8753237 0.28851043 4.3125 0.4375 C5.11300781 0.51871094 5.91351562 0.59992187 6.73828125 0.68359375 C9 1 9 1 12 2 C12 8.93 12 15.86 12 23 C1.375 24.25 1.375 24.25 -2 22 C-2.26464844 19.96875 -2.26464844 19.96875 -2.109375 17.5 C-2.05910156 16.613125 -2.00882813 15.72625 -1.95703125 14.8125 C-1.88871094 13.884375 -1.82039062 12.95625 -1.75 12 C-1.69714844 11.071875 -1.64429688 10.14375 -1.58984375 9.1875 C-1.16071429 2.32142857 -1.16071429 2.32142857 0 0 Z " fill="#F0F0F0" transform="translate(920,821)"/>
<path d="M0 0 C0.90363281 -0.00128906 1.80726563 -0.00257813 2.73828125 -0.00390625 C4.16720703 0.00189453 4.16720703 0.00189453 5.625 0.0078125 C6.54667969 0.00394531 7.46835937 0.00007813 8.41796875 -0.00390625 C14.23244811 0.00429471 19.85817091 0.38832432 25.625 1.1328125 C25.3125 3.5078125 25.3125 3.5078125 24.625 6.1328125 C21.44026381 8.25596996 20.60465353 8.3884529 16.94921875 8.3984375 C15.58313477 8.40230469 15.58313477 8.40230469 14.18945312 8.40625 C13.24005859 8.39851563 12.29066406 8.39078125 11.3125 8.3828125 C9.90581055 8.39441406 9.90581055 8.39441406 8.47070312 8.40625 C3.45920853 8.39212317 -0.68195231 8.11379745 -5.375 6.1328125 C-5.417721 4.46669345 -5.41563832 2.79898365 -5.375 1.1328125 C-3.79452808 -0.44765942 -2.18957913 0.0030219 0 0 Z " fill="#EFEFEF" transform="translate(877.375,432.8671875)"/>
<path d="M0 0 C1.485 0.99 1.485 0.99 3 2 C3.36328125 4.27734375 3.36328125 4.27734375 3.3125 6.9375 C3.30863281 7.81277344 3.30476563 8.68804688 3.30078125 9.58984375 C3 12 3 12 1 15 C0.34 15 -0.32 15 -1 15 C-1.02685412 12.68756208 -1.04632841 10.3750373 -1.0625 8.0625 C-1.07410156 6.77472656 -1.08570313 5.48695313 -1.09765625 4.16015625 C-1 1 -1 1 0 0 Z " fill="#F1F1F1" transform="translate(431,865)"/>
</svg>
